<svg width="649" height="595" viewBox="0 0 649 595" fill="none" xmlns="http://www.w3.org/2000/svg">
<g opacity="0.7">
<g style="mix-blend-mode:luminosity" opacity="0.6">
<path d="M325.053 372.82C307.62 372.799 290.734 366.728 277.271 355.64C263.807 344.551 254.6 329.133 251.216 312.01C247.833 294.887 250.484 277.119 258.716 261.733C266.949 246.347 280.254 234.295 296.365 227.63C312.477 220.965 330.398 220.099 347.076 225.179C363.753 230.26 378.156 240.973 387.83 255.494C397.504 270.014 401.851 287.444 400.13 304.814C398.409 322.183 390.727 338.418 378.393 350.753C371.393 357.77 363.077 363.331 353.923 367.118C344.769 370.905 334.957 372.843 325.053 372.82V372.82ZM325.053 222.987C307.864 222.995 291.211 228.97 277.929 239.894C264.647 250.819 255.559 266.016 252.214 282.897C248.868 299.778 251.472 317.299 259.581 332.473C267.691 347.648 280.804 359.537 296.687 366.116C312.57 372.695 330.239 373.557 346.685 368.553C363.131 363.55 377.336 352.992 386.879 338.678C396.422 324.364 400.713 307.18 399.021 290.053C397.329 272.926 389.758 256.917 377.599 244.753C370.704 237.837 362.512 232.355 353.495 228.62C344.477 224.884 334.811 222.97 325.053 222.987V222.987Z" fill="#D4CEFF"/>
</g>
<g style="mix-blend-mode:luminosity" opacity="0.6">
<path d="M345.695 413.491L333.211 344.701L333.737 344.604C343.315 342.861 352.131 338.221 358.995 331.309C362.428 327.876 365.323 323.944 367.583 319.647L367.83 319.174L429.587 351.698L429.329 352.171C421.012 368.019 409.206 381.766 394.803 392.372C380.399 402.979 363.776 410.167 346.189 413.394L345.695 413.491ZM334.456 345.582L346.554 412.222C363.779 408.982 380.056 401.903 394.178 391.51C408.3 381.116 419.907 367.675 428.137 352.182L368.292 320.646C366.021 324.859 363.15 328.719 359.768 332.104C352.871 339.036 344.052 343.732 334.456 345.582V345.582ZM247.312 385.975L246.915 385.62C245.155 384.062 243.416 382.396 241.752 380.751C230.815 369.801 222.139 356.801 216.22 342.494C210.301 328.186 207.254 312.852 207.254 297.365C207.254 281.879 210.301 266.544 216.22 252.237C222.139 237.929 230.815 224.929 241.752 213.979C245.102 210.623 248.651 207.471 252.379 204.542L252.808 204.209L295.887 259.176L295.457 259.509C290.106 263.703 285.705 268.987 282.545 275.011C279.384 281.035 277.537 287.662 277.125 294.454C276.713 301.245 277.746 308.047 280.155 314.41C282.564 320.773 286.294 326.551 291.099 331.362C291.786 332.039 292.494 332.717 293.246 333.351L293.589 333.759L247.312 385.975ZM252.68 205.724C238.872 216.669 227.715 230.598 220.043 246.469C212.372 262.34 208.384 279.743 208.378 297.376C208.333 312.72 211.327 327.921 217.186 342.099C223.046 356.277 231.654 369.151 242.514 379.977C244.038 381.493 245.616 382.998 247.226 384.438L292.097 333.759C291.496 333.222 290.916 332.684 290.347 332.093C281.142 322.875 275.971 310.374 275.971 297.338C275.971 284.303 281.142 271.801 290.347 262.583C291.631 261.309 292.978 260.1 294.384 258.961L252.68 205.724ZM369.118 278.147L368.904 277.663C365.897 271.007 361.421 265.121 355.813 260.447C350.205 255.774 343.611 252.436 336.528 250.685L336.013 250.556L352.662 182.712L353.188 182.841C370.539 187.134 386.691 195.316 400.425 206.768C414.159 218.22 425.117 232.645 432.474 248.954L432.689 249.449L369.118 278.147ZM337.354 249.771C344.384 251.605 350.921 254.973 356.498 259.634C362.074 264.294 366.553 270.132 369.612 276.728L431.272 248.911C423.994 232.948 413.225 218.827 399.761 207.593C386.298 196.359 370.483 188.3 353.489 184.013L337.354 249.771Z" fill="#D4CEFF"/>
</g>
<g style="mix-blend-mode:luminosity" opacity="0.6">
<path d="M326.748 366.133L326.555 358.609L327.628 358.609L327.929 366.133L326.748 366.133ZM322.207 366.133L321.069 366.004L321.499 358.481L322.508 358.534L322.207 366.133ZM332.405 365.8L331.6 358.276L332.609 358.158L333.532 365.682L332.405 365.8ZM316.55 365.671L315.477 365.521L316.55 358.072L317.548 358.201L316.55 365.671ZM338.019 364.962L336.613 357.567L337.601 357.373L339.125 364.736L338.019 364.962ZM310.957 364.736L309.884 364.489L311.548 357.158L312.525 357.373L310.957 364.736ZM343.548 363.661L341.53 356.331L342.506 356.051L344.653 363.264L343.548 363.661ZM305.45 363.35L304.377 363.016L306.631 355.836L307.597 356.137L305.45 363.35ZM348.947 361.909L346.339 354.858L347.283 354.493L350.01 361.512L348.947 361.909ZM300.083 361.512L299.01 361.082L301.854 354.117L302.788 354.493L300.083 361.512ZM354.196 359.717L350.976 352.902L351.899 352.461L355.195 359.222L354.196 359.717ZM294.888 359.222L293.814 358.717L297.281 352.031L298.183 352.472L294.888 359.222ZM359.231 357.072L355.495 350.548L356.365 350.032L360.219 356.481L359.231 357.072ZM289.896 356.503L288.93 355.912L292.88 349.463L293.739 349.979L289.896 356.503ZM364.029 354.031L359.736 347.84L360.562 347.259L364.942 353.375L364.029 354.031ZM285.151 353.397L284.228 352.719L288.704 346.657L289.52 347.248L285.151 353.397ZM368.57 350.602L363.804 344.798L364.588 344.142L369.45 349.882L368.57 350.602ZM280.707 349.882L279.848 349.14L284.765 343.433L285.538 344.099L280.707 349.882ZM372.843 346.797L367.615 341.423C367.862 341.197 368.098 340.95 368.334 340.713L373.776 345.916L373.637 346.055L372.843 346.797ZM276.531 346.034L275.758 345.26L281.126 340.015C281.351 340.251 281.577 340.488 281.813 340.713L276.531 346.034ZM376.857 342.573L371.2 337.629L371.855 336.855L377.598 341.713L376.857 342.573ZM272.731 341.853L272.001 340.982L277.809 336.199L278.453 336.984L272.731 341.853ZM380.453 338.145L374.41 333.673L375 332.867L381.119 337.22C380.829 337.532 380.604 337.833 380.378 338.145L380.453 338.145ZM269.232 337.371L268.577 336.436L274.76 332.136L275.34 332.964L269.232 337.371ZM383.631 333.437L377.19 329.492L377.716 328.632L384.157 332.469L383.631 333.437ZM266.119 332.609L265.464 331.61L271.98 327.858L272.495 328.729L266.119 332.609ZM386.347 328.482L379.648 325.075L380.099 324.172L386.851 327.471C386.669 327.805 386.497 328.149 386.325 328.482L386.347 328.482ZM263.349 327.611L262.866 326.59L269.661 323.366C269.811 323.666 269.951 323.978 270.101 324.279L263.349 327.611ZM388.708 323.312L381.742 320.485C381.87 320.173 381.988 319.862 382.117 319.539L389.127 322.258L388.708 323.312ZM261.073 322.409C260.934 322.054 260.794 321.7 260.666 321.334L267.686 318.711C267.804 319.023 267.922 319.335 268.051 319.657L261.073 322.409ZM390.619 317.97L383.448 315.723C383.556 315.401 383.652 315.079 383.749 314.756L390.952 316.906C390.823 317.25 390.716 317.637 390.598 317.97L390.619 317.97ZM259.238 317.024C259.13 316.659 259.023 316.293 258.927 315.949L266.162 313.928C266.248 314.251 266.344 314.573 266.441 314.896L259.238 317.024ZM392.101 312.488L384.769 310.833C384.844 310.5 384.919 310.177 384.983 309.844L392.337 311.37C392.229 311.747 392.154 312.112 392.068 312.488L392.101 312.488ZM257.821 311.51C257.735 311.145 257.66 310.768 257.595 310.435L264.97 309.006C265.035 309.339 265.099 309.672 265.174 310.005L257.821 311.51ZM393.077 306.888L385.638 305.813L385.767 304.803L393.228 305.727C393.185 306.136 393.131 306.512 393.077 306.888ZM256.887 305.899C256.887 305.523 256.79 305.147 256.747 304.771L264.262 303.965C264.262 304.309 264.337 304.642 264.38 304.975L256.887 305.899ZM393.636 301.235L386.121 300.815C386.121 300.482 386.121 300.138 386.121 299.805L393.636 300.106C393.668 300.439 393.657 300.858 393.636 301.235ZM256.415 300.235C256.415 299.859 256.415 299.483 256.415 299.16L263.929 298.977L263.929 299.988L256.415 300.235ZM386.207 295.753C386.207 295.42 386.207 295.076 386.207 294.743L393.721 294.42C393.721 294.796 393.721 295.173 393.721 295.559L386.207 295.753ZM263.918 294.872L256.404 294.56C256.404 294.184 256.404 293.807 256.458 293.421L263.972 293.85C263.95 294.194 263.94 294.528 263.918 294.872V294.872ZM385.907 290.701C385.907 290.368 385.831 290.035 385.789 289.691L393.303 288.756L393.432 289.884L385.907 290.701ZM264.38 289.82L256.919 288.895C256.919 288.519 257.016 288.143 257.069 287.767L264.509 288.842L264.38 289.82ZM385.155 285.692C385.091 285.359 385.026 285.037 384.951 284.704L392.304 283.156C392.39 283.521 392.455 283.897 392.53 284.231L385.155 285.692ZM265.206 284.822L257.842 283.296C257.917 282.919 258.003 282.554 258.089 282.221L265.41 283.876C265.303 284.166 265.228 284.499 265.163 284.822L265.206 284.822ZM383.985 280.77C383.899 280.436 383.803 280.114 383.706 279.792L390.909 277.642L391.231 278.717L383.985 280.77ZM266.43 279.921L259.227 277.771C259.334 277.405 259.453 277.051 259.56 276.696L266.731 278.953C266.58 279.276 266.484 279.598 266.387 279.921L266.43 279.921ZM382.429 275.954L382.064 275.009L389.063 272.268L389.471 273.343L382.429 275.954ZM268.072 275.138L261.063 272.407L261.481 271.333L268.437 274.17C268.276 274.503 268.148 274.815 268.029 275.138L268.072 275.138ZM380.464 271.29C380.325 270.978 380.174 270.677 380.024 270.376L386.776 267.055L387.27 268.13L380.464 271.29ZM270.091 270.505L263.338 267.205C263.51 266.861 263.671 266.517 263.843 266.13L270.541 269.548L270.091 270.505ZM378.081 266.797L377.566 265.926L384.007 262.057L384.586 263.046L378.081 266.797ZM272.452 266.044L266.011 262.196C266.205 261.863 266.409 261.541 266.602 261.218L272.989 265.185L272.452 266.044ZM375.376 262.508L374.796 261.681L380.894 257.295L381.559 258.23L375.376 262.508ZM275.211 261.81L269.092 257.446L269.758 256.532L275.801 261.014L275.211 261.81ZM372.327 258.521L371.672 257.747L377.394 252.867L378.124 253.737L372.327 258.521ZM278.313 257.876L272.581 253.017L273.322 252.147L278.979 257.112C278.753 257.317 278.56 257.575 278.313 257.833L278.313 257.876ZM368.946 254.748C368.731 254.533 368.527 254.318 368.302 254.103L368.227 254.017L373.594 248.643L373.669 248.729C373.916 248.965 374.152 249.202 374.388 249.449L368.946 254.748ZM281.781 254.06L276.413 248.782L276.467 248.782C276.714 248.525 276.961 248.277 277.218 248.03L282.446 253.404L281.781 254.06ZM365.264 251.212L364.502 250.556L369.354 244.816L370.213 245.547L365.264 251.212ZM285.452 250.663L280.578 244.935L281.448 244.204L286.225 250.008L285.452 250.663ZM361.324 248.041L360.508 247.45L364.877 241.323L365.79 241.99L361.324 248.041ZM289.402 247.546L285.065 241.431L285.999 240.775L290.293 246.955C289.993 247.149 289.713 247.342 289.445 247.546L289.402 247.546ZM357.116 245.214L356.247 244.687L360.09 238.238L361.056 238.829L357.116 245.214ZM293.675 244.763L289.81 238.314L290.798 237.744L294.544 244.257L293.675 244.763ZM352.715 242.731L351.813 242.29L355.098 235.519L356.172 236.024L352.715 242.731ZM298.119 242.398L294.812 235.648L295.886 235.154L299.106 241.957L298.119 242.398ZM348.164 240.689L347.262 240.248L349.967 233.24C350.318 233.369 350.676 233.509 351.041 233.66L348.164 240.689ZM302.745 240.366L300.029 233.305L301.103 232.896L303.733 239.947L302.745 240.366ZM343.408 238.98L342.442 238.679L344.589 231.467L345.662 231.8L343.408 238.98ZM307.544 238.668L305.397 231.456L306.47 231.134L308.478 238.389L307.544 238.668ZM338.545 237.593L337.558 237.378L339.093 230.005L340.166 230.252L338.545 237.593ZM312.449 237.4L310.914 230.037L311.988 229.812L313.416 237.206C313.094 237.282 312.761 237.357 312.428 237.421L312.449 237.4ZM333.575 236.68L332.577 236.551L333.489 229.081L334.563 229.231L333.575 236.68ZM317.473 236.572L316.539 229.102L317.613 228.973L318.418 236.497L317.473 236.572ZM328.573 236.185L327.564 236.185L327.864 228.662L329.002 228.662L328.573 236.185ZM322.508 236.185L322.197 228.662L323.334 228.662L323.517 236.185L322.508 236.185Z" fill="#D4CEFF"/>
</g>
<g style="mix-blend-mode:luminosity" opacity="0.6">
<path d="M325.052 332.556C324.472 332.556 323.882 332.556 323.313 332.556L322.776 332.556L323.195 323.957L323.731 323.957C326.509 324.101 329.291 323.804 331.976 323.076L332.491 322.936L334.724 331.245L334.198 331.384C331.213 332.172 328.138 332.566 325.052 332.556V332.556ZM323.892 331.481C327.097 331.572 330.299 331.21 333.403 330.406L331.729 324.172C329.274 324.789 326.744 325.06 324.215 324.978L323.892 331.481ZM316.593 331.545L316.131 331.395C312.574 330.462 309.186 328.971 306.094 326.977L305.644 326.687L310.292 319.454L310.743 319.744C313.057 321.244 315.593 322.372 318.257 323.086L318.783 323.215L316.593 331.545ZM307.071 326.365C309.794 328.062 312.743 329.365 315.831 330.234L317.473 323.989C315.037 323.307 312.71 322.283 310.56 320.948L307.071 326.365ZM340.563 328.966L336.656 321.313L337.128 321.066C339.604 319.802 341.864 318.155 343.827 316.186L344.224 315.778L344.6 315.391L350.804 321.335L350.429 321.721L349.903 322.259C347.304 324.857 344.316 327.033 341.046 328.708L340.563 328.966ZM338.094 321.775L341.025 327.515C344.015 325.93 346.75 323.904 349.14 321.506C349.184 321.457 349.231 321.411 349.28 321.367L344.621 316.906C342.694 318.836 340.495 320.473 338.094 321.764L338.094 321.775ZM300.716 322.775L300.201 322.27C297.643 319.712 295.492 316.775 293.825 313.563L293.578 313.09L301.21 309.135L301.457 309.608C302.711 312.037 304.333 314.256 306.266 316.186L306.749 316.659L300.716 322.775ZM295.038 313.542C296.557 316.367 298.465 318.965 300.706 321.259L305.236 316.659C303.468 314.847 301.958 312.8 300.749 310.575L295.038 313.542ZM354.637 316.39L347.337 311.854L347.627 311.392C349.095 309.034 350.181 306.458 350.847 303.761L350.976 303.245L359.317 305.298L359.188 305.814C358.3 309.395 356.851 312.812 354.894 315.939L354.637 316.39ZM348.818 311.5L354.282 314.907C355.933 312.157 357.184 309.186 357.996 306.083L351.738 304.535C351.094 306.978 350.111 309.319 348.818 311.489L348.818 311.5ZM291.302 307.2L291.163 306.684C290.326 303.638 289.904 300.493 289.907 297.333C289.907 296.817 289.907 296.302 289.907 295.786L289.907 295.248L298.494 295.624L298.494 296.162C298.494 296.549 298.494 296.946 298.494 297.333C298.49 299.723 298.808 302.102 299.439 304.406L299.578 304.932L291.302 307.2ZM290.991 296.366C290.991 296.688 290.991 297.011 290.991 297.333C290.987 300.233 291.348 303.122 292.064 305.932L298.28 304.223C297.713 301.989 297.428 299.692 297.432 297.387L297.432 296.71L290.991 296.366ZM360.154 299.053L351.566 298.763L351.566 298.29C351.566 297.989 351.566 297.699 351.566 297.398C351.549 294.913 351.188 292.442 350.493 290.057L350.343 289.541L358.598 287.176L358.748 287.692C359.649 290.838 360.108 294.093 360.111 297.366C360.111 297.763 360.111 298.15 360.111 298.548L360.154 299.053ZM352.64 297.72L359.081 297.935C359.081 297.742 359.081 297.538 359.081 297.333C359.081 294.328 358.684 291.335 357.9 288.434L351.706 290.207C352.322 292.532 352.636 294.928 352.64 297.333C352.683 297.495 352.629 297.624 352.629 297.753L352.64 297.72ZM299.171 291.196L290.851 289.046L290.98 288.53C291.901 284.962 293.375 281.56 295.349 278.448L295.639 277.997L302.874 282.619L302.595 283.07C301.106 285.446 300.005 288.044 299.332 290.766L299.171 291.196ZM292.161 288.283L298.398 289.895C299.071 287.455 300.082 285.121 301.403 282.963L295.972 279.491C294.299 282.238 293.027 285.209 292.193 288.315L292.161 288.283ZM348.765 285.392L348.507 284.919C347.266 282.593 345.689 280.464 343.827 278.599L343.14 277.922L349.119 271.741L349.892 272.515C352.363 274.98 354.451 277.803 356.086 280.888L356.343 281.361L348.765 285.392ZM344.643 277.868C346.43 279.662 347.962 281.695 349.194 283.909L354.883 280.888C353.339 278.082 351.405 275.509 349.14 273.246V273.246L344.643 277.868ZM305.697 279.147L299.546 273.149L300.201 272.483C302.709 269.973 305.578 267.854 308.714 266.195L309.197 265.948L313.19 273.569L312.707 273.816C310.332 275.063 308.16 276.665 306.266 278.567L305.697 279.147ZM301.103 273.128L305.719 277.632C307.52 275.855 309.557 274.336 311.773 273.117L308.778 267.41C305.962 268.941 303.377 270.867 301.103 273.128V273.128ZM339.651 275.127L339.2 274.837C336.845 273.373 334.278 272.286 331.589 271.612L331.074 271.483L333.221 263.143L333.736 263.282C337.306 264.171 340.712 265.622 343.827 267.582L344.278 267.872L339.651 275.127ZM332.373 270.677C334.813 271.343 337.15 272.341 339.318 273.644L342.71 268.194C339.968 266.531 337.005 265.264 333.908 264.433L332.373 270.677ZM317.344 271.913L315.058 263.637L315.573 263.487C319.109 262.497 322.778 262.065 326.447 262.208L326.984 262.208L326.662 270.806L326.125 270.806C323.346 270.695 320.568 271.025 317.892 271.784L317.344 271.913ZM316.346 264.39L318.085 270.602C320.538 269.966 323.066 269.67 325.599 269.721L325.835 263.272C322.633 263.196 319.435 263.569 316.335 264.379L316.346 264.39Z" fill="#D4CEFF"/>
</g>
<g style="mix-blend-mode:luminosity" opacity="0.6">
<path d="M324.054 492.072C322.615 492.072 321.177 492.072 319.76 491.997L319.824 489.847C321.252 489.847 322.669 489.912 324.118 489.923L324.054 492.072ZM329.421 492.018L329.421 489.869C330.838 489.869 332.266 489.794 333.715 489.729L333.812 491.879C332.319 491.943 330.881 491.986 329.443 492.018L329.421 492.018ZM314.339 491.761C312.9 491.675 311.473 491.589 310.045 491.47L310.206 489.321C311.634 489.428 313.051 489.525 314.5 489.6L314.339 491.761ZM339.147 491.546L338.996 489.396C340.428 489.303 341.859 489.185 343.29 489.041L343.494 491.191C342.024 491.341 340.585 491.46 339.147 491.567L339.147 491.546ZM304.656 490.987C303.229 490.836 301.801 490.664 300.362 490.481L300.631 488.332C302.048 488.515 303.465 488.676 304.925 488.826L304.656 490.987ZM348.819 490.6L348.561 488.45C349.967 488.267 351.384 488.085 352.79 487.88L353.102 490.03C351.674 490.256 350.246 490.449 348.819 490.621L348.819 490.6ZM295.027 489.729C293.596 489.514 292.165 489.278 290.733 489.02L291.109 486.87C292.515 487.128 293.911 487.354 295.317 487.579L295.027 489.729ZM358.426 489.181L358.061 487.031C359.467 486.784 360.863 486.526 362.269 486.247L362.677 488.396C361.217 488.686 359.843 488.955 358.426 489.202L358.426 489.181ZM285.431 487.999C284.024 487.708 282.618 487.397 281.223 487.074L281.706 484.925C283.09 485.247 284.475 485.548 285.871 485.838L285.431 487.999ZM367.915 487.278L367.443 485.129C368.839 484.817 370.223 484.484 371.597 484.14L372.123 486.225C370.771 486.655 369.365 486.978 367.958 487.3L367.915 487.278ZM275.984 485.795C274.589 485.43 273.204 485.054 271.819 484.667L272.399 482.592C273.773 482.979 275.147 483.355 276.521 483.667L275.984 485.795ZM377.341 484.903L376.772 482.829C378.135 482.452 379.509 482.055 380.872 481.636L381.495 483.699C380.153 484.14 378.768 484.538 377.383 484.925L377.341 484.903ZM266.688 483.162C265.325 482.732 263.95 482.28 262.587 481.829L263.274 479.787C264.627 480.253 265.979 480.693 267.332 481.109L266.688 483.162ZM386.68 482.087L386.003 480.056C387.356 479.604 388.698 479.131 390.04 478.647L390.77 480.679C389.406 481.152 388.054 481.625 386.68 482.087ZM257.51 480.002C256.157 479.507 254.815 478.991 253.473 478.454L254.268 476.455C255.588 476.982 256.919 477.53 258.25 477.981L257.51 480.002ZM395.826 478.777L395.042 476.767C396.373 476.251 397.693 475.692 399.003 475.165L399.83 477.153C398.498 477.712 397.167 478.25 395.826 478.777ZM248.503 476.401C247.183 475.842 245.863 475.262 244.553 474.66L245.444 472.704C246.743 473.295 248.042 473.864 249.351 474.434L248.503 476.401ZM404.8 475.004L403.919 473.048C405.218 472.456 406.517 471.865 407.795 471.253L408.729 473.187C407.376 473.811 406.099 474.413 404.789 475.004L404.8 475.004ZM239.669 472.413C238.381 471.779 237.092 471.134 235.815 470.479L236.803 468.566C238.069 469.221 239.336 469.855 240.613 470.479L239.669 472.413ZM413.57 470.844L412.593 468.931C413.86 468.286 415.116 467.62 416.372 466.943L417.391 468.834C416.114 469.468 414.89 470.135 413.559 470.79L413.57 470.844ZM231.081 467.931C229.825 467.243 228.569 466.534 227.324 465.782L228.397 463.922C229.621 464.642 230.866 465.341 232.101 466.072L231.081 467.931ZM422.158 466.201L421.084 464.331C422.319 463.621 423.542 462.901 424.766 462.181L425.84 464.008C424.551 464.685 423.349 465.427 422.104 466.147L422.158 466.201ZM222.74 462.976L219.101 460.655L220.271 458.86C221.463 459.634 222.665 460.397 223.867 461.149L222.74 462.976ZM430.445 461.063L429.285 459.257C430.477 458.484 431.669 457.699 432.849 456.893L434.052 458.677C432.835 459.487 431.618 460.282 430.402 461.063L430.445 461.063ZM214.678 457.656C213.498 456.839 212.328 456.001 211.158 455.162L212.424 453.421C213.573 454.259 214.732 455.076 215.892 455.882L214.678 457.656ZM438.528 455.571L437.272 453.829C438.431 453.002 439.58 452.153 440.718 451.293L442.017 453.002C440.771 453.872 439.58 454.732 438.442 455.571L438.528 455.571ZM206.756 451.992C205.618 451.11 204.491 450.229 203.375 449.326L204.717 447.649C205.79 448.541 206.939 449.423 208.066 450.283L206.756 451.992ZM446.203 449.745L444.861 448.058C445.978 447.162 447.083 446.259 448.178 445.349L449.552 447.004C448.45 447.893 447.334 448.788 446.203 449.691L446.203 449.745ZM199.221 445.886C198.126 444.948 197.052 444.002 196 443.049L197.428 441.447C198.487 442.393 199.561 443.328 200.648 444.253L199.221 445.886ZM453.632 443.468L452.215 441.856C453.288 440.921 454.362 439.964 455.435 438.997L456.895 440.577C455.8 441.501 454.727 442.468 453.653 443.393L453.632 443.468ZM191.964 439.405C190.891 438.416 189.881 437.427 188.851 436.417L190.354 434.88C191.374 435.88 192.393 436.869 193.435 437.836L191.964 439.405ZM460.749 436.858L459.257 435.31L461.006 433.58L462.273 432.3L463.808 433.805L462.531 435.095C461.962 435.632 461.371 436.224 460.77 436.804L460.749 436.858ZM185.051 432.558C184.053 431.484 183.065 430.473 182.088 429.409L183.666 427.958C184.632 429.033 185.609 430.033 186.597 431.064L185.051 432.558ZM467.533 429.882L465.987 428.345C466.953 427.27 467.909 426.195 468.853 425.174L470.464 426.604C469.508 427.722 468.563 428.786 467.554 429.85L467.533 429.882ZM178.471 425.389C177.526 424.314 176.581 423.24 175.658 422.089L177.311 420.714C178.224 421.789 179.147 422.863 180.091 423.938L178.471 425.389ZM473.974 422.595L472.331 421.208C473.244 420.133 474.145 419.058 475.026 417.919L476.7 419.263C475.831 420.348 474.918 421.466 473.995 422.562L473.974 422.595ZM172.287 417.855C171.386 416.726 170.505 415.576 169.647 414.426L171.353 413.136C172.212 414.275 173.082 415.404 173.973 416.522L172.287 417.855ZM480.05 414.985L478.343 413.684C479.202 412.556 480.05 411.406 480.887 410.266L482.615 411.524C481.767 412.685 480.908 413.835 480.039 414.985L480.05 414.985ZM166.437 410.073C165.6 408.901 164.773 407.708 163.968 406.515L165.75 405.311C166.544 406.494 167.36 407.665 168.187 408.826L166.437 410.073ZM485.739 407.117L483.957 405.902C484.762 404.731 485.556 403.549 486.329 402.355L488.122 403.527C487.317 404.699 486.523 405.924 485.739 407.117ZM161.016 401.99C160.243 400.765 159.481 399.539 158.73 398.314L160.565 397.239C161.306 398.454 162.057 399.668 162.83 400.872L161.016 401.99ZM490.999 398.97L489.174 397.895C489.915 396.68 490.645 395.466 491.321 394.24L493.178 395.315C492.47 396.508 491.729 397.744 490.977 398.97L490.999 398.97ZM155.971 393.649C155.262 392.392 154.565 391.134 153.824 389.866L155.713 388.845C156.389 390.092 157.076 391.338 157.785 392.585L155.971 393.649ZM495.84 390.564L493.951 389.49C494.638 388.243 495.303 386.985 495.958 385.717L497.858 386.706C497.204 388.028 496.527 389.296 495.84 390.564V390.564ZM151.376 385.061C150.721 383.782 150.088 382.482 149.476 381.181L151.409 380.257C152.02 381.547 152.654 382.826 153.298 384.094L151.376 385.061ZM500.252 381.923L498.309 380.988C498.932 379.709 499.533 378.419 500.123 377.118L502.077 378.01C501.508 379.322 500.896 380.622 500.274 381.923L500.252 381.923ZM147.19 376.269C146.61 374.947 146.041 373.625 145.494 372.292L147.469 371.465C148.016 372.776 148.542 374.087 149.154 375.399L147.19 376.269ZM504.235 373.045L502.26 372.206C502.807 370.895 503.333 369.584 503.87 368.262L505.866 369.046C505.362 370.411 504.814 371.744 504.256 373.066L504.235 373.045ZM143.486 367.251C142.971 365.897 142.413 364.543 141.983 363.188L144.002 362.468C144.485 363.812 144.978 365.145 145.483 366.477L143.486 367.251ZM507.777 364.027L505.759 363.285C506.253 361.952 506.725 360.609 507.176 359.254L509.205 359.942C508.775 361.307 508.282 362.672 507.799 364.027L507.777 364.027ZM140.234 358.094C139.783 356.729 139.343 355.353 138.935 353.977L140.985 353.354C141.393 354.708 141.822 356.073 142.273 357.427L140.234 358.094ZM510.869 354.805L508.818 354.17C509.237 352.816 509.634 351.451 510.021 350.075L512.092 350.666C511.717 352.032 511.309 353.429 510.89 354.805L510.869 354.805ZM137.464 348.807C137.078 347.42 136.713 346.023 136.391 344.626L138.473 344.099C138.817 345.486 139.182 346.862 139.547 348.248L137.464 348.807ZM513.509 345.486L511.427 344.959C511.781 343.573 512.114 342.186 512.436 340.799L514.529 341.283C514.207 342.659 513.864 344.056 513.509 345.454L513.509 345.486ZM135.135 339.359C134.823 337.951 134.534 336.543 134.255 335.124L136.401 334.716C136.67 336.113 136.96 337.51 137.271 338.897L135.135 339.359ZM515.667 336.006L513.52 335.576C513.799 334.178 514.057 332.781 514.315 331.384L516.461 331.76C516.215 333.147 515.946 334.555 515.667 335.973L515.667 336.006ZM133.288 329.804C133.052 328.385 132.827 326.966 132.623 325.504L134.77 325.193C134.974 326.601 135.188 328.009 135.425 329.417L133.288 329.804ZM517.342 326.429L515.195 326.106C515.409 324.698 515.603 323.29 515.785 321.872L517.932 322.151C517.75 323.548 517.556 324.967 517.342 326.397L517.342 326.429ZM131.968 320.173C131.796 318.744 131.646 317.314 131.506 315.874L133.653 315.67C133.797 317.103 133.947 318.536 134.104 319.969L131.968 320.173ZM518.587 316.777L516.44 316.573C516.58 315.154 516.708 313.735 516.816 312.273L518.963 312.445C518.812 313.875 518.684 315.315 518.544 316.745L518.587 316.777ZM131.066 310.489C130.991 309.414 130.927 308.253 130.862 307.135L133.009 307.028C133.067 308.132 133.131 309.239 133.203 310.349L131.066 310.489ZM519.295 307.082L517.149 306.974C517.224 305.556 517.277 304.126 517.32 302.675L519.467 302.675C519.41 304.151 519.342 305.609 519.263 307.05L519.295 307.082ZM519.532 297.408L517.385 297.408C517.385 295.979 517.385 294.56 517.385 293.109L519.532 293.109C519.489 294.452 519.499 295.893 519.499 297.333L519.532 297.408ZM517.149 287.735C517.073 286.316 516.987 284.886 516.891 283.435L519.038 283.285C519.145 284.714 519.231 286.155 519.306 287.584L517.149 287.735ZM516.429 278.147C516.29 276.728 516.129 275.31 515.957 273.848L518.104 273.59C518.276 275.019 518.437 276.449 518.576 277.889L516.429 278.147ZM515.238 268.592C515.023 267.184 514.798 265.776 514.551 264.378L516.698 264.002C516.934 265.432 517.17 266.851 517.385 268.302L515.238 268.592ZM513.574 259.122C513.295 257.725 512.994 256.328 512.683 254.941L514.776 254.468C515.091 255.902 515.392 257.31 515.678 258.693L513.574 259.122ZM511.427 249.739C511.073 248.353 510.708 246.977 510.353 245.601L512.425 245.031C512.812 246.418 513.187 247.815 513.499 249.202L511.427 249.739ZM508.818 240.474C508.4 239.109 507.97 237.755 507.52 236.4L509.559 235.723C510.01 237.088 510.45 238.464 510.879 239.84L508.818 240.474ZM505.759 231.349C505.276 230.005 504.771 228.672 504.256 227.34L506.253 226.566C506.779 227.909 507.326 229.263 507.777 230.607L505.759 231.349ZM502.249 222.384C501.691 221.073 501.122 219.773 500.542 218.461L502.496 217.58C503.086 218.902 503.666 220.224 504.224 221.557L502.249 222.384ZM498.277 213.614C497.665 212.335 497.032 211.056 496.377 209.787L498.288 208.809C498.943 210.088 499.587 211.378 500.209 212.679L498.277 213.614ZM493.876 205.015C493.203 203.754 492.505 202.507 491.783 201.275L493.65 200.2C494.37 201.457 495.078 202.715 495.797 203.983L493.876 205.015ZM489.056 196.674C488.305 195.46 487.553 194.256 486.769 193.052L488.551 191.881C489.335 193.095 490.108 194.31 490.859 195.546L489.056 196.674ZM483.796 188.656C482.991 187.474 482.164 186.313 481.327 185.152L483.077 183.895C483.914 185.066 484.751 186.248 485.556 187.441L483.796 188.656ZM478.15 180.842C477.291 179.713 476.411 178.585 475.52 177.467L477.151 176.091C478.053 177.166 478.944 178.359 479.813 179.509L478.15 180.842ZM472.127 173.318C471.204 172.243 470.27 171.168 469.326 170.094L470.936 168.675C471.891 169.75 472.836 170.824 473.759 171.953L472.127 173.318ZM465.74 166.084C464.774 165.01 463.787 164.01 462.788 162.989L464.323 161.484C465.332 162.559 466.331 163.569 467.308 164.612L465.74 166.084ZM459.01 159.227C457.99 158.227 456.959 157.249 455.918 156.282L457.389 154.713C458.462 155.68 459.471 156.68 460.513 157.679L459.01 159.227ZM451.968 152.692C450.894 151.757 449.821 150.822 448.747 149.908L450.132 148.264C451.206 149.188 452.279 150.123 453.406 151.08L451.968 152.692ZM444.615 146.533C443.541 145.641 442.371 144.77 441.244 143.911L442.543 142.202C443.691 143.072 444.818 143.954 445.946 144.846L444.615 146.533ZM436.961 140.74C435.812 139.912 434.642 139.095 433.472 138.3L434.685 136.526C435.866 137.333 437.047 138.16 438.217 138.999L436.961 140.74ZM429.039 135.366C427.836 134.602 426.634 133.839 425.432 133.098L426.505 131.27C427.729 132.012 428.942 132.786 430.155 133.56L429.039 135.366ZM420.848 130.378C419.614 129.669 418.368 128.97 417.123 128.293L418.197 126.401C419.463 127.089 420.708 127.788 421.964 128.551L420.848 130.378ZM412.411 125.799C411.144 125.155 409.877 124.52 408.6 123.897L409.534 121.962C410.822 122.586 412.11 123.231 413.387 123.886L412.411 125.799ZM403.758 121.651C402.46 121.07 401.161 120.501 399.851 119.942L400.688 117.964C402.009 118.523 403.329 119.103 404.639 119.684L403.758 121.651ZM394.913 117.942C393.582 117.426 392.251 116.921 390.92 116.438L391.65 114.417C393.002 114.911 394.344 115.417 395.686 115.943L394.913 117.942ZM385.885 114.718C384.533 114.266 383.18 113.826 381.817 113.407L382.45 111.354C383.824 111.784 385.198 112.224 386.562 112.676L385.885 114.718ZM376.696 111.913C375.337 111.526 373.963 111.167 372.574 110.838L373.111 108.753C374.496 109.107 375.891 109.473 377.276 109.827L376.696 111.913ZM367.39 109.569C366.005 109.258 364.609 108.957 363.214 108.677L363.643 106.528L367.862 107.43L367.39 109.569ZM357.997 107.645C356.59 107.398 355.184 107.173 353.778 106.958L354.1 104.808C355.517 105.012 356.945 105.249 358.394 105.496L357.997 107.645ZM348.497 106.237C347.08 106.065 345.663 105.915 344.203 105.775L344.417 103.626C345.856 103.765 347.284 103.927 348.711 104.098L348.497 106.237ZM338.932 105.313C337.515 105.216 336.098 105.13 334.638 105.055L334.745 102.905C336.184 102.981 337.622 103.067 339.039 103.174L338.932 105.313ZM329.314 104.819C327.897 104.819 326.469 104.819 325.02 104.819L325.02 102.669C326.458 102.669 327.897 102.669 329.314 102.669L329.314 104.819Z" fill="#D4CEFF"/>
</g>
<g style="mix-blend-mode:luminosity" opacity="0.6">
<path d="M325.052 387.985C323.603 387.985 322.132 387.985 320.683 387.878L320.78 385.728C322.197 385.803 323.635 385.835 325.073 385.835L325.052 387.985ZM334.874 387.448L334.638 385.298C336.055 385.137 337.483 384.954 338.932 384.728L339.265 386.878C337.783 387.104 336.323 387.297 334.874 387.501L334.874 387.448ZM310.893 386.878C309.465 386.652 308.016 386.383 306.599 386.093L307.029 383.944C308.413 384.234 309.83 384.492 311.226 384.707L310.893 386.878ZM348.829 384.814L348.271 382.74C349.634 382.374 351.008 381.955 352.361 381.525L353.026 383.567C351.642 384.019 350.225 384.438 348.829 384.814V384.814ZM297.088 383.567C295.703 383.127 294.319 382.632 292.955 382.116L293.718 380.106C295.038 380.612 296.401 381.085 297.743 381.525L297.088 383.567ZM362.205 380.02L361.324 378.064C362.612 377.473 363.911 376.86 365.167 376.216L366.144 378.129C364.856 378.784 363.525 379.429 362.205 379.977L362.205 380.02ZM283.928 378.139C282.629 377.473 281.341 376.774 280.074 376.054L281.147 374.184C282.382 374.893 283.648 375.581 284.904 376.216L283.928 378.139ZM374.614 373.184L373.433 371.379C374.614 370.605 375.795 369.788 376.943 368.95L378.21 370.691C377.072 371.54 375.87 372.378 374.657 373.184L374.614 373.184ZM271.819 370.702C270.649 369.842 269.479 368.95 268.352 368.036L269.693 366.37C270.767 367.251 271.937 368.133 273.086 368.96L271.819 370.702ZM385.907 364.468L384.457 362.877C385.531 361.931 386.54 360.931 387.549 359.921L389.149 361.361L389.063 361.447C388.054 362.479 386.98 363.489 385.907 364.468ZM261.106 361.458C260.032 360.383 259.055 359.308 258.089 358.298L259.678 356.847C260.623 357.922 261.61 358.921 262.609 359.921L261.106 361.458ZM395.707 354.042L394.033 352.698C394.924 351.623 395.793 350.441 396.62 349.302L398.359 350.559C397.479 351.731 396.641 352.902 395.675 354.042L395.707 354.042ZM251.863 350.656C251.004 349.484 250.167 348.27 249.373 347.055L251.165 345.884C251.938 347.066 252.754 348.248 253.591 349.398L251.863 350.656ZM403.683 342.294L401.826 341.219C402.524 339.983 403.211 338.714 403.855 337.457L405.766 338.424C405.089 339.735 404.392 341.025 403.662 342.294L403.683 342.294ZM244.403 338.542C243.748 337.253 243.104 335.92 242.513 334.598L244.467 333.759C245.047 335.06 245.669 336.36 246.313 337.618L244.403 338.542ZM409.716 329.428L407.709 328.665C408.203 327.343 408.686 325.988 409.115 324.634L411.165 325.3C410.714 326.676 410.231 328.073 409.716 329.46L409.716 329.428ZM238.971 325.408C238.52 324.021 238.101 322.613 237.726 321.205L239.797 320.646C240.162 322.022 240.581 323.398 241.01 324.741L238.971 325.408ZM413.666 315.734L411.52 315.294C411.809 313.907 412.067 312.488 412.282 311.091L414.429 311.424C414.225 312.897 413.967 314.348 413.666 315.777L413.666 315.734ZM235.622 311.575C235.396 310.145 235.203 308.683 235.042 307.275L237.189 307.05C237.339 308.458 237.532 309.887 237.747 311.284L235.622 311.575ZM415.405 301.665L413.259 301.568C413.323 300.171 413.355 298.763 413.355 297.365L415.502 297.29L415.502 297.365C415.545 298.795 415.513 300.235 415.448 301.665L415.405 301.665ZM234.548 297.398C234.548 295.957 234.548 294.495 234.656 293.098L236.802 293.206C236.727 294.603 236.695 296.032 236.695 297.441L234.548 297.398ZM412.872 287.724C412.722 286.316 412.529 284.886 412.303 283.425L414.45 283.091C414.676 284.532 414.869 285.994 415.03 287.391L412.872 287.724ZM237.769 283.564L235.622 283.242C235.847 281.812 236.105 280.361 236.405 278.943L238.552 279.372C238.252 280.738 237.994 282.167 237.769 283.564ZM410.285 274.052C409.92 272.687 409.512 271.311 409.072 269.957L411.112 269.29C411.562 270.677 411.981 272.085 412.357 273.482L410.285 274.052ZM240.989 270.054L238.949 269.398C239.4 268.011 239.883 266.625 240.399 265.26L242.406 266.044C241.901 267.345 241.429 268.71 240.989 270.054ZM405.605 260.982C405.025 259.692 404.402 258.392 403.758 257.134L405.669 256.156C406.324 257.446 406.968 258.768 407.558 260.101L405.605 260.982ZM246.281 257.231L244.37 256.253C245.036 254.963 245.734 253.662 246.453 252.405L248.321 253.48C247.612 254.694 246.936 255.962 246.281 257.231ZM398.928 248.847C398.144 247.654 397.328 246.472 396.491 245.332L398.23 244.064C399.089 245.236 399.926 246.45 400.72 247.665L398.928 248.847ZM253.527 245.408L251.799 244.139C252.647 242.968 253.538 241.796 254.45 240.657L256.125 242.011C255.234 243.118 254.364 244.257 253.527 245.408ZM390.415 237.884C389.481 236.809 388.504 235.831 387.517 234.853L388.988 233.273C389.997 234.283 390.995 235.336 391.95 236.39L390.415 237.884ZM262.576 234.874L261.02 233.38C262.04 232.37 263.092 231.359 264.154 230.392L265.679 231.897C264.605 232.843 263.532 233.799 262.576 234.874ZM380.314 228.425C379.24 227.544 378.07 226.662 376.933 225.835L378.188 224.094C379.359 224.943 380.529 225.845 381.666 226.759L380.314 228.425ZM273.075 225.899L271.808 224.126C272.978 223.266 274.191 222.428 275.404 221.632L276.585 223.427C275.394 224.126 274.266 224.986 273.075 225.813L273.075 225.899ZM368.871 220.611C367.636 219.912 366.37 219.224 365.114 218.58L366.091 216.666C367.379 217.322 368.667 218.021 369.934 218.752L368.871 220.611ZM284.883 218.547L283.928 216.602C285.226 215.935 286.547 215.301 287.867 214.71L288.747 216.666C287.438 217.279 286.15 217.902 284.883 218.547ZM356.333 214.613C355.002 214.108 353.649 213.635 352.297 213.205L352.962 211.152C354.336 211.604 355.732 212.088 357.084 212.603L356.333 214.613ZM297.689 213.238L297.024 211.228C298.409 210.787 299.815 210.368 301.221 209.981L301.779 212.055C300.405 212.389 299.031 212.797 297.689 213.238ZM343.022 210.744C341.637 210.454 340.22 210.196 338.814 209.981L339.147 207.831C340.585 208.057 342.034 208.326 343.44 208.616L343.022 210.744ZM311.172 209.992L310.839 207.842C312.267 207.616 313.727 207.423 315.133 207.262L315.369 209.411C313.985 209.583 312.568 209.777 311.172 209.992V209.992ZM329.26 209.003C327.864 208.938 326.447 208.906 325.052 208.906L324.988 206.756L325.052 206.756C326.48 206.756 327.94 206.756 329.346 206.864L329.26 209.003Z" fill="#D4CEFF"/>
</g>
<g style="mix-blend-mode:luminosity" opacity="0.6">
<path d="M314.715 476.133L314.178 476.133C290.852 474.736 268.029 468.754 247.011 458.527L246.528 458.301L258.712 433.15L259.195 433.386C276.928 442.007 296.185 447.043 315.863 448.208L316.4 448.208L314.715 476.133ZM247.967 457.796C268.562 467.733 290.888 473.573 313.705 474.993L315.262 449.197C295.822 447.988 276.798 443.028 259.238 434.59L247.967 457.796ZM393.346 462.902L382.611 437.105L383.105 436.89C418.34 422.148 446.713 394.622 462.541 359.824L462.767 359.341L488.186 370.885L487.961 371.368C469.217 412.606 435.613 445.236 393.872 462.73L393.346 462.902ZM384.028 437.675L393.925 461.493C435.029 444.133 468.143 411.981 486.737 371.379L463.282 360.727C447.37 395.366 419.103 422.8 384.028 437.643L384.028 437.675ZM184.503 408.117L184.171 407.698C169.733 389.292 159.076 368.207 152.815 345.658L152.675 345.142L179.512 337.618L179.651 338.134C184.932 357.144 193.918 374.919 206.091 390.436L206.423 390.866L184.503 408.117ZM154.038 345.895C160.231 367.935 170.655 388.555 184.729 406.601L204.964 390.726C192.979 375.339 184.098 357.765 178.814 338.983L154.038 345.895ZM475.96 293.41L475.96 292.873C475.41 273.141 470.986 253.711 462.939 235.691L462.713 235.197L488.197 223.804L488.423 224.287C497.951 245.628 503.196 268.636 503.859 292.002L503.859 292.54L475.96 293.41ZM464.152 235.745C472.045 253.591 476.419 272.795 477.033 292.303L502.796 291.54C502.055 268.652 496.893 246.124 487.596 225.201L464.152 235.745ZM422.082 181.616L421.664 181.272C406.558 168.607 389.097 159.062 370.288 153.187L369.805 153.015L378.113 126.316L378.629 126.477C400.94 133.463 421.654 144.794 439.58 159.818L439.988 160.173L422.082 181.616ZM371.114 152.305C389.692 158.174 406.954 167.599 421.943 180.058L438.506 160.302C420.913 145.658 400.641 134.582 378.822 127.692L371.114 152.305ZM246.732 168.148L232.315 144.223L232.777 143.943C252.782 131.847 274.977 123.829 298.087 120.35L298.613 120.264L302.799 147.899L302.273 147.974C282.783 150.912 264.065 157.677 247.194 167.88L246.732 168.148ZM233.786 144.588L247.097 166.676C263.816 156.654 282.317 149.97 301.575 146.996L297.711 121.49C275.108 124.964 253.396 132.809 233.786 144.588V144.588Z" fill="#D4CEFF"/>
</g>
<g style="mix-blend-mode:luminosity" opacity="0.6">
<path d="M325.052 512.097C302.557 512.104 280.2 508.575 258.798 501.639L258.293 501.467L276.156 446.252L276.671 446.413C292.297 451.487 308.624 454.066 325.052 454.056C329.786 454.056 334.573 453.841 339.286 453.411L339.812 453.357L345.051 511.162L344.525 511.215C338.073 511.796 331.525 512.097 325.052 512.097ZM259.646 500.779C280.784 507.576 302.851 511.031 325.052 511.022C331.31 511.022 337.644 510.743 343.891 510.194L338.846 454.528C334.273 454.926 329.636 455.13 325.052 455.13C308.69 455.137 292.426 452.599 276.843 447.607L259.646 500.779ZM404.155 496.995L382.686 443.092L383.18 442.899C402.873 435.032 420.749 423.209 435.705 408.16C436.95 406.913 438.184 405.645 439.365 404.377L439.73 403.979L482.057 443.651L481.692 444.038C480.049 445.79 478.375 447.531 476.689 449.208C456.177 469.826 431.668 486.023 404.671 496.802L404.155 496.995ZM384.06 443.694L404.757 495.598C431.425 484.875 455.636 468.832 475.917 448.445C477.462 446.897 479.008 445.306 480.511 443.694L439.719 405.505C438.646 406.644 437.572 407.795 436.402 408.923C421.483 423.933 403.681 435.761 384.071 443.694L384.06 443.694ZM516.762 393.693L464.881 367.789L465.128 367.305C474.583 348.308 480.062 327.577 481.23 306.383L481.23 305.846L539.101 309.167L539.101 309.705C537.484 338.759 529.952 367.176 516.966 393.209L516.762 393.693ZM466.309 367.305L516.268 392.252C528.966 366.641 536.364 338.724 538.016 310.178L482.293 306.953C481.071 327.939 475.643 348.464 466.331 367.305L466.309 367.305ZM118.614 355.762L118.464 355.246C110.671 327.231 108.615 297.928 112.42 269.097L112.495 268.571L169.958 276.17L169.893 276.707C167.104 297.771 168.605 319.182 174.305 339.65L174.445 340.166L118.614 355.762ZM113.418 269.774C112.235 278.924 111.639 288.14 111.636 297.366C111.633 316.651 114.23 335.849 119.355 354.44L173.124 339.392C169.362 325.694 167.455 311.551 167.457 297.344C167.46 290.566 167.894 283.795 168.755 277.073L113.418 269.774ZM181.948 233.735L129.048 210.003L129.273 209.508C139.949 185.67 154.891 163.988 173.361 145.534C175.508 143.513 177.654 141.417 179.801 139.44L180.188 139.074L219.487 181.734L219.09 182.1C217.523 183.551 215.956 185.066 214.442 186.582C200.947 200.035 190.031 215.853 182.238 233.251L181.948 233.735ZM130.476 209.465L181.412 232.316C189.245 214.992 200.157 199.237 213.616 185.819C215.011 184.422 216.46 183.024 217.909 181.681L180.091 140.59C178.084 142.449 176.098 144.362 174.166 146.297C155.909 164.527 141.119 185.932 130.519 209.465L130.476 209.465ZM419.474 172.405L419.044 172.082C402.141 159.298 382.794 150.126 362.204 145.136L361.678 145.018L375.376 88.6105L375.902 88.7394C404.168 95.584 430.728 108.173 453.932 125.725L454.361 126.047L419.474 172.405ZM362.977 144.223C383.344 149.231 402.49 158.305 419.27 170.9L452.859 126.316C430.013 109.133 403.924 96.7665 376.17 89.9648L362.977 144.223ZM255.781 156.809L230.308 104.679L230.791 104.443C256.895 91.6452 285.338 84.3296 314.371 82.9461L314.908 82.9461L317.774 140.923L317.237 140.923C296.057 141.939 275.308 147.279 256.264 156.615L255.781 156.809ZM231.746 105.217L256.275 155.336C275.157 146.168 295.688 140.897 316.647 139.837L313.888 84.0101C285.363 85.453 257.424 92.6515 231.746 105.174L231.746 105.217Z" fill="#D4CEFF"/>
</g>
<g style="mix-blend-mode:luminosity" opacity="0.6">
<path d="M240.635 543.256L240.13 543.084C217.775 535.336 196.577 524.578 177.118 511.108C167.718 504.592 158.753 497.469 150.281 489.783L149.884 489.418L196.902 437.503L197.31 437.858C216.361 455.162 238.712 468.43 263.017 476.864L263.532 477.035L240.635 543.256ZM151.398 489.321C159.719 496.84 168.515 503.815 177.73 510.205C196.964 523.526 217.907 534.185 239.991 541.891L262.158 477.68C238.083 469.239 215.925 456.086 196.977 438.986L151.398 489.321ZM482.025 504.369L439.473 448.649L439.902 448.316C455.727 436.228 469.551 421.719 480.865 405.322C484.086 400.593 487.22 395.649 490.043 390.661L490.312 390.199L551.22 424.669L550.952 425.142C547.098 431.967 542.879 438.707 538.414 445.167L537.974 444.855L538.414 445.167C522.933 467.603 504.024 487.462 482.379 504.014L482.025 504.369ZM440.975 448.842L482.175 502.832C503.553 486.411 522.238 466.748 537.555 444.554C541.903 438.266 546.003 431.72 549.782 425.078L490.741 391.629C487.972 396.498 484.955 401.302 481.778 405.903C470.491 422.254 456.724 436.742 440.975 448.842V448.842ZM102.909 432.354L102.63 431.892C86.2556 404.829 74.9766 374.989 69.3528 343.852C68.7087 340.359 68.1398 336.812 67.6567 333.319L67.5816 332.792L136.917 323.011L136.992 323.538C137.357 326.117 137.775 328.718 138.237 331.277C142.34 354.016 150.566 375.811 162.508 395.584L162.787 396.046L102.909 432.354ZM68.8161 333.759C69.2777 337.07 69.8251 340.413 70.4263 343.712C75.9947 374.543 87.1257 404.1 103.274 430.936L161.316 395.745C149.447 375.966 141.27 354.19 137.185 331.481C136.745 329.084 136.348 326.655 136.004 324.236L68.8161 333.759ZM577.96 355.804L509.72 340.101L509.838 339.574C515.596 314.492 516.163 288.495 511.502 263.186C511.126 261.036 510.708 258.983 510.257 256.919L510.149 256.393L578.561 241.56L578.679 242.086C579.281 244.913 579.86 247.783 580.376 250.685C586.732 285.336 585.943 320.922 578.057 355.256L577.96 355.804ZM511.008 339.349L577.144 354.525C584.881 320.477 585.612 285.208 579.291 250.868C578.819 248.224 578.282 245.494 577.713 242.893L511.395 257.22C511.803 259.123 512.189 261.057 512.543 262.992C517.198 288.268 516.675 314.227 511.008 339.295L511.008 339.349ZM137.164 269.334L136.627 269.248L67.9251 258.843L68.011 258.317C73.253 223.463 85.5642 190.052 104.187 160.141L104.477 159.679L163.946 196.653L163.657 197.115C150.057 218.953 141.067 243.348 137.239 268.796L137.164 269.334ZM69.1703 257.94L136.262 268.108C140.135 242.882 149.047 218.697 162.465 196.997L104.82 161.162C86.5366 190.682 74.4098 223.603 69.1703 257.94V257.94ZM491.364 206.09L491.106 205.628C478.73 183.071 461.874 163.29 441.577 147.501L441.147 147.167L441.48 146.748L484.193 91.9315L484.623 92.2647C512.408 113.882 535.484 140.96 552.433 171.835L552.691 172.308L491.364 206.09ZM442.661 146.974C462.745 162.684 479.453 182.295 491.783 204.628L551.22 171.889C534.46 141.483 511.721 114.791 484.376 93.4255L442.661 146.974ZM198.512 155.519L151.977 103.153L152.385 102.798C178.663 79.325 209.479 61.5117 242.921 50.4642L243.426 50.2922L265.443 116.825L264.938 116.997C240.55 125.057 218.076 138.048 198.909 155.164L198.512 155.519ZM153.491 103.239L198.576 154.003C217.626 137.086 239.901 124.208 264.058 116.148L242.717 51.6573C209.791 62.6188 179.435 80.168 153.491 103.239V103.239Z" fill="#D4CEFF"/>
</g>
<g style="mix-blend-mode:luminosity" opacity="0.6">
<path d="M325.008 422.52C299.272 422.516 274.164 414.556 253.116 399.727C232.067 384.899 216.104 363.925 207.407 339.671C198.71 315.418 197.704 289.067 204.526 264.219C211.347 239.371 225.664 217.238 245.521 200.844C265.377 184.449 289.804 174.593 315.466 172.621C341.127 170.649 366.77 176.658 388.892 189.827C411.015 202.996 428.537 222.682 439.065 246.197C449.594 269.711 452.615 295.907 447.716 321.205L445.569 320.797C450.564 294.958 447.147 268.195 435.82 244.445C424.493 220.695 405.854 201.211 382.645 188.857C359.435 176.504 332.879 171.933 306.881 175.816C280.884 179.7 256.817 191.833 238.219 210.433C218.187 230.498 205.701 256.882 202.877 285.112C200.052 313.342 207.064 341.682 222.723 365.327C238.382 388.973 261.724 406.47 288.795 414.852C315.865 423.234 344.997 421.986 371.253 411.32L372.058 413.308C357.116 419.39 341.138 422.518 325.008 422.52V422.52Z" fill="#D4CEFF"/>
</g>
<g style="mix-blend-mode:luminosity" opacity="0.6">
<path d="M408.009 559.819L407.365 557.766C423.869 552.548 439.837 545.76 455.048 537.494L455.993 536.978L466.234 555.863C490.766 542.389 513.258 525.487 533.035 505.668C535.021 503.669 537.007 501.627 538.929 499.595L523.31 484.892L524.051 484.107C531.377 476.274 538.241 468.019 544.607 459.386L546.336 460.665C540.132 469.068 533.459 477.114 526.348 484.763L541.999 499.466L541.258 500.251C539.111 502.562 536.846 504.884 534.581 507.151C514.408 527.377 491.425 544.58 466.341 558.228L465.396 558.744L455.166 539.859C440.106 547.975 424.317 554.657 408.009 559.819V559.819Z" fill="#D4CEFF"/>
</g>
<g style="mix-blend-mode:luminosity" opacity="0.6">
<path d="M193.101 563.162L192.146 562.678C166.621 549.855 143.089 533.393 122.285 513.805L121.501 513.074L136.186 497.414C134.039 495.425 132.3 493.695 130.615 492.04C110.834 472.268 94.1822 449.59 81.2357 424.787L83.1358 423.787C95.9828 448.395 112.504 470.895 132.129 490.513C134.007 492.394 136.004 494.329 138.441 496.608L139.224 497.349L124.539 513.01C144.749 531.879 167.516 547.8 192.168 560.303L201.829 541.106L202.784 541.579C218.085 549.265 234.08 555.48 250.553 560.141L249.963 562.216C233.709 557.59 217.916 551.473 202.784 543.944L193.101 563.162Z" fill="#D4CEFF"/>
</g>
<g style="mix-blend-mode:luminosity" opacity="0.6">
<path d="M595.714 181.863C592.236 173.694 588.35 165.59 584.142 157.765L565.292 168.019L564.777 167.073C552.239 143.982 536.439 122.823 517.867 104.249C514.861 101.239 511.651 98.176 508.313 95.1449L507.518 94.4248L521.946 78.5279C501.442 59.9775 478.425 44.418 453.577 32.3099L444.27 51.6569L443.304 51.1948C415.657 37.873 385.956 29.3362 355.462 25.9468L355.698 23.7971C386.073 27.1752 415.669 35.6182 443.261 48.7764L452.568 29.4293L453.534 29.9022C479.267 42.3086 503.067 58.3872 524.189 77.6358L524.984 78.3559L510.556 94.2743C513.626 97.1011 516.6 99.9387 519.391 102.733C537.849 121.19 553.593 142.18 566.151 165.074L585.001 154.82L585.516 155.766C589.95 163.935 594.051 172.458 597.69 181.025L595.714 181.863Z" fill="#D4CEFF"/>
</g>
<g style="mix-blend-mode:luminosity" opacity="0.6">
<path d="M484.344 360.544L482.347 359.749C493.257 332.009 496.718 301.892 492.384 272.397L494.531 272.074C498.923 301.947 495.418 332.451 484.365 360.544L484.344 360.544Z" fill="#D4CEFF"/>
</g>
<g style="mix-blend-mode:luminosity" opacity="0.6">
<path d="M325.439 468.909C318.763 468.905 312.093 468.521 305.461 467.759C211.63 456.936 144.077 371.712 154.876 277.76C160.072 232.571 182.983 191.3 218.569 163.024C254.155 134.748 299.5 121.783 344.632 126.982C388.711 131.975 429.11 153.976 457.249 188.312L455.596 189.731C427.419 155.471 386.938 133.655 342.86 128.975C298.783 124.296 254.632 137.127 219.906 164.709C202.461 178.489 187.92 195.597 177.124 215.043C166.328 234.49 159.492 255.887 157.012 277.997C146.352 370.777 213.079 454.936 305.708 465.62C331.406 468.653 357.457 465.684 381.817 456.946L382.547 458.967C364.225 465.551 344.905 468.914 325.439 468.909Z" fill="#D4CEFF"/>
</g>
<g style="mix-blend-mode:luminosity" opacity="0.6">
<path d="M322.701 409.224L322.164 409.224C320.911 409.224 319.655 409.17 318.396 409.062L317.859 409.062L318.342 400.786L318.879 400.786C320.049 400.851 321.208 400.904 322.368 400.926L322.904 400.926L322.701 409.224ZM318.997 408.009C319.888 408.009 320.768 408.095 321.659 408.127L321.81 401.979C320.994 401.979 320.167 401.915 319.351 401.872L318.997 408.009ZM329.174 409.17L328.819 400.883L329.356 400.883C330.515 400.829 331.685 400.765 332.845 400.679L333.381 400.679L334.004 408.955L333.467 408.955C332.222 409.052 330.966 409.127 329.71 409.181L329.174 409.17ZM329.936 401.915L330.193 408.052C331.084 408.052 331.975 407.955 332.856 407.891L332.394 401.764C331.578 401.829 330.752 401.872 329.936 401.915V401.915ZM311.418 408.428L310.882 408.353C309.647 408.192 308.402 408.02 307.157 407.816L306.631 407.73L307.94 399.539L308.477 399.625C309.626 399.808 310.774 399.98 311.934 400.131L312.46 400.195L311.418 408.428ZM307.855 406.848C308.735 406.984 309.615 407.113 310.495 407.235L311.257 401.13C310.452 401.023 309.647 400.915 308.831 400.786L307.855 406.848ZM340.445 408.192L339.264 399.98L339.79 399.905C340.949 399.744 342.098 399.561 343.247 399.346L343.773 399.26L345.222 407.418L344.696 407.515C343.461 407.74 342.216 407.934 340.971 408.117L340.445 408.192ZM340.445 400.894L341.314 406.977C342.195 406.848 343.075 406.709 343.944 406.547L342.871 400.507C342.098 400.636 341.293 400.765 340.477 400.883L340.445 400.894ZM300.244 406.494L299.728 406.375C298.505 406.096 297.292 405.795 296.079 405.473L295.553 405.333L297.7 397.314L298.215 397.454C299.342 397.755 300.469 398.035 301.607 398.293L302.122 398.422L300.244 406.494ZM296.873 404.57L299.449 405.204L300.823 399.217C300.029 399.034 299.235 398.83 298.451 398.626L296.873 404.57ZM351.534 406.074L349.526 398.024L350.052 397.895C351.183 397.615 352.31 397.314 353.434 396.992L353.949 396.842L356.214 404.817L355.699 404.967C354.486 405.311 353.273 405.634 352.049 405.945L351.534 406.074ZM350.825 398.809L352.307 404.763C353.176 404.548 354.035 404.322 354.883 404.075L353.208 398.164C352.435 398.386 351.652 398.597 350.857 398.798L350.825 398.809ZM289.402 403.441L288.886 403.258C287.706 402.861 286.525 402.431 285.355 401.99L284.85 401.797L287.781 394.047L288.285 394.23C289.359 394.649 290.432 395.036 291.57 395.412L292.075 395.584L289.402 403.441ZM286.181 401.173C287.008 401.485 287.845 401.786 288.672 402.076L290.658 396.261C289.885 395.992 289.123 395.713 288.35 395.423L286.181 401.173ZM278.892 399.324L278.399 399.099C277.261 398.572 276.134 398.024 275.007 397.465L274.523 397.228L278.216 389.801L278.699 390.049C279.737 390.564 280.789 391.07 281.855 391.564L282.338 391.779L278.892 399.324ZM275.962 396.745C276.756 397.143 277.561 397.519 278.356 397.895L280.921 392.316L278.699 391.242L275.962 396.745ZM268.834 394.122L268.373 393.854C267.285 393.223 266.211 392.567 265.152 391.887L264.701 391.596L269.145 384.588L269.596 384.879C270.584 385.502 271.571 386.115 272.57 386.706L273.031 386.975L268.834 394.122ZM266.183 391.263C266.934 391.736 267.696 392.198 268.458 392.65L271.571 387.361C270.856 386.946 270.158 386.516 269.478 386.072L266.183 391.263ZM400.935 379.483L395.277 373.421L395.675 373.055C396.512 372.26 397.349 371.454 398.187 370.626L398.723 370.078L404.584 375.936L404.058 376.473C403.146 377.387 402.244 378.258 401.332 379.117L400.935 379.483ZM396.748 373.528L400.945 378.01C401.643 377.355 402.33 376.688 403.028 375.99L398.734 371.69C398.047 372.228 397.403 372.862 396.748 373.528ZM408.953 371.25L402.706 365.8L403.06 365.392C403.833 364.51 404.584 363.618 405.314 362.715L405.658 362.307L412.099 367.541L411.766 367.961C410.971 368.928 410.156 369.895 409.329 370.841L408.953 371.25ZM404.219 365.693L408.857 369.734C409.436 369.057 410.005 368.38 410.564 367.692L405.808 363.812C405.293 364.392 404.756 365.016 404.219 365.639L404.219 365.693ZM235.331 364.102L235.009 363.661C234.258 362.651 233.528 361.619 232.862 360.587L232.562 360.147L239.389 355.45L239.69 355.89C240.355 356.847 241.031 357.803 241.718 358.749L242.04 359.179L235.331 364.102ZM234.011 360.426C234.515 361.146 235.084 361.877 235.557 362.576L240.495 358.932C240.012 358.266 239.539 357.599 239.067 356.922L234.011 360.426ZM415.963 362.328L409.19 357.535L409.501 357.094C410.177 356.148 410.832 355.181 411.476 354.213L411.766 353.762L418.69 358.319L418.389 358.771C417.702 359.846 416.994 360.856 416.242 361.888L415.963 362.328ZM410.692 357.277L415.705 360.824C416.21 360.093 416.715 359.362 417.198 358.62L412.109 355.256L410.692 357.277ZM229.041 354.676L228.762 354.213C228.128 353.139 227.506 352.064 226.905 350.935L226.647 350.462L233.925 346.485L234.183 346.958C234.73 347.979 235.256 348.99 235.9 350L236.169 350.462L229.041 354.676ZM228.107 350.892C228.536 351.666 228.966 352.44 229.416 353.203L234.709 350.086C234.29 349.377 233.882 348.667 233.496 347.936L228.107 350.892ZM422.093 352.784L414.89 348.71L415.147 348.237C415.727 347.227 416.274 346.195 416.811 345.163L417.058 344.69L424.411 348.517L424.164 349C423.585 350.111 422.984 351.218 422.361 352.322L422.093 352.784ZM416.339 348.302L421.706 351.322C422.136 350.548 422.554 349.764 422.973 348.979L417.53 346.141C417.122 346.862 416.736 347.582 416.339 348.302ZM223.738 344.669L223.523 344.185C222.986 343.024 222.45 341.874 221.999 340.703L221.784 340.208L229.427 336.984L229.631 337.489C230.082 338.564 230.554 339.639 231.048 340.713L231.274 341.197L223.738 344.669ZM223.19 340.789C223.545 341.606 223.899 342.422 224.264 343.239L229.835 340.67C229.492 339.918 229.17 339.176 228.848 338.413L223.19 340.789ZM427.149 342.67L419.559 339.348L419.774 338.854C420.246 337.779 420.686 336.704 421.116 335.63L421.309 335.135L429.016 338.188L428.812 338.693C428.347 339.854 427.864 341.014 427.363 342.175L427.149 342.67ZM420.976 338.8L426.601 341.262C426.955 340.445 427.288 339.628 427.621 338.8L421.91 336.543C421.631 337.295 421.33 338.048 421.008 338.8L420.976 338.8ZM219.519 334.146L219.347 333.641C218.939 332.448 218.553 331.244 218.188 330.04L218.027 329.524L225.96 327.117L226.11 327.633C226.443 328.708 226.808 329.858 227.184 330.965L227.355 331.47L219.519 334.146ZM219.369 330.234C219.627 331.094 219.906 331.943 220.185 332.781L225.992 330.803C225.735 330.019 225.477 329.234 225.241 328.46L219.369 330.234ZM431.26 332.115L423.37 329.578L423.531 329.062C423.885 327.987 424.218 326.848 424.54 325.73L424.68 325.214L432.655 327.471L432.505 327.987C432.162 329.191 431.807 330.395 431.432 331.599L431.26 332.115ZM424.712 328.89L430.562 330.771C430.831 329.922 431.077 329.073 431.324 328.224L425.42 326.547C425.163 327.31 424.927 328.106 424.68 328.88L424.712 328.89ZM216.299 323.258L216.181 322.742C215.891 321.506 215.633 320.27 215.386 319.034L215.29 318.507L223.416 316.917L223.523 317.443C223.749 318.583 223.985 319.733 224.253 320.861L224.371 321.388L216.299 323.258ZM216.546 319.356C216.717 320.227 216.911 321.098 217.104 321.968L223.083 320.582C222.901 319.786 222.729 318.98 222.568 318.174L216.546 319.356ZM434.212 321.184L426.107 319.464L426.225 318.937C426.462 317.798 426.687 316.659 426.891 315.509L426.977 314.982L435.135 316.433L435.039 316.96C434.824 318.196 434.588 319.432 434.33 320.657L434.212 321.184ZM427.385 318.636L433.385 319.915C433.568 319.045 433.74 318.174 433.89 317.304L427.846 316.229C427.664 317.035 427.503 317.841 427.342 318.636L427.385 318.636ZM214.324 312.112L214.248 311.585C214.087 310.328 213.959 309.081 213.841 307.823L213.787 307.286L222.031 306.523L222.031 307.06C222.138 308.221 222.267 309.371 222.418 310.532L222.482 311.069L214.324 312.112ZM214.957 308.264C215.043 309.145 215.139 310.027 215.247 310.908L221.333 310.134C221.237 309.317 221.151 308.511 221.065 307.694L214.957 308.264ZM436.091 310.016L427.857 309.124L427.911 308.587C428.04 307.433 428.147 306.272 428.233 305.104L428.233 304.577L436.498 305.19L436.498 305.727C436.413 306.974 436.295 308.232 436.155 309.479L436.091 310.016ZM429.038 308.167L435.135 308.834C435.232 307.952 435.307 307.06 435.382 306.179L429.263 305.727C429.113 306.544 429.038 307.361 428.952 308.167L429.038 308.167ZM213.443 300.826L213.443 300.278C213.443 299.024 213.443 297.767 213.443 296.505L213.443 295.968L221.73 296.032L221.73 296.57C221.73 297.741 221.73 298.902 221.73 300.074L221.73 300.611L213.443 300.826ZM214.517 297.054C214.517 297.946 214.517 298.827 214.517 299.719L220.657 299.558C220.657 298.741 220.657 297.924 220.657 297.107L214.517 297.054ZM436.831 298.72L428.555 298.655L428.555 298.118C428.555 296.957 428.555 295.785 428.555 294.624L428.555 294.087L436.842 293.861L436.842 294.399C436.842 295.656 436.896 296.925 436.842 298.182L436.831 298.72ZM429.628 297.591L435.769 297.591C435.769 296.699 435.769 295.817 435.769 294.925L429.639 295.087C429.499 295.946 429.499 296.774 429.499 297.591L429.628 297.591ZM221.849 290.121L213.594 289.497L213.594 288.96C213.69 287.702 213.808 286.456 213.948 285.209L214.002 284.671L222.235 285.564L222.181 286.101C222.053 287.262 221.945 288.423 221.859 289.583L221.849 290.121ZM214.742 288.509L220.861 288.971C220.925 288.154 221.001 287.337 221.086 286.52L214.989 285.854C214.893 286.735 214.817 287.627 214.742 288.509ZM428.018 288.175L428.018 287.638C427.9 286.477 427.771 285.316 427.632 284.166L427.557 283.629L435.779 282.554L435.844 283.091C436.005 284.338 436.144 285.585 436.262 286.843L436.262 287.38L428.018 288.175ZM428.716 284.553C428.812 285.37 428.909 286.187 428.984 287.004L435.092 286.423C435.006 285.542 434.91 284.661 434.802 283.779L428.716 284.553ZM223.105 279.716L214.946 278.265L215.043 277.739C215.258 276.492 215.504 275.256 215.762 274.03L215.88 273.504L223.985 275.234L223.867 275.75C223.631 276.9 223.405 278.04 223.201 279.179L223.105 279.716ZM216.191 277.395L222.235 278.47C222.385 277.663 222.546 276.857 222.707 276.062L216.707 274.783C216.528 275.657 216.356 276.528 216.191 277.395V277.395ZM426.59 277.782L426.483 277.255C426.258 276.116 426.011 274.966 425.753 273.826L425.624 273.31L433.675 271.419L433.793 271.945C434.083 273.171 434.352 274.407 434.588 275.643L434.695 276.169L426.59 277.782ZM426.912 274.116C427.095 274.912 427.267 275.718 427.428 276.524L433.45 275.331C433.278 274.46 433.096 273.59 432.892 272.719L426.912 274.116ZM225.423 269.495L217.458 267.216L217.608 266.7C217.952 265.496 218.306 264.292 218.682 263.099L218.854 262.583L226.733 265.12L226.572 265.636C226.218 266.711 225.874 267.861 225.563 268.979L225.423 269.495ZM218.789 266.485L224.661 268.194C224.897 267.409 225.133 266.636 225.38 265.851L219.519 263.895C219.262 264.787 219.015 265.625 218.768 266.485L218.789 266.485ZM424.089 267.56L423.939 267.055C423.595 265.98 423.241 264.83 422.865 263.723L422.694 263.207L430.53 260.52L430.702 261.025C431.11 262.218 431.507 263.422 431.872 264.626L432.022 265.142L424.089 267.56ZM424.089 263.873C424.347 264.658 424.604 265.443 424.851 266.227L430.713 264.432C430.455 263.583 430.176 262.734 429.897 261.885L424.089 263.873ZM228.719 259.595L221.022 256.532L221.215 256.027C221.688 254.866 222.171 253.705 222.675 252.544L222.89 252.061L230.479 255.382L230.265 255.876C229.792 256.951 229.341 258.026 228.923 259.101L228.719 259.595ZM222.418 255.93L228.107 258.166C228.418 257.413 228.729 256.661 229.052 255.909L223.427 253.437C223.094 254.221 222.74 255.07 222.418 255.898L222.418 255.93ZM420.558 257.725L420.343 257.231C419.892 256.156 419.42 255.081 418.937 254.006L418.711 253.512L426.225 250.04L426.451 250.524C426.988 251.674 427.524 252.835 427.986 253.996L428.19 254.49L420.558 257.725ZM420.128 254.06C420.472 254.812 420.804 255.565 421.126 256.328L426.784 253.942C426.429 253.114 426.075 252.297 425.71 251.491L420.128 254.06ZM416.049 248.256L415.791 247.783C415.233 246.708 414.664 245.751 414.063 244.741L413.795 244.279L420.923 240.055L421.191 240.517C421.835 241.606 422.458 242.703 423.059 243.806L423.316 244.268L416.049 248.256ZM415.265 244.655C415.673 245.365 416.081 246.074 416.478 246.805L421.846 243.86C421.416 243.075 420.976 242.312 420.525 241.538L415.265 244.655ZM410.617 239.281L410.306 238.84C409.651 237.884 408.975 236.938 408.277 235.992L407.966 235.562L414.621 230.629L414.943 231.069C415.695 232.08 416.425 233.101 417.09 234.143L417.391 234.584L410.617 239.281ZM409.458 235.788C409.952 236.454 410.424 237.121 410.886 237.787L415.963 234.283C415.459 233.552 414.943 232.832 414.417 232.133L409.458 235.788ZM404.295 230.919L403.94 230.51C403.189 229.629 402.427 228.748 401.643 227.888L401.278 227.49L407.375 221.89L407.74 222.288C408.588 223.223 409.415 224.169 410.231 225.125L410.574 225.534L404.295 230.919ZM402.792 227.565C403.339 228.167 403.865 228.791 404.413 229.414L409.093 225.426L407.375 223.406L402.792 227.565ZM251.433 224.674L245.561 218.752L246.034 218.289C246.893 217.419 247.762 216.58 248.653 215.742L249.039 215.377L254.707 221.428L254.31 221.793C253.494 222.567 252.689 223.352 251.884 224.158L251.433 224.674ZM247.086 218.752L251.38 223.051C251.959 222.47 252.55 221.901 253.151 221.342L248.996 216.935C248.352 217.537 247.708 218.16 247.086 218.752ZM397.156 223.18L396.77 222.804C395.932 221.998 395.074 221.202 394.215 220.428L393.818 220.063L399.367 213.904L399.765 214.259C400.698 215.108 401.611 215.968 402.523 216.838L402.91 217.215L397.156 223.18ZM395.331 219.955C395.932 220.504 396.533 221.03 397.124 221.632L401.418 217.204C400.784 216.591 400.13 215.989 399.475 215.387L395.331 219.955ZM259.151 217.558L253.902 211.109L254.321 210.765C255.298 209.97 256.275 209.185 257.273 208.422L257.702 208.1L262.737 214.689L262.307 215.011C261.384 215.72 260.472 216.441 259.57 217.161L259.151 217.558ZM255.416 211.292L259.302 216.043C259.935 215.527 260.579 215.022 261.234 214.517L257.498 209.637C256.801 210.153 256.103 210.733 255.416 211.292V211.292ZM267.546 211.292L262.973 204.37L263.413 204.08C264.465 203.363 265.539 202.686 266.634 202.049L267.084 201.769L271.378 208.831L270.938 209.078C269.951 209.691 268.963 210.314 267.997 210.959L267.546 211.292ZM264.454 204.682L267.825 209.798C268.512 209.347 269.199 208.906 269.897 208.476L266.676 203.242C265.946 203.704 265.206 204.187 264.454 204.682V204.682ZM276.531 205.907L272.677 198.566L273.192 198.33C274.266 197.749 275.436 197.18 276.574 196.631L277.057 196.395L280.653 203.919L280.17 204.155C279.096 204.66 278.077 205.23 277.035 205.735L276.531 205.907ZM274.137 199.018L276.982 204.456C277.712 204.08 278.452 203.704 279.129 203.381L276.52 197.814C275.726 198.201 274.921 198.598 274.137 199.018ZM286.074 201.457L282.961 193.762L283.455 193.557C284.625 193.095 285.806 192.644 286.986 192.214L287.491 192.031L290.368 199.834L289.863 200.017C288.79 200.415 287.716 200.823 286.643 201.264L286.074 201.457ZM284.399 194.363L286.675 200.071C287.437 199.759 288.21 199.469 288.983 199.189L286.836 193.407C286.01 193.719 285.183 194.03 284.356 194.363L284.399 194.363ZM295.939 198.007L293.663 190.032L294.179 189.892C295.381 189.537 296.605 189.215 297.818 188.914L298.344 188.774L300.351 196.825L299.836 196.954C298.762 197.244 297.571 197.545 296.454 197.867L295.939 198.007ZM294.984 190.806L296.669 196.717C297.463 196.495 298.258 196.28 299.052 196.072L297.56 190.086C296.701 190.301 295.842 190.537 294.984 190.806ZM306.137 195.621L304.677 187.452L305.203 187.356C306.438 187.13 307.683 186.936 308.928 186.754L309.465 186.678L310.646 194.89L310.12 194.965C308.96 195.127 307.812 195.32 306.663 195.524L306.137 195.621ZM305.922 188.323L306.996 194.374C307.801 194.234 308.606 194.095 309.422 193.977L308.542 187.893C307.672 187.99 306.792 188.14 305.922 188.291L305.922 188.323ZM316.528 194.234L315.895 185.958L316.432 185.958C317.684 185.865 318.94 185.79 320.199 185.733L320.736 185.733L321.09 194.02L320.554 194.02C319.351 194.03 318.278 194.03 317.065 194.159L316.528 194.234ZM317.043 186.958L317.516 193.084C318.332 193.02 319.147 192.977 319.963 192.934L319.706 186.797C318.815 186.807 317.934 186.861 317.043 186.926L317.043 186.958ZM331.557 194.03L331.02 194.03C329.861 193.966 328.701 193.912 327.542 193.891L327.005 193.891L327.198 185.604L327.735 185.604C328.987 185.604 330.243 185.657 331.503 185.765L332.04 185.765L331.557 194.03ZM328.1 192.794C328.916 192.794 329.732 192.826 330.548 192.891L330.913 186.764C330.022 186.711 329.131 186.678 328.25 186.646L328.1 192.794Z" fill="#D4CEFF"/>
</g>
<g style="mix-blend-mode:luminosity" opacity="0.6">
<path d="M326.607 532.024C324.299 532.024 321.981 532.024 319.684 531.927L319.147 531.927L319.619 515.59L320.156 515.59C322.625 515.654 325.115 515.686 327.563 515.675L328.1 515.675L328.175 532.013L326.607 532.013L326.607 532.024ZM320.252 530.863C322.518 530.927 324.815 530.938 327.09 530.949L327.026 516.75C324.879 516.75 322.732 516.75 320.66 516.675L320.252 530.863ZM342.999 531.443L341.829 515.149L342.366 515.149C344.792 514.977 347.272 514.751 349.751 514.493L350.288 514.439L352.006 530.691L351.48 530.745C348.871 531.024 346.198 531.261 343.536 531.454L342.999 531.443ZM342.999 516.138L344.04 530.293C346.327 530.132 348.624 529.917 350.868 529.691L349.376 515.579C347.261 515.794 345.114 515.987 342.967 516.138L342.999 516.138ZM304.322 530.981L303.786 530.927C301.145 530.669 298.483 530.369 295.874 530.025L295.348 529.96L297.495 513.752L298.021 513.827C300.436 514.138 302.916 514.418 305.374 514.654L305.911 514.708L304.322 530.981ZM296.55 529.036C298.794 529.326 301.08 529.584 303.356 529.81L304.709 515.675C302.562 515.471 300.415 515.224 298.386 514.955L296.55 529.036ZM366.691 528.584L363.867 512.462L364.404 512.376C366.809 511.946 369.256 511.473 371.693 510.968L372.219 510.86L375.568 526.854L375.042 526.961C372.477 527.499 369.836 528.036 367.217 528.466L366.691 528.584ZM365.113 513.354L367.56 527.327C369.814 526.929 372.079 526.488 374.291 526.026L371.403 512.182C369.31 512.58 367.206 512.988 365.134 513.354L365.113 513.354ZM389.995 523.328L385.562 507.593L386.077 507.453C388.428 506.787 390.822 506.066 393.194 505.303L393.699 505.142L398.658 520.706L398.154 520.867C395.631 521.673 393.055 522.447 390.511 523.167L389.995 523.328ZM386.882 508.334L390.736 521.996C392.883 521.372 395.137 520.706 397.317 520.018L393.023 506.496C390.983 507.141 388.933 507.765 386.904 508.334L386.882 508.334ZM412.646 515.718L406.634 500.52L407.139 500.316C409.393 499.424 411.701 498.467 413.998 497.468L414.492 497.253L421.008 512.236L420.525 512.451C418.12 513.526 415.641 514.525 413.15 515.514L412.646 515.718ZM408.03 501.122L413.29 514.332C415.437 513.472 417.584 512.591 419.634 511.688L413.966 498.672C411.991 499.521 410.016 500.359 408.062 501.122L408.03 501.122ZM434.405 505.83L426.89 491.33L427.374 491.083C429.52 490.008 431.667 488.772 433.879 487.547L434.351 487.289L442.359 501.531L441.898 501.789C439.579 503.1 437.228 504.368 434.899 505.583L434.405 505.83ZM428.361 491.76L434.899 504.347C436.906 503.272 438.924 502.197 440.921 501.122L433.965 488.751C432.065 489.793 430.218 490.814 428.361 491.76ZM455.058 493.77L446.095 480.109L446.546 479.819C448.607 478.454 450.668 477.057 452.664 475.638L453.104 475.326L462.519 488.686L462.079 488.987C459.932 490.481 457.785 491.997 455.509 493.469L455.058 493.77ZM447.544 480.421L455.337 492.244C457.259 490.976 459.159 489.675 460.984 488.385L452.815 476.788C451.119 478.067 449.358 479.281 447.576 480.453L447.544 480.421ZM474.305 479.722L464.065 467.039L464.483 466.695C466.33 465.19 468.176 463.643 469.969 462.084L470.57 461.568L481.251 473.929L480.65 474.445C478.728 476.111 476.742 477.777 474.756 479.389L474.305 479.722ZM465.535 467.179L474.466 478.207C476.227 476.766 477.987 475.294 479.705 473.8L470.43 463.051C468.863 464.492 467.221 465.867 465.567 467.211L465.535 467.179ZM156.946 459.977L156.571 459.59C154.724 457.666 152.91 455.71 151.203 453.754L150.849 453.356L162.99 442.436L163.355 442.844C165.008 444.682 166.704 446.51 168.389 448.272L168.765 448.659L156.946 459.977ZM152.32 453.442C153.833 455.119 155.39 456.807 156.979 458.462L167.198 448.627C165.749 447.112 164.3 445.542 162.904 443.962L152.32 453.442ZM141.263 441.985L140.93 441.565C139.331 439.523 137.71 437.395 136.132 435.224L135.81 434.794L148.981 425.12L149.303 425.55C150.742 427.528 152.255 429.516 153.78 431.473L154.102 431.892L141.263 441.985ZM137.313 435.02C138.687 436.879 140.071 438.717 141.445 440.48L152.599 431.72C151.289 430.043 150.001 428.334 148.745 426.636L137.313 435.02ZM127.458 422.508L127.168 422.057C125.773 419.854 124.377 417.564 123.025 415.253L122.756 414.791L136.83 406.515L137.109 406.988C138.343 409.137 139.642 411.287 140.962 413.319L141.252 413.77L127.458 422.508ZM124.238 415.178C125.408 417.156 126.599 419.123 127.802 421.025L139.782 413.437C138.708 411.642 137.538 409.815 136.465 407.987L124.238 415.178ZM534.688 406.504L520.25 398.884L520.497 398.411C521.634 396.261 522.751 394.036 523.824 391.811L524.061 391.327L538.756 398.443L538.52 398.927C537.371 401.302 536.169 403.688 534.945 406.031L534.688 406.504ZM521.699 398.432L534.237 405.053C535.31 403.032 536.33 400.979 537.318 398.948L524.554 392.768C523.653 394.702 522.697 396.605 521.72 398.464L521.699 398.432ZM115.693 401.732L115.457 401.248C114.265 398.851 113.106 396.433 112.022 394.057L111.807 393.563L126.653 386.77L126.868 387.265C127.941 389.5 129.015 391.747 130.088 393.95L130.324 394.434L115.693 401.732ZM113.224 394.09C114.169 396.143 115.156 398.228 116.176 400.281L128.864 393.95C127.92 392.058 127.007 390.124 126.116 388.2L113.224 394.09ZM544.757 384.878L529.621 378.763L529.825 378.268C530.727 376.011 531.618 373.689 532.466 371.357L532.648 370.852L547.988 376.441L547.806 376.946C546.893 379.45 545.938 381.944 544.961 384.373L544.757 384.878ZM531.017 378.171L544.166 383.481C545.004 381.385 545.82 379.235 546.614 377.086L533.292 372.228C532.573 374.27 531.811 376.258 531.027 378.204L531.017 378.171ZM106.107 379.848L105.925 379.343C104.991 376.871 104.089 374.345 103.23 371.819L103.058 371.314L118.516 366.069L118.688 366.574C119.482 368.928 120.33 371.282 121.189 373.582L121.382 374.076L106.107 379.848ZM104.422 371.98C105.162 374.13 105.935 376.28 106.73 378.429L120.008 373.528C119.268 371.55 118.549 369.53 117.861 367.498L104.422 371.98ZM98.7753 357.062L98.6357 356.546C97.9702 353.998 97.3261 351.397 96.7357 348.796L96.6176 348.269L112.526 344.636L112.644 345.152C113.192 347.549 113.782 349.978 114.416 352.365L114.555 352.891L98.7753 357.062ZM97.895 349.075C98.4103 351.311 98.9685 353.558 99.5374 355.75L113.246 352.128C112.709 350.064 112.172 347.979 111.721 345.915L97.895 349.075ZM93.7944 333.662L93.7193 333.136C93.3006 330.492 92.9249 327.837 92.6458 325.236L92.5814 324.698L108.78 322.699L108.844 323.226C109.145 325.676 109.499 328.148 109.918 330.588L110.004 331.115L93.7944 333.662ZM93.73 325.633C94.0198 327.88 94.3419 330.169 94.6961 332.437L108.651 330.223C108.318 328.073 108.029 325.999 107.76 323.892L93.73 325.633ZM91.2181 309.898L91.2181 309.36C91.0678 306.716 90.9605 303.986 90.9068 301.396L90.9068 300.858L107.223 300.504L107.223 301.041C107.223 303.524 107.374 306.017 107.513 308.457L107.513 308.995L91.2181 309.898ZM91.9588 301.912C91.9588 304.19 92.1091 306.49 92.2271 308.769L106.375 307.974C106.268 305.878 106.182 303.739 106.129 301.6L91.9588 301.912ZM545.68 291.894L545.68 291.357C545.68 288.906 545.541 286.412 545.401 283.94L545.401 283.403L561.696 282.511L561.696 283.048C561.846 285.66 561.943 288.336 562.007 291.013L562.007 291.55L545.68 291.894ZM546.496 284.37C546.603 286.52 546.689 288.67 546.732 290.744L560.902 290.443C560.902 288.143 560.762 285.843 560.644 283.586L546.496 284.37ZM107.342 286.692L91.0356 285.95L91.0356 285.413C91.1537 282.769 91.3254 280.092 91.5294 277.459L91.5294 276.932L107.878 278.297L107.878 278.835C107.685 281.275 107.524 283.768 107.417 286.24L107.342 286.692ZM92.152 284.929L106.311 285.563C106.418 283.414 106.547 281.264 106.708 279.2L92.5814 278.125C92.4204 280.436 92.2701 282.736 92.1627 285.015L92.152 284.929ZM544.145 269.634L544.081 269.097C543.78 266.625 543.437 264.153 543.061 261.756L542.975 261.229L559.077 258.682L559.163 259.219C559.571 261.831 559.946 264.496 560.236 267.119L560.301 267.657L544.145 269.634ZM544.209 262.11C544.521 264.174 544.821 266.302 545.09 268.43L559.152 266.711C558.873 264.443 558.551 262.164 558.207 259.907L544.209 262.11ZM109.456 264.529L93.3543 262.153L93.4294 261.627C93.8159 259.015 94.2453 256.381 94.7176 253.77L94.8142 253.243L110.916 256.156L110.82 256.682C110.369 259.155 109.972 261.616 109.617 264.002L109.456 264.529ZM94.5244 261.25L108.555 263.314C108.855 261.25 109.199 259.144 109.628 257.026L95.673 254.49C95.1899 256.833 94.8142 259.101 94.4814 261.347L94.5244 261.25ZM540.399 247.772L540.281 247.245C539.733 244.859 539.143 242.43 538.509 240.044L538.381 239.517L554.16 235.358L554.3 235.884C554.976 238.475 555.62 241.086 556.2 243.645L556.318 244.171L540.399 247.772ZM539.69 240.248C540.227 242.301 540.764 244.386 541.204 246.45L555.03 243.311C554.525 241.108 553.956 238.862 553.398 236.626L539.69 240.248ZM113.696 242.763L97.8628 238.765L97.9916 238.249C98.6357 235.68 99.3335 233.1 100.063 230.564L100.214 230.048L115.897 234.573L115.747 235.089C115.07 237.432 114.426 239.84 113.825 242.237L113.696 242.763ZM99.1725 238.098L112.913 241.559C113.439 239.496 113.986 237.443 114.566 235.411L100.954 231.488C100.364 233.616 99.7307 235.831 99.1725 238.098ZM534.419 226.34L534.258 225.835C533.475 223.502 532.637 221.148 531.768 218.837L531.575 218.332L546.85 212.582L547.043 213.087C547.988 215.602 548.89 218.139 549.716 220.611L549.888 221.116L534.419 226.34ZM532.97 218.966C533.711 220.955 534.43 222.975 535.117 224.975L548.557 220.45C547.827 218.3 547.054 216.15 546.249 214.001L532.97 218.966ZM120.148 221.557L104.808 215.978L104.991 215.473C105.892 212.969 106.848 210.464 107.825 208.046L108.029 207.541L123.164 213.646L122.971 214.14C122.059 216.408 121.168 218.73 120.33 221.051L120.148 221.557ZM106.193 215.333L119.515 220.181C120.245 218.182 121.007 216.193 121.78 214.237L108.63 208.949C107.771 211.034 106.955 213.184 106.171 215.333L106.193 215.333ZM526.326 205.66L526.111 205.176C525.091 202.94 524.028 200.694 522.89 198.48L522.654 197.996L537.264 190.687L537.5 191.171C538.703 193.589 539.851 196.019 540.925 198.372L541.139 198.856L526.326 205.66ZM524.125 198.48C525.07 200.382 525.982 202.317 526.862 204.241L539.744 198.362C538.81 196.33 537.822 194.245 536.792 192.16L524.125 198.48ZM128.714 201.102L113.997 194.03L114.222 193.546C115.382 191.139 116.584 188.753 117.797 186.442L118.044 185.958L132.493 193.568L132.246 194.041C131.172 196.19 130.002 198.415 128.929 200.64L128.714 201.102ZM115.393 193.471L128.167 199.641C129.09 197.727 130.045 195.825 131.011 193.966L118.463 187.366C117.454 189.354 116.466 191.407 115.393 193.471ZM516.106 185.872L515.838 185.41C514.56 183.26 513.261 181.111 511.984 179.079L511.694 178.617L525.499 169.9L525.778 170.351C527.206 172.609 528.601 174.898 529.922 177.155L530.19 177.617L516.106 185.872ZM513.208 178.982C514.281 180.734 515.419 182.562 516.525 184.432L528.752 177.252C527.614 175.306 526.411 173.35 525.198 171.405L513.208 178.982ZM139.288 181.562L125.333 172.963L125.612 172.512C127.007 170.244 128.446 167.976 129.906 165.794L130.206 165.343L143.807 174.382L143.507 174.823C142.229 176.886 140.866 178.982 139.567 181.132L139.288 181.562ZM126.857 172.652L138.934 180.057C140.007 178.241 141.209 176.446 142.358 174.683L130.55 166.837C129.348 168.761 128.07 170.695 126.857 172.652ZM151.826 163.214L138.858 153.283L139.191 152.853C140.791 150.703 142.412 148.65 144.129 146.608L144.473 146.2L157.086 156.561L156.753 156.98C155.164 158.915 153.619 160.871 152.148 162.784L151.826 163.214ZM140.372 153.079L151.622 161.677C152.889 160.022 154.22 158.345 155.583 156.679L144.623 147.705C143.185 149.467 141.757 151.273 140.372 153.079ZM166.135 146.232L154.263 135.043L154.638 134.645C156.442 132.732 158.31 130.808 160.188 128.938L160.564 128.562L172.071 140.148L171.696 140.535C169.935 142.277 168.196 144.061 166.522 145.845L166.135 146.232ZM155.766 134.989L166.092 144.663C167.541 143.126 169.034 141.599 170.536 140.095L160.542 130.023C158.943 131.689 157.344 133.345 155.787 134.989L155.766 134.989ZM182.108 130.787L171.374 118.437L172.114 117.792C174.186 115.997 176.194 114.32 178.255 112.643L178.727 112.342L189 125.047L188.581 125.391C186.681 126.917 184.771 128.529 182.903 130.152L182.108 130.787ZM172.93 118.544L182.216 129.293C183.944 127.788 185.715 126.304 187.476 124.864L178.566 113.836C176.687 115.352 174.841 116.91 172.952 118.544L172.93 118.544ZM457.398 119.909L456.969 119.587C454.962 118.103 452.943 116.652 450.947 115.287L450.507 114.976L459.771 101.529L460.222 101.83C462.368 103.314 464.515 104.872 466.662 106.474L467.102 106.796L457.398 119.909ZM452.031 114.696C453.749 115.889 455.488 117.136 457.205 118.404L465.589 106.968C463.732 105.603 461.864 104.26 460.018 102.98L452.031 114.696ZM438.935 107.549L438.473 107.28C436.326 105.979 434.115 104.743 432.032 103.593L431.571 103.335L439.418 89.0076L439.89 89.2763C442.155 90.5124 444.474 91.8344 446.793 93.2102L447.254 93.4897L438.935 107.549ZM433.009 102.916C434.813 103.916 436.68 104.98 438.548 106.076L445.773 93.8659C443.776 92.6835 441.779 91.555 439.836 90.4694L433.009 102.916ZM419.323 97.1441L418.839 96.9184C416.607 95.8436 414.331 94.8762 412.077 93.9196L411.583 93.7046L417.949 78.6569L418.442 78.8719C420.825 79.8822 423.262 81.0215 425.688 82.0964L426.171 82.3221L419.323 97.1441ZM412.989 93.135C414.932 93.9626 416.875 94.8332 418.797 95.7146L424.754 82.8165C422.661 81.8599 420.568 80.9248 418.517 80.0542L412.989 93.135ZM398.776 88.8356L398.272 88.6529C395.964 87.8575 393.602 87.0836 391.241 86.3527L390.725 86.2023L395.567 70.5419L396.082 70.6923C398.551 71.4555 401.084 72.2831 403.596 73.1645L404.101 73.3364L398.776 88.8356ZM392.067 85.4714C394.096 86.0948 396.125 86.7612 398.111 87.4491L402.738 74.0243C400.591 73.2827 398.379 72.5626 396.243 71.8747L392.067 85.4714ZM377.479 82.5693L376.953 82.4511C374.527 81.8814 372.101 81.3762 369.718 80.8711L369.192 80.7636L372.412 64.7377L372.938 64.8452C375.568 65.3826 378.187 65.9201 380.699 66.5435L381.215 66.6617L377.479 82.5693ZM370.458 79.9252C372.509 80.3444 374.591 80.7958 376.674 81.2795L379.894 67.4678C377.747 66.9626 375.482 66.4682 373.217 66.006L370.458 79.9252ZM280.878 81.2902L277.55 65.2859L278.076 65.1784C280.631 64.641 283.272 64.1036 285.902 63.6844L286.428 63.5876L289.219 79.7102L288.693 79.807C286.277 80.2262 283.819 80.6991 281.404 81.2042L280.878 81.2902ZM278.817 66.1243L281.715 80.0219C283.798 79.592 285.902 79.1836 287.984 78.8181L285.558 64.8452C283.293 65.2321 281.028 65.6621 278.817 66.1243ZM355.655 78.4957L355.119 78.4204C352.65 78.098 350.17 77.8185 347.755 77.5821L347.218 77.5821L348.807 61.3197L349.333 61.3197C351.93 61.567 354.582 61.8679 357.233 62.2226L357.77 62.2871L355.655 78.4957ZM348.399 76.561C350.481 76.7652 352.607 77.0124 354.721 77.2918L356.568 63.2115C354.281 62.9213 352.006 62.6633 349.762 62.4376L348.399 76.561ZM302.841 77.797L301.102 61.5455L301.639 61.481C304.269 61.2123 306.942 60.9758 309.572 60.7823L310.108 60.7823L311.257 77.0876L310.731 77.0876C308.251 77.2703 305.761 77.4853 303.335 77.7433L302.841 77.797ZM302.315 62.5021L303.796 76.6147C305.943 76.3997 308.015 76.217 310.151 76.0558L309.142 61.9002C306.877 62.0614 304.591 62.2656 302.315 62.5021V62.5021ZM333.51 76.6469L332.973 76.6469C330.483 76.5717 327.981 76.5395 325.566 76.5502L325.029 76.5502L324.965 60.2127L325.502 60.2127C328.132 60.2127 330.794 60.2127 333.456 60.3094L333.993 60.3094L333.51 76.6469ZM326.253 75.4646C328.293 75.4646 330.386 75.4646 332.469 75.5506L332.887 61.3627C330.601 61.2982 328.303 61.266 326.049 61.266L326.049 75.4646L326.253 75.4646Z" fill="#D4CEFF"/>
</g>
<g style="mix-blend-mode:luminosity" opacity="0.6">
<path d="M240.989 409.288L240.688 409.063C238.906 407.708 237.146 406.3 235.428 404.871L232.917 407.923L232.509 407.569C230.244 405.666 228 403.645 225.842 401.592L225.456 401.216L228.183 398.346C227.506 397.702 226.841 397.046 226.175 396.379C225.51 395.713 224.597 394.767 223.814 393.95L220.937 396.68L220.572 396.283C218.521 394.133 216.525 391.876 214.614 389.586L214.27 389.178L217.319 386.631C215.999 385.04 214.711 383.406 213.476 381.772L210.256 384.169L209.934 383.739C208.152 381.353 206.413 378.881 204.781 376.398L204.491 375.947L207.808 373.797C206.735 372.099 205.608 370.336 204.588 368.541L201.153 370.551L200.884 370.089C199.381 367.509 197.943 364.865 196.59 362.21L196.354 361.727L199.918 359.932C198.898 357.9 197.943 355.847 197.052 353.827L196.88 353.418L201.958 349.774L202.226 350.398C208.911 365.957 218.505 380.094 230.49 392.048C235.302 396.862 240.47 401.307 245.948 405.344L246.582 405.817L240.989 409.288ZM235.3 403.355L235.708 403.71C237.447 405.161 239.239 406.601 241.075 408.009L244.682 405.774C239.393 401.841 234.396 397.53 229.728 392.875C217.811 380.967 208.241 366.918 201.518 351.462L198.233 353.816C199.135 355.858 200.111 357.922 201.131 359.953L201.378 360.437L197.814 362.232C198.995 364.553 200.251 366.854 201.55 369.111L204.985 367.101L205.253 367.563C206.477 369.713 207.755 371.723 209.043 373.69L209.343 374.141L206.026 376.291C207.465 378.44 208.968 380.59 210.524 382.74L213.744 380.343L214.066 380.773C215.494 382.686 216.997 384.588 218.543 386.426L218.886 386.846L215.838 389.393C217.512 391.371 219.251 393.338 221.033 395.229L223.91 392.51L224.275 392.897C225.155 393.832 226.057 394.767 226.98 395.681C227.903 396.594 228.558 397.25 229.353 398.013L229.75 398.379L227.012 401.248C228.902 403.033 230.855 404.795 232.831 406.472L235.3 403.355Z" fill="#D4CEFF"/>
</g>
<g style="mix-blend-mode:luminosity" opacity="0.6">
<path d="M192.468 280.297L187.316 276.137L182.957 275.46L183.032 274.923C183.494 271.988 184.052 269.022 184.696 266.12L184.814 265.593L188.733 266.464C189.173 264.497 189.666 262.487 190.214 260.466L186.349 259.391L186.5 258.875C187.283 256.006 188.174 253.136 189.151 250.277L189.323 249.772L193.102 251.072C193.789 249.105 194.518 247.16 195.248 245.289L191.545 243.785L191.749 243.29C192.822 240.528 194.078 237.776 195.356 235.1L195.592 234.616L199.188 236.336C200.079 234.487 201.024 232.639 202.001 230.822L198.501 228.92L198.759 228.447C200.186 225.835 201.711 223.234 203.289 220.708L203.579 220.256L206.938 222.406C208.012 220.686 209.182 218.956 210.363 217.247L207.142 214.958L207.454 214.517C209.161 212.088 210.975 209.68 212.821 207.358L213.154 206.939L216.245 209.422C217.544 207.821 218.875 206.198 220.239 204.693L217.276 202.059L217.641 201.651C219.487 199.577 221.42 197.524 223.395 195.557L224.178 194.772L226.969 197.588C228.419 196.18 229.932 194.729 231.456 193.353L228.816 190.397L229.213 190.032C231.435 188.044 233.732 186.109 236.062 184.26L236.48 183.938L238.938 187.055C240.57 185.776 242.234 184.529 243.898 183.347L241.601 180.058L242.062 179.789C244.488 178.069 247 176.403 249.576 174.834L250.038 174.554L252.185 177.94C253.913 176.865 255.717 175.79 257.552 174.823L255.481 171.33L255.953 171.072C258.561 169.632 261.256 168.234 263.939 167.009L264.423 166.773L266.119 170.384C268.029 169.503 269.929 168.664 271.797 167.89L270.294 164.204L270.788 163.999C273.547 162.86 276.413 161.785 279.204 160.882L279.709 160.71L280.986 164.515C282.951 163.86 284.936 163.258 286.912 162.699L285.838 158.829L286.364 158.69C289.23 157.884 292.161 157.163 295.07 156.54L295.574 156.411L296.412 160.345C298.408 159.937 300.448 159.56 302.498 159.27L301.865 155.293L302.402 155.207C305.332 154.734 308.327 154.358 311.29 154.079L311.816 154.079L312.202 158.088C314.199 157.905 316.271 157.755 318.375 157.658L318.192 153.638L318.729 153.638C321.703 153.509 324.708 153.477 327.682 153.53L328.219 153.53L328.143 158.099L329.013 163.58L328.369 163.58C295.464 162.721 263.402 174.065 238.342 195.433C213.282 216.802 196.99 246.688 192.597 279.351L192.468 280.297ZM184.16 274.557L187.745 275.127L191.663 278.276C196.281 245.658 212.674 215.865 237.743 194.529C262.812 173.193 294.819 161.793 327.714 162.484L327.07 158.066L327.134 154.487C324.537 154.487 321.907 154.487 319.32 154.584L319.491 158.614L318.955 158.614C316.496 158.722 314.081 158.883 311.773 159.109L311.236 159.109L310.85 155.111C308.274 155.368 305.665 155.702 303.099 156.099L303.722 160.076L303.25 160.227C300.867 160.603 298.473 161.044 296.165 161.538L295.639 161.646L294.802 157.712C292.215 158.26 289.66 158.894 287.148 159.636L288.221 163.494L287.706 163.645C285.409 164.279 283.09 164.988 280.804 165.794L280.299 165.966L279.032 162.075C276.574 162.86 274.105 163.827 271.69 164.795L273.193 168.492L272.688 168.696C270.541 169.578 268.298 170.556 266.076 171.588L265.593 171.824L263.907 168.234C261.567 169.309 259.238 170.513 256.94 171.749L258.862 175.253L258.39 175.511C256.243 176.672 254.171 177.886 252.164 179.133L251.723 179.413L249.576 176.027C247.43 177.403 245.186 178.854 243.061 180.326L245.358 183.551L244.918 183.862C242.985 185.238 241.042 186.689 239.153 188.162L238.735 188.495L236.308 185.432C234.28 187.044 232.272 188.742 230.329 190.473L232.97 193.418L232.573 193.783C230.791 195.374 229.03 197.008 227.334 198.727L226.948 199.104L224.157 196.288C222.332 198.115 220.539 200.007 218.79 201.941L221.742 204.575L221.387 204.972C219.799 206.757 218.231 208.616 216.739 210.486L216.396 210.905L213.304 208.423C211.694 210.454 210.084 212.55 208.613 214.667L211.833 216.957L211.522 217.397C210.127 219.386 208.785 221.407 207.529 223.395L207.239 223.857L203.879 221.708C202.505 223.857 201.174 226.179 199.929 228.458L203.418 230.435L203.16 230.908C202.011 233.058 200.916 235.208 199.939 237.357L199.703 237.841L196.107 236.11C195.034 238.454 193.96 240.85 192.951 243.258L196.655 244.752L196.451 245.257C195.581 247.407 194.744 249.686 193.95 251.996L193.767 252.502L189.988 251.201C189.151 253.662 188.378 256.167 187.67 258.725L191.534 259.8L191.395 260.316C190.751 262.68 190.16 265.024 189.656 267.302L189.548 267.829L185.63 266.958C185.061 269.409 184.567 271.999 184.16 274.557V274.557Z" fill="#D4CEFF"/>
</g>
<g style="mix-blend-mode:luminosity" opacity="0.6">
<path d="M323.528 441.329L322.991 441.329C320.028 441.329 317.012 441.157 314.049 440.931L313.512 440.931L313.813 436.911C311.784 436.75 309.712 436.535 307.673 436.277L307.157 440.276L306.621 440.211C303.69 439.835 300.717 439.351 297.786 438.792L297.26 438.696L298.011 434.74C296.015 434.353 293.986 433.913 291.979 433.418L291.023 437.32L290.497 437.191C287.62 436.482 284.722 435.675 281.909 434.783L281.394 434.622L282.596 430.785C280.45 430.108 278.303 429.377 276.252 428.635L276.027 428.56L272.989 420.778L274.148 421.262C305.517 434.326 340.675 434.946 372.483 422.997C404.292 411.048 430.366 387.425 445.411 356.926C460.456 326.426 463.345 291.337 453.489 258.782C443.633 226.228 421.773 198.65 392.347 181.648L391.886 181.39L394.591 176.521L396.867 172.609L397.339 172.877C399.894 174.371 402.449 175.973 404.928 177.628L405.379 177.929L403.168 181.24C404.864 182.379 406.549 183.583 408.213 184.808L410.596 181.584L411.026 181.906C413.398 183.69 415.76 185.571 418.025 187.495L418.433 187.85L415.867 190.87C417.434 192.214 418.98 193.6 420.472 194.998L423.188 192.106L423.585 192.482C424.659 193.471 425.679 194.482 426.709 195.524C427.74 196.567 428.856 197.674 429.929 198.824L430.294 199.211L427.407 201.93C428.802 203.435 430.187 204.983 431.518 206.552L434.545 203.983L434.889 204.392C436.821 206.67 438.689 209.035 440.46 211.41L440.782 211.84L437.562 214.216C438.796 215.892 439.988 217.591 441.126 219.278L444.432 217.075L444.722 217.526C446.375 219.998 447.942 222.556 449.467 225.136L449.735 225.598L446.289 227.597C447.305 229.382 448.289 231.195 449.241 233.036L452.794 231.22L453.041 231.693C454.394 234.347 455.682 237.067 456.873 239.818L457.088 240.313L453.438 241.903C454.233 243.763 455.006 245.698 455.746 247.665L459.493 246.257L459.675 246.762C460.749 249.546 461.693 252.405 462.563 255.264L462.713 255.78L458.902 256.994C459.503 258.993 460.051 260.993 460.545 262.97L464.441 262.003L464.57 262.519C465.289 265.399 465.923 268.355 466.459 271.29L466.556 271.816L462.606 272.547C462.96 274.579 463.282 276.632 463.561 278.663L467.544 278.147L467.619 278.674C468.005 281.63 468.295 284.639 468.499 287.606L468.499 288.143L464.484 288.412C464.613 290.432 464.699 292.507 464.742 294.603L468.767 294.538L468.767 295.076C468.767 298.053 468.767 301.073 468.628 304.04L468.628 304.577L464.613 304.384C464.506 306.426 464.355 308.5 464.162 310.564L468.166 310.951L468.166 311.489C467.876 314.455 467.49 317.443 467.018 320.377L466.932 320.904L462.96 320.27C462.627 322.323 462.251 324.365 461.886 326.343L465.805 327.192L465.697 327.719C465.075 330.621 464.355 333.544 463.55 336.414L463.4 336.93L459.536 335.855C458.977 337.833 458.366 339.811 457.721 341.756L461.522 343.046L461.35 343.551C460.394 346.367 459.342 349.194 458.226 351.945L458.022 352.44L454.243 350.957C453.481 352.827 452.644 354.729 451.764 356.61L455.381 358.319L455.145 358.803C453.878 361.49 452.515 364.177 451.077 366.789L450.819 367.262L447.33 365.338C446.321 367.165 445.28 368.96 444.217 370.712L447.588 372.862L447.309 373.324C445.742 375.839 444.088 378.354 442.349 380.848L442.038 381.278L438.818 378.978C437.626 380.644 436.381 382.31 435.114 383.933L438.217 386.394L437.884 386.813C436.048 389.146 434.105 391.457 432.109 393.671L431.754 394.068L428.845 391.242C427.46 392.779 426.033 394.283 424.551 395.745L427.353 398.54L426.731 399.163C424.584 401.313 422.437 403.344 420.215 405.311L419.807 405.666L417.187 402.689C415.631 404.054 414.042 405.386 412.443 406.665L414.922 409.772L414.493 410.116C412.174 411.964 409.759 413.77 407.322 415.49L406.882 415.791L404.606 412.566C402.921 413.738 401.182 414.877 399.443 415.974L401.59 419.349L401.139 419.628C398.617 421.208 396.008 422.724 393.389 424.132L392.916 424.39L390.973 420.821C389.149 421.799 387.302 422.734 385.456 423.616L387.163 427.227L386.68 427.464C383.985 428.743 381.226 429.946 378.457 431.054L377.963 431.258L376.471 427.539C374.582 428.28 372.628 429.001 370.663 429.689L371.952 433.483L371.447 433.655C368.645 434.611 365.758 435.493 362.859 436.277L362.344 436.417L361.271 432.548C359.296 433.074 357.277 433.622 355.249 434.009L356.107 437.943L355.581 438.051C352.661 438.685 349.699 439.233 346.768 439.674L346.231 439.76L345.63 435.772C343.569 436.084 341.508 436.342 339.49 436.557L339.887 440.555L339.351 440.609C336.388 440.91 333.382 441.114 330.419 441.222L329.883 441.222L329.732 437.191C327.693 437.255 325.621 437.288 323.549 437.266L323.528 441.329ZM314.661 439.878C317.259 440.071 319.878 440.19 322.465 440.233L322.529 436.202L323.066 436.202C325.46 436.202 327.886 436.202 330.258 436.116L330.795 436.116L330.945 440.168C333.532 440.061 336.152 439.889 338.749 439.642L338.352 435.632L338.878 435.579C341.229 435.342 343.634 435.041 346.027 434.676L346.564 434.601L347.165 438.577C349.731 438.18 352.307 437.696 354.862 437.159L354.003 433.236L354.529 433.117C356.891 432.612 359.253 432.042 361.539 431.419L362.054 431.279L363.128 435.149C365.64 434.45 368.162 433.676 370.642 432.859L369.354 429.054L369.858 428.882C372.156 428.109 374.431 427.27 376.632 426.389L377.126 426.195L378.607 429.903C381.022 428.936 383.438 427.883 385.789 426.776L384.082 423.164L384.565 422.928C386.712 421.917 388.859 420.778 391.006 419.703L391.467 419.445L393.367 422.96C395.643 421.713 397.919 420.391 400.119 419.026L397.972 415.651L398.423 415.372C400.452 414.103 402.47 412.771 404.435 411.395L404.875 411.083L407.151 414.308C409.297 412.814 411.369 411.234 413.409 409.621L410.94 406.515L411.359 406.182C413.226 404.699 415.083 403.14 416.876 401.549L417.273 401.195L419.903 404.172C421.921 402.366 423.918 400.485 425.84 398.561L423.038 395.777L423.414 395.39C425.099 393.703 426.763 391.929 428.362 390.156L428.716 389.748L431.658 392.402C433.397 390.457 435.082 388.447 436.703 386.416L433.59 383.954L433.923 383.535C435.415 381.654 436.864 379.709 438.217 377.763L438.528 377.333L441.748 379.633C443.251 377.484 444.7 375.334 446.042 373.109L442.671 370.959L442.951 370.508C444.196 368.498 445.42 366.402 446.579 364.274L446.847 363.812L450.325 365.725C451.57 363.446 452.773 361.103 453.878 358.76L450.315 357.083L450.551 356.599C451.624 354.45 452.547 352.193 453.438 350.011L453.642 349.516L457.335 351.032C458.301 348.624 459.224 346.163 460.062 343.712L456.262 342.422L456.433 341.917C457.195 339.649 457.915 337.338 458.58 335.038L458.72 334.522L462.584 335.597C463.271 333.082 463.905 330.535 464.463 327.998L460.534 327.16L460.652 326.633C461.135 324.333 461.586 321.947 461.972 319.55L462.058 319.023L466.019 319.668C466.427 317.099 466.76 314.498 467.028 311.908L463.024 311.51L463.024 310.983C463.261 308.576 463.432 306.157 463.54 303.793L463.54 303.255L467.554 303.438C467.672 300.848 467.705 298.225 467.672 295.613L463.647 295.678L463.647 295.14C463.647 292.711 463.507 290.282 463.346 287.939L463.346 287.401L467.361 287.133C467.168 284.532 466.91 281.92 466.588 279.34L462.595 279.856L462.531 279.329C462.219 276.954 461.844 274.557 461.457 272.203L461.36 271.677L465.322 270.946C464.839 268.388 464.248 265.808 463.668 263.293L459.772 264.26L459.643 263.733C459.085 261.455 458.441 259.112 457.732 256.779L457.571 256.263L461.403 255.092C460.641 252.598 459.793 250.115 458.892 247.675L455.156 249.073L454.963 248.567C454.115 246.278 453.202 244.032 452.268 241.871L452.054 241.377L455.682 239.797C454.608 237.411 453.535 235.025 452.322 232.703L448.78 234.53L448.533 234.046C447.459 231.897 446.278 229.747 445.087 227.716L444.818 227.253L448.264 225.254C446.955 223.008 445.559 220.772 444.131 218.612L440.825 220.815L440.535 220.364C439.215 218.397 437.819 216.408 436.381 214.474L436.059 214.044L439.279 211.668C437.723 209.594 436.059 207.541 434.417 205.542L431.4 208.111L431.046 207.702C429.5 205.864 427.89 204.058 426.258 202.328L425.893 201.93L428.781 199.222C427.858 198.254 426.924 197.287 425.979 196.341C425.034 195.395 424.176 194.557 423.253 193.686L420.547 196.567L420.15 196.201C418.422 194.568 416.618 192.977 414.783 191.397L414.375 191.042L416.941 188.022C414.955 186.345 412.904 184.711 410.833 183.142L408.449 186.367L408.02 186.044C406.099 184.604 404.113 183.207 402.148 181.885L401.697 181.584L403.909 178.284C401.762 176.844 399.518 175.446 397.275 174.135L395.568 177.058L393.421 180.992C422.779 198.229 444.54 225.946 454.335 258.581C464.13 291.216 461.235 326.353 446.231 356.939C431.226 387.525 405.223 411.297 373.44 423.483C341.658 435.668 306.448 435.367 274.878 422.638L276.832 427.625C278.979 428.42 281.126 429.173 283.412 429.871L283.917 430.032L282.725 433.859C285.205 434.633 287.728 435.331 290.24 436.009L291.195 432.118L291.721 432.247C294.05 432.816 296.412 433.321 298.741 433.784L299.267 433.88L298.516 437.825C301.071 438.309 303.658 438.728 306.223 439.061L306.739 435.063L307.275 435.138C309.659 435.439 312.063 435.686 314.435 435.869L314.972 435.869L314.661 439.878Z" fill="#D4CEFF"/>
</g>
<g style="mix-blend-mode:luminosity" opacity="0.6">
<path d="M587.052 566.537C587.052 567.013 586.911 567.479 586.646 567.875C586.382 568.271 586.006 568.58 585.566 568.762C585.126 568.944 584.642 568.991 584.175 568.897C583.708 568.803 583.28 568.573 582.944 568.235C582.608 567.897 582.38 567.467 582.288 567C582.197 566.532 582.246 566.047 582.43 565.608C582.613 565.168 582.923 564.793 583.32 564.529C583.717 564.266 584.183 564.127 584.659 564.129C584.974 564.129 585.286 564.191 585.577 564.312C585.868 564.434 586.133 564.611 586.355 564.835C586.578 565.058 586.754 565.324 586.873 565.616C586.993 565.908 587.054 566.221 587.052 566.537V566.537Z" fill="#D4CEFF"/>
</g>
<g style="mix-blend-mode:luminosity" opacity="0.6">
<path d="M584.659 569.482C584.077 569.484 583.507 569.313 583.022 568.991C582.537 568.669 582.158 568.209 581.934 567.671C581.71 567.133 581.65 566.541 581.762 565.969C581.874 565.397 582.154 564.871 582.565 564.458C582.975 564.045 583.5 563.764 584.07 563.649C584.641 563.535 585.233 563.592 585.771 563.815C586.309 564.038 586.769 564.415 587.093 564.9C587.417 565.384 587.589 565.954 587.589 566.537C587.589 567.316 587.281 568.064 586.732 568.616C586.182 569.168 585.437 569.479 584.659 569.482ZM584.659 564.667C584.289 564.664 583.927 564.772 583.618 564.977C583.31 565.181 583.069 565.472 582.926 565.814C582.783 566.155 582.744 566.532 582.815 566.895C582.886 567.259 583.063 567.593 583.324 567.855C583.584 568.118 583.917 568.297 584.28 568.37C584.642 568.443 585.018 568.407 585.36 568.266C585.702 568.125 585.995 567.885 586.2 567.577C586.406 567.269 586.516 566.907 586.516 566.537C586.516 566.043 586.321 565.569 585.973 565.218C585.625 564.868 585.152 564.669 584.659 564.667V564.667Z" fill="#D4CEFF"/>
</g>
<g style="mix-blend-mode:luminosity" opacity="0.6">
<path d="M358.083 573.04L357.578 561.431L348.4 567.644L358.083 573.04Z" fill="#D4CEFF"/>
</g>
<g style="mix-blend-mode:luminosity" opacity="0.6">
<path d="M344.31 573.642L343.806 562.033L334.628 568.246L344.31 573.642Z" fill="#D4CEFF"/>
</g>
<g style="mix-blend-mode:luminosity" opacity="0.6">
<path d="M330.076 574.523L330.527 562.914L320.865 568.342L330.076 574.523Z" fill="#D4CEFF"/>
</g>
<g style="mix-blend-mode:luminosity" opacity="0.6">
<path d="M315.337 574.018L316.711 562.485L306.642 567.128L315.337 574.018Z" fill="#D4CEFF"/>
</g>
<g style="mix-blend-mode:luminosity" opacity="0.6">
<path d="M612.783 206.767L601.286 208.304L608.285 216.902L612.783 206.767Z" fill="#D4CEFF"/>
</g>
<g style="mix-blend-mode:luminosity" opacity="0.6">
<path d="M614.609 220.439L603.112 221.976L610.121 230.586L614.609 220.439Z" fill="#D4CEFF"/>
</g>
<g style="mix-blend-mode:luminosity" opacity="0.6">
<path d="M616.767 234.562L605.184 235.143L611.442 244.3L616.767 234.562Z" fill="#D4CEFF"/>
</g>
<g style="mix-blend-mode:luminosity" opacity="0.6">
<path d="M617.582 249.309L605.988 248.976L611.506 258.596L617.582 249.309Z" fill="#D4CEFF"/>
</g>
</g>
</svg>
