<svg width="34" height="25" viewBox="0 0 34 25" fill="none" xmlns="http://www.w3.org/2000/svg">
<path fill-rule="evenodd" clip-rule="evenodd" d="M31.8582 2.32775C32.8472 3.35597 33.17 5.69091 33.17 5.69091C33.17 5.69091 33.5 8.43354 33.5 11.1751V13.7462C33.5 16.4888 33.17 19.2304 33.17 19.2304C33.17 19.2304 32.8472 21.5653 31.8582 22.5935C30.7276 23.8099 29.4739 23.9356 28.7652 24.0066C28.6873 24.0144 28.6159 24.0216 28.5521 24.0295C23.9341 24.3726 17 24.3831 17 24.3831C17 24.3831 8.42 24.3027 5.78 24.0422C5.65492 24.0182 5.50329 23.9995 5.33158 23.9783C4.49534 23.8753 3.18281 23.7137 2.14072 22.5935C1.15175 21.5653 0.83 19.2304 0.83 19.2304C0.83 19.2304 0.5 16.4888 0.5 13.7462V11.1751C0.5 8.43354 0.83 5.69091 0.83 5.69091C0.83 5.69091 1.15175 3.35597 2.14072 2.32775C3.27392 1.10968 4.52883 0.985359 5.23753 0.915151C5.31437 0.907539 5.38479 0.900563 5.44794 0.892898C10.0659 0.549805 16.9928 0.549805 16.9928 0.549805H17.0072C17.0072 0.549805 23.9341 0.549805 28.5521 0.892898C28.6152 0.900574 28.6857 0.90756 28.7626 0.915185C29.4707 0.985399 30.7262 1.10987 31.8582 2.32775ZM13.3333 7.88314L13.3344 17.0498L22.5 12.4823L13.3333 7.88314Z" fill="url(#paint0_linear_295_146)"/>
<defs>
<linearGradient id="paint0_linear_295_146" x1="2.05923" y1="0.549805" x2="21.5187" y2="29.9431" gradientUnits="userSpaceOnUse">
<stop stop-color="#ECD821"/>
<stop offset="0.515625" stop-color="#FA9703"/>
<stop offset="1" stop-color="#DA6330"/>
</linearGradient>
</defs>
</svg>
