<svg width="30" height="30" viewBox="0 0 30 30" fill="none" xmlns="http://www.w3.org/2000/svg">
<path fill-rule="evenodd" clip-rule="evenodd" d="M25.1306 8.71223C25.8049 9.41329 26.025 11.0053 26.025 11.0053C26.025 11.0053 26.25 12.8753 26.25 14.7445V16.4975C26.25 18.3675 26.025 20.2368 26.025 20.2368C26.025 20.2368 25.8049 21.8288 25.1306 22.5298C24.3597 23.3592 23.5049 23.4448 23.0217 23.4933C22.9686 23.4986 22.9199 23.5035 22.8764 23.5089C19.7278 23.7428 15 23.75 15 23.75C15 23.75 9.15 23.6951 7.35 23.5175C7.26472 23.5012 7.16133 23.4884 7.04426 23.474C6.47409 23.4038 5.57919 23.2936 4.86867 22.5298C4.19438 21.8288 3.975 20.2368 3.975 20.2368C3.975 20.2368 3.75 18.3675 3.75 16.4975V14.7445C3.75 12.8753 3.975 11.0053 3.975 11.0053C3.975 11.0053 4.19438 9.41329 4.86867 8.71223C5.64131 7.88173 6.49693 7.79697 6.98014 7.7491C7.03253 7.74391 7.08054 7.73915 7.12359 7.73393C10.2722 7.5 14.9951 7.5 14.9951 7.5H15.0049C15.0049 7.5 19.7278 7.5 22.8764 7.73393C22.9195 7.73916 22.9675 7.74392 23.0199 7.74912C23.5028 7.797 24.3587 7.88187 25.1306 8.71223ZM12.5 12.5L12.5007 18.75L18.75 15.6358L12.5 12.5Z" fill="white"/>
</svg>
