<svg width="197" height="197" viewBox="0 0 197 197" fill="none" xmlns="http://www.w3.org/2000/svg">
<path d="M62.2914 35.9639L134.219 35.9639L170.183 98.2553L134.219 160.547L62.2914 160.547L26.3274 98.2553L62.2914 35.9639Z" fill="white"/>
<path d="M97.8505 166.99C89.374 166.99 80.9375 166.99 72.461 166.99C63.1049 166.99 56.1078 162.712 51.4697 154.755C43.2331 140.641 35.1564 126.367 26.9198 112.253C21.8419 103.536 21.602 94.9398 26.7599 86.1834C35.2764 71.5894 43.553 56.8355 52.1894 42.3215C56.5876 34.8046 63.5447 31.0862 72.2611 31.0462C89.2941 30.9662 106.367 31.0062 123.4 31.0462C132.196 31.0862 139.193 34.8046 143.672 42.3615C152.548 57.3553 161.224 72.4691 169.781 87.6628C173.939 95.0197 174.019 102.777 169.901 110.173C163.783 121.169 157.386 132.004 151.109 142.88C148.789 146.918 146.47 150.957 144.111 154.955C139.393 162.872 132.436 166.95 123.2 166.95C114.764 167.03 106.287 166.99 97.8505 166.99ZM97.8505 159.073C106.367 159.073 114.884 159.073 123.44 159.073C129.477 159.073 134.116 156.434 137.154 151.276C145.511 136.962 153.667 122.528 162.064 108.254C165.902 101.737 165.583 95.6995 161.784 89.3021C153.508 75.3479 145.511 61.1937 137.394 47.1595C134.395 41.9617 129.957 39.0029 123.92 38.9629C106.527 38.8829 89.1741 38.8829 71.7813 38.9629C65.9437 39.0029 61.5056 41.8817 58.5868 46.9196C50.3102 61.1537 42.1935 75.4678 33.837 89.622C30.0785 96.0193 30.0386 102.017 33.797 108.414C42.1536 122.568 50.2702 136.842 58.5068 151.077C61.5455 156.354 66.1436 159.073 72.2611 159.113C80.8176 159.073 89.3341 159.073 97.8505 159.073Z" fill="url(#paint0_linear_311_4196)"/>
<path d="M125.719 92.8608C125.719 93.9004 125.719 94.94 125.719 95.9796C125.799 104.496 125.559 113.013 125.919 121.529C125.999 123.328 125.759 125.128 125.759 126.927C125.759 129.126 126.519 129.806 128.638 129.766C129.158 129.766 129.717 129.726 130.237 129.726C133.716 129.686 134.116 130.205 133.516 133.764C133.396 134.524 133.036 134.804 132.356 134.804C131.677 134.804 131.037 134.843 130.357 134.843C109.846 134.843 89.334 134.843 68.8225 134.843C65.8637 134.843 65.6238 134.484 65.6238 131.685C65.6238 130.125 66.1436 129.526 67.7029 129.686C68.8225 129.806 69.982 129.726 71.1015 129.726C73.5405 129.766 74.3402 129.086 74.3802 126.567C74.4202 121.969 74.2602 117.371 74.2602 112.773C74.2202 99.738 74.2202 86.6634 74.1803 73.6288C74.1803 72.5892 74.6201 72.2294 75.6197 72.2294C86.4152 72.2694 97.2108 72.2694 107.966 72.2294C109.166 72.2294 109.566 72.6292 109.126 73.7887C108.606 75.1482 108.086 76.5476 108.006 78.027C107.926 79.3064 106.927 78.9466 106.207 78.9466C98.6901 78.9866 91.1732 79.0266 83.6164 78.9066C81.6972 78.8666 81.1374 79.3864 81.1374 81.3056C81.1774 95.7397 81.1374 110.214 81.1374 124.648C81.1374 126.927 81.8971 127.606 84.1761 127.646C90.8134 127.686 90.8534 127.686 91.1732 120.969C91.2532 119.37 92.0129 118.65 93.4923 118.65C98.0904 118.61 102.688 118.65 107.287 118.61C108.526 118.61 108.846 119.17 108.846 120.329C108.846 122.329 109.086 124.328 109.166 126.287C109.206 127.007 109.446 127.407 110.205 127.367C112.125 127.367 114.044 127.726 115.963 127.407C118.202 127.087 118.802 126.567 118.842 124.208C118.882 118.93 118.882 113.692 118.962 108.414C119.002 105.696 119.082 102.977 119.122 100.218C119.122 99.5781 119.242 99.0583 119.681 98.5785C121.521 96.5793 123.36 94.5801 125.199 92.541C125.399 92.7809 125.559 92.8209 125.719 92.8608Z" fill="#F86609"/>
<path d="M127.998 90.9415C127.558 90.6217 127.158 90.3418 126.838 90.0219C123.879 87.2631 120.961 84.4642 117.962 81.7054C117.202 81.0257 117.122 80.4259 117.802 79.7062C120.641 76.7074 123.44 73.7087 126.278 70.7499C127.038 69.9502 127.838 69.9502 128.717 70.7499C131.596 73.5088 134.515 76.2276 137.434 78.9465C138.194 79.6662 138.393 80.3859 137.674 81.1856C134.795 84.2243 131.916 87.2631 128.997 90.2618C128.717 90.5417 128.318 90.7416 127.998 90.9415Z" fill="#F86609"/>
<path d="M101.089 112.612C99.2896 112.772 98.0901 111.693 97.3304 110.213C96.4508 108.534 96.8906 106.935 98.1701 105.615C100.329 103.456 102.608 101.377 104.847 99.2979C109.086 95.3396 113.284 91.3812 117.522 87.4228C119.241 85.8235 119.401 85.9434 121.44 87.7027C122.92 88.9822 122.28 89.9018 121.32 91.0213C115.883 97.4187 110.525 103.856 105.127 110.293C104.088 111.533 102.968 112.732 101.089 112.612Z" fill="#F86609"/>
<path d="M114.764 79.346C113.244 79.346 112.365 77.9066 113.124 76.6271C115.683 72.3889 118.882 68.6704 123.12 65.9515C123.96 65.3918 124.919 65.3118 125.639 66.1515C126.279 66.9112 126.239 67.7908 125.599 68.5105C122.36 71.9491 119.122 75.3877 115.883 78.7862C115.563 79.1461 115.163 79.386 114.764 79.346Z" fill="#F86609"/>
<path d="M131.636 95.14C130.676 95.18 130.157 94.7801 129.837 94.1804C129.397 93.3007 129.717 92.5011 130.357 91.8214C133.475 88.5427 136.594 85.304 139.713 82.0254C140.392 81.3057 141.192 81.0658 142.032 81.6256C142.991 82.3053 143.031 83.3049 142.512 84.3045C141.152 86.8234 139.273 88.9825 137.194 90.9817C135.914 92.2212 134.475 93.3007 133.075 94.4203C132.556 94.7401 131.996 94.98 131.636 95.14Z" fill="#F86609"/>
<path d="M99.3698 89.742C99.2898 89.742 99.2499 89.742 99.1699 89.742C95.8113 89.742 95.0116 88.7024 95.8113 85.3438C95.9712 84.6241 96.411 84.5441 96.9308 84.5042C98.5701 84.4242 100.249 84.3442 101.889 84.3042C102.768 84.2643 103.208 84.6241 103.208 85.5837C103.128 90.5816 103.848 89.5421 99.3698 89.742Z" fill="#F86609"/>
<path d="M87.8547 112.133C86.8951 111.893 85.1758 112.772 84.696 111.693C84.1362 110.493 84.4961 108.854 84.4961 107.375C84.4961 106.655 85.0958 106.615 85.6556 106.615C87.055 106.615 88.4545 106.695 89.8139 106.575C91.3333 106.455 91.7331 107.015 91.6931 108.494C91.6531 112.133 91.7331 112.133 87.8547 112.133Z" fill="#F86609"/>
<path d="M87.9743 89.702C84.3358 89.742 83.736 88.9823 84.4557 85.3438C84.5757 84.7841 84.7756 84.5442 85.3354 84.5042C86.255 84.4642 87.1746 84.3442 88.0942 84.3043C91.6928 84.1443 91.6128 84.1843 91.6928 87.6229C91.7327 89.1423 91.3329 89.862 89.7336 89.662C89.1738 89.662 88.574 89.702 87.9743 89.702Z" fill="#F86609"/>
<path d="M88.1346 96.1392C91.8931 96.1392 91.8531 96.1392 91.6932 100.058C91.6532 101.057 91.3733 101.497 90.3337 101.457C89.2142 101.377 88.0547 101.337 86.9751 101.457C85.0159 101.657 84.2962 101.017 84.4162 98.938C84.6161 96.1392 84.4562 96.1392 88.1346 96.1392Z" fill="#F86609"/>
<path d="M107.886 112.053C109.605 110.213 110.965 108.734 112.324 107.295C113.004 106.575 113.884 106.535 114.723 106.815C115.563 107.135 115.163 107.974 115.163 108.574C115.243 112.013 115.203 112.013 111.724 112.013C110.645 112.053 109.525 112.053 107.886 112.053Z" fill="#F86609"/>
<path d="M115.363 84.3441C113.244 86.2233 111.525 87.7427 109.885 89.2221C109.326 89.7019 108.646 89.8219 108.046 89.582C107.287 89.3021 107.606 88.5824 107.606 88.0226C107.726 84.3441 107.726 84.3441 111.485 84.3441C112.564 84.3441 113.684 84.3441 115.363 84.3441Z" fill="#F86609"/>
<path d="M102.608 96.619C101.089 97.9784 99.5696 99.3778 98.0502 100.737C97.5704 101.177 97.0906 101.497 96.4509 101.257C95.7711 101.017 96.051 100.337 96.011 99.8576C95.8511 96.1392 95.8511 96.1392 99.5696 96.1392C100.529 96.1392 101.489 96.1392 102.488 96.1392C102.528 96.2991 102.568 96.459 102.608 96.619Z" fill="#F86609"/>
<defs>
<linearGradient id="paint0_linear_311_4196" x1="30.0848" y1="31" x2="148.678" y2="173.64" gradientUnits="userSpaceOnUse">
<stop stop-color="#ECD821"/>
<stop offset="0.515625" stop-color="#FA9703"/>
<stop offset="1" stop-color="#DA6330"/>
</linearGradient>
</defs>
</svg>
