<svg width="18" height="19" viewBox="0 0 18 19" fill="none" xmlns="http://www.w3.org/2000/svg">
<path d="M16.0488 1.67388C15.5576 1.2426 13.5578 0.0482907 9.31272 0.0151155C9.31272 0.0151155 4.29577 -0.283462 1.875 1.7734C0.506738 3.03407 0.0506512 4.92506 0.0155676 7.21415C-0.019516 9.50324 -0.300185 13.8824 4.15543 15.0767C4.15543 15.0767 4.15543 18.3279 4.12035 18.6264C4.12035 18.8255 4.15543 18.9582 4.26068 18.9914C4.33085 19.0245 4.47119 18.9582 4.57644 18.8587C5.27811 18.1952 7.55854 15.6075 7.55854 15.6075C10.6108 15.8065 13.0316 15.2426 13.3123 15.143C13.9438 14.944 17.2416 14.6786 17.803 10.399C18.3994 5.95349 17.5925 2.93454 16.0488 1.67388ZM14.1893 12.1241C13.9438 12.5222 13.6631 12.8539 13.3123 13.1525C12.9965 13.3847 12.7158 13.5174 12.4352 13.5506C12.4001 13.5506 12.365 13.5506 12.2948 13.5506C12.1545 13.5506 12.0492 13.5175 11.9089 13.4843C11.4528 13.3516 10.7161 13.053 9.48814 12.4227C8.78647 12.0577 8.08479 11.6265 7.45329 11.162C7.13754 10.9298 6.82179 10.6644 6.54112 10.399L6.50603 10.3658L6.47095 10.3326L6.43587 10.2994L6.40078 10.2663C6.12011 10.0009 5.83945 9.70229 5.59386 9.40372C5.10269 8.80656 4.6466 8.14306 4.26068 7.47955C3.55901 6.31842 3.24326 5.58856 3.13801 5.19046C3.10292 5.09093 3.06784 4.95823 3.06784 4.82553C3.06784 4.79235 3.06784 4.75918 3.06784 4.69283C3.10292 4.42743 3.24326 4.12885 3.48884 3.86345C3.8046 3.53169 4.15543 3.26629 4.57644 3.03407C4.96236 2.83501 5.34827 2.90136 5.62894 3.19994C5.62894 3.19994 6.1552 3.83027 6.40078 4.12885C6.64637 4.4606 6.85687 4.75918 7.06737 5.12411C7.34804 5.58856 7.17262 6.01984 6.89195 6.21889L6.3657 6.61699C6.08503 6.81605 6.12011 7.18097 6.12011 7.18097C6.12011 7.18097 6.89195 9.9677 9.80389 10.6644C9.80389 10.6644 10.1898 10.6976 10.4003 10.4321L10.8213 9.93452C11.0318 9.70229 11.523 9.53642 11.9791 9.76864C12.3299 9.9677 12.6807 10.1667 13.0316 10.399C13.3473 10.6312 13.9788 11.1288 14.0139 11.1288C14.3297 11.3942 14.3998 11.726 14.1893 12.1241ZM9.31272 4.22837C9.17239 4.22837 9.03205 4.09567 9.06714 3.9298C9.10222 3.76392 9.20747 3.6644 9.38289 3.69757C10.5757 3.7971 11.5581 4.1952 12.2247 4.89188C12.8913 5.58856 13.2421 6.48429 13.207 7.5459C13.207 7.6786 13.0667 7.8113 12.9263 7.8113C12.786 7.8113 12.6457 7.6786 12.6457 7.5459C12.6807 6.61699 12.4001 5.88714 11.8037 5.28998C11.2072 4.62648 10.4003 4.29473 9.31272 4.22837ZM11.7335 7.04827C11.7335 7.18097 11.6282 7.31367 11.4528 7.31367C11.3125 7.31367 11.1722 7.21415 11.1722 7.04827C11.1371 6.15254 10.681 5.68809 9.73372 5.65491C9.59339 5.65491 9.45306 5.52221 9.45306 5.38951C9.45306 5.25681 9.59339 5.12411 9.73372 5.12411C10.9967 5.19046 11.6984 5.85396 11.7335 7.04827ZM14.3998 8.34211C14.2595 8.34211 14.1192 8.20941 14.1192 8.0767C14.1192 6.45112 13.5929 5.19046 12.6106 4.26155C11.6282 3.33264 10.3301 2.86819 8.85663 2.86819C8.7163 2.86819 8.57597 2.73549 8.57597 2.60279C8.57597 2.47009 8.7163 2.33738 8.85663 2.33738C10.5056 2.33738 11.9089 2.86819 12.9965 3.89662C14.1192 4.92506 14.6805 6.31842 14.6805 8.10988C14.6805 8.20941 14.5753 8.34211 14.3998 8.34211Z" fill="white"/>
</svg>
