<svg width="28" height="29" viewBox="0 0 28 29" fill="none" xmlns="http://www.w3.org/2000/svg">
<path d="M19.7613 0.778564H8.23875C3.23375 0.778564 0.25 3.76231 0.25 8.76731V20.2761C0.25 25.2948 3.23375 28.2786 8.23875 28.2786H19.7475C24.7525 28.2786 27.7362 25.2948 27.7362 20.2898V8.76731C27.75 3.76231 24.7663 0.778564 19.7613 0.778564ZM14 19.8636C11.0575 19.8636 8.665 17.4711 8.665 14.5286C8.665 11.5861 11.0575 9.19356 14 9.19356C16.9425 9.19356 19.335 11.5861 19.335 14.5286C19.335 17.4711 16.9425 19.8636 14 19.8636ZM22.14 7.48856C22.0713 7.65356 21.975 7.80481 21.8512 7.94231C21.7137 8.06606 21.5625 8.16231 21.3975 8.23106C21.2325 8.29981 21.0537 8.34106 20.875 8.34106C20.5037 8.34106 20.16 8.20356 19.8988 7.94231C19.775 7.80481 19.6787 7.65356 19.61 7.48856C19.5413 7.32356 19.5 7.14481 19.5 6.96606C19.5 6.78731 19.5413 6.60856 19.61 6.44356C19.6787 6.26481 19.775 6.12731 19.8988 5.98981C20.215 5.67356 20.6963 5.52231 21.1363 5.61856C21.2325 5.63231 21.315 5.65981 21.3975 5.70106C21.48 5.72856 21.5625 5.76981 21.645 5.82481C21.7137 5.86606 21.7825 5.93481 21.8512 5.98981C21.975 6.12731 22.0713 6.26481 22.14 6.44356C22.2087 6.60856 22.25 6.78731 22.25 6.96606C22.25 7.14481 22.2087 7.32356 22.14 7.48856Z" fill="url(#paint0_linear_295_108)"/>
<defs>
<linearGradient id="paint0_linear_295_108" x1="1.54871" y1="0.778565" x2="25.8478" y2="27.2735" gradientUnits="userSpaceOnUse">
<stop stop-color="#ECD821"/>
<stop offset="0.515625" stop-color="#FA9703"/>
<stop offset="1" stop-color="#DA6330"/>
</linearGradient>
</defs>
</svg>
