<svg width="197" height="197" viewBox="0 0 197 197" fill="none" xmlns="http://www.w3.org/2000/svg">
<path d="M62.2914 35.9639L134.219 35.9639L170.183 98.2553L134.219 160.547L62.2914 160.547L26.3274 98.2553L62.2914 35.9639Z" fill="white"/>
<path d="M97.486 166.911C89.0452 166.911 80.6441 166.911 72.2033 166.911C62.8865 166.911 55.9188 162.639 51.3002 154.694C43.0982 140.6 35.0555 126.346 26.8536 112.252C21.797 103.548 21.5581 94.9634 26.6943 86.2194C35.175 71.6462 43.4168 56.9132 52.0169 42.4198C56.3966 34.9136 63.3244 31.2004 72.0042 31.1605C88.9655 31.0806 105.967 31.1206 122.928 31.1605C131.687 31.2004 138.655 34.9136 143.114 42.4597C151.953 57.4323 160.593 72.5245 169.114 87.6967C173.255 95.0432 173.334 102.789 169.233 110.175C163.142 121.155 156.771 131.975 150.52 142.835C148.211 146.868 145.902 150.901 143.552 154.893C138.854 162.799 131.926 166.871 122.729 166.871C114.328 166.951 105.887 166.911 97.486 166.911ZM97.486 159.006C105.967 159.006 114.447 159.006 122.968 159.006C128.98 159.006 133.599 156.371 136.625 151.22C144.946 136.926 153.068 122.513 161.43 108.259C165.252 101.751 164.933 95.722 161.151 89.3337C152.909 75.3993 144.946 61.2652 136.863 47.2509C133.877 42.0605 129.458 39.1059 123.446 39.066C106.126 38.9861 88.8461 38.9861 71.5264 39.066C65.7134 39.1059 61.2939 41.9806 58.3873 47.0114C50.1456 61.2253 42.063 75.5191 33.7416 89.6531C29.999 96.0414 29.9592 102.03 33.7018 108.419C42.0232 122.553 50.1057 136.807 58.3077 151.02C61.3337 156.291 65.9124 159.006 72.0042 159.046C80.5247 159.006 89.0054 159.006 97.486 159.006Z" fill="url(#paint0_linear_202_1330)"/>
<path d="M94.5039 110.518H104.726L102.17 117.454L104.726 136.985H94.5039L97.607 117.454L94.5039 110.518Z" fill="#F86609"/>
<path d="M67.3061 116.907L85.1946 109.057C85.1946 109.057 85.7422 122.748 101.805 136.986C90.4882 136.986 73.3298 136.986 69.1314 136.986C65.8457 130.962 67.3061 116.907 67.3061 116.907Z" fill="#F86609"/>
<path d="M131.419 117.038L113.603 109.24C113.603 109.24 113.058 122.841 97.0596 136.985C108.331 136.985 125.42 136.985 129.601 136.985C132.874 131.001 131.419 117.038 131.419 117.038Z" fill="#F86609"/>
<path d="M110.022 128.906L110.014 128.916L110.007 128.927C109.362 129.865 108.92 130.943 108.878 132.109C108.836 133.296 109.214 134.442 109.989 135.463C111.171 137.041 113.09 138.424 115.652 137.811C118.316 137.474 119.55 135.419 120.325 134.098L120.325 134.097C121.421 132.229 122.513 130.361 123.604 128.496C126.696 123.208 129.78 117.934 132.912 112.671C132.913 112.67 132.914 112.669 132.914 112.668L132.929 112.644C133.261 112.09 133.821 111.16 133.831 110.125C133.844 108.788 133.016 107.834 131.924 107.171L131.923 107.17L131.895 107.154C131.361 106.831 130.858 106.526 130.422 106.315C129.988 106.105 129.39 105.869 128.702 105.917C127.946 105.97 127.385 106.338 126.98 106.708C126.607 107.049 126.249 107.502 125.906 107.95L125.904 107.952C124.165 110.231 122.436 112.507 120.709 114.782L120.708 114.783C118.98 117.058 117.254 119.331 115.518 121.606C115.223 121.989 114.927 122.375 114.629 122.762C113.082 124.77 111.505 126.818 110.022 128.906Z" fill="#F86609" stroke="white" stroke-width="3.28565"/>
<path d="M137.993 110.649C137.512 110.41 137.076 110.203 136.712 109.944C133.376 107.745 130.071 105.5 126.696 103.308C125.844 102.771 125.667 102.2 126.211 101.387C128.481 97.9984 130.713 94.6164 132.99 91.2668C133.598 90.3628 134.377 90.231 135.365 90.8648C138.624 93.0772 141.915 95.2441 145.206 97.411C146.064 97.9867 146.378 98.6547 145.808 99.5521C143.506 102.986 141.203 106.42 138.854 109.822C138.628 110.141 138.271 110.401 137.993 110.649Z" fill="#F86609"/>
<path d="M123.191 101.538C121.711 101.788 120.617 100.531 121.146 99.16C122.94 94.6104 125.442 90.4616 129.122 87.115C129.847 86.4314 130.769 86.1953 131.608 86.8944C132.357 87.5289 132.463 88.3922 131.958 89.1986C129.371 93.0814 126.783 96.9642 124.189 100.808C123.937 101.211 123.587 101.511 123.191 101.538Z" fill="#F86609"/>
<path d="M142.228 114.138C141.3 114.335 140.728 114.032 140.317 113.5C139.744 112.716 139.924 111.884 140.435 111.117C142.932 107.41 145.435 103.741 147.932 100.034C148.476 99.2211 149.215 98.8556 150.125 99.2624C151.171 99.7662 151.375 100.733 151.034 101.792C150.125 104.47 148.651 106.882 146.955 109.172C145.913 110.59 144.689 111.879 143.511 113.2C143.058 113.597 142.552 113.923 142.228 114.138Z" fill="#F86609"/>
<path fill-rule="evenodd" clip-rule="evenodd" d="M116.39 81.564C116.403 81.2991 116.41 81.0324 116.41 80.7643C116.41 71.6912 109.054 64.3361 99.9813 64.3361C90.9083 64.3361 83.5531 71.6912 83.5531 80.7643C83.5531 81.0324 83.5595 81.299 83.5722 81.564C83.4383 81.5253 83.3034 81.5134 83.1692 81.5309C82.0696 81.6741 81.4314 83.7351 81.7439 86.1344C82.0317 88.3444 83.0257 90.0705 84.0402 90.217L88.1158 97.0098L91.0832 101.108C91.3067 101.416 91.7942 101.219 91.7403 100.842L89.5649 85.6141L91.7895 81.0975C92.5022 79.6505 94.253 79.0552 95.7 79.7679L110.235 86.9268L108.221 101.024C108.167 101.402 108.654 101.599 108.878 101.29L111.845 97.1923L116.046 90.1912C117.016 89.9283 117.942 88.2541 118.218 86.1347C118.531 83.7355 117.893 81.6744 116.793 81.5311C116.659 81.5136 116.524 81.5254 116.39 81.564Z" fill="#F86609"/>
<defs>
<linearGradient id="paint0_linear_202_1330" x1="30.0052" y1="31.1144" x2="148.49" y2="173.227" gradientUnits="userSpaceOnUse">
<stop stop-color="#ECD821"/>
<stop offset="0.515625" stop-color="#FA9703"/>
<stop offset="1" stop-color="#DA6330"/>
</linearGradient>
</defs>
</svg>
