<svg width="19" height="20" viewBox="0 0 19 20" fill="none" xmlns="http://www.w3.org/2000/svg">
<path d="M9.64431 17.1188C8.05831 17.1188 6.57817 16.6407 5.34168 15.8272L2.33522 16.7877L3.30978 13.8826C2.37206 12.5954 1.82056 11.0095 1.82056 9.29948C1.82056 4.98763 5.32793 1.48027 9.63977 1.48027C13.9516 1.48027 17.459 4.98763 17.459 9.29948C17.459 13.6112 13.9516 17.1187 9.63977 17.1187H9.64431V17.1188ZM9.64431 0C4.50943 0 0.344834 4.16499 0.344834 9.29961C0.344834 11.0556 0.832115 12.7012 1.67785 14.1033L0 19.0909L5.14863 17.4407C6.52478 18.2016 8.07179 18.6003 9.64431 18.5991C14.7791 18.5991 18.9438 14.4344 18.9438 9.29961C18.9437 4.16499 14.7791 0 9.64431 0Z" fill="white"/>
<path d="M7.46072 5.45243C7.30906 5.0893 7.19411 5.07555 6.96435 5.06621C6.87711 5.06059 6.78972 5.05756 6.70229 5.05713C6.40338 5.05713 6.09085 5.14444 5.90235 5.33748C5.67259 5.57191 5.10254 6.11887 5.10254 7.24056C5.10254 8.36224 5.92077 9.44708 6.03105 9.59886C6.14599 9.75039 7.62626 12.0856 9.92463 13.0373C11.722 13.782 12.2553 13.713 12.6644 13.6257C13.2619 13.497 14.0113 13.0555 14.1998 12.5224C14.3883 11.9891 14.3883 11.534 14.333 11.4375C14.2779 11.3409 14.1261 11.2859 13.8963 11.1709C13.6666 11.0559 12.5494 10.5043 12.3379 10.4307C12.131 10.3526 11.9334 10.3803 11.7772 10.6009C11.5566 10.9089 11.3405 11.2216 11.1658 11.41C11.0279 11.5571 10.8025 11.5755 10.6142 11.4973C10.3613 11.3917 9.65349 11.1432 8.77999 10.3664C8.1042 9.76428 7.64455 9.01506 7.51131 8.78984C7.37795 8.56008 7.49756 8.42659 7.60317 8.30256C7.71811 8.15998 7.82838 8.05892 7.94333 7.92555C8.05827 7.79232 8.12262 7.7233 8.19618 7.56697C8.27441 7.41531 8.21914 7.25898 8.16401 7.14403C8.10887 7.02909 7.64922 5.90741 7.46072 5.45243Z" fill="white"/>
</svg>
