<svg width="147" height="134" viewBox="0 0 147 134" fill="none" xmlns="http://www.w3.org/2000/svg">
<path d="M73.3778 133.687C65.0681 133.687 56.7975 133.687 48.4878 133.687C39.3158 133.687 32.4564 129.481 27.9095 121.659C19.835 107.784 11.9172 93.7517 3.84272 79.8766C-1.13527 71.3078 -1.37045 62.857 3.68593 54.2489C12.0348 39.902 20.1486 25.398 28.6151 11.1298C32.9267 3.74019 39.7469 0.0846934 48.2918 0.0453871C64.9897 -0.0332256 81.7267 0.00608072 98.4245 0.0453871C107.048 0.0846934 113.907 3.74019 118.297 11.1691C126.999 25.909 135.505 40.7668 143.893 55.7032C147.969 62.9356 148.048 70.561 144.01 77.8327C138.013 88.6419 131.742 99.2939 125.588 109.985C123.314 113.955 121.041 117.925 118.728 121.856C114.103 129.638 107.283 133.648 98.2285 133.648C89.958 133.726 81.6483 133.687 73.3778 133.687ZM73.3778 125.904C81.7267 125.904 90.0756 125.904 98.4637 125.904C104.382 125.904 108.929 123.31 111.908 118.24C120.1 104.168 128.096 89.9783 136.328 75.946C140.091 69.539 139.777 63.6038 136.053 57.3148C127.94 43.5968 120.1 29.6824 112.143 15.8858C109.204 10.776 104.853 7.86735 98.9341 7.82805C81.8835 7.74943 64.8721 7.74943 47.8215 7.82805C42.0988 7.86735 37.7479 10.6974 34.8866 15.65C26.7728 29.6431 18.8159 43.7148 10.6238 57.6292C6.93926 63.9182 6.90006 69.8142 10.5846 76.1032C18.7767 90.0176 26.7336 104.05 34.8082 118.043C37.7871 123.232 42.2947 125.904 48.2918 125.944C56.6799 125.904 65.0289 125.904 73.3778 125.904Z" fill="#F9F9F9"/>
<path fill-rule="evenodd" clip-rule="evenodd" d="M52.6009 87.2256H67.8321V88.2882H52.6009V87.2256ZM53.7521 43.8342C54.1948 39.4065 58.1798 37.1926 62.6075 37.1926C67.0351 37.1926 71.0201 39.4065 71.4628 43.8342C71.6399 46.1366 71.1972 51.6269 70.046 53.7522C69.0719 55.6118 66.6809 57.2943 64.1129 57.9142C62.8731 58.0913 62.5189 58.0913 61.2791 57.9142C58.7111 57.2943 56.3201 55.6118 55.346 53.7522C54.0177 51.7155 53.4864 46.2251 53.7521 43.8342ZM50.0328 89.3508V72.0828C50.0328 71.8172 50.1214 71.7286 50.387 71.7286H74.6508C74.9164 71.7286 75.005 71.8172 75.005 72.0828V73.8539C76.7761 72.7913 78.7243 71.9057 80.9381 71.2859L79.7869 67.2124C78.7243 62.519 73.0568 60.6594 68.9833 59.7739L64.6442 69.1606L64.1129 63.2275C64.1129 63.2275 64.4671 61.2793 64.5556 60.7479C64.5556 60.5708 64.3785 60.3937 64.2014 60.3937C63.1388 60.4823 61.9876 60.4823 60.9249 60.3937C60.7478 60.3937 60.5707 60.5708 60.5707 60.7479C60.5707 61.1907 61.0135 63.1389 61.0135 63.2275L60.4822 69.1606L56.2316 59.6853C51.981 60.6594 46.1364 62.6076 45.3395 67.478L41.266 81.7352C40.8232 83.4177 40.6461 86.0743 41.7973 87.4912C42.4172 88.2882 43.3027 88.9081 44.4539 89.1737H34.4473V94.487H67.5665L67.7436 89.1737H50.0328V89.3508ZM82.0007 52.2468C82.5321 46.7564 87.4911 44.0113 92.9814 44.0113C98.4718 44.0113 103.431 46.7564 103.962 52.2468C104.228 55.1691 103.608 61.8991 102.191 64.5558C100.951 66.7696 98.029 68.9835 94.7525 69.6919C93.1585 69.9576 92.8043 69.9576 91.2104 69.6919C87.9339 68.9835 85.1001 66.7696 83.7718 64.5558C82.355 61.9877 81.7351 55.1691 82.0007 52.2468ZM116.094 98.9147H69.9574L70.4002 84.746C70.9315 67.7437 115.031 67.6552 115.651 84.746L116.094 98.9147ZM49.8557 56.9401H47.819V59.7739C47.819 60.1281 47.1991 60.0395 47.022 59.7739L44.1883 56.9401H30.0196C29.5769 56.9401 29.2227 56.6745 29.2227 56.3203L29.2227 40.4691C29.2227 40.0264 29.6654 39.5836 30.1967 39.5836C49.59 39.5836 38.6979 39.5836 49.6786 39.5836C50.2099 39.5836 50.6527 40.0264 50.6527 40.4691V56.3203C50.6527 56.5859 50.2985 56.9401 49.8557 56.9401Z" fill="white"/>
</svg>
