<svg width="30" height="34" viewBox="0 0 30 34" fill="none" xmlns="http://www.w3.org/2000/svg">
<path d="M26.3918 3.46572C25.5886 2.7199 22.3185 0.654555 15.3766 0.597184C15.3766 0.597184 7.17263 0.0808485 3.21405 3.63783C0.976595 5.81791 0.230777 9.08804 0.173406 13.0466C0.116036 17.0052 -0.34293 24.5781 6.94315 26.6435C6.94315 26.6435 6.94315 32.2658 6.88577 32.7821C6.88577 33.1264 6.94315 33.3558 7.11526 33.4132C7.23 33.4706 7.45948 33.3558 7.63159 33.1837C8.77901 32.0363 12.5081 27.5614 12.5081 27.5614C17.4993 27.9056 21.4579 26.9303 21.9169 26.7582C22.9496 26.414 28.3424 25.955 29.2603 18.5542C30.2356 10.8665 28.9161 5.6458 26.3918 3.46572ZM23.3512 21.5375C22.9496 22.2259 22.4906 22.7996 21.9169 23.316C21.4006 23.7176 20.9416 23.947 20.4826 24.0044C20.4253 24.0044 20.3679 24.0044 20.2531 24.0044C20.0237 24.0044 19.8515 23.947 19.6221 23.8897C18.8762 23.6602 17.6715 23.1439 15.6635 22.0538C14.5161 21.4227 13.3687 20.6769 12.336 19.8737C11.8197 19.4721 11.3033 19.0132 10.8444 18.5542L10.787 18.4968L10.7296 18.4395L10.6722 18.3821L10.6149 18.3247C10.1559 17.8658 9.69694 17.3494 9.29534 16.8331C8.49215 15.8004 7.74633 14.653 7.11526 13.5056C5.96784 11.4976 5.45151 10.2355 5.2794 9.54701C5.22203 9.3749 5.16465 9.14541 5.16465 8.91593C5.16465 8.85856 5.16465 8.80119 5.16465 8.68645C5.22203 8.22748 5.45151 7.71115 5.8531 7.25218C6.36944 6.67847 6.94315 6.21951 7.63159 5.81791C8.26267 5.47369 8.89375 5.58843 9.35271 6.10477C9.35271 6.10477 10.2133 7.19481 10.6149 7.71115C11.0165 8.28485 11.3607 8.80119 11.7049 9.43227C12.1639 10.2355 11.877 10.9813 11.4181 11.3255L10.5575 12.0139C10.0985 12.3582 10.1559 12.9892 10.1559 12.9892C10.1559 12.9892 11.4181 17.8084 16.1798 19.0132C16.1798 19.0132 16.8109 19.0705 17.1551 18.6116L17.8436 17.751C18.1878 17.3494 18.991 17.0626 19.7368 17.4642C20.3105 17.8084 20.8842 18.1526 21.4579 18.5542C21.9743 18.9558 23.0069 19.8164 23.0643 19.8164C23.5806 20.2753 23.6954 20.849 23.3512 21.5375ZM15.3766 7.88326C15.1472 7.88326 14.9177 7.65378 14.975 7.36692C15.0324 7.08007 15.2045 6.90796 15.4914 6.96533C17.442 7.13744 19.0484 7.82589 20.1384 9.03067C21.2284 10.2355 21.8021 11.7845 21.7448 13.6203C21.7448 13.8498 21.5153 14.0793 21.2858 14.0793C21.0563 14.0793 20.8268 13.8498 20.8268 13.6203C20.8842 12.0139 20.4253 10.7518 19.45 9.71912C18.4747 8.57171 17.1551 7.998 15.3766 7.88326ZM19.3352 12.7598C19.3352 12.9892 19.1631 13.2187 18.8762 13.2187C18.6468 13.2187 18.4173 13.0466 18.4173 12.7598C18.3599 11.2108 17.6141 10.4076 16.0651 10.3502C15.8356 10.3502 15.6061 10.1207 15.6061 9.89123C15.6061 9.66175 15.8356 9.43227 16.0651 9.43227C18.1304 9.54701 19.2778 10.6944 19.3352 12.7598ZM23.6954 14.9972C23.4659 14.9972 23.2364 14.7677 23.2364 14.5383C23.2364 11.7271 22.3759 9.54701 20.7695 7.94063C19.1631 6.33425 17.0404 5.53106 14.6308 5.53106C14.4013 5.53106 14.1718 5.30158 14.1718 5.0721C14.1718 4.84261 14.4013 4.61313 14.6308 4.61313C17.3272 4.61313 19.6221 5.53106 21.4006 7.30955C23.2364 9.08804 24.1543 11.4976 24.1543 14.5956C24.1543 14.7677 23.9822 14.9972 23.6954 14.9972Z" fill="url(#paint0_linear_214_5899)"/>
<defs>
<linearGradient id="paint0_linear_214_5899" x1="1.53872" y1="0.571046" x2="30.6724" y2="29.0427" gradientUnits="userSpaceOnUse">
<stop stop-color="#ECD821"/>
<stop offset="0.515625" stop-color="#FA9703"/>
<stop offset="1" stop-color="#DA6330"/>
</linearGradient>
</defs>
</svg>
