<svg width="24" height="24" viewBox="0 0 24 24" fill="none" xmlns="http://www.w3.org/2000/svg">
<path d="M22.8728 21.7483H1.12459C0.505402 21.7483 0 22.2537 0 22.8729C0 23.4894 0.508049 23.9975 1.12459 23.9975H22.8728C23.492 23.9975 23.9974 23.4921 23.9974 22.8729C24 22.2563 23.4893 21.7483 22.8728 21.7483Z" fill="url(#paint0_linear_212_4766)"/>
<path d="M0.751488 8.25049H23.2512C23.6639 8.25049 24 7.91444 24 7.49901C24 7.20529 23.8307 6.94862 23.5819 6.8269L12.4366 0.140243C12.3122 0.0529217 12.1614 0 12 0C11.8386 0 11.6878 0.0529217 11.5634 0.140243L0.418082 6.8269C0.16935 6.94862 0 7.20529 0 7.49901C0 7.91444 0.336053 8.25049 0.751488 8.25049ZM12 3.00066C12.8282 3.00066 13.5003 3.67277 13.5003 4.50099C13.5003 5.32922 12.8282 6.00132 12 6.00132C11.1718 6.00132 10.4997 5.32922 10.4997 4.50099C10.4997 3.67012 11.1718 3.00066 12 3.00066Z" fill="url(#paint1_linear_212_4766)"/>
<path d="M21.375 11.9973C21.9942 11.9973 22.4996 11.4919 22.4996 10.8728C22.4996 10.2562 21.9915 9.74817 21.375 9.74817H19.8747H14.6248H9.375H4.12516H2.62483C2.00565 9.74817 1.50024 10.2536 1.50024 10.8728C1.50024 11.4893 2.00829 11.9973 2.62483 11.9973H3.00057V17.996H2.62483C2.00565 17.996 1.50024 18.5014 1.50024 19.1206C1.50024 19.7371 2.00829 20.2452 2.62483 20.2452H3.00057H5.24975H8.25041H10.4996H13.5002H15.7494H18.7501H20.9993H21.375C21.9942 20.2452 22.4996 19.7398 22.4996 19.1206C22.4996 18.5041 21.9915 17.996 21.375 17.996H20.9993V11.9973H21.375ZM8.25041 17.9987H5.24975V11.9973H8.25041V17.9987ZM13.5002 17.9987H10.4996V11.9973H13.5002V17.9987ZM18.7474 17.9987H15.7494V11.9973H18.7501V17.9987H18.7474Z" fill="url(#paint2_linear_212_4766)"/>
<path d="M22.6108 9.6344H1.34424V12H22.6108V9.6344Z" fill="url(#paint3_linear_212_4766)"/>
<path d="M3.50638 11.4948L3.00098 11.9975V17.9988L3.50638 18.5042V11.4948Z" fill="#E0E2E8"/>
<path d="M5.25003 11.9975L4.74463 11.4948V18.5042L5.25003 17.9988V11.9975Z" fill="#E0E2E8"/>
<path d="M8.75349 11.4948L8.25073 11.9975V17.9988L8.75349 18.5042V11.4948Z" fill="#E0E2E8"/>
<path d="M9.99438 11.4948L10.4998 11.9975V17.9988L9.99438 18.5042V11.4948Z" fill="#E0E2E8"/>
<path d="M14.0032 11.4948L13.5005 11.9975V17.9988L14.0032 18.5042V11.4948Z" fill="#E0E2E8"/>
<path d="M15.7498 11.9975L15.2444 11.4948V18.5042L15.7498 17.9988V11.9975Z" fill="#E0E2E8"/>
<path d="M19.253 11.4948L18.7476 11.9975V17.9988L19.253 18.5042V11.4948Z" fill="#E0E2E8"/>
<path d="M5.25003 11.9975L4.74463 11.4948H8.75345L8.25069 11.9975H5.25003Z" fill="#C1C5CC"/>
<path d="M10.4998 11.9975L9.99438 11.4948H14.0032L13.5004 11.9975H10.4998Z" fill="#C1C5CC"/>
<path d="M19.2532 11.4948H15.2444L15.7498 11.9975H18.7478L19.2532 11.4948Z" fill="#C1C5CC"/>
<path d="M8.75345 18.5042L8.25069 17.9988H5.25003L4.74463 18.5042H8.75345Z" fill="#FDFFFF"/>
<path d="M10.4998 17.9988L9.99438 18.5042H14.0032L13.5004 17.9988H10.4998Z" fill="#FDFFFF"/>
<path d="M18.7478 17.9988H15.7498L15.2444 18.5042H19.2532L18.7478 17.9988Z" fill="#FDFFFF"/>
<path d="M20.9998 11.9975L20.4944 11.4948V18.5042L20.9998 17.9988V11.9975Z" fill="#E0E2E8"/>
<path d="M14.1116 4.55139C14.1116 5.70773 13.1722 6.64709 12.0159 6.64709C10.8595 6.64709 9.92017 5.71037 9.92017 4.55139C9.92017 3.3924 10.8595 2.45569 12.0159 2.45569C13.1749 2.45569 14.1116 3.3924 14.1116 4.55139Z" fill="url(#paint4_linear_212_4766)"/>
<path fill-rule="evenodd" clip-rule="evenodd" d="M1.12456 23.4946C0.788502 23.4946 0.505371 23.2115 0.505371 22.8728C0.505371 22.5315 0.78321 22.2536 1.12456 22.2536H22.8727C23.2088 22.2536 23.4919 22.5368 23.4919 22.8728C23.4919 23.2142 23.2141 23.4946 22.8727 23.4946H1.12456ZM2.62489 19.7451C2.28883 19.7451 2.0057 19.462 2.0057 19.1233C2.0057 18.782 2.28354 18.5041 2.62489 18.5041H3.50339V11.4946H2.62489C2.28883 11.4946 2.0057 11.2115 2.0057 10.8728C2.0057 10.5315 2.28354 10.2536 2.62489 10.2536H21.3724C21.7085 10.2536 21.9916 10.5368 21.9916 10.8728C21.9916 11.2142 21.7137 11.4946 21.3724 11.4946H20.4939V18.5041H21.3724C21.7085 18.5041 21.9916 18.7873 21.9916 19.1233C21.9916 19.4647 21.7137 19.7451 21.3724 19.7451H2.62489ZM15.2441 18.5041H19.2529V11.4946H15.2441V18.5041ZM9.99424 18.5041H14.0031V11.4946H9.99424V18.5041ZM4.7444 18.5041H8.75322V11.4946H4.7444V18.5041ZM0.751457 7.74515C0.616507 7.74515 0.505371 7.63401 0.505371 7.49906C0.505371 7.38792 0.576815 7.31119 0.642968 7.27943L0.66149 7.2715L11.8412 0.561022L11.8571 0.547791C11.8862 0.526622 11.9338 0.502808 12 0.502808C12.0661 0.502808 12.1138 0.526622 12.1429 0.547791L12.1587 0.561022L23.3384 7.26885L23.357 7.27679C23.4231 7.30854 23.4946 7.38528 23.4946 7.49641C23.4946 7.63136 23.3834 7.7425 23.2485 7.7425H0.751457V7.74515ZM12 2.49531C10.8939 2.49531 9.99424 3.39498 9.99424 4.4984C9.99424 5.60446 10.8939 6.50148 12 6.50148C13.106 6.50148 14.0057 5.60182 14.0057 4.4984C14.0031 3.39498 13.1034 2.49531 12 2.49531Z" fill="url(#paint5_linear_212_4766)"/>
<defs>
<linearGradient id="paint0_linear_212_4766" x1="11.9995" y1="23.9548" x2="11.9995" y2="21.7424" gradientUnits="userSpaceOnUse">
<stop stop-color="#BDC2CB"/>
<stop offset="1" stop-color="#FBFEFE"/>
</linearGradient>
<linearGradient id="paint1_linear_212_4766" x1="11.9995" y1="8.23722" x2="11.9995" y2="-0.0122327" gradientUnits="userSpaceOnUse">
<stop stop-color="#BDC2CB"/>
<stop offset="0.1324" stop-color="#F1F4FB"/>
<stop offset="0.5162" stop-color="#F9FBFF"/>
<stop offset="1" stop-color="#F9FBFE"/>
</linearGradient>
<linearGradient id="paint2_linear_212_4766" x1="11.9994" y1="20.1901" x2="11.9994" y2="17.9725" gradientUnits="userSpaceOnUse">
<stop stop-color="#BDC2CB"/>
<stop offset="0.5162" stop-color="#E0E3E9"/>
<stop offset="1" stop-color="#FDFFFF"/>
</linearGradient>
<linearGradient id="paint3_linear_212_4766" x1="11.9772" y1="11.9624" x2="11.9772" y2="9.64029" gradientUnits="userSpaceOnUse">
<stop stop-color="#BDC2CB"/>
<stop offset="0.5162" stop-color="#E0E3E9"/>
<stop offset="1" stop-color="#FDFFFF"/>
</linearGradient>
<linearGradient id="paint4_linear_212_4766" x1="12.016" y1="6.63937" x2="12.016" y2="2.44827" gradientUnits="userSpaceOnUse">
<stop stop-color="#FBFEFE"/>
<stop offset="0.4838" stop-color="#E4E8EF"/>
<stop offset="1" stop-color="#BDC2CB"/>
</linearGradient>
<linearGradient id="paint5_linear_212_4766" x1="0.505112" y1="11.9989" x2="23.4938" y2="11.9989" gradientUnits="userSpaceOnUse">
<stop stop-color="#E6E8E7"/>
<stop offset="0.8292" stop-color="#ECECEC"/>
<stop offset="1" stop-color="#EEEEEE"/>
</linearGradient>
</defs>
</svg>
