<svg width="32" height="33" viewBox="0 0 32 33" fill="none" xmlns="http://www.w3.org/2000/svg">
<path d="M16.3241 29.0583C13.7219 29.0583 11.2933 28.2739 9.26448 26.939L4.33156 28.5151L5.9306 23.7484C4.39201 21.6364 3.48713 19.0343 3.48713 16.2286C3.48713 9.15379 9.24192 3.399 16.3167 3.399C23.3914 3.399 29.1462 9.15379 29.1462 16.2286C29.1462 23.3031 23.3914 29.0581 16.3167 29.0581H16.3241V29.0583ZM16.3241 0.970215C7.89896 0.970215 1.06579 7.80402 1.06579 16.2288C1.06579 19.1099 1.86531 21.8101 3.25298 24.1105L0.5 32.2941L8.94774 29.5864C11.2057 30.835 13.744 31.489 16.3241 31.4871C24.7491 31.4871 31.5825 24.6537 31.5825 16.2288C31.5823 7.80402 24.7491 0.970215 16.3241 0.970215Z" fill="url(#paint0_linear_214_5900)"/>
<path d="M12.7413 9.91593C12.4925 9.32012 12.3039 9.29756 11.9269 9.28223C11.7837 9.27301 11.6403 9.26804 11.4969 9.26733C11.0065 9.26733 10.4937 9.41059 10.1844 9.72733C9.8074 10.112 8.87207 11.0094 8.87207 12.8498C8.87207 14.6903 10.2146 16.4702 10.3955 16.7193C10.5841 16.9679 13.0129 20.7995 16.784 22.3611C19.7331 23.5829 20.6081 23.4696 21.2793 23.3264C22.2598 23.1152 23.4893 22.3909 23.7986 21.5162C24.1078 20.6411 24.1078 19.8944 24.0172 19.736C23.9267 19.5776 23.6776 19.4874 23.3007 19.2986C22.9237 19.11 21.0907 18.2049 20.7437 18.0842C20.4042 17.956 20.08 18.0014 19.8237 18.3635C19.4616 18.8688 19.1072 19.3818 18.8205 19.6909C18.5942 19.9323 18.2245 19.9625 17.9154 19.8341C17.5005 19.6609 16.3391 19.2532 14.9059 17.9786C13.7971 16.9907 13.0429 15.7614 12.8243 15.3919C12.6055 15.0149 12.8018 14.7958 12.975 14.5924C13.1636 14.3584 13.3446 14.1926 13.5332 13.9738C13.7218 13.7552 13.8273 13.6419 13.948 13.3854C14.0764 13.1366 13.9857 12.8801 13.8952 12.6915C13.8048 12.5029 13.0506 10.6624 12.7413 9.91593Z" fill="url(#paint1_linear_214_5900)"/>
<defs>
<linearGradient id="paint0_linear_214_5900" x1="1.96863" y1="0.970216" x2="29.6631" y2="30.9495" gradientUnits="userSpaceOnUse">
<stop stop-color="#ECD821"/>
<stop offset="0.515625" stop-color="#FA9703"/>
<stop offset="1" stop-color="#DA6330"/>
</linearGradient>
<linearGradient id="paint1_linear_214_5900" x1="9.59015" y1="9.26733" x2="21.9788" y2="23.7882" gradientUnits="userSpaceOnUse">
<stop stop-color="#ECD821"/>
<stop offset="0.515625" stop-color="#FA9703"/>
<stop offset="1" stop-color="#DA6330"/>
</linearGradient>
</defs>
</svg>
