<svg width="30" height="35" viewBox="0 0 30 35" fill="none" xmlns="http://www.w3.org/2000/svg">
<path d="M13.2562 15.1208C12.7464 15.1237 12.3205 15.5368 12.3281 16.0582C12.331 16.568 12.7441 16.9939 13.2655 16.9863C13.7753 16.9833 14.2012 16.5703 14.1936 16.0489C14.1906 15.5391 13.7822 15.1248 13.2562 15.1208Z" fill="white"/>
<path d="M13.1698 21.9736C12.66 21.9766 12.2341 22.3896 12.2371 22.8994C12.24 23.4092 12.6531 23.8351 13.1745 23.8275C13.6843 23.8246 14.1102 23.4115 14.1026 22.8901C14.1043 22.3919 13.6843 21.9822 13.1698 21.9736Z" fill="white"/>
<path d="M11.3956 19.1623C11.9054 19.1593 12.3313 18.7463 12.3237 18.2249C12.3208 17.7151 11.9077 17.2892 11.3863 17.2968C10.8765 17.2997 10.4506 17.7128 10.4582 18.2342C10.4612 18.744 10.8811 19.1537 11.3956 19.1623Z" fill="white"/>
<path d="M11.304 20.006C10.7942 20.009 10.3683 20.422 10.3759 20.9434C10.3789 21.4533 10.7919 21.8792 11.3133 21.8716C11.8232 21.8686 12.249 21.4556 12.2414 20.9342C12.2385 20.4243 11.8185 20.0147 11.304 20.006Z" fill="white"/>
<path d="M15.8232 22.1186C15.3134 22.1216 14.8875 22.5346 14.8951 23.056C14.8981 23.5659 15.3111 23.9918 15.8209 23.9888C16.3308 23.9859 16.7567 23.5728 16.7491 23.0514C16.7577 22.5369 16.3377 22.1273 15.8232 22.1186Z" fill="white"/>
<path d="M17.8358 19.159C17.8387 19.6688 18.2518 20.0947 18.7732 20.0871C19.283 20.0842 19.7089 19.6711 19.7013 19.1497C19.6983 18.6399 19.2853 18.214 18.7639 18.2216C18.2541 18.2246 17.8328 18.6492 17.8358 19.159Z" fill="white"/>
<path d="M16.0299 14.9622C15.52 14.9652 15.0942 15.3782 15.1018 15.8996C15.1047 16.4094 15.5177 16.8353 16.0392 16.8277C16.549 16.8248 16.9749 16.4117 16.9673 15.8903C16.9643 15.3805 16.5397 14.9593 16.0299 14.9622Z" fill="white"/>
<path d="M24.0767 22.8127C24.0556 22.6598 24.023 22.5115 23.9741 22.3563L21.5884 14.1023C21.2975 13.076 20.782 12.2609 20.4575 12.2567L9.87387 12.2561C9.53784 12.2565 8.98269 13.0845 8.62477 14.1023L5.75222 22.3559C5.70141 22.4973 5.66912 22.6179 5.64147 22.75C5.56286 22.8892 5.50512 23.0468 5.50765 23.2206L5.50602 27.4708C5.50204 27.9968 5.92666 28.4181 6.45272 28.4221L23.2239 28.4266C23.75 28.4305 24.1828 28.0013 24.1752 27.4799L24.1768 23.2297C24.179 23.0675 24.1394 22.9354 24.0767 22.8127ZM14.8463 24.6087C12.0074 24.6053 9.71496 22.3116 9.71836 19.4727C9.72176 16.6339 12.0155 14.3414 14.8543 14.3448C17.6932 14.3482 19.9856 16.6419 19.9822 19.4807C19.9742 22.308 17.6851 24.6121 14.8463 24.6087Z" fill="white"/>
<path d="M18.0419 20.7439C17.5321 20.7468 17.1062 21.1599 17.1091 21.6697C17.1121 22.1795 17.5251 22.6054 18.0465 22.5978C18.5564 22.5948 18.9823 22.1818 18.9746 21.6604C18.9763 21.1621 18.5517 20.7409 18.0419 20.7439Z" fill="white"/>
<path d="M27.3498 8.79039C20.4462 5.09347 9.74435 5.09991 2.83842 8.80021C2.06492 9.21831 1.66025 9.91868 1.68882 10.5258C1.68653 10.5536 1.6796 10.5699 1.67732 10.5977L1.95271 13.997C2.00208 14.5554 2.50784 15.0113 3.10111 15.0152L6.66992 14.9945C7.26318 14.9984 7.9393 14.5387 8.1935 13.966L9.40676 11.26C13.267 10.7593 17.202 10.7799 21.0565 11.3034L22.2162 13.9577C22.4603 14.5321 23.1236 14.9786 23.6891 14.9802L27.1212 14.9875C27.6866 14.9891 28.1774 14.5366 28.223 13.9803L28.4968 10.5757C28.4991 10.5479 28.4898 10.5247 28.4921 10.4969C28.5285 9.91751 28.122 9.20656 27.3498 8.79039Z" fill="white"/>
<path d="M13.0545 15.1209C12.5447 15.1239 12.1188 15.5369 12.1264 16.0583C12.1294 16.5681 12.5424 16.994 13.0638 16.9864C13.5736 16.9835 13.9995 16.5704 13.9919 16.049C13.989 15.5392 13.5644 15.1179 13.0545 15.1209Z" fill="url(#paint0_linear_248_1296)"/>
<path d="M12.9564 21.9785C12.4466 21.9814 12.0207 22.3945 12.0237 22.9043C12.0266 23.4141 12.4397 23.84 12.9611 23.8324C13.4709 23.8295 13.8968 23.4164 13.8892 22.895C13.8909 22.3968 13.4779 21.9709 12.9564 21.9785Z" fill="url(#paint1_linear_248_1296)"/>
<path d="M11.1942 19.1627C11.704 19.1597 12.1299 18.7467 12.1223 18.2253C12.1193 17.7155 11.7063 17.2896 11.1849 17.2972C10.6751 17.3001 10.2492 17.7132 10.2568 18.2346C10.2597 18.7444 10.6681 19.1587 11.1942 19.1627Z" fill="url(#paint2_linear_248_1296)"/>
<path d="M11.0911 20.011C10.5812 20.0139 10.1553 20.427 10.1629 20.9484C10.1659 21.4582 10.5789 21.8841 11.0888 21.8811C11.5986 21.8782 12.0245 21.4652 12.0169 20.9437C12.0255 20.4293 11.6009 20.008 11.0911 20.011Z" fill="url(#paint3_linear_248_1296)"/>
<path d="M15.6103 22.1234C15.1005 22.1264 14.6746 22.5394 14.6822 23.0608C14.6852 23.5706 15.0982 23.9965 15.6081 23.9936C16.1179 23.9906 16.5438 23.5776 16.5362 23.0562C16.5448 22.5417 16.1364 22.1274 15.6103 22.1234Z" fill="url(#paint4_linear_248_1296)"/>
<path d="M17.6227 19.1637C17.6256 19.6735 18.0387 20.0994 18.5485 20.0965C19.0583 20.0935 19.4842 19.6805 19.4766 19.1591C19.4736 18.6492 19.0606 18.2234 18.5392 18.231C18.0409 18.2293 17.6266 18.6377 17.6227 19.1637Z" fill="url(#paint5_linear_248_1296)"/>
<path d="M15.8236 14.9506C15.3137 14.9536 14.8879 15.3666 14.8955 15.888C14.8984 16.3978 15.3114 16.8237 15.8329 16.8161C16.3427 16.8132 16.7686 16.4001 16.761 15.8787C16.758 15.3689 16.3381 14.9592 15.8236 14.9506Z" fill="url(#paint6_linear_248_1296)"/>
<path d="M23.8753 22.813C23.8542 22.6601 23.8216 22.5118 23.7727 22.3566L21.3755 14.1073C21.0845 13.081 20.569 12.2659 20.2446 12.2617L9.66781 12.2448C9.33179 12.2452 8.77664 13.0733 8.41871 14.0911L5.54616 22.3447C5.49536 22.4861 5.46306 22.6067 5.43542 22.7388C5.3568 22.8779 5.29906 23.0356 5.3016 23.2094L5.30461 27.4711C5.30064 27.9972 5.72525 28.4184 6.25131 28.4224L23.0225 28.4269C23.5486 28.4309 23.9698 28.0063 23.9738 27.4802L23.9754 23.2301C23.9775 23.0678 23.938 22.9358 23.8753 22.813ZM14.6333 24.6137C11.7945 24.6103 9.50197 22.3166 9.50537 19.4777C9.50877 16.6389 11.8025 14.3464 14.6413 14.3498C17.4802 14.3532 19.7727 16.6469 19.7693 19.4857C19.7612 22.313 17.4675 24.6055 14.6333 24.6137Z" fill="url(#paint7_linear_248_1296)"/>
<path d="M17.824 20.7373C17.3141 20.7403 16.8883 21.1533 16.8959 21.6747C16.8988 22.1845 17.3118 22.6104 17.8217 22.6075C18.3315 22.6045 18.7574 22.1915 18.7498 21.6701C18.7584 21.1556 18.35 20.7413 17.824 20.7373Z" fill="url(#paint8_linear_248_1296)"/>
<path d="M27.1482 8.79073C20.2446 5.0938 9.53808 5.08866 2.63215 8.78896C1.85865 9.20706 1.45398 9.90743 1.48255 10.5146C1.48026 10.5424 1.47333 10.5586 1.48263 10.5818L1.75802 13.9811C1.80739 14.5395 2.31316 14.9954 2.90642 14.9993L6.4683 14.9949C7.06156 14.9987 7.73768 14.5391 7.99188 13.9663L9.20514 11.2604C13.0538 10.7643 17.0004 10.7802 20.8549 11.3037L22.003 13.9627C22.2471 14.5371 22.9104 14.9836 23.4759 14.9852L26.908 14.9925C27.4734 14.9941 27.9642 14.5416 28.0098 13.9853L28.2999 10.5876C28.3022 10.5598 28.2929 10.5366 28.2951 10.5088C28.3222 9.90626 27.9204 9.2069 27.1482 8.79073Z" fill="url(#paint9_linear_248_1296)"/>
<defs>
<linearGradient id="paint0_linear_248_1296" x1="12.1933" y1="16.4013" x2="13.9235" y2="15.7067" gradientUnits="userSpaceOnUse">
<stop stop-color="#E6E8E7"/>
<stop offset="0.8292" stop-color="#ECECEC"/>
<stop offset="1" stop-color="#EEEEEE"/>
</linearGradient>
<linearGradient id="paint1_linear_248_1296" x1="12.0929" y1="23.253" x2="13.8245" y2="22.5578" gradientUnits="userSpaceOnUse">
<stop stop-color="#E6E8E7"/>
<stop offset="0.8292" stop-color="#ECECEC"/>
<stop offset="1" stop-color="#EEEEEE"/>
</linearGradient>
<linearGradient id="paint2_linear_248_1296" x1="10.3237" y1="18.5776" x2="12.0554" y2="17.8824" gradientUnits="userSpaceOnUse">
<stop stop-color="#E6E8E7"/>
<stop offset="0.8292" stop-color="#ECECEC"/>
<stop offset="1" stop-color="#EEEEEE"/>
</linearGradient>
<linearGradient id="paint3_linear_248_1296" x1="10.2297" y1="21.2914" x2="11.9549" y2="20.5988" gradientUnits="userSpaceOnUse">
<stop stop-color="#E6E8E7"/>
<stop offset="0.8292" stop-color="#ECECEC"/>
<stop offset="1" stop-color="#EEEEEE"/>
</linearGradient>
<linearGradient id="paint4_linear_248_1296" x1="14.749" y1="23.4039" x2="16.4758" y2="22.7106" gradientUnits="userSpaceOnUse">
<stop stop-color="#E6E8E7"/>
<stop offset="0.8292" stop-color="#ECECEC"/>
<stop offset="1" stop-color="#EEEEEE"/>
</linearGradient>
<linearGradient id="paint5_linear_248_1296" x1="17.6894" y1="19.5068" x2="19.4097" y2="18.8162" gradientUnits="userSpaceOnUse">
<stop stop-color="#E6E8E7"/>
<stop offset="0.8292" stop-color="#ECECEC"/>
<stop offset="1" stop-color="#EEEEEE"/>
</linearGradient>
<linearGradient id="paint6_linear_248_1296" x1="14.9623" y1="16.231" x2="16.6926" y2="15.5364" gradientUnits="userSpaceOnUse">
<stop stop-color="#E6E8E7"/>
<stop offset="0.8292" stop-color="#ECECEC"/>
<stop offset="1" stop-color="#EEEEEE"/>
</linearGradient>
<linearGradient id="paint7_linear_248_1296" x1="4.31414" y1="25.1948" x2="22.8719" y2="17.7447" gradientUnits="userSpaceOnUse">
<stop stop-color="#E6E8E7"/>
<stop offset="0.8292" stop-color="#ECECEC"/>
<stop offset="1" stop-color="#EEEEEE"/>
</linearGradient>
<linearGradient id="paint8_linear_248_1296" x1="16.9626" y1="22.0177" x2="18.6894" y2="21.3245" gradientUnits="userSpaceOnUse">
<stop stop-color="#E6E8E7"/>
<stop offset="0.8292" stop-color="#ECECEC"/>
<stop offset="1" stop-color="#EEEEEE"/>
</linearGradient>
<linearGradient id="paint9_linear_248_1296" x1="2.79305" y1="16.6781" x2="27.0043" y2="6.95845" gradientUnits="userSpaceOnUse">
<stop stop-color="#E6E8E7"/>
<stop offset="0.8292" stop-color="#ECECEC"/>
<stop offset="1" stop-color="#EEEEEE"/>
</linearGradient>
</defs>
</svg>
