<svg width="150" height="178" viewBox="0 0 150 178" fill="none" xmlns="http://www.w3.org/2000/svg">
<circle cx="75.5015" cy="80.8637" r="52.6701" stroke="white" stroke-width="4.41987"/>
<path d="M75.3298 177.75C75.1411 177.75 74.9525 177.706 74.775 177.629C74.5864 177.541 70.0818 175.443 63.2694 170.643C57.0117 166.239 47.5698 158.637 38.0724 147.412C27.41 134.802 18.8557 120.281 12.6535 104.266C4.90914 84.2528 0.826144 61.8341 0.526576 37.625C0.515481 37.0099 0.94819 36.4717 1.55842 36.3289C24.9136 31.2432 43.4535 21.8078 54.8926 14.7889C67.2969 7.16591 74.2646 0.674275 74.3312 0.60837C74.8416 0.136051 75.6404 0.125067 76.1508 0.60837C76.2174 0.674275 83.1962 7.16591 95.6116 14.767C107.062 21.7748 125.602 31.1993 148.968 36.263C149.578 36.3948 150.011 36.933 150 37.5481C149.722 61.7572 145.662 84.1759 137.939 104.189C131.748 120.215 123.216 134.747 112.565 147.368C103.079 158.605 93.6367 166.217 87.3901 170.621C80.5888 175.421 76.0842 177.53 75.8956 177.618C75.7181 177.706 75.5295 177.75 75.3298 177.75ZM3.17831 38.6575C4.0992 92.0735 23.6821 126.289 40.0029 145.632C49.3117 156.66 58.5651 164.13 64.7007 168.446C69.993 172.181 73.9318 174.279 75.3298 174.982C76.7277 174.268 80.6665 172.17 85.9589 168.435C92.0834 164.108 101.337 156.627 110.623 145.588C126.933 126.234 146.472 91.9856 147.348 38.5806C137.207 36.3179 127.155 33.0776 117.436 28.9365C109.392 25.5204 101.559 21.4783 94.1581 16.9418C83.9839 10.7028 77.5155 5.30959 75.241 3.31047C72.9776 5.32057 66.5202 10.7138 56.346 16.9638C48.9456 21.5112 41.1236 25.5534 33.0796 28.9805C23.3714 33.1215 13.3081 36.3728 3.17831 38.6575ZM75.3298 165.766C75.0857 165.766 74.8527 165.7 74.6308 165.568C68.6949 161.933 57.0117 153.761 45.4617 139.866C35.7202 128.156 27.9093 114.679 22.2397 99.8173C16.0042 83.4729 12.3318 65.2941 11.3332 45.7862C11.2999 45.1711 11.7104 44.6219 12.2985 44.4571C42.4661 36.3179 64.1792 21.9396 74.4421 14.0969C74.9192 13.7344 75.5739 13.7344 76.0509 14.0969C86.3139 21.9286 108.049 36.2849 138.217 44.4022C138.816 44.567 139.215 45.1162 139.193 45.7313C138.206 65.5138 134.467 83.9342 128.076 100.476C122.306 115.426 114.362 128.958 104.454 140.689L103.445 139.855L104.454 140.689C93.1374 154.09 81.776 162.043 76.0066 165.59C75.8068 165.711 75.5739 165.766 75.3298 165.766ZM14.0293 46.7089C15.0833 65.5467 18.6782 83.0994 24.7028 98.9056C30.2725 113.504 37.9393 126.729 47.5032 138.218C58.3764 151.289 69.3495 159.187 75.3298 162.932C81.1436 159.275 91.806 151.619 102.446 139.009C112.165 127.497 119.954 114.218 125.624 99.5427C131.793 83.5498 135.454 65.7554 136.508 46.643C107.195 38.5806 85.859 24.7516 75.2521 16.7771C64.6563 24.7625 43.3315 38.6136 14.0293 46.7089Z" fill="white"/>
<path opacity="0.5" d="M75.2356 2.11841C75.2356 2.11841 47.6739 28.3495 2.39478 38.3323C3.71615 144.239 75.3347 177.75 75.3347 177.75C75.3347 177.75 146.92 144.161 148.132 38.2551C102.83 28.3164 75.2356 2.11841 75.2356 2.11841ZM103.238 140.995C92.2263 154.188 81.2369 162.053 75.3237 165.726C69.2784 161.976 57.9476 153.89 46.6939 140.201C37.1139 128.553 29.4279 115.139 23.8561 100.358C17.7007 84.0437 14.1 65.9533 13.1199 46.4951C43.1152 38.2993 64.7197 23.9262 75.2467 15.7745C85.7846 23.9152 107.4 38.2662 137.406 46.4289C136.426 66.1739 132.76 84.496 126.461 100.998C120.779 115.867 112.972 129.325 103.238 140.995Z" fill="white"/>
<path d="M37.0695 84.3301V74.8591H41.1761C41.8975 74.8591 42.5033 74.9562 42.9935 75.1505C43.4868 75.3447 43.8583 75.6191 44.108 75.9736C44.3608 76.3282 44.4872 76.7459 44.4872 77.2269C44.4872 77.5752 44.4102 77.8928 44.256 78.1795C44.1049 78.4662 43.8922 78.7067 43.6178 78.9009C43.3434 79.0921 43.0228 79.2246 42.6559 79.2986V79.3911C43.0629 79.4065 43.4328 79.5098 43.7658 79.701C44.0988 79.889 44.3639 80.1495 44.5612 80.4825C44.7585 80.8124 44.8572 81.2008 44.8572 81.6479C44.8572 82.1658 44.7215 82.6267 44.4502 83.0306C44.182 83.4345 43.7997 83.752 43.3034 83.9832C42.807 84.2145 42.2151 84.3301 41.5276 84.3301H37.0695ZM39.6408 82.2768H40.8431C41.2747 82.2768 41.5985 82.1966 41.8143 82.0363C42.0301 81.8729 42.138 81.6325 42.138 81.3149C42.138 81.0929 42.0871 80.9049 41.9854 80.7507C41.8836 80.5966 41.7387 80.4794 41.5507 80.3993C41.3657 80.3191 41.1422 80.279 40.8801 80.279H39.6408V82.2768ZM39.6408 78.6882H40.6951C40.9202 78.6882 41.1191 78.6527 41.2917 78.5818C41.4643 78.5109 41.5985 78.4092 41.694 78.2766C41.7927 78.141 41.842 77.976 41.842 77.7818C41.842 77.4889 41.7372 77.2654 41.5276 77.1112C41.3179 76.954 41.0528 76.8754 40.7321 76.8754H39.6408V78.6882ZM47.7867 78.0408H49.7475C50.546 78.0408 51.2427 78.1687 51.8378 78.4246C52.4359 78.6805 52.8999 79.0412 53.2297 79.5067C53.5627 79.9723 53.7276 80.5195 53.7246 81.1484C53.7276 81.7774 53.5627 82.3308 53.2297 82.8086C52.8999 83.2865 52.4359 83.6595 51.8378 83.9277C51.2427 84.196 50.546 84.3301 49.7475 84.3301H46.2144V74.8591H48.7856V82.3138H49.7475C50.0589 82.3138 50.3194 82.2629 50.529 82.1612C50.7418 82.0595 50.9021 81.9192 51.01 81.7404C51.121 81.5615 51.1749 81.3581 51.1718 81.1299C51.1749 80.8062 51.0547 80.538 50.8111 80.3253C50.5676 80.1095 50.213 80.0016 49.7475 80.0016H47.7867V78.0408ZM56.9617 74.8591V84.3301H54.3905V74.8591H56.9617ZM58.5675 74.8591H61.1387V79.8166H61.2127L64.5793 74.8591H66.7621V84.3301H64.1908V79.3541H64.1354L60.7132 84.3301H58.5675V74.8591ZM63.5989 72.3064H65.2082C65.2052 72.9076 64.9755 73.3885 64.5192 73.7492C64.0629 74.1069 63.4478 74.2857 62.674 74.2857C61.894 74.2857 61.2759 74.1069 60.8196 73.7492C60.3633 73.3885 60.1367 72.9076 60.1398 72.3064H61.7306C61.7275 72.5006 61.7969 72.6794 61.9387 72.8428C62.0836 73.0032 62.3287 73.0833 62.674 73.0833C63.0039 73.0833 63.2397 73.0047 63.3816 72.8475C63.5234 72.6902 63.5958 72.5099 63.5989 72.3064ZM75.0283 74.8591V76.9309H70.9402V84.3301H68.369V74.8591H75.0283ZM76.3774 84.3301V74.8591H80.4654C81.1683 74.8591 81.7834 74.9979 82.3106 75.2753C82.8378 75.5528 83.2478 75.9428 83.5407 76.4453C83.8336 76.9478 83.98 77.5352 83.98 78.2073C83.98 78.8855 83.829 79.4728 83.5268 79.9692C83.2278 80.4655 82.8069 80.8478 82.2643 81.1161C81.7248 81.3843 81.0943 81.5184 80.3729 81.5184H77.9312V79.5206H79.855C80.1571 79.5206 80.4145 79.4682 80.6273 79.3634C80.8431 79.2555 81.008 79.1029 81.1221 78.9055C81.2392 78.7082 81.2978 78.4755 81.2978 78.2073C81.2978 77.9359 81.2392 77.7047 81.1221 77.5136C81.008 77.3193 80.8431 77.1714 80.6273 77.0696C80.4145 76.9648 80.1571 76.9124 79.855 76.9124H78.9486V84.3301H76.3774ZM86.5916 84.3301H83.8169L86.9431 74.8591H90.4577L93.5838 84.3301H90.8091L88.7374 77.4673H88.6634L86.5916 84.3301ZM86.0737 80.5935H91.2901V82.5173H86.0737V80.5935ZM94.8867 84.3301V74.8591H97.4579V78.5587H100.862V74.8591H103.433V84.3301H100.862V80.6305H97.4579V84.3301H94.8867ZM114.219 79.5946C114.219 80.649 114.014 81.5384 113.604 82.2629C113.194 82.9844 112.641 83.5316 111.944 83.9046C111.247 84.2746 110.47 84.4596 109.613 84.4596C108.75 84.4596 107.97 84.273 107.273 83.9C106.58 83.5239 106.028 82.9751 105.618 82.2537C105.211 81.5292 105.007 80.6428 105.007 79.5946C105.007 78.5402 105.211 77.6523 105.618 76.9309C106.028 76.2064 106.58 75.6592 107.273 75.2892C107.97 74.9162 108.75 74.7296 109.613 74.7296C110.47 74.7296 111.247 74.9162 111.944 75.2892C112.641 75.6592 113.194 76.2064 113.604 76.9309C114.014 77.6523 114.219 78.5402 114.219 79.5946ZM111.574 79.5946C111.574 79.0273 111.499 78.5495 111.347 78.161C111.2 77.7695 110.979 77.4735 110.686 77.2731C110.396 77.0696 110.039 76.9679 109.613 76.9679C109.188 76.9679 108.829 77.0696 108.536 77.2731C108.246 77.4735 108.026 77.7695 107.874 78.161C107.727 78.5495 107.653 79.0273 107.653 79.5946C107.653 80.1619 107.727 80.6413 107.874 81.0328C108.026 81.4213 108.246 81.7172 108.536 81.9207C108.829 82.1211 109.188 82.2213 109.613 82.2213C110.039 82.2213 110.396 82.1211 110.686 81.9207C110.979 81.7172 111.2 81.4213 111.347 81.0328C111.499 80.6413 111.574 80.1619 111.574 79.5946Z" fill="white"/>
<path d="M41.0489 60.6295L39.8331 61.801L36.5147 54.6496L37.9768 53.2407L44.9977 56.8245L43.7818 57.996L38.4483 55.1513L38.4064 55.1917L41.0489 60.6295ZM38.9404 58.5934L41.8122 55.8261L42.6656 56.7118L39.7938 59.479L38.9404 58.5934Z" fill="white"/>
<path d="M46.3067 58.0037L44.5774 55.4877L44.9942 55.2012C45.0661 55.0017 45.0971 54.7684 45.0873 54.5014C45.0761 54.2324 44.9991 53.9041 44.8563 53.5165C44.7122 53.127 44.474 52.6519 44.1417 52.0914L42.5308 49.3749L46.5941 46.5821L50.1042 51.6891L50.7759 51.2274L52.5011 53.7374L51.2536 54.5948L50.2395 53.1194L46.536 55.6648L47.5542 57.1462L46.3067 58.0037ZM46.4936 54.1706L48.8567 52.5465L46.0824 48.5101L44.4361 49.6416L45.3892 51.234C45.6422 51.6577 45.8465 52.0471 46.0023 52.4022C46.16 52.7559 46.278 53.0796 46.3562 53.3732C46.435 53.6634 46.4808 53.9292 46.4936 54.1706Z" fill="white"/>
<path d="M52.2474 51.8732L49.0472 45.1431L51.7419 43.8617C52.237 43.6263 52.6849 43.5033 53.0855 43.4928C53.4861 43.4823 53.8316 43.5678 54.1221 43.7493C54.4115 43.9287 54.6364 44.187 54.7969 44.5244C54.9219 44.7873 54.9792 45.0434 54.9688 45.2928C54.9574 45.54 54.8899 45.7708 54.7663 45.9854C54.6439 46.1968 54.4779 46.3845 54.2685 46.5485L54.2998 46.6142C54.5613 46.5033 54.8356 46.4615 55.1226 46.4889C55.4118 46.5152 55.6838 46.6156 55.9386 46.7899C56.1923 46.962 56.3979 47.2135 56.5552 47.5443C56.725 47.9014 56.7878 48.2623 56.7437 48.6271C56.7008 48.9887 56.5458 49.3323 56.279 49.658C56.0121 49.9837 55.6267 50.2663 55.1228 50.5059L52.2474 51.8732ZM53.1172 50.0333L54.2772 49.4817C54.6737 49.2931 54.927 49.08 55.0369 48.8424C55.1459 48.6026 55.1399 48.3556 55.0191 48.1015C54.9305 47.9153 54.8075 47.7723 54.6499 47.6726C54.4924 47.5729 54.3111 47.5221 54.1061 47.5202C53.9032 47.5173 53.6878 47.57 53.46 47.6784L52.2671 48.2456L53.1172 50.0333ZM51.8093 47.2827L52.8641 46.7811C53.0591 46.6884 53.216 46.5722 53.3349 46.4324C53.4549 46.2893 53.5286 46.1335 53.5558 45.9647C53.5852 45.7949 53.5577 45.6213 53.4733 45.4439C53.3577 45.2007 53.1779 45.0458 52.934 44.9791C52.6923 44.9114 52.4137 44.9525 52.0982 45.1025L51.017 45.6166L51.8093 47.2827Z" fill="white"/>
<path d="M63.9252 43.4483C64.1563 44.2274 64.2052 44.9341 64.072 45.5682C63.9411 46.2017 63.6649 46.7378 63.2434 47.1766C62.8236 47.6123 62.2986 47.9237 61.6683 48.1107C61.0334 48.299 60.4208 48.3238 59.8306 48.1851C59.2403 48.0464 58.7177 47.7473 58.2625 47.2877C57.8073 46.8281 57.4645 46.2099 57.2341 45.4331C57.003 44.6539 56.9529 43.9477 57.0839 43.3142C57.2148 42.6807 57.4901 42.1461 57.91 41.7103C58.3291 41.2723 58.8561 40.959 59.4911 40.7707C60.1213 40.5838 60.7316 40.5596 61.3218 40.6983C61.9136 40.834 62.4372 41.1316 62.8923 41.5912C63.3498 42.0502 63.6941 42.6692 63.9252 43.4483ZM62.3937 43.9026C62.244 43.3979 62.0422 42.9947 61.7882 42.693C61.5366 42.3906 61.2482 42.1903 60.9229 42.0919C60.5977 41.9935 60.2525 41.9985 59.8874 42.1068C59.5222 42.2151 59.2302 42.3992 59.0112 42.659C58.7922 42.9188 58.6585 43.2444 58.6101 43.6357C58.5641 44.0264 58.6159 44.4741 58.7656 44.9788C58.9153 45.4835 59.116 45.887 59.3676 46.1894C59.6216 46.4911 59.9112 46.6911 60.2364 46.7895C60.5616 46.8878 60.9068 46.8828 61.272 46.7745C61.6371 46.6662 61.9292 46.4822 62.1481 46.2224C62.3671 45.9626 62.4997 45.6373 62.5457 45.2467C62.5941 44.8553 62.5434 44.4073 62.3937 43.9026Z" fill="white"/>
<path d="M70.565 46.2321L67.7857 43.3861L67.2516 43.4547L67.656 46.6055L66.0932 46.8061L65.1444 39.4145L66.7072 39.2139L67.0862 42.1662L67.4002 42.1259L69.4755 38.8586L71.4208 38.6088L68.9772 42.4077L72.5032 45.9833L70.565 46.2321Z" fill="white"/>
<path d="M74.565 45.9843L72.8773 45.936L75.6623 38.5604L77.6919 38.6186L80.0464 46.1413L78.3587 46.093L76.6574 40.2926L76.5992 40.2909L74.565 45.9843ZM74.5434 43.0533L78.5299 43.1675L78.4947 44.3969L74.5082 44.2827L74.5434 43.0533Z" fill="white"/>
<path d="M81.719 40.1664L81.9543 38.8889L87.9735 39.9977L87.7382 41.2752L85.4944 40.8619L84.3796 46.9133L82.848 46.6312L83.9627 40.5798L81.719 40.1664Z" fill="white"/>
<path d="M92.1026 45.2035L91.7297 46.3755L88.491 45.3452L88.8638 44.1732L92.1026 45.2035Z" fill="white"/>
<path d="M92.2439 49.1334L95.2862 42.3304L96.7245 42.9736L94.2126 48.5908L97.1291 49.895L96.5988 51.0809L92.2439 49.1334Z" fill="white"/>
<path d="M97.5479 51.5655L101.442 45.2114L105.723 47.8352L105.045 48.9428L102.106 47.1423L101.179 48.6563L103.896 50.3219L103.218 51.4295L100.5 49.7639L99.5701 51.2811L102.521 53.0892L101.842 54.1969L97.5479 51.5655Z" fill="white"/>
<path d="M108.678 50.0137L108.215 52.9282L108.26 52.9654L111.043 51.9734L112.413 53.1089L108.284 54.5265L107.697 58.8792L106.302 57.7228L106.748 54.7892L106.703 54.7521L103.903 55.7352L102.514 54.5835L106.687 53.203L107.303 48.8736L108.678 50.0137Z" fill="white"/>
<path d="M106.933 104.394L108.267 103.359L110.803 110.823L109.199 112.068L102.601 107.756L103.935 106.721L108.934 110.118L108.98 110.083L106.933 104.394ZM108.812 106.643L105.662 109.089L104.907 108.117L108.058 105.672L108.812 106.643Z" fill="white"/>
<path d="M101.425 106.444L102.876 109.13L102.431 109.371C102.338 109.561 102.283 109.79 102.264 110.057C102.246 110.325 102.288 110.66 102.388 111.06C102.49 111.463 102.676 111.961 102.947 112.554L104.259 115.427L99.9207 117.77L96.9755 112.318L96.2584 112.705L94.8108 110.025L96.1427 109.306L96.9936 110.881L100.947 108.745L100.093 107.164L101.425 106.444ZM100.83 110.235L98.3074 111.598L100.635 115.907L102.393 114.958L101.615 113.273C101.409 112.825 101.247 112.416 101.13 112.046C101.011 111.678 100.928 111.343 100.882 111.043C100.834 110.746 100.817 110.477 100.83 110.235Z" fill="white"/>
<path d="M94.8639 111.905L97.328 118.938L94.512 119.925C93.9945 120.106 93.5361 120.181 93.1367 120.148C92.7372 120.116 92.4028 119.994 92.1333 119.783C91.8647 119.574 91.6686 119.293 91.5451 118.94C91.4488 118.665 91.4192 118.405 91.4561 118.158C91.4938 117.913 91.5855 117.691 91.7313 117.491C91.8756 117.294 92.0606 117.125 92.2863 116.984L92.2623 116.915C91.9904 116.998 91.7132 117.01 91.4308 116.952C91.1461 116.895 90.8863 116.766 90.6516 116.566C90.4176 116.368 90.2401 116.096 90.119 115.75C89.9882 115.377 89.9642 115.011 90.047 114.653C90.1283 114.298 90.319 113.973 90.6191 113.678C90.9192 113.382 91.3325 113.142 91.8591 112.958L94.8639 111.905ZM93.8029 113.642L92.5906 114.067C92.1762 114.212 91.9017 114.397 91.767 114.621C91.6331 114.848 91.6127 115.094 91.7058 115.36C91.7739 115.554 91.881 115.71 92.027 115.826C92.173 115.942 92.3479 116.011 92.5515 116.035C92.7529 116.06 92.9727 116.03 93.2108 115.947L94.4574 115.51L93.8029 113.642ZM94.8099 116.516L93.7075 116.902C93.5038 116.974 93.3353 117.073 93.2022 117.199C93.0676 117.328 92.9778 117.476 92.9327 117.64C92.8854 117.806 92.8942 117.982 92.9592 118.167C93.0482 118.421 93.2104 118.594 93.4458 118.687C93.679 118.78 93.9604 118.769 94.29 118.653L95.4199 118.257L94.8099 116.516Z" fill="white"/>
<path d="M82.3539 119.037C82.2073 118.237 82.234 117.53 82.4341 116.913C82.6319 116.297 82.9637 115.794 83.4296 115.403C83.8935 115.014 84.4487 114.76 85.0953 114.642C85.7467 114.522 86.3585 114.563 86.9305 114.764C87.5026 114.965 87.9904 115.318 88.3939 115.823C88.7974 116.329 89.0723 116.98 89.2186 117.777C89.3652 118.576 89.3397 119.284 89.142 119.9C88.9442 120.516 88.6134 121.018 88.1495 121.407C87.686 121.797 87.1285 122.053 86.4772 122.172C85.8305 122.291 85.2212 122.25 84.6491 122.049C84.0751 121.851 83.5864 121.499 83.1828 120.993C82.7769 120.488 82.5006 119.836 82.3539 119.037ZM83.9251 118.749C84.0202 119.266 84.1778 119.689 84.3982 120.016C84.6161 120.343 84.8815 120.573 85.1944 120.706C85.5073 120.838 85.851 120.87 86.2256 120.801C86.6002 120.733 86.9103 120.581 87.1557 120.346C87.4012 120.111 87.5688 119.801 87.6587 119.417C87.7461 119.034 87.7424 118.583 87.6474 118.065C87.5524 117.548 87.3959 117.125 87.1779 116.798C86.9576 116.471 86.691 116.241 86.3781 116.108C86.0652 115.976 85.7215 115.944 85.3469 116.013C84.9723 116.081 84.6622 116.233 84.4168 116.468C84.1713 116.703 84.0049 117.012 83.9174 117.396C83.8276 117.78 83.8301 118.231 83.9251 118.749Z" fill="white"/>
<path d="M76.0487 115.56L78.5086 118.687L79.047 118.676L78.981 115.5L80.5562 115.467L80.7111 122.917L79.1358 122.95L79.074 119.974L78.7575 119.981L76.3455 123.008L74.3846 123.049L77.2195 119.532L74.0951 115.601L76.0487 115.56Z" fill="white"/>
<path d="M72.0458 115.38L73.7187 115.608L70.1628 122.645L68.151 122.37L66.6124 114.639L68.2853 114.867L69.3582 120.816L69.4158 120.824L72.0458 115.38ZM71.7546 118.297L67.803 117.758L67.9692 116.539L71.9208 117.078L71.7546 118.297Z" fill="white"/>
<path d="M64.3118 120.402L63.9415 121.647L58.0749 119.902L58.4452 118.657L60.6321 119.307L62.386 113.409L63.8788 113.853L62.1249 119.751L64.3118 120.402Z" fill="white"/>
<path d="M54.5245 114.286L55.0202 113.16L58.1305 114.53L57.6348 115.656L54.5245 114.286Z" fill="white"/>
<path d="M54.8032 110.363L51.0525 116.803L49.691 116.01L52.7879 110.693L50.0271 109.085L50.6809 107.962L54.8032 110.363Z" fill="white"/>
<path d="M49.7892 107.379L45.2397 113.282L41.2625 110.216L42.0556 109.187L44.7848 111.291L45.8689 109.884L43.3442 107.938L44.1373 106.909L46.662 108.855L47.7482 107.446L45.0074 105.334L45.8005 104.305L49.7892 107.379Z" fill="white"/>
<path d="M38.5567 107.735L39.3286 104.886L39.288 104.844L36.4147 105.534L35.1736 104.259L39.43 103.29L40.4785 99.0244L41.7424 100.323L40.9856 103.192L41.0262 103.234L43.9149 102.555L45.1737 103.849L40.8767 104.776L39.8028 109.015L38.5567 107.735Z" fill="white"/>
</svg>
