<svg width="36" height="32" viewBox="0 0 36 32" fill="none" xmlns="http://www.w3.org/2000/svg">
<path d="M18.1387 31.706C16.1834 31.706 14.2373 31.706 12.282 31.706C10.1237 31.706 8.50968 30.7164 7.43979 28.8758C5.53982 25.6109 3.67674 22.3091 1.77677 19.0442C0.605424 17.0279 0.550085 15.0394 1.73987 13.0139C3.70441 9.63799 5.6136 6.22513 7.60581 2.86776C8.62036 1.12895 10.2252 0.2688 12.2358 0.259551C16.1649 0.241053 20.1032 0.250302 24.0323 0.259551C26.0614 0.2688 27.6754 1.12895 28.7084 2.87701C30.756 6.34536 32.7574 9.84147 34.7311 13.3561C35.6903 15.0579 35.7088 16.8522 34.7588 18.5632C33.3477 21.1067 31.872 23.6132 30.4239 26.1289C29.889 27.063 29.354 27.9972 28.8099 28.9221C27.7215 30.7534 26.1167 31.6968 23.9861 31.6968C22.0401 31.7152 20.0847 31.706 18.1387 31.706ZM18.1387 29.8747C20.1032 29.8747 22.0677 29.8747 24.0415 29.8747C25.4342 29.8747 26.5041 29.2643 27.205 28.0712C29.1327 24.76 31.0142 21.4212 32.9511 18.1193C33.8365 16.6117 33.7627 15.2151 32.8865 13.7353C30.9773 10.5074 29.1327 7.23326 27.2604 3.98688C26.5686 2.78452 25.5449 2.10009 24.1522 2.09084C20.1401 2.07235 16.1372 2.07235 12.1252 2.09084C10.7786 2.10009 9.7548 2.76602 9.08151 3.93139C7.17232 7.22401 5.30002 10.5351 3.37237 13.8093C2.5054 15.2891 2.49617 16.6764 3.36315 18.1563C5.29079 21.4304 7.1631 24.7323 9.06307 28.0249C9.76403 29.2458 10.8247 29.8747 12.2358 29.884C14.2096 29.8747 16.1741 29.8747 18.1387 29.8747Z" fill="url(#paint0_linear_820_2201)"/>
<path d="M18.3528 23.9467C19.6122 23.9467 20.9173 24.2219 21.622 24.5176C20.8864 24.2116 19.7049 23.9467 18.3528 23.9467C16.9168 23.9467 15.6396 24.238 14.9187 24.5764C15.5955 24.2292 17.0036 23.9467 18.3528 23.9467Z" fill="white"/>
<path d="M21.6217 24.516C22.1058 24.7161 22.3912 24.9632 22.3912 25.2296C22.3912 25.9019 20.5756 26.4478 18.3378 26.4478C16.0999 26.4478 14.2843 25.9019 14.2843 25.2296C14.2843 24.9883 14.5167 24.7631 14.9199 24.5748C14.4167 24.7308 14.1592 25.0574 14.299 25.7121C14.4402 26.3698 16.1146 26.9304 18.3525 26.9304C20.5904 26.9304 22.275 26.3713 22.406 25.7121C22.5546 24.975 22.2265 24.6499 21.6217 24.516Z" fill="white"/>
<path d="M21.8632 5.20042C21.8441 5.13274 21.7337 5.10773 21.7028 5.10332C21.6116 5.0886 21.516 5.0886 21.2982 5.17835C20.9495 5.32107 20.6965 5.56825 20.6862 5.5815C20.5905 5.69037 20.5302 5.78454 20.4375 5.78159C20.3934 5.78012 20.3286 5.73893 20.2006 5.65653C20.1079 5.59768 20.0888 5.57855 20.0388 5.56972C19.9785 5.55943 19.9579 5.58002 19.8519 5.59474C19.7342 5.61092 19.6768 5.61975 19.6283 5.59474C19.5356 5.54765 19.5606 5.46085 19.4664 5.36227C19.3988 5.27693 19.3031 5.21808 19.1942 5.20042C19.1663 5.19601 19.1354 5.19307 19.103 5.19454C19 5.20042 18.9309 5.21219 18.8308 5.30783C18.8294 5.3093 18.8279 5.31077 18.8249 5.31372C18.7646 5.22985 18.6822 5.16364 18.5866 5.12097C18.6822 5.04888 18.744 4.93411 18.744 4.80464C18.744 4.64279 18.6469 4.50302 18.5086 4.44122C18.5984 4.38678 18.6587 4.28821 18.6587 4.17638C18.6587 4.00571 18.5204 3.86594 18.3482 3.86594C18.1761 3.86594 18.0378 4.00424 18.0378 4.17638C18.0378 4.28821 18.0966 4.38531 18.1864 4.43975C18.0451 4.50155 17.9466 4.64132 17.9466 4.80464C17.9466 4.93411 18.0084 5.04888 18.104 5.12097C18.004 5.16511 17.9186 5.23721 17.8568 5.32549C17.8509 5.3196 17.845 5.31372 17.8392 5.30783C17.7376 5.21219 17.6685 5.20042 17.567 5.19454C17.5052 5.19012 17.4507 5.20189 17.4037 5.21955C17.333 5.24456 17.2712 5.28723 17.2212 5.34461C17.1064 5.45055 17.1403 5.54471 17.0432 5.59327C16.9946 5.61828 16.9358 5.60945 16.8195 5.59327C16.7136 5.57855 16.693 5.55795 16.6327 5.56825C16.5827 5.57708 16.5635 5.59621 16.4708 5.65506C16.3428 5.73746 16.2781 5.77865 16.234 5.78012C16.1398 5.78307 16.0809 5.6889 15.9853 5.58002C15.975 5.56825 15.7219 5.3196 15.3732 5.17688C15.1569 5.0886 15.0598 5.08713 14.9686 5.10185C14.9377 5.10626 14.8274 5.13127 14.8082 5.19895C14.7935 5.25192 14.9289 5.33431 14.9495 5.34756C15.1584 5.47115 15.2585 5.54765 15.4674 5.80514C15.3438 5.88164 15.2629 6.01701 15.2629 6.17297C15.2629 6.23476 15.2761 6.29509 15.2997 6.34805C15.3247 6.44957 15.4071 6.52167 15.5056 6.56139C15.563 6.58935 15.6263 6.60406 15.694 6.60406C15.7764 6.60406 15.8529 6.58052 15.9191 6.5408C15.9426 6.53785 15.9706 6.5408 16.0044 6.55257C16.1207 6.59082 16.1368 6.69823 16.2913 6.92628C16.6106 7.39563 16.5959 7.87234 16.5959 7.87234C17.0785 7.87234 17.8318 7.86498 18.3159 7.87234C18.3232 7.87234 18.3306 7.87087 18.3379 7.87087C18.3453 7.87234 18.3512 7.87381 18.36 7.87234C18.8426 7.86498 19.5959 7.87234 20.08 7.87234C20.08 7.87234 20.0638 7.39416 20.3845 6.92628C20.539 6.69823 20.5552 6.59082 20.6715 6.55257C20.7156 6.53785 20.748 6.53785 20.7774 6.54374C20.8421 6.58199 20.9172 6.60406 20.9966 6.60406C21.235 6.60406 21.4292 6.41132 21.4292 6.17149C21.4292 6.01259 21.3424 5.87282 21.2144 5.79778C21.4189 5.54471 21.5189 5.4682 21.7264 5.34608C21.7426 5.33578 21.8779 5.25339 21.8632 5.20042ZM18.7484 6.14501C18.8088 6.14501 18.8588 6.19356 18.8588 6.25536C18.8588 6.31568 18.8102 6.36571 18.7484 6.36571C18.6866 6.36571 18.6381 6.31716 18.6381 6.25536C18.6381 6.19356 18.6866 6.14501 18.7484 6.14501ZM18.029 6.25536C18.029 6.31568 17.9804 6.36571 17.9186 6.36571C17.8568 6.36571 17.8083 6.31716 17.8083 6.25536C17.8083 6.19504 17.8568 6.14501 17.9186 6.14501C17.9804 6.14501 18.029 6.19356 18.029 6.25536ZM19.8505 6.7409C19.7489 6.97336 19.5356 7.08518 19.4517 7.12785C18.9603 7.37503 18.3276 7.32795 18.3276 7.32795C18.3276 7.32795 17.7067 7.37651 17.2153 7.12785C17.1315 7.08518 16.9181 6.97484 16.8166 6.7409C16.7945 6.69087 16.7416 6.56581 16.7666 6.40396C16.7754 6.34805 16.8019 6.23476 16.8916 6.1303C16.9446 6.0685 16.9814 5.96698 17.1094 5.96257C17.208 5.95962 17.2271 6.04496 17.2771 6.12441C17.3419 6.22593 17.4669 6.16708 17.3198 6.44957C17.2815 6.52314 17.2153 6.61436 17.2139 6.6894C17.2109 6.82329 17.311 6.88361 17.461 6.92775C17.7215 7.00426 17.8907 6.82476 17.9216 6.79828C17.9392 6.78356 17.9539 6.76885 17.9701 6.75414C18.029 6.90274 18.1746 7.0072 18.3453 7.0072C18.5101 7.0072 18.6513 6.90863 18.7131 6.76738C18.7234 6.77768 18.7352 6.78798 18.747 6.79681C18.7779 6.82329 18.9485 7.00132 19.2075 6.92628C19.3576 6.88214 19.4576 6.82182 19.4547 6.68793C19.4532 6.61142 19.387 6.52167 19.3487 6.4481C19.2001 6.16561 19.3267 6.22446 19.3914 6.12294C19.4414 6.04349 19.462 5.95815 19.5591 5.9611C19.6871 5.96551 19.7239 6.06703 19.7769 6.12883C19.8666 6.23329 19.8931 6.34658 19.902 6.40249C19.9255 6.56434 19.8725 6.69087 19.8505 6.7409Z" fill="white"/>
<path d="M28.5166 22.3384L25.2605 12.3393L25.2958 12.2304L25.2164 12.2054L25.1973 12.1465L25.1163 12.173L25.1119 12.1716L25.1105 12.1745L25.0133 12.2054L25.056 12.3393L21.7985 22.3443C21.7735 22.3972 21.7603 22.4517 21.7603 22.5076C21.7603 23.1094 23.2816 23.5978 25.159 23.5978C27.0364 23.5978 28.5578 23.1094 28.5578 22.5076C28.5563 22.4487 28.543 22.3928 28.5166 22.3384ZM22.1045 22.0279L25.1575 12.6542L28.2105 22.0279C27.6573 21.666 26.4979 21.4173 25.159 21.4173C23.8172 21.4159 22.6578 21.666 22.1045 22.0279Z" fill="white"/>
<path d="M14.832 22.3384L11.576 12.3393L11.6113 12.2304L11.5318 12.2054L11.5127 12.1465L11.4318 12.173L11.4274 12.1716L11.4259 12.1745L11.3288 12.2054L11.3714 12.3393L8.11394 22.3443C8.08893 22.3972 8.07568 22.4517 8.07568 22.5076C8.07568 23.1094 9.59703 23.5978 11.4744 23.5978C13.3518 23.5978 14.8732 23.1094 14.8732 22.5076C14.8732 22.4487 14.8599 22.3928 14.832 22.3384ZM8.42144 22.0279L11.4744 12.6542L14.5274 22.0265C13.9742 21.6645 12.8148 21.4159 11.4759 21.4159C10.1341 21.4159 8.97466 21.666 8.42144 22.0279Z" fill="white"/>
<path d="M26.6171 11.3914C26.6171 11.081 26.3655 10.8309 26.0565 10.8309C25.8594 10.8309 25.6858 10.9324 25.5857 11.0854C25.5519 11.1281 25.5269 11.1766 25.518 11.2296C25.5033 11.2811 25.4945 11.3341 25.4945 11.39C25.4945 11.4135 25.496 11.4356 25.4989 11.4577C25.4371 11.6224 25.1384 11.6504 25.0884 11.6548C24.9133 11.671 24.775 11.6298 24.7015 11.6048C24.3219 11.4768 24.3631 11.3988 23.7922 10.9912C23.5406 10.8117 23.3993 10.772 23.3375 10.6764C23.2316 10.5116 23.2522 10.2173 23.1374 9.96426C22.9771 9.60673 21.956 10.1776 21.0114 9.4081C20.3213 8.84606 20.0771 8.02948 20.0771 8.02948C20.0771 8.02948 16.8755 8.02948 16.5783 8.02948C16.5783 8.02948 16.3444 8.84606 15.6543 9.4081C14.7097 10.1776 13.6886 9.6082 13.5283 9.96426C13.4135 10.2173 13.4341 10.5116 13.3282 10.6764C13.2664 10.772 13.1251 10.8117 12.8735 10.9912C12.3026 11.3988 12.3438 11.4753 11.9642 11.6048C11.8907 11.6298 11.7524 11.671 11.5773 11.6548C11.5273 11.6504 11.2286 11.6224 11.1668 11.4577C11.1697 11.4356 11.1712 11.412 11.1712 11.39C11.1712 11.3341 11.1624 11.2796 11.1477 11.2296C11.1388 11.1766 11.1153 11.1281 11.08 11.0854C10.9799 10.9324 10.8063 10.8309 10.6092 10.8309C10.2987 10.8309 10.0486 11.0825 10.0486 11.3914C10.0486 11.4032 10.0486 11.415 10.0501 11.4268C10.0324 11.699 10.2457 11.9388 10.4797 12.0697C11.5596 12.67 13.1192 11.7916 13.2722 12.0859C13.1781 12.5347 13.234 14.5415 13.8534 16.7721C14.2374 18.1551 16.3561 20.6931 17.6509 21.6377C17.5891 21.8981 17.5332 22.1953 17.4626 22.5132C17.3758 22.906 17.3022 23.29 17.3228 23.6108C17.3198 23.6578 17.3184 23.7049 17.3198 23.7505C17.3257 23.7491 17.3316 23.7491 17.339 23.7476C17.3522 23.83 17.3743 23.908 17.4052 23.9786C17.3831 23.9801 17.361 23.9815 17.339 23.983C17.3272 23.9094 17.3198 23.8315 17.3198 23.7491C16.827 23.83 16.4209 23.9653 16.1663 24.136C15.0393 24.3523 14.2933 24.7319 14.2933 25.163C14.2933 25.8354 16.1089 26.3813 18.3468 26.3813C20.5847 26.3813 22.4003 25.8354 22.4003 25.163C22.4003 24.729 21.6455 24.3479 20.5097 24.1331C20.2522 23.9624 19.8417 23.827 19.3444 23.7476C19.3444 23.83 19.3385 23.908 19.3267 23.9815C19.3061 23.9801 19.2855 23.9786 19.2649 23.9771C19.2944 23.9065 19.315 23.8285 19.3267 23.7446C19.3326 23.7461 19.3385 23.7461 19.3429 23.7476C19.3429 23.7035 19.3414 23.6578 19.34 23.6122C19.3591 23.2915 19.2914 22.9075 19.2223 22.5132C19.1664 22.188 19.1134 21.8834 19.0501 21.6201C20.3419 20.6608 22.4239 18.1463 22.8049 16.7721C23.4244 14.5415 23.4803 12.5347 23.3861 12.0859C23.5391 11.7916 25.0987 12.6715 26.1787 12.0697C26.4126 11.9388 26.6259 11.7004 26.6083 11.4268C26.6171 11.415 26.6171 11.4032 26.6171 11.3914ZM20.8098 24.8908C20.7289 25.369 19.7063 25.7692 18.3468 25.7692C16.9873 25.7692 15.9677 25.369 15.8838 24.8908C15.8529 24.7157 15.8588 24.5759 15.8971 24.4612C15.8883 24.4906 15.8838 24.52 15.8838 24.5509C15.8838 25.0365 16.9873 25.4293 18.3468 25.4293C19.7063 25.4293 20.8098 25.0365 20.8098 24.5509C20.8098 24.5303 20.8083 24.5112 20.8039 24.4906C20.8334 24.5995 20.8378 24.7304 20.8098 24.8908ZM19.3326 23.9904C19.2664 24.3994 19.0119 24.6731 18.3468 24.6731C17.6833 24.6731 17.417 24.3994 17.3463 23.9904C17.3699 23.9904 17.3919 23.9889 17.4155 23.9889C17.542 24.2655 17.8186 24.4406 18.3468 24.4406C18.878 24.4406 19.1472 24.267 19.2679 23.9889C19.2899 23.9889 19.3105 23.9889 19.3326 23.9904Z" fill="white"/>
<path d="M14.7661 16.0148V13.0136H15.3098V15.5591H16.6316V16.0148H14.7661ZM17.1035 16.0148V13.0136H19.0554V13.4694H17.6472V14.2841H18.9543V14.7399H17.6472V15.5591H19.0672V16.0148H17.1035ZM20.0644 13.0136L20.7253 14.1127H20.7487L21.4126 13.0136H22.0325L21.1078 14.5142L22.0471 16.0148H21.417L20.7487 14.9231H20.7253L20.0571 16.0148H19.4299L20.378 14.5142L19.4416 13.0136H20.0644Z" fill="url(#paint1_linear_820_2201)"/>
<defs>
<linearGradient id="paint0_linear_820_2201" x1="2.50685" y1="0.248872" x2="29.9536" y2="33.1689" gradientUnits="userSpaceOnUse">
<stop stop-color="#ECD821"/>
<stop offset="0.515625" stop-color="#FA9703"/>
<stop offset="1" stop-color="#DA6330"/>
</linearGradient>
<linearGradient id="paint1_linear_820_2201" x1="14.7813" y1="11.0148" x2="19.6311" y2="18.069" gradientUnits="userSpaceOnUse">
<stop stop-color="#ECD821"/>
<stop offset="0.515625" stop-color="#FA9703"/>
<stop offset="1" stop-color="#DA6330"/>
</linearGradient>
</defs>
</svg>
