<svg width="35" height="32" viewBox="0 0 35 32" fill="none" xmlns="http://www.w3.org/2000/svg">
<path d="M9.32496 1.36803L25.9344 1.36803L34.2391 15.7522L25.9344 30.1364L9.32496 30.1364L1.02026 15.7522L9.32496 1.36803Z" fill="url(#paint0_linear_820_4939)"/>
<path d="M17.452 31.606C15.5028 31.606 13.5629 31.606 11.6138 31.606C9.46234 31.606 7.85338 30.6195 6.78687 28.7848C4.89289 25.5302 3.03569 22.2387 1.14171 18.9841C-0.0259348 16.9742 -0.0810993 14.992 1.10494 12.9729C3.06327 9.60764 4.96644 6.20554 6.95236 2.85876C7.96371 1.12544 9.56348 0.268004 11.5678 0.258785C15.4845 0.240345 19.4103 0.249565 23.327 0.258785C25.3497 0.268004 26.9586 1.12544 27.9884 2.86798C30.0295 6.3254 32.0246 9.81047 33.9921 13.314C34.9483 15.0104 34.9667 16.7991 34.0197 18.5047C32.613 21.0402 31.1419 23.5387 29.6985 26.0465C29.1652 26.9777 28.632 27.9089 28.0895 28.8309C27.0046 30.6564 25.4049 31.5968 23.281 31.5968C21.3411 31.6152 19.3919 31.606 17.452 31.606ZM17.452 29.7805C19.4103 29.7805 21.3687 29.7805 23.3362 29.7805C24.7245 29.7805 25.791 29.172 26.4898 27.9826C28.4113 24.682 30.2869 21.3536 32.2177 18.0622C33.1003 16.5593 33.0267 15.1672 32.1533 13.692C30.2501 10.4743 28.4113 7.21049 26.5449 3.97435C25.8554 2.77578 24.8348 2.09352 23.4465 2.0843C19.4471 2.06586 15.4569 2.06586 11.4575 2.0843C10.1151 2.09352 9.09458 2.75734 8.42341 3.91903C6.52024 7.20127 4.65384 10.502 2.73229 13.7658C1.86804 15.2409 1.85885 16.6239 2.72309 18.099C4.64465 21.3629 6.51105 24.6543 8.40502 27.9365C9.10377 29.1536 10.1611 29.7805 11.5678 29.7897C13.5353 29.7805 15.4936 29.7805 17.452 29.7805Z" fill="url(#paint1_linear_820_4939)"/>
<path d="M17.6655 23.8711C18.921 23.8711 20.222 24.1454 20.9245 24.4402C20.1912 24.1351 19.0134 23.8711 17.6655 23.8711C16.2341 23.8711 14.961 24.1615 14.2423 24.4989C14.917 24.1527 16.3206 23.8711 17.6655 23.8711Z" fill="white"/>
<path d="M20.9243 24.4386C21.4069 24.6381 21.6914 24.8845 21.6914 25.1499C21.6914 25.8202 19.8815 26.3643 17.6507 26.3643C15.4199 26.3643 13.61 25.8202 13.61 25.1499C13.61 24.9094 13.8417 24.685 14.2436 24.4973C13.742 24.6527 13.4853 24.9783 13.6247 25.631C13.7655 26.2866 15.4346 26.8454 17.6654 26.8454C19.8962 26.8454 21.5755 26.2881 21.7061 25.631C21.8542 24.8962 21.5271 24.5721 20.9243 24.4386Z" fill="white"/>
<path d="M21.1651 5.18404C21.146 5.11657 21.036 5.09164 21.0052 5.08724C20.9143 5.07257 20.8189 5.07257 20.6019 5.16204C20.2543 5.3043 20.002 5.55071 19.9917 5.56391C19.8964 5.67244 19.8362 5.76631 19.7438 5.76337C19.6998 5.76191 19.6353 5.72084 19.5077 5.63871C19.4153 5.58004 19.3962 5.56097 19.3464 5.55217C19.2862 5.54191 19.2657 5.56244 19.1601 5.57711C19.0428 5.59324 18.9856 5.60204 18.9372 5.57711C18.8448 5.53017 18.8697 5.44364 18.7758 5.34537C18.7084 5.2603 18.613 5.20164 18.5045 5.18404C18.4766 5.17964 18.4458 5.1767 18.4136 5.17817C18.3109 5.18404 18.242 5.19577 18.1422 5.2911C18.1408 5.29257 18.1393 5.29404 18.1364 5.29697C18.0762 5.21337 17.9941 5.14737 17.8988 5.10484C17.9941 5.03297 18.0557 4.91857 18.0557 4.7895C18.0557 4.62817 17.9589 4.48883 17.821 4.42723C17.9105 4.37296 17.9706 4.2747 17.9706 4.16323C17.9706 3.99309 17.8328 3.85376 17.6612 3.85376C17.4896 3.85376 17.3517 3.99163 17.3517 4.16323C17.3517 4.2747 17.4104 4.3715 17.4998 4.42576C17.359 4.48736 17.2608 4.6267 17.2608 4.7895C17.2608 4.91857 17.3224 5.03297 17.4177 5.10484C17.318 5.14884 17.2329 5.2207 17.1713 5.3087C17.1654 5.30284 17.1596 5.29697 17.1537 5.2911C17.0525 5.19577 16.9836 5.18404 16.8824 5.17817C16.8208 5.17377 16.7665 5.1855 16.7196 5.2031C16.6492 5.22804 16.5876 5.27057 16.5377 5.32777C16.4233 5.43337 16.457 5.52724 16.3602 5.57564C16.3118 5.60057 16.2532 5.59177 16.1373 5.57564C16.0317 5.56097 16.0112 5.54044 15.951 5.55071C15.9012 5.55951 15.8821 5.57857 15.7897 5.63724C15.6621 5.71937 15.5975 5.76044 15.5535 5.76191C15.4597 5.76484 15.401 5.67097 15.3057 5.56244C15.2954 5.55071 15.0431 5.30284 14.6955 5.16057C14.4799 5.07257 14.3831 5.0711 14.2922 5.08577C14.2614 5.09017 14.1514 5.1151 14.1323 5.18257C14.1177 5.23537 14.2526 5.3175 14.2731 5.3307C14.4814 5.45391 14.5811 5.53017 14.7894 5.78684C14.6662 5.86311 14.5855 5.99804 14.5855 6.15351C14.5855 6.21511 14.5987 6.27524 14.6222 6.32805C14.6471 6.42925 14.7293 6.50111 14.8275 6.54071C14.8847 6.56858 14.9478 6.58325 15.0153 6.58325C15.0974 6.58325 15.1737 6.55978 15.2397 6.52018C15.2631 6.51725 15.291 6.52018 15.3247 6.53191C15.4406 6.57005 15.4567 6.67711 15.6107 6.90445C15.929 7.37232 15.9144 7.84752 15.9144 7.84752C16.3954 7.84752 17.1464 7.84019 17.6289 7.84752C17.6362 7.84752 17.6436 7.84606 17.6509 7.84606C17.6582 7.84752 17.6641 7.84899 17.6729 7.84752C18.154 7.84019 18.9049 7.84752 19.3874 7.84752C19.3874 7.84752 19.3713 7.37085 19.691 6.90445C19.845 6.67711 19.8612 6.57005 19.977 6.53191C20.021 6.51725 20.0533 6.51725 20.0826 6.52311C20.1472 6.56125 20.222 6.58325 20.3012 6.58325C20.5388 6.58325 20.7324 6.39111 20.7324 6.15204C20.7324 5.99364 20.6459 5.85431 20.5183 5.77951C20.7221 5.52724 20.8219 5.45097 21.0287 5.32924C21.0448 5.31897 21.1797 5.23684 21.1651 5.18404ZM18.0601 6.12564C18.1202 6.12564 18.1701 6.17404 18.1701 6.23564C18.1701 6.29578 18.1217 6.34565 18.0601 6.34565C17.9985 6.34565 17.9501 6.29725 17.9501 6.23564C17.9501 6.17404 17.9985 6.12564 18.0601 6.12564ZM17.3429 6.23564C17.3429 6.29578 17.2945 6.34565 17.2329 6.34565C17.1713 6.34565 17.1229 6.29725 17.1229 6.23564C17.1229 6.17551 17.1713 6.12564 17.2329 6.12564C17.2945 6.12564 17.3429 6.17404 17.3429 6.23564ZM19.1586 6.71965C19.0574 6.95138 18.8448 7.06285 18.7612 7.10538C18.2713 7.35179 17.6406 7.30485 17.6406 7.30485C17.6406 7.30485 17.0217 7.35325 16.5318 7.10538C16.4482 7.06285 16.2356 6.95285 16.1344 6.71965C16.1124 6.66978 16.0596 6.54511 16.0845 6.38378C16.0933 6.32805 16.1197 6.21511 16.2092 6.11098C16.262 6.04938 16.2986 5.94818 16.4262 5.94378C16.5245 5.94084 16.5436 6.02591 16.5934 6.10511C16.658 6.20631 16.7826 6.14764 16.636 6.42925C16.5978 6.50258 16.5318 6.59351 16.5304 6.66831C16.5274 6.80178 16.6272 6.86192 16.7768 6.90592C17.0364 6.98218 17.205 6.80325 17.2358 6.77685C17.2534 6.76218 17.2681 6.74751 17.2842 6.73285C17.3429 6.88098 17.4881 6.98512 17.6582 6.98512C17.8225 6.98512 17.9633 6.88685 18.0249 6.74605C18.0352 6.75632 18.0469 6.76658 18.0586 6.77538C18.0894 6.80178 18.2596 6.97925 18.5177 6.90445C18.6673 6.86045 18.767 6.80032 18.7641 6.66685C18.7626 6.59058 18.6966 6.50111 18.6585 6.42778C18.5104 6.14618 18.6365 6.20484 18.701 6.10364C18.7509 6.02444 18.7714 5.93938 18.8682 5.94231C18.9958 5.94671 19.0325 6.04791 19.0853 6.10951C19.1748 6.21364 19.2012 6.32658 19.21 6.38231C19.2334 6.54365 19.1806 6.66978 19.1586 6.71965Z" fill="white"/>
<path d="M27.7974 22.268L24.5516 12.3004L24.5868 12.1919L24.5076 12.1669L24.4885 12.1083L24.4079 12.1347L24.4035 12.1332L24.402 12.1361L24.3052 12.1669L24.3477 12.3004L21.1005 22.2738C21.0756 22.3266 21.0624 22.3809 21.0624 22.4366C21.0624 23.0365 22.5789 23.5234 24.4504 23.5234C26.3219 23.5234 27.8384 23.0365 27.8384 22.4366C27.837 22.378 27.8238 22.3222 27.7974 22.268ZM21.4056 21.9585L24.4489 12.6143L27.4923 21.9585C26.9408 21.5977 25.7851 21.3498 24.4504 21.3498C23.1128 21.3483 21.9571 21.5977 21.4056 21.9585Z" fill="white"/>
<path d="M14.1559 22.268L10.9101 12.3004L10.9453 12.1919L10.8661 12.1669L10.8471 12.1083L10.7664 12.1347L10.762 12.1332L10.7605 12.1361L10.6637 12.1669L10.7063 12.3004L7.45903 22.2738C7.4341 22.3266 7.4209 22.3809 7.4209 22.4366C7.4209 23.0365 8.93744 23.5234 10.8089 23.5234C12.6804 23.5234 14.197 23.0365 14.197 22.4366C14.197 22.378 14.1838 22.3222 14.1559 22.268ZM7.76557 21.9585L10.8089 12.6143L13.8523 21.957C13.3008 21.5962 12.1451 21.3483 10.8104 21.3483C9.47278 21.3483 8.31704 21.5977 7.76557 21.9585Z" fill="white"/>
<path d="M25.904 11.3555C25.904 11.0461 25.6532 10.7967 25.3451 10.7967C25.1486 10.7967 24.9755 10.8979 24.8758 11.0505C24.8421 11.093 24.8171 11.1414 24.8083 11.1942C24.7937 11.2455 24.7849 11.2983 24.7849 11.3541C24.7849 11.3775 24.7863 11.3995 24.7893 11.4215C24.7277 11.5858 24.4299 11.6137 24.3801 11.6181C24.2055 11.6342 24.0677 11.5931 23.9943 11.5682C23.6159 11.4406 23.657 11.3629 23.0879 10.9566C22.8371 10.7777 22.6963 10.7381 22.6347 10.6427C22.5291 10.4785 22.5497 10.1851 22.4353 9.93286C22.2754 9.57646 21.2575 10.1455 20.3159 9.37846C19.628 8.81819 19.3846 8.00418 19.3846 8.00418C19.3846 8.00418 16.1931 8.00418 15.8968 8.00418C15.8968 8.00418 15.6636 8.81819 14.9757 9.37846C14.0341 10.1455 13.0163 9.57792 12.8564 9.93286C12.742 10.1851 12.7625 10.4785 12.6569 10.6427C12.5953 10.7381 12.4545 10.7777 12.2037 10.9566C11.6346 11.3629 11.6757 11.4391 11.2973 11.5682C11.224 11.5931 11.0861 11.6342 10.9116 11.6181C10.8617 11.6137 10.564 11.5858 10.5024 11.4215C10.5053 11.3995 10.5068 11.3761 10.5068 11.3541C10.5068 11.2983 10.498 11.2441 10.4833 11.1942C10.4745 11.1414 10.451 11.093 10.4158 11.0505C10.3161 10.8979 10.143 10.7967 9.9465 10.7967C9.63703 10.7967 9.3877 11.0475 9.3877 11.3555C9.3877 11.3673 9.3877 11.379 9.38916 11.3907C9.37156 11.6621 9.58423 11.9011 9.81743 12.0317C10.894 12.6301 12.4487 11.7545 12.6012 12.0478C12.5073 12.4951 12.5631 14.4957 13.1805 16.7192C13.5633 18.0979 15.6753 20.6279 16.966 21.5695C16.9044 21.8291 16.8487 22.1254 16.7783 22.4422C16.6918 22.8338 16.6184 23.2166 16.639 23.5363C16.636 23.5832 16.6346 23.6302 16.636 23.6756C16.6419 23.6742 16.6477 23.6742 16.6551 23.6727C16.6683 23.7548 16.6903 23.8326 16.7211 23.903C16.6991 23.9044 16.6771 23.9059 16.6551 23.9074C16.6434 23.834 16.636 23.7563 16.636 23.6742C16.1447 23.7548 15.7399 23.8898 15.4861 24.0599C14.3627 24.2755 13.6191 24.6539 13.6191 25.0836C13.6191 25.7539 15.4289 26.2981 17.6598 26.2981C19.8906 26.2981 21.7005 25.7539 21.7005 25.0836C21.7005 24.651 20.948 24.2711 19.8158 24.057C19.5591 23.8868 19.1499 23.7519 18.6542 23.6727C18.6542 23.7548 18.6483 23.8326 18.6366 23.9059C18.616 23.9044 18.5955 23.903 18.575 23.9015C18.6043 23.8311 18.6248 23.7534 18.6366 23.6698C18.6424 23.6712 18.6483 23.6712 18.6527 23.6727C18.6527 23.6287 18.6512 23.5832 18.6498 23.5378C18.6688 23.218 18.6014 22.8352 18.5324 22.4422C18.4767 22.118 18.4239 21.8144 18.3608 21.5519C19.6486 20.5956 21.7239 18.0891 22.1038 16.7192C22.7213 14.4957 22.777 12.4951 22.6831 12.0478C22.8357 11.7545 24.3903 12.6315 25.4669 12.0317C25.7001 11.9011 25.9128 11.6635 25.8952 11.3907C25.904 11.379 25.904 11.3673 25.904 11.3555ZM20.115 24.8123C20.0343 25.289 19.015 25.6879 17.6598 25.6879C16.3045 25.6879 15.2881 25.289 15.2045 24.8123C15.1737 24.6378 15.1796 24.4984 15.2177 24.384C15.2089 24.4134 15.2045 24.4427 15.2045 24.4735C15.2045 24.9575 16.3045 25.3491 17.6598 25.3491C19.015 25.3491 20.115 24.9575 20.115 24.4735C20.115 24.453 20.1135 24.4339 20.1091 24.4134C20.1384 24.5219 20.1428 24.6524 20.115 24.8123ZM18.6424 23.9147C18.5764 24.3224 18.3227 24.5952 17.6598 24.5952C16.9983 24.5952 16.7328 24.3224 16.6624 23.9147C16.6859 23.9147 16.7079 23.9132 16.7314 23.9132C16.8575 24.189 17.1332 24.3635 17.6598 24.3635C18.1892 24.3635 18.4576 24.1904 18.5779 23.9132C18.5999 23.9132 18.6204 23.9132 18.6424 23.9147Z" fill="white"/>
<path d="M14.0902 14.98V11.9883H14.6322V14.5257H15.9498V14.98H14.0902ZM16.4202 14.98V11.9883H18.366V12.4426H16.9622V13.2548H18.2652V13.7091H16.9622V14.5257H18.3777V14.98H16.4202ZM19.3718 11.9883L20.0306 13.0839H20.0539L20.7157 11.9883H21.3336L20.4118 13.4842L21.3482 14.98H20.7201L20.0539 13.8917H20.0306L19.3644 14.98H18.7392L19.6844 13.4842L18.7509 11.9883H19.3718Z" fill="url(#paint2_linear_820_4939)"/>
<defs>
<linearGradient id="paint0_linear_820_4939" x1="-3.69991" y1="8.88794" x2="37.7284" y2="21.942" gradientUnits="userSpaceOnUse">
<stop stop-color="#ECD821"/>
<stop offset="0.515625" stop-color="#FA9703"/>
<stop offset="1" stop-color="#DA6330"/>
</linearGradient>
<linearGradient id="paint1_linear_820_4939" x1="1.86949" y1="0.248139" x2="29.2297" y2="33.0643" gradientUnits="userSpaceOnUse">
<stop stop-color="#ECD821"/>
<stop offset="0.515625" stop-color="#FA9703"/>
<stop offset="1" stop-color="#DA6330"/>
</linearGradient>
<linearGradient id="paint2_linear_820_4939" x1="14.1053" y1="10.98" x2="18.9398" y2="18.012" gradientUnits="userSpaceOnUse">
<stop stop-color="#ECD821"/>
<stop offset="0.515625" stop-color="#FA9703"/>
<stop offset="1" stop-color="#DA6330"/>
</linearGradient>
</defs>
</svg>
