<svg width="86" height="73" viewBox="0 0 86 73" fill="none" xmlns="http://www.w3.org/2000/svg">
<path d="M27.4637 45.9441H37.6332L35.0908 52.8448L37.6332 72.2758H27.4637L30.5509 52.8448L27.4637 45.9441Z" fill="url(#paint0_linear_599_2568)"/>
<path d="M0.405722 52.3007L18.2023 44.4919C18.2023 44.4919 18.7471 58.1118 34.7278 72.2764C23.4687 72.2764 6.39846 72.2764 2.2217 72.2764C-1.0471 66.2837 0.405722 52.3007 0.405722 52.3007Z" fill="url(#paint1_linear_599_2568)"/>
<path d="M48.2097 71.486C46.4925 71.936 45.1533 71.0867 44.1746 69.7779C43.0469 68.295 43.2107 66.6732 44.2341 65.185C45.972 62.7389 47.8393 60.3506 49.6679 57.9688C53.1253 53.4384 56.544 48.9145 60.0014 44.3841C61.405 42.5525 61.5797 42.6425 63.844 44.0127C65.4872 45.0098 65.0182 46.0058 64.272 47.2479C60.0523 54.3383 55.9166 61.4542 51.7422 68.5768C50.9382 69.9482 50.0502 71.2941 48.2097 71.486Z" fill="url(#paint2_linear_599_2568)"/>
<path fill-rule="evenodd" clip-rule="evenodd" d="M44.1746 69.7781C43.0469 68.2952 43.2107 66.6735 44.2341 65.1852C45.6899 63.1362 47.2364 61.1278 48.775 59.1298L48.7751 59.1296C49.0732 58.7425 49.3711 58.3557 49.6679 57.969C51.3966 55.7038 53.1157 53.4402 54.8348 51.1765L54.8359 51.175C55.3751 50.465 55.9143 49.755 56.4538 49.045L61.8161 51.392C59.5331 55.259 57.2678 59.1324 55.0006 63.0093L55.0004 63.0097C53.9155 64.8648 52.8302 66.7207 51.7422 68.577C50.9382 69.9485 50.0502 71.2943 48.2097 71.4862C46.4925 71.9363 45.1533 71.087 44.1746 69.7781ZM64.2923 53.6276C62.1292 57.2948 59.9809 60.9682 57.8273 64.6509C56.7412 66.5081 55.6536 68.3679 54.5621 70.2301L54.5372 70.2727C54.2325 70.7927 53.795 71.5395 53.156 72.276H62.3809C65.0571 67.3819 64.5556 57.1237 64.2923 53.6276ZM41.993 72.276H30.0063C45.9223 58.2039 46.4649 44.6731 46.4649 44.6731L53.3731 47.6966C52.9926 48.1975 52.6123 48.6982 52.2322 49.1988L52.2315 49.1997C50.513 51.4626 48.7973 53.7218 47.0723 55.9822C46.783 56.3589 46.4908 56.7384 46.1966 57.1204L46.195 57.1225C44.6566 59.1201 43.0651 61.1869 41.5694 63.2919L41.5549 63.3124L41.5406 63.3332C40.769 64.4554 40.1865 65.824 40.131 67.3663C40.0741 68.9513 40.5855 70.4532 41.5631 71.7441C41.6962 71.9217 41.8396 72.0998 41.993 72.276Z" fill="url(#paint3_linear_599_2568)"/>
<path d="M70.7292 46.0747C70.2506 45.8368 69.8173 45.6312 69.4549 45.3738C66.1357 43.1858 62.8486 40.9526 59.4905 38.7712C58.643 38.2372 58.4671 37.6692 59.0077 36.8604C61.2666 33.4892 63.4867 30.1247 65.7521 26.7923C66.357 25.8929 67.1319 25.7617 68.1153 26.3923C71.3571 28.5933 74.6311 30.7491 77.9051 32.9048C78.7592 33.4776 79.0709 34.1422 78.5047 35.035C76.2137 38.4514 73.9227 41.8679 71.5863 45.2521C71.361 45.5692 71.0064 45.8285 70.7292 46.0747Z" fill="url(#paint4_linear_599_2568)"/>
<path d="M56.0036 37.0105C54.5314 37.2597 53.4431 36.0093 53.9693 34.645C55.7537 30.1188 58.2432 25.9913 61.9039 22.6618C62.6257 21.9817 63.5424 21.7469 64.3774 22.4424C65.1219 23.0736 65.2274 23.9325 64.7255 24.7347C62.1514 28.5976 59.5772 32.4604 56.9965 36.2846C56.7456 36.6857 56.3975 36.9837 56.0036 37.0105Z" fill="url(#paint5_linear_599_2568)"/>
<path d="M74.9423 49.546C74.0191 49.7421 73.4499 49.44 73.0416 48.9113C72.4712 48.1311 72.65 47.3039 73.1584 46.5403C75.6425 42.8521 78.1332 39.2026 80.6174 35.5144C81.158 34.7056 81.8934 34.342 82.7988 34.7467C83.8401 35.2479 84.0427 36.2099 83.703 37.2637C82.7989 39.9273 81.3321 42.3275 79.6454 44.6055C78.609 46.0163 77.3913 47.2984 76.219 48.6127C75.7678 49.0078 75.2648 49.3321 74.9423 49.546Z" fill="url(#paint6_linear_599_2568)"/>
<path fill-rule="evenodd" clip-rule="evenodd" d="M49.2379 17.1394C49.2505 16.8758 49.2569 16.6105 49.2569 16.3438C49.2569 7.31738 41.9395 0 32.9131 0C23.8866 0 16.5692 7.31738 16.5692 16.3438C16.5692 16.6106 16.5756 16.8759 16.5883 17.1395C16.455 17.101 16.3208 17.0891 16.1873 17.1065C15.0933 17.249 14.4585 19.2995 14.7693 21.6864C15.0557 23.8852 16.0447 25.6025 17.054 25.7481L21.1085 32.5056L24.0607 36.5824C24.283 36.8895 24.768 36.6933 24.7144 36.318L22.5502 21.1684L24.7633 16.6749C25.4724 15.2354 27.2141 14.6431 28.6537 15.3522L43.1138 22.4743L41.1102 36.4995C41.0566 36.8748 41.5416 37.0709 41.7639 36.7639L44.7161 32.6871L48.895 25.7223C49.8602 25.4609 50.7812 23.7951 51.0559 21.6865C51.367 19.2996 50.7323 17.2491 49.6383 17.1066C49.505 17.0892 49.3709 17.101 49.2379 17.1394Z" fill="url(#paint7_linear_599_2568)"/>
<defs>
<linearGradient id="paint0_linear_599_2568" x1="27.9442" y1="45.9441" x2="44.6565" y2="52.9852" gradientUnits="userSpaceOnUse">
<stop stop-color="#ECD821"/>
<stop offset="0.515625" stop-color="#FA9703"/>
<stop offset="1" stop-color="#DA6330"/>
</linearGradient>
<linearGradient id="paint1_linear_599_2568" x1="1.72089" y1="44.4919" x2="25.2414" y2="76.4852" gradientUnits="userSpaceOnUse">
<stop stop-color="#ECD821"/>
<stop offset="0.515625" stop-color="#FA9703"/>
<stop offset="1" stop-color="#DA6330"/>
</linearGradient>
<linearGradient id="paint2_linear_599_2568" x1="40.9725" y1="46.4845" x2="67.599" y2="66.4817" gradientUnits="userSpaceOnUse">
<stop stop-color="#ECD821"/>
<stop offset="0.515625" stop-color="#FA9703"/>
<stop offset="1" stop-color="#DA6330"/>
</linearGradient>
<linearGradient id="paint3_linear_599_2568" x1="31.6366" y1="44.6731" x2="54.9859" y2="76.513" gradientUnits="userSpaceOnUse">
<stop stop-color="#ECD821"/>
<stop offset="0.515625" stop-color="#FA9703"/>
<stop offset="1" stop-color="#DA6330"/>
</linearGradient>
<linearGradient id="paint4_linear_599_2568" x1="57.9429" y1="27.5162" x2="79.0286" y2="43.9137" gradientUnits="userSpaceOnUse">
<stop stop-color="#ECD821"/>
<stop offset="0.515625" stop-color="#FA9703"/>
<stop offset="1" stop-color="#DA6330"/>
</linearGradient>
<linearGradient id="paint5_linear_599_2568" x1="52.4861" y1="23.8314" x2="66.4553" y2="34.2348" gradientUnits="userSpaceOnUse">
<stop stop-color="#ECD821"/>
<stop offset="0.515625" stop-color="#FA9703"/>
<stop offset="1" stop-color="#DA6330"/>
</linearGradient>
<linearGradient id="paint6_linear_599_2568" x1="71.3398" y1="36.3779" x2="85.3058" y2="46.7423" gradientUnits="userSpaceOnUse">
<stop stop-color="#ECD821"/>
<stop offset="0.515625" stop-color="#FA9703"/>
<stop offset="1" stop-color="#DA6330"/>
</linearGradient>
<linearGradient id="paint7_linear_599_2568" x1="16.4124" y1="8.69488e-07" x2="49.0632" y2="35.1649" gradientUnits="userSpaceOnUse">
<stop stop-color="#ECD821"/>
<stop offset="0.515625" stop-color="#FA9703"/>
<stop offset="1" stop-color="#DA6330"/>
</linearGradient>
</defs>
</svg>
