<svg width="80" height="71" viewBox="0 0 80 71" fill="none" xmlns="http://www.w3.org/2000/svg">
<path d="M62.0066 27.9984C62.0066 29.0632 62.0066 30.128 62.0066 31.1929C62.0885 39.916 61.8428 48.6392 62.2114 57.3623C62.2933 59.2053 62.0476 61.0482 62.0476 62.8911C62.0476 65.1436 62.8257 65.8398 64.9963 65.7988C65.5287 65.7988 66.102 65.7579 66.6344 65.7579C70.1974 65.7169 70.6069 66.2493 69.9926 69.8942C69.8697 70.6723 69.5012 70.959 68.805 70.959C68.1087 70.959 67.4535 71 66.7573 71C45.7479 71 24.7386 71 3.7293 71C0.698714 71 0.452991 70.6314 0.452991 67.7646C0.452991 66.1674 0.985393 65.5531 2.58259 65.7169C3.7293 65.8398 4.91696 65.7579 6.06367 65.7579C8.56185 65.7988 9.38093 65.1026 9.42188 62.5225C9.46284 57.8128 9.29902 53.1031 9.29902 48.3935C9.25807 35.0425 9.25807 21.6506 9.21711 8.29966C9.21711 7.23486 9.66761 6.86627 10.6915 6.86627C21.749 6.90723 32.8065 6.90723 43.8231 6.86627C45.0517 6.86627 45.4613 7.27581 45.0108 8.46347C44.4784 9.8559 43.946 11.2893 43.8641 12.8046C43.7822 14.1151 42.7583 13.7465 42.0211 13.7465C34.3218 13.7875 26.6225 13.8284 18.8822 13.7056C16.9164 13.6646 16.3431 14.197 16.3431 16.1628C16.384 30.9471 16.3431 45.7724 16.3431 60.5568C16.3431 62.8911 17.1212 63.5873 19.4556 63.6283C26.2539 63.6692 26.2949 63.6692 26.6225 56.789C26.7044 55.1508 27.4825 54.4137 28.9978 54.4137C33.7075 54.3727 38.4172 54.4137 43.1269 54.3727C44.3965 54.3727 44.7241 54.9461 44.7241 56.1337C44.7241 58.1814 44.9698 60.2291 45.0517 62.2359C45.0927 62.973 45.3384 63.3826 46.1165 63.3416C48.0823 63.3416 50.0481 63.7102 52.0139 63.3826C54.3073 63.0549 54.9216 62.5225 54.9626 60.1063C55.0035 54.7003 55.0035 49.3354 55.0854 43.9295C55.1264 41.1446 55.2083 38.3598 55.2492 35.534C55.2492 34.8787 55.3721 34.3463 55.8226 33.8548C57.7065 31.8072 59.5903 29.7595 61.4742 27.6708C61.679 27.9165 61.8428 27.9575 62.0066 27.9984Z" fill="url(#paint0_linear_599_2604)"/>
<path d="M64.3407 26.0325C63.8903 25.7049 63.4807 25.4182 63.1531 25.0906C60.1225 22.2648 57.1329 19.398 54.0613 16.5722C53.2832 15.876 53.2013 15.2616 53.8975 14.5245C56.8052 11.4529 59.672 8.3814 62.5797 5.35082C63.3578 4.53174 64.1769 4.53174 65.0779 5.35082C68.0266 8.17663 71.0162 10.9615 74.0059 13.7464C74.784 14.4835 74.9887 15.2207 74.2516 16.0398C71.3029 19.1523 68.3542 22.2647 65.3646 25.3363C65.0779 25.623 64.6684 25.8277 64.3407 26.0325Z" fill="url(#paint1_linear_599_2604)"/>
<path d="M36.7788 48.2293C34.9358 48.3931 33.7072 47.2874 32.9291 45.7721C32.0281 44.052 32.4786 42.4138 33.7891 41.0624C36.0006 38.8509 38.335 36.7213 40.6284 34.5917C44.9695 30.5372 49.2697 26.4828 53.6108 22.4284C55.3718 20.7902 55.5356 20.9131 57.6243 22.7151C59.1396 24.0256 58.4843 24.9675 57.5014 26.1142C51.9317 32.6668 46.4439 39.2604 40.9151 45.854C39.8503 47.1235 38.7036 48.3522 36.7788 48.2293Z" fill="url(#paint2_linear_599_2604)"/>
<path d="M50.7853 14.1557C49.2291 14.1557 48.3281 12.6813 49.1062 11.3708C51.7272 7.02969 55.0036 3.22099 59.3447 0.436126C60.2047 -0.137227 61.1876 -0.219135 61.9248 0.640896C62.58 1.41902 62.5391 2.32 61.8838 3.05717C58.5665 6.5792 55.2493 10.1012 51.932 13.5823C51.6044 13.9509 51.1948 14.1966 50.7853 14.1557Z" fill="url(#paint3_linear_599_2604)"/>
<path d="M68.0673 30.3327C67.0844 30.3737 66.552 29.9641 66.2244 29.3498C65.7739 28.4488 66.1015 27.6298 66.7568 26.9335C69.9512 23.5753 73.1456 20.2581 76.34 16.8998C77.0362 16.1627 77.8553 15.9169 78.7153 16.4903C79.6982 17.1865 79.7392 18.2104 79.2068 19.2342C77.8143 21.8143 75.8895 24.0258 73.7599 26.0735C72.4494 27.3431 70.975 28.4488 69.5417 29.5955C69.0093 29.9232 68.4359 30.1689 68.0673 30.3327Z" fill="url(#paint4_linear_599_2604)"/>
<path d="M35.018 24.8038C34.9361 24.8038 34.8951 24.8038 34.8132 24.8038C31.3731 24.8038 30.554 23.739 31.3731 20.2989C31.5369 19.5617 31.9874 19.4798 32.5198 19.4388C34.1989 19.3569 35.919 19.275 37.5981 19.2341C38.4991 19.1931 38.9495 19.5617 38.9495 20.5446C38.8676 25.6638 39.6048 24.599 35.018 24.8038Z" fill="url(#paint5_linear_599_2604)"/>
<path d="M23.2234 47.738C22.2405 47.4923 20.4795 48.3932 19.9881 47.2875C19.4147 46.0589 19.7833 44.3798 19.7833 42.8645C19.7833 42.1273 20.3976 42.0863 20.9709 42.0863C22.4043 42.0863 23.8377 42.1683 25.2301 42.0454C26.7864 41.9225 27.1959 42.4959 27.155 44.0112C27.114 47.738 27.1959 47.738 23.2234 47.738Z" fill="url(#paint6_linear_599_2604)"/>
<path d="M23.3459 24.7627C19.6191 24.8037 19.0048 24.0256 19.742 20.2988C19.8648 19.7254 20.0696 19.4797 20.643 19.4387C21.5849 19.3978 22.5268 19.2749 23.4688 19.234C27.1546 19.0701 27.0727 19.1111 27.1546 22.6331C27.1956 24.1894 26.786 24.9265 25.1479 24.7218C24.5745 24.7218 23.9602 24.7627 23.3459 24.7627Z" fill="url(#paint7_linear_599_2604)"/>
<path d="M23.5102 31.3562C27.3598 31.3562 27.3189 31.3562 27.1551 35.3697C27.1141 36.3935 26.8274 36.844 25.7626 36.8031C24.6159 36.7212 23.4283 36.6802 22.3225 36.8031C20.3158 37.0078 19.5786 36.3526 19.7015 34.223C19.9062 31.3562 19.7424 31.3562 23.5102 31.3562Z" fill="url(#paint8_linear_599_2604)"/>
<path d="M43.7409 47.656C45.5019 45.7722 46.8944 44.2569 48.2868 42.7825C48.983 42.0454 49.884 42.0044 50.744 42.2911C51.6041 42.6187 51.1945 43.4787 51.1945 44.0931C51.2764 47.6151 51.2355 47.6151 47.6725 47.6151C46.5667 47.656 45.42 47.656 43.7409 47.656Z" fill="url(#paint9_linear_599_2604)"/>
<path d="M51.3995 19.2751C49.229 21.1999 47.468 22.7562 45.7889 24.2715C45.2155 24.7629 44.5193 24.8858 43.905 24.64C43.1268 24.3534 43.4545 23.6162 43.4545 23.0428C43.5773 19.2751 43.5773 19.2751 47.427 19.2751C48.5328 19.2751 49.6795 19.2751 51.3995 19.2751Z" fill="url(#paint10_linear_599_2604)"/>
<path d="M38.3351 31.8477C36.7789 33.2401 35.2226 34.6735 33.6664 36.0659C33.1749 36.5164 32.6835 36.844 32.0282 36.5983C31.332 36.3526 31.6187 35.6564 31.5777 35.1649C31.4139 31.3562 31.4139 31.3562 35.2226 31.3562C36.2055 31.3562 37.1884 31.3562 38.2122 31.3562C38.2532 31.52 38.2941 31.6838 38.3351 31.8477Z" fill="url(#paint11_linear_599_2604)"/>
<defs>
<linearGradient id="paint0_linear_599_2604" x1="3.74985" y1="6.86627" x2="59.8061" y2="73.3982" gradientUnits="userSpaceOnUse">
<stop stop-color="#ECD821"/>
<stop offset="0.515625" stop-color="#FA9703"/>
<stop offset="1" stop-color="#DA6330"/>
</linearGradient>
<linearGradient id="paint1_linear_599_2604" x1="54.4285" y1="4.73651" x2="73.2456" y2="25.2553" gradientUnits="userSpaceOnUse">
<stop stop-color="#ECD821"/>
<stop offset="0.515625" stop-color="#FA9703"/>
<stop offset="1" stop-color="#DA6330"/>
</linearGradient>
<linearGradient id="paint2_linear_599_2604" x1="33.69" y1="21.2771" x2="57.5751" y2="46.459" gradientUnits="userSpaceOnUse">
<stop stop-color="#ECD821"/>
<stop offset="0.515625" stop-color="#FA9703"/>
<stop offset="1" stop-color="#DA6330"/>
</linearGradient>
<linearGradient id="paint3_linear_599_2604" x1="49.4628" y1="3.3352e-07" x2="62.009" y2="13.121" gradientUnits="userSpaceOnUse">
<stop stop-color="#ECD821"/>
<stop offset="0.515625" stop-color="#FA9703"/>
<stop offset="1" stop-color="#DA6330"/>
</linearGradient>
<linearGradient id="paint4_linear_599_2604" x1="66.6555" y1="16.1735" x2="79.2052" y2="29.254" gradientUnits="userSpaceOnUse">
<stop stop-color="#ECD821"/>
<stop offset="0.515625" stop-color="#FA9703"/>
<stop offset="1" stop-color="#DA6330"/>
</linearGradient>
<linearGradient id="paint5_linear_599_2604" x1="31.4516" y1="19.231" x2="35.966" y2="26.1858" gradientUnits="userSpaceOnUse">
<stop stop-color="#ECD821"/>
<stop offset="0.515625" stop-color="#FA9703"/>
<stop offset="1" stop-color="#DA6330"/>
</linearGradient>
<linearGradient id="paint6_linear_599_2604" x1="20.0206" y1="42.0293" x2="24.9029" y2="48.8803" gradientUnits="userSpaceOnUse">
<stop stop-color="#ECD821"/>
<stop offset="0.515625" stop-color="#FA9703"/>
<stop offset="1" stop-color="#DA6330"/>
</linearGradient>
<linearGradient id="paint7_linear_599_2604" x1="19.8323" y1="19.1843" x2="24.3969" y2="26.0454" gradientUnits="userSpaceOnUse">
<stop stop-color="#ECD821"/>
<stop offset="0.515625" stop-color="#FA9703"/>
<stop offset="1" stop-color="#DA6330"/>
</linearGradient>
<linearGradient id="paint8_linear_599_2604" x1="20.0438" y1="31.3562" x2="24.5362" y2="38.0794" gradientUnits="userSpaceOnUse">
<stop stop-color="#ECD821"/>
<stop offset="0.515625" stop-color="#FA9703"/>
<stop offset="1" stop-color="#DA6330"/>
</linearGradient>
<linearGradient id="paint9_linear_599_2604" x1="44.0977" y1="42.126" x2="48.6371" y2="48.8879" gradientUnits="userSpaceOnUse">
<stop stop-color="#ECD821"/>
<stop offset="0.515625" stop-color="#FA9703"/>
<stop offset="1" stop-color="#DA6330"/>
</linearGradient>
<linearGradient id="paint10_linear_599_2604" x1="43.7646" y1="19.2751" x2="48.1481" y2="26.2578" gradientUnits="userSpaceOnUse">
<stop stop-color="#ECD821"/>
<stop offset="0.515625" stop-color="#FA9703"/>
<stop offset="1" stop-color="#DA6330"/>
</linearGradient>
<linearGradient id="paint11_linear_599_2604" x1="31.848" y1="31.3562" x2="36.3221" y2="37.5957" gradientUnits="userSpaceOnUse">
<stop stop-color="#ECD821"/>
<stop offset="0.515625" stop-color="#FA9703"/>
<stop offset="1" stop-color="#DA6330"/>
</linearGradient>
</defs>
</svg>
