<svg width="117" height="106" viewBox="0 0 117 106" fill="none" xmlns="http://www.w3.org/2000/svg">
<path d="M6.69281 53.586C6.69281 24.8778 30.2603 -1.86036 61.8986 1.43202C90.6068 1.43202 106.337 22.7317 113.733 53.2663C113.733 69.1306 89.0809 110.328 61.8986 105.1C32.6058 108.718 6.69281 82.2941 6.69281 53.586Z" fill="url(#paint0_linear_569_3227)"/>
<path d="M26.6232 38.6682L6.69281 59.5424L10.8064 73.724L24.1223 95.9443L45.1394 105.556L62.8953 104.35L91.1334 75.7663L84.123 74.5743V72.497L80.5946 67.7322L85.8189 58.8753L91.0245 49.1743L91.3533 39.6389L84.1343 40.8771L77.0941 36.8503L71.3441 42.7441L69.2977 32.9184L65.5803 32.2245L62.6394 35.4663L55.2613 29.6191L51.8521 24.6084L36.4046 40.2583L26.6232 38.6682Z" fill="#071737"/>
<path d="M58.6467 105.919C52.0684 105.919 45.5211 105.919 38.9427 105.919C31.6817 105.919 26.2514 102.589 22.652 96.3971C16.2598 85.4128 9.99174 74.3042 3.59957 63.32C-0.341238 56.5365 -0.527418 49.8464 3.47545 43.0319C10.0848 31.6742 16.508 20.1922 23.2105 8.89679C26.6238 3.04684 32.023 0.152985 38.7876 0.121868C52.0063 0.0596345 65.2561 0.0907513 78.4749 0.121868C85.3015 0.152985 90.7317 3.04684 94.2071 8.92791C101.096 20.5967 107.829 32.3588 114.47 44.1832C117.697 49.9086 117.759 55.9453 114.563 61.7019C109.815 70.259 104.85 78.6916 99.9787 87.1554C98.1789 90.2982 96.3792 93.441 94.5484 96.5526C90.8869 102.714 85.4877 105.888 78.3197 105.888C71.7724 105.95 65.1941 105.919 58.6467 105.919ZM58.6467 99.7577C65.2561 99.7577 71.8655 99.7577 78.5059 99.7577C83.1914 99.7577 86.7909 97.704 89.1492 93.6899C95.6345 82.5501 101.965 71.317 108.481 60.2083C111.46 55.1363 111.212 50.4376 108.264 45.459C101.84 34.5992 95.6345 23.5839 89.3354 12.6619C87.0081 8.61674 83.5638 6.3141 78.8783 6.28298C65.3802 6.22075 51.9132 6.22075 38.4152 6.28298C33.8848 6.3141 30.4405 8.5545 28.1753 12.4752C21.7521 23.5528 15.453 34.6926 8.96775 45.7079C6.05094 50.6866 6.01991 55.3541 8.93672 60.3328C15.422 71.3481 21.7211 82.4568 28.1132 93.5343C30.4715 97.6417 34.04 99.7577 38.7876 99.7888C45.428 99.7577 52.0374 99.7577 58.6467 99.7577Z" fill="url(#paint1_linear_569_3227)"/>
<path d="M91.5367 49.0295C88.5421 49.0295 84.1501 49.2291 78.3606 50.2273C79.1592 47.0331 80.1574 44.4378 81.5548 41.8426C84.5494 40.8444 88.1429 40.4451 91.5367 40.2455V34.2563C86.945 34.2563 82.3534 35.0549 78.3606 36.4524L77.1628 36.8516L76.5639 37.8498C74.7672 41.4433 73.3697 44.8371 72.1719 49.4288L71.1737 48.8299C71.1737 48.0313 70.9741 47.0331 70.5748 46.4342C69.5766 46.2346 68.3788 46.0349 67.181 46.0349C65.9832 46.0349 64.7853 46.2346 63.7871 46.4342C63.3879 47.2328 63.1882 48.2309 63.1882 49.2291C63.1882 50.2273 63.3879 51.2255 63.7871 52.024C64.7853 52.2237 65.9832 52.4233 67.181 52.4233H67.3806L68.9777 53.4215C67.181 55.2182 66.5821 57.6139 66.5821 61.2073C66.5821 66.1983 68.1792 73.3852 68.1792 73.3852C68.1792 74.1838 69.7763 74.9823 69.7763 74.9823V78.1765C69.7763 78.975 72.7708 79.7736 75.5657 79.7736C78.3606 79.7736 82.3534 78.975 82.3534 78.1765C82.3534 78.1765 82.3534 75.9805 82.3534 75.5812C87.9432 75.7808 87.1447 75.7808 91.1374 75.7808V49.0295H91.5367ZM73.9686 63.603C71.573 62.8044 69.9759 60.8081 70.3752 58.8117C70.7744 56.8153 73.3697 56.0168 75.965 56.8153C78.3606 57.6139 83.9505 60.8081 83.3516 62.6048C82.7527 64.4015 76.3643 64.2019 73.9686 63.603Z" fill="white"/>
<path d="M64.9849 56.0169C62.19 54.0205 56.4005 51.0259 50.4114 50.427C49.6129 49.8281 40.4295 42.0423 39.4314 41.2437C36.6364 39.0477 37.0357 38.6484 32.8433 38.6484C32.8433 38.6484 30.2481 38.6484 26.455 38.6484V74.7827C30.0484 75.182 31.2462 75.3817 36.4368 75.3817C39.2317 75.3817 37.8343 75.3816 40.6292 75.182C42.4259 78.1766 45.8197 79.9733 49.4132 79.9733C53.8052 79.9733 57.3987 77.378 58.9958 73.5849C60.9922 73.1856 63.5874 72.1875 63.5874 72.1875C63.5874 72.1875 65.7835 61.2074 64.9849 56.0169ZM41.0285 52.4234H31.4459V44.6375C31.4459 44.6375 34.6401 44.6375 35.239 44.6375C35.8379 44.6375 36.4368 44.8372 36.8361 45.2365C37.6346 46.035 41.0285 49.0296 42.6256 50.427L41.0285 52.4234ZM49.6129 74.7827C46.8179 74.7827 44.4223 72.3871 44.4223 69.5922C44.4223 66.7973 46.8179 64.4016 49.6129 64.4016C52.4078 64.4016 54.8034 66.7973 54.8034 69.5922C54.8034 72.3871 52.4078 74.7827 49.6129 74.7827Z" fill="white"/>
<path d="M63.3879 33.8567L51.8089 24.4738L52.8071 39.6462L45.2209 40.4447L51.6093 47.2324L53.0067 46.6335L51.8089 43.04L56.7998 42.4411L56.9995 34.4556L63.1882 38.2487L68.9777 34.6553L69.5766 42.6407L71.3733 42.8404L76.3643 22.0781L63.3879 33.8567Z" fill="white"/>
<defs>
<linearGradient id="paint0_linear_569_3227" x1="113.645" y1="1.15649" x2="-58.8722" y2="11.2644" gradientUnits="userSpaceOnUse">
<stop offset="0.0552457" stop-color="#0F75FC"/>
<stop offset="1" stop-color="#0DF3A8"/>
</linearGradient>
<linearGradient id="paint1_linear_569_3227" x1="6.05581" y1="0.08594" x2="98.3965" y2="110.841" gradientUnits="userSpaceOnUse">
<stop stop-color="#ECD821"/>
<stop offset="0.515625" stop-color="#FA9703"/>
<stop offset="1" stop-color="#DA6330"/>
</linearGradient>
</defs>
</svg>
