<svg width="117" height="107" viewBox="0 0 117 107" fill="none" xmlns="http://www.w3.org/2000/svg">
<path d="M4.67814 53.7229C3.9774 29.1882 29.7938 0.445801 57.9552 0.445801C87.4626 0.445801 111.232 24.2156 111.232 53.7229C111.232 79.3989 90.231 105.74 59.9509 105.74C29.6707 105.74 5.42202 79.7682 4.67814 53.7229Z" fill="url(#paint0_linear_569_3209)"/>
<path d="M22.4161 34.8548L5.56741 51.7036L6.55266 61.4733L12.4353 71.2744L24.1288 91.9535L36.3148 105.37H59.5788L95.1464 70.2371L96.3918 63.8762L98.0675 58.0295L96.3918 54.5501L98.0675 48.7079L90.9342 50.2995L96.3918 45.3625L98.0675 39.1408L84.4756 35.9781L63.2639 37.7404L52.463 48.053L55.0601 41.564L56.8546 35.4387L24.101 34.2932L22.4161 34.8548Z" fill="#071737"/>
<path d="M72.1803 75.3261C71.5998 75.6782 70.9993 75.9969 70.382 76.2805C66.6894 77.9439 61.7723 78.9256 56.35 78.9256C50.9278 78.9256 46.0217 77.9467 42.3483 76.2832C41.7277 76.0008 41.1245 75.6821 40.5418 75.3288C39.3228 76.365 38.7518 77.4258 38.7847 78.3284C38.7188 79.7737 40.2673 81.6635 43.5179 83.1197C46.7081 84.5759 51.2847 85.5221 56.35 85.5167C61.4154 85.5112 66.0003 84.5759 69.1932 83.1197C72.4548 81.6526 73.9922 79.7683 73.9209 78.323C73.9648 77.4231 73.391 76.3623 72.1803 75.3261ZM67.7134 43.4754C70.9009 44.9262 75.483 45.8697 80.5511 45.8642C85.6192 45.8588 90.2013 44.9262 93.3915 43.4754C96.6394 42.0165 98.1796 40.1213 98.1192 38.6678C98.1796 37.2253 96.6394 35.3328 93.3915 33.8739C90.2013 32.4286 85.6329 31.4769 80.5511 31.4769H80.5236C75.4693 31.4769 70.9146 32.4232 67.7134 33.8684C64.4656 35.3273 62.9171 37.2198 62.9748 38.6624C62.9171 40.1268 64.4656 42.022 67.7134 43.4754ZM26.1886 39.8132C26.26 39.8486 26.3259 39.8868 26.4055 39.9195C29.582 41.3702 34.1641 42.3165 39.235 42.3083C44.3058 42.3001 48.8797 41.3702 52.0699 39.9304C52.144 39.8977 52.2017 39.8595 52.2786 39.8241C55.3809 38.3842 56.8744 36.5517 56.814 35.1337C56.8744 33.6857 55.326 31.796 52.0781 30.3316C48.8797 28.8727 44.3003 27.9319 39.235 27.9319C34.1696 27.9319 29.582 28.8727 26.4 30.3207C23.1412 31.785 21.5983 33.6748 21.6641 35.1228C21.5983 36.5354 23.0835 38.3706 26.1886 39.8132ZM26.1886 49.2075L26.4 49.3056C29.5875 50.7564 34.1696 51.6999 39.2405 51.6944C40.0641 51.6944 40.8877 51.6617 41.7114 51.6126L42.1589 51.5826C42.9468 51.5254 43.721 51.4517 44.4733 51.3481C46.5312 51.0876 48.5557 50.6123 50.5132 49.9301C50.5231 49.9326 50.5335 49.9326 50.5434 49.9301L50.6176 49.9028C51.1337 49.7147 51.6279 49.5211 52.0919 49.3111C52.166 49.2838 52.2236 49.2456 52.3005 49.2129C55.4029 47.7622 56.8964 45.9406 56.836 44.5117C56.8717 43.62 56.2869 42.551 55.0734 41.512C54.4933 41.8648 53.8928 42.1835 53.2752 42.4665C49.5633 44.1354 44.649 45.1116 39.235 45.1116C33.821 45.1116 28.8956 44.1272 25.2332 42.4692C24.6173 42.183 24.0162 41.8663 23.4322 41.5202C22.2132 42.551 21.6257 43.62 21.6641 44.5117C21.6037 45.9297 23.0835 47.7622 26.1859 49.202L26.1886 49.2075ZM73.7177 58.5172C73.7168 58.5091 73.7168 58.5008 73.7177 58.4927C73.64 58.3044 73.5482 58.1221 73.4432 57.9473C73.3243 57.7623 73.1941 57.5847 73.0533 57.4155C73.0533 57.4155 73.0533 57.3992 73.0313 57.3883C72.2599 56.4693 71.0025 55.5312 69.2179 54.7268C66.025 53.2842 61.4483 52.3325 56.383 52.338C55.5319 52.338 54.7 52.3707 53.8819 52.4225L53.4618 52.4525C49.5468 52.747 46.0794 53.5651 43.5179 54.7268C41.7498 55.5231 40.4979 56.4502 39.7291 57.361C39.6687 57.4319 39.6138 57.5028 39.5534 57.5764C39.493 57.6501 39.4134 57.7591 39.3503 57.8491C39.2468 58.0068 39.155 58.1717 39.0757 58.3427C39.0617 58.3858 39.0442 58.4278 39.0236 58.4681C38.9649 58.6072 38.9162 58.7503 38.8781 58.8963L38.8451 59.0272C38.8103 59.1931 38.7937 59.3622 38.7957 59.5317C38.7936 59.6957 38.8102 59.8594 38.8451 60.0198C38.8451 60.0743 38.8726 60.1288 38.8863 60.1861C38.9148 60.2944 38.9497 60.4009 38.9906 60.5052C39.0644 60.6827 39.1507 60.855 39.2487 61.0206C39.2652 61.0478 39.2761 61.0724 39.2899 61.0969C39.9433 62.1522 41.2748 63.2785 43.3174 64.2274C43.3888 64.2602 43.452 64.2929 43.5261 64.3338C43.9022 64.5029 44.3003 64.6637 44.7121 64.8192L45.1432 64.9692C45.4177 65.0673 45.7087 65.1682 46.0025 65.2609C46.1864 65.3209 46.3759 65.3728 46.5516 65.4273C46.8261 65.5064 47.1007 65.5827 47.3752 65.6482C47.5866 65.7082 47.8062 65.76 48.0231 65.8091C48.2977 65.8691 48.5722 65.9318 48.8468 65.9863C49.1213 66.0409 49.33 66.0845 49.5853 66.1281C49.8406 66.1717 50.1014 66.2181 50.3677 66.259C50.634 66.2999 50.9168 66.3463 51.1914 66.3817C51.4659 66.4172 51.6718 66.439 51.9162 66.469C52.2319 66.5044 52.5504 66.5399 52.8688 66.5672C53.0253 66.5835 53.1873 66.589 53.3465 66.5999C54.3267 66.6762 55.326 66.7226 56.3665 66.7226C61.4319 66.7226 66.0085 65.7818 69.2015 64.3338C70.2734 63.8702 71.2758 63.2618 72.1803 62.5258C72.395 62.3465 72.5985 62.1543 72.7897 61.9504C72.9138 61.819 73.0302 61.6806 73.1384 61.5359C73.1769 61.4814 73.2318 61.4323 73.2675 61.3751C73.3419 61.2707 73.4107 61.1623 73.4734 61.0506C73.5118 60.9824 73.553 60.9169 73.5887 60.8515C73.5872 60.8443 73.5872 60.8369 73.5887 60.8297C73.6298 60.7397 73.671 60.647 73.7067 60.557C73.7458 60.4681 73.7797 60.377 73.8083 60.2843C73.8323 60.209 73.8524 60.1325 73.8687 60.0552C73.9036 59.8903 73.9184 59.7219 73.9126 59.5535C73.9159 59.3822 73.8993 59.2111 73.8632 59.0435C73.8344 58.8633 73.7856 58.6868 73.7177 58.5172ZM23.4185 50.9145C22.2132 51.9453 21.6257 53.0197 21.6641 53.906C21.5955 55.3513 23.1384 57.2465 26.3918 58.7054C28.9258 59.8562 32.3467 60.6824 36.1738 60.9715C36.0475 60.502 35.9747 60.02 35.9569 59.5344C35.9658 59.2604 35.9914 58.9872 36.0338 58.7163C36.0503 58.6154 36.075 58.5227 36.0942 58.4245C36.1326 58.2554 36.1711 58.0836 36.2232 57.9173C36.2534 57.8137 36.2919 57.7073 36.3275 57.6092C36.3852 57.4537 36.4511 57.3065 36.517 57.1619C36.5829 57.0174 36.6103 56.9492 36.668 56.8456C36.7256 56.742 36.797 56.622 36.8657 56.5129C37.3331 55.7567 37.9188 55.0792 38.6008 54.5059C33.4366 54.4241 28.7529 53.4697 25.2195 51.8717C24.6026 51.5844 24.0014 51.2649 23.4185 50.9145ZM96.3676 45.0843C95.7838 45.4315 95.1817 45.7474 94.5638 46.0306C90.8795 47.6967 85.9679 48.6757 80.5621 48.6784C75.1563 48.6812 70.231 47.6967 66.5603 46.0306C65.9434 45.7491 65.343 45.4332 64.7621 45.0843C63.5404 46.1124 62.9666 47.1759 63.005 48.084C62.9748 48.733 63.2795 49.472 63.9192 50.2246C66.1471 50.6229 68.3193 51.2829 70.3902 52.1907C71.8639 52.8342 73.2238 53.7089 74.4178 54.7813C76.4527 55.1109 78.5113 55.2741 80.5731 55.2694C85.6439 55.2694 90.2233 54.3287 93.4135 52.8806C93.4849 52.8507 93.548 52.8125 93.6194 52.7798C96.7217 51.3372 98.2015 49.5074 98.1439 48.0894C98.1604 47.1759 97.5838 46.1124 96.3676 45.0843ZM96.3676 54.4732C95.7808 54.8234 95.175 55.1411 94.5528 55.4249C90.8795 57.0883 85.9679 58.0673 80.5511 58.07C79.1482 58.07 77.7782 58.0018 76.4494 57.8737C76.6324 58.4095 76.736 58.9689 76.7569 59.5344C76.7569 59.6489 76.7377 59.7553 76.7295 59.8698H76.7102C76.5839 61.5332 75.7823 62.9594 74.5139 64.1729C76.5117 64.4867 78.5312 64.6435 80.5538 64.6419C85.6247 64.6419 90.2041 63.7011 93.3943 62.2477C93.4657 62.2177 93.5288 62.1822 93.6002 62.1468C96.6998 60.6988 98.1796 58.8745 98.1219 57.451C98.1604 56.5647 97.5838 55.5012 96.3676 54.4732ZM37.8622 63.8757C32.9918 63.7202 28.5799 62.7849 25.2167 61.2605C24.5996 60.974 23.9975 60.6564 23.413 60.3088C22.2132 61.3369 21.6257 62.4004 21.6641 63.2976C21.5955 64.7456 23.1384 66.6381 26.3973 68.0942C28.9368 69.2477 32.3467 70.0685 36.1738 70.3658C36.0481 69.8933 35.9745 69.4087 35.9542 68.9205C35.9899 67.0853 36.8657 65.5309 38.2439 64.2302C38.1176 64.1075 37.983 64.0011 37.8622 63.8757ZM73.7534 68.0424C73.7156 67.9342 73.6707 67.8285 73.6189 67.7261C73.5586 67.5959 73.4908 67.4694 73.4157 67.3471C73.369 67.2754 73.3186 67.2063 73.2647 67.1398C72.9542 66.6929 72.5849 66.2894 72.1665 65.94C71.892 66.1036 71.601 66.2617 71.3127 66.4199C71.0079 66.5781 70.695 66.7471 70.3765 66.8889C69.9098 67.0989 69.4183 67.3007 68.9132 67.4916C68.7924 67.5325 68.6579 67.5707 68.5398 67.6116C68.139 67.7561 67.7381 67.9006 67.3153 68.0233C67.233 68.0506 67.1396 68.0724 67.0573 68.097C66.5878 68.236 66.1046 68.3697 65.6132 68.4869L65.4649 68.5196C64.9158 68.6478 64.3667 68.7623 63.8176 68.8714C61.3584 69.3165 58.8635 69.5392 56.3638 69.5368C54.1279 69.5335 51.896 69.3511 49.6896 68.9914C48.3932 68.7783 47.1099 68.4924 45.846 68.1351C45.8133 68.1284 45.7812 68.1193 45.7499 68.1079C45.2008 67.9524 44.6517 67.7752 44.1466 67.5925C44.0862 67.5707 44.0203 67.5516 43.9626 67.527C43.4135 67.328 42.8644 67.1098 42.3565 66.8808C41.7365 66.5981 41.1334 66.2804 40.55 65.929C39.3311 66.9571 38.76 68.0233 38.793 68.915C38.791 69.0744 38.8067 69.2335 38.8396 69.3895C38.8396 69.4577 38.8726 69.5313 38.889 69.6077C38.9055 69.684 38.9302 69.7386 38.9549 69.8068C39.4107 71.0884 40.9042 72.5337 43.5261 73.7226C46.7163 75.1761 51.2929 76.1114 56.3583 76.1114C61.4236 76.1114 66.0085 75.1761 69.2015 73.7226C71.417 72.7273 72.8282 71.5411 73.4898 70.4067C73.5173 70.3603 73.5502 70.3031 73.5749 70.254C73.6353 70.1394 73.6875 70.0331 73.7342 69.9213C73.7808 69.8095 73.7973 69.7495 73.8248 69.6622C73.8522 69.575 73.8742 69.4959 73.8934 69.4168C73.9267 69.2517 73.9415 69.0834 73.9373 68.915C73.9367 68.6143 73.879 68.3164 73.7671 68.037L73.7534 68.0424ZM96.3621 63.8702C95.7828 64.2056 95.1898 64.5301 94.5583 64.8219C90.874 66.4826 85.9624 67.4616 80.5566 67.467C79.1537 67.467 77.7864 67.3989 76.4549 67.2734C76.6371 67.801 76.7407 68.3522 76.7624 68.9096C76.7267 70.7312 75.8674 72.2692 74.5221 73.5699C76.52 73.8827 78.5396 74.0387 80.5621 74.0362C85.6329 74.0362 90.2123 73.0927 93.4025 71.642C96.6504 70.1831 98.1906 68.296 98.1302 66.848C98.1604 65.9672 97.5838 64.8928 96.3676 63.8702H96.3621Z" fill="white"/>
<path d="M58.478 106.278C51.8997 106.278 45.3524 106.278 38.774 106.278C31.513 106.278 26.0827 102.949 22.4833 96.7567C16.0911 85.7725 9.82304 74.6638 3.43087 63.6796C-0.509939 56.8961 -0.696119 50.206 3.30675 43.3915C9.91613 32.0339 16.3393 20.5518 23.0418 9.25641C26.4551 3.40646 31.8543 0.512604 38.6189 0.481487C51.8376 0.419254 65.0874 0.45037 78.3062 0.481487C85.1328 0.512604 90.563 3.40646 94.0384 9.28752C100.927 20.9563 107.661 32.7184 114.301 44.5428C117.528 50.2683 117.59 56.3049 114.394 62.0615C109.646 70.6186 104.682 79.0512 99.81 87.515C98.0102 90.6578 96.2105 93.8006 94.3797 96.9123C90.7182 103.073 85.319 106.247 78.151 106.247C71.6037 106.31 65.0254 106.278 58.478 106.278ZM58.478 100.117C65.0874 100.117 71.6968 100.117 78.3372 100.117C83.0227 100.117 86.6222 98.0636 88.9805 94.0495C95.4658 82.9097 101.796 71.6766 108.312 60.5679C111.291 55.4959 111.043 50.7973 108.095 45.8186C101.672 34.9588 95.4658 23.9435 89.1667 13.0215C86.8394 8.97636 83.3951 6.67372 78.7096 6.6426C65.2115 6.58037 51.7445 6.58037 38.2465 6.6426C33.7161 6.67372 30.2718 8.91412 28.0066 12.8348C21.5834 23.9124 15.2843 35.0522 8.79905 46.0675C5.88224 51.0462 5.8512 55.7137 8.76802 60.6924C15.2533 71.7077 21.5524 82.8164 27.9445 93.8939C30.3028 98.0013 33.8713 100.117 38.6189 100.148C45.2593 100.117 51.8687 100.117 58.478 100.117Z" fill="url(#paint1_linear_569_3209)"/>
<defs>
<linearGradient id="paint0_linear_569_3209" x1="111.145" y1="0.4458" x2="-60.6271" y2="10.3805" gradientUnits="userSpaceOnUse">
<stop offset="0.0552457" stop-color="#0F75FC"/>
<stop offset="1" stop-color="#0DF3A8"/>
</linearGradient>
<linearGradient id="paint1_linear_569_3209" x1="5.88711" y1="0.445559" x2="98.2278" y2="111.2" gradientUnits="userSpaceOnUse">
<stop stop-color="#ECD821"/>
<stop offset="0.515625" stop-color="#FA9703"/>
<stop offset="1" stop-color="#DA6330"/>
</linearGradient>
</defs>
</svg>
