<svg width="119" height="107" viewBox="0 0 119 107" fill="none" xmlns="http://www.w3.org/2000/svg">
<path d="M6.81186 52.2664C6.81186 23.5582 31.9439 0.432129 60.6521 0.432129C89.3603 0.432129 105.091 21.7318 112.486 52.2664C112.486 80.9745 87.8345 109.328 60.6521 104.101C31.0232 110.687 6.81186 80.9745 6.81186 52.2664Z" fill="url(#paint0_linear_569_3198)"/>
<path d="M39.1248 27.079L8.68524 56.638L12.2577 75.2659L26.0372 95.9351L47.6659 105.192L61.1608 104.724L80.1658 87.2609L80.3112 76.2387L80.9 68.6313L88.3001 61.2312L75.3157 37.6572L81.521 30.9604L79.1138 29.079L66.5914 18.1197L52.7063 31.5134L51.5548 33.6722L54.8721 30.4274L39.1248 27.079Z" fill="#071737"/>
<path d="M55.9497 34.5281C55.9497 28.9421 51.4054 24.406 45.8276 24.406C40.2415 24.406 35.6972 28.9503 35.6972 34.5281C35.6972 40.1059 40.2415 44.6502 45.8193 44.6502C51.4054 44.6502 55.9497 40.1141 55.9497 34.5281Z" fill="white"/>
<path d="M83.4943 24.9473C83.4943 19.3695 78.9582 14.8252 73.3722 14.8252C67.7862 14.8252 63.2501 19.3695 63.2501 24.9473C63.2501 30.5251 67.7944 35.0694 73.3722 35.0694C78.95 35.0694 83.4943 30.5333 83.4943 24.9473Z" fill="white"/>
<path d="M40.2169 87.8948H49.2317L50.7328 74.8607C51.0445 72.1456 53.2674 70.1032 55.9087 70.1032H62.4298C65.0711 70.1032 67.294 72.1456 67.6057 74.8607L69.1068 87.8948H79.0895C79.7949 87.8948 80.3691 87.3206 80.3691 86.6152V76.4767C85.4219 75.8451 89.3428 71.5222 89.3428 66.2971V47.6114C89.3428 41.9516 84.7411 37.3499 79.0813 37.3499H67.6631C62.0033 37.3499 57.4016 41.9516 57.4016 47.6114V48.7024C55.72 47.5622 53.735 46.9306 51.6433 46.9306H40.2169C34.5571 46.9306 29.9554 51.5323 29.9554 57.1921V75.2709C29.9554 75.9763 30.5296 76.5505 31.235 76.5505H38.9291V86.607C38.9291 87.3206 39.5033 87.8948 40.2169 87.8948ZM59.0749 56.4293C62.2083 56.4293 64.7512 58.9721 64.7512 62.1056C64.7512 65.239 62.2083 67.7818 59.0749 67.7818C55.9415 67.7818 53.3987 65.239 53.3987 62.1056C53.3987 58.9721 55.9415 56.4293 59.0749 56.4293Z" fill="white"/>
<path d="M59.4092 106.265C52.8308 106.265 46.2835 106.265 39.7051 106.265C32.4441 106.265 27.0139 102.935 23.4144 96.7432C17.0222 85.759 10.7542 74.6504 4.36199 63.6662C0.421183 56.8827 0.235003 50.1926 4.23787 43.378C10.8473 32.0204 17.2705 20.5384 23.9729 9.24298C27.3862 3.39303 32.7854 0.499176 39.55 0.468059C52.7687 0.405826 66.0185 0.436943 79.2373 0.468059C86.0639 0.499176 91.4941 3.39303 94.9695 9.2741C101.858 20.9429 108.592 32.705 115.232 44.5294C118.459 50.2548 118.521 56.2915 115.325 62.0481C110.578 70.6052 105.613 79.0378 100.741 87.5016C98.9413 90.6444 97.1416 93.7872 95.3108 96.8988C91.6493 103.06 86.2501 106.234 79.0822 106.234C72.5348 106.296 65.9565 106.265 59.4092 106.265ZM59.4092 100.104C66.0185 100.104 72.6279 100.104 79.2683 100.104C83.9539 100.104 87.5533 98.0501 89.9116 94.0361C96.3969 82.8963 102.727 71.6632 109.243 60.5545C112.222 55.4825 111.974 50.7838 109.026 45.8051C102.603 34.9454 96.3969 23.9301 90.0978 13.0081C87.7706 8.96293 84.3262 6.66029 79.6407 6.62917C66.1427 6.56694 52.6757 6.56694 39.1776 6.62917C34.6472 6.66029 31.2029 8.90069 28.9377 12.8214C22.5145 23.899 16.2154 35.0388 9.73017 46.0541C6.81336 51.0328 6.78233 55.7003 9.69914 60.679C16.1844 71.6943 22.4835 82.8029 28.8757 93.8805C31.2339 97.9879 34.8024 100.104 39.55 100.135C46.1904 100.104 52.7998 100.104 59.4092 100.104Z" fill="url(#paint1_linear_569_3198)"/>
<defs>
<linearGradient id="paint0_linear_569_3198" x1="112.4" y1="0.432128" x2="-57.9336" y2="10.2663" gradientUnits="userSpaceOnUse">
<stop offset="0.0552457" stop-color="#0F75FC"/>
<stop offset="1" stop-color="#0DF3A8"/>
</linearGradient>
<linearGradient id="paint1_linear_569_3198" x1="6.81823" y1="0.432131" x2="99.1589" y2="111.187" gradientUnits="userSpaceOnUse">
<stop stop-color="#ECD821"/>
<stop offset="0.515625" stop-color="#FA9703"/>
<stop offset="1" stop-color="#DA6330"/>
</linearGradient>
</defs>
</svg>
