<svg width="117" height="107" viewBox="0 0 117 107" fill="none" xmlns="http://www.w3.org/2000/svg">
<path d="M5.4291 53.586C5.4291 24.8778 28.9965 -1.86036 60.6348 1.43202C89.343 1.43202 105.074 22.7317 112.469 53.2663C112.469 72.6052 87.8172 110.328 60.6348 105.1C31.006 111.687 5.4291 82.2941 5.4291 53.586Z" fill="url(#paint0_linear_569_3294)"/>
<path d="M37.1668 27.2033L6.55455 58.634L13.6566 71.4305L26.7918 93.3576L32.0851 102.479L49.2389 102.964L62.6266 102.479L81.5157 82.8098V72.4839L80.6461 60.4797V52.9471L77.9348 32.8747L73.9372 32.0231L76.0205 25.8971V19.7297H69.9631L42.5398 25.8971L37.1668 27.2033Z" fill="#071737"/>
<path d="M58.412 106.436C51.8336 106.436 45.2863 106.436 38.708 106.436C31.447 106.436 26.0167 103.106 22.4172 96.9139C16.0251 85.9297 9.757 74.821 3.36483 63.8368C-0.575979 57.0534 -0.762159 50.3633 3.24071 43.5487C9.85009 32.1911 16.2733 20.709 22.9758 9.41363C26.3891 3.56369 31.7883 0.66983 38.5528 0.638714C51.7716 0.57648 65.0214 0.607597 78.2402 0.638714C85.0667 0.66983 90.497 3.56369 93.9723 9.44475C100.861 21.1135 107.595 32.8757 114.235 44.7C117.462 50.4255 117.524 56.4621 114.328 62.2187C109.58 70.7758 104.616 79.2085 99.7439 87.6722C97.9442 90.815 96.1444 93.9578 94.3137 97.0695C90.6521 103.231 85.2529 106.405 78.085 106.405C71.5377 106.467 64.9593 106.436 58.412 106.436ZM58.412 100.275C65.0214 100.275 71.6308 100.275 78.2712 100.275C82.9567 100.275 86.5562 98.2208 88.9145 94.2067C95.3997 83.067 101.73 71.8338 108.246 60.7251C111.225 55.6531 110.977 50.9545 108.029 45.9758C101.606 35.1161 95.3997 24.1007 89.1006 13.1788C86.7734 9.13358 83.3291 6.83095 78.6435 6.79983C65.1455 6.73759 51.6785 6.73759 38.1805 6.79983C33.6501 6.83095 30.2058 9.07135 27.9406 12.9921C21.5174 24.0696 15.2183 35.2094 8.73301 46.2247C5.8162 51.2034 5.78516 55.8709 8.70198 60.8496C15.1872 71.8649 21.4863 82.9736 27.8785 94.0512C30.2368 98.1586 33.8052 100.275 38.5528 100.306C45.1932 100.275 51.8026 100.275 58.412 100.275Z" fill="url(#paint1_linear_569_3294)"/>
<path d="M66.1236 40.801H68.4588C68.244 40.5594 68.0293 40.3179 67.8146 40.1032C66.8483 39.1369 65.721 38.3317 64.4595 37.7144C64.7279 38.0901 64.9964 38.4927 65.2379 38.949C65.56 39.5127 65.8552 40.1568 66.1236 40.801Z" fill="white"/>
<path d="M63.5468 39.9154C62.5806 38.1976 61.3459 37.0166 60.0039 36.6409V40.828H64.03C63.8689 40.5059 63.7079 40.1838 63.5468 39.9154Z" fill="white"/>
<path d="M65.6136 49.873H59.9771V55.0264H64.7279C65.2379 53.4965 65.5331 51.725 65.6136 49.873Z" fill="white"/>
<path d="M64.7547 42.7605H60.0039V47.9139H65.6404C65.533 46.0619 65.2378 44.3172 64.7547 42.7605Z" fill="white"/>
<path d="M67.5731 47.9139H71.4113C71.2771 46.035 70.7135 44.2904 69.8277 42.7605H66.7948C67.2242 44.3441 67.4926 46.0887 67.5731 47.9139Z" fill="white"/>
<path d="M63.5469 57.8984C63.708 57.6032 63.869 57.3079 64.0032 56.9858H59.9771V61.173C61.346 60.7703 62.5807 59.5894 63.5469 57.8984Z" fill="white"/>
<path d="M65.2379 58.8378C64.9964 59.2673 64.7279 59.6699 64.4595 60.0725C65.721 59.4552 66.8483 58.65 67.8146 57.6837C68.0293 57.469 68.244 57.2274 68.4588 56.9858H66.1236C65.8552 57.6569 65.56 58.2742 65.2379 58.8378Z" fill="white"/>
<path d="M66.7679 55.0264H69.8009C70.6866 53.4697 71.2502 51.725 71.3844 49.873H67.5463C67.4926 51.6982 67.2242 53.4428 66.7679 55.0264Z" fill="white"/>
<path d="M51.2541 42.7605H48.2211C47.3354 44.3172 46.7717 46.0619 46.6375 47.9139H50.4757C50.5562 46.0887 50.8246 44.3441 51.2541 42.7605Z" fill="white"/>
<path d="M50.4757 49.873H46.6375C46.7717 51.7519 47.3354 53.4965 48.2211 55.0264H51.2541C50.8246 53.4428 50.5562 51.6982 50.4757 49.873Z" fill="white"/>
<path d="M80.9397 27.3272C80.1881 26.5756 79.1145 26.0925 77.9604 26.0925H77.4236V21.3686C77.4236 21.0465 77.3967 20.7244 77.3162 20.4292C77.1283 19.6508 76.7525 18.9798 76.1889 18.5235C75.6252 18.0135 74.9006 17.7451 74.1222 17.7451C73.8806 17.7451 73.6122 17.772 73.3438 17.8256L39.5248 25.4483C38.5049 25.6899 37.5923 26.3341 36.9481 27.193C36.4113 27.9177 36.0356 28.7765 35.9014 29.6891V29.716C35.8745 29.9038 35.8745 30.0917 35.8745 30.2796V80.6323C35.8745 80.8202 35.8745 81.0081 35.9014 81.196V81.2228V81.2497V81.2765C35.9282 81.4375 35.955 81.5986 36.0087 81.7596C36.0892 82.028 36.1698 82.2696 36.2771 82.4843C36.4918 82.8869 36.7602 83.2895 37.0823 83.6116C37.8339 84.3632 38.9075 84.8463 40.0616 84.8463H77.9335C79.0877 84.8463 80.1344 84.3632 80.9128 83.6116C81.6643 82.8601 82.1475 81.7865 82.1475 80.6323V30.2796C82.1743 29.1255 81.6912 28.0787 80.9397 27.3272ZM74.3906 75.801C74.3906 76.5257 74.0953 77.1699 73.6122 77.653C73.1291 78.1362 72.4849 78.4314 71.7602 78.4314H46.2618C45.5371 78.4314 44.8929 78.1362 44.4098 77.653C43.9267 77.1699 43.6314 76.5257 43.6314 75.801V74.6304C43.6314 73.9057 43.9267 73.2615 44.4098 72.7784C44.8929 72.2952 45.5371 72 46.2618 72H71.7871C72.5117 72 73.1559 72.2952 73.639 72.7784C74.1222 73.2615 74.4174 73.9057 74.4174 74.6304V75.801H74.3906ZM44.6513 48.9069C44.6513 44.9345 46.2618 41.3379 48.8653 38.7344C51.4688 36.1308 55.0654 34.5204 59.0378 34.5204C63.0102 34.5204 66.6068 36.1308 69.2104 38.7344C71.8139 41.3379 73.4243 44.9345 73.4243 48.9069C73.4243 52.8793 71.8139 56.4759 69.2104 59.0794C66.6068 61.683 63.0102 63.2934 59.0378 63.2934C55.0654 63.2934 51.4688 61.683 48.8653 59.0794C46.2618 56.4491 44.6513 52.8524 44.6513 48.9069ZM75.4642 26.0925H45.5908L73.7733 19.7313C73.8806 19.7045 74.0148 19.7045 74.1222 19.7045C74.4443 19.7045 74.7127 19.8118 74.9274 19.9997C75.169 20.1876 75.33 20.5097 75.4105 20.8586C75.4374 21.0197 75.4642 21.1807 75.4642 21.3686V26.0925Z" fill="white"/>
<path d="M52.8109 38.949C53.0525 38.5196 53.3209 38.117 53.5893 37.7144C52.3278 38.3317 51.2005 39.1369 50.2343 40.1032C50.0195 40.3179 49.8048 40.5594 49.5901 40.801H51.9252C52.1936 40.1568 52.4889 39.5127 52.8109 38.949Z" fill="white"/>
<path d="M53.294 55.0264H58.0447V49.873H52.4082C52.4887 51.725 52.8108 53.4965 53.294 55.0264Z" fill="white"/>
<path d="M54.5017 57.8984C55.468 59.6162 56.7026 60.7972 58.0447 61.173V56.9858H54.0186C54.1796 57.3079 54.3407 57.6032 54.5017 57.8984Z" fill="white"/>
<path d="M58.0447 36.6143C56.7027 37.0169 55.468 38.1978 54.5018 39.8888C54.3407 40.184 54.1797 40.4793 54.0455 40.8014H58.0716V36.6143H58.0447Z" fill="white"/>
<path d="M51.9252 56.9858H49.5901C49.8048 57.2274 50.0195 57.469 50.2343 57.6837C51.2005 58.65 52.3278 59.4552 53.5893 60.0725C53.3209 59.6967 53.0525 59.2941 52.8109 58.8378C52.4889 58.2742 52.1936 57.6569 51.9252 56.9858Z" fill="white"/>
<path d="M52.4082 47.9139H58.0447V42.7605H53.294C52.8108 44.3172 52.4887 46.0619 52.4082 47.9139Z" fill="white"/>
<defs>
<linearGradient id="paint0_linear_569_3294" x1="112.382" y1="1.15649" x2="-60.1413" y2="11.2185" gradientUnits="userSpaceOnUse">
<stop offset="0.0552457" stop-color="#0F75FC"/>
<stop offset="1" stop-color="#0DF3A8"/>
</linearGradient>
<linearGradient id="paint1_linear_569_3294" x1="5.82107" y1="0.602786" x2="98.1617" y2="111.357" gradientUnits="userSpaceOnUse">
<stop stop-color="#ECD821"/>
<stop offset="0.515625" stop-color="#FA9703"/>
<stop offset="1" stop-color="#DA6330"/>
</linearGradient>
</defs>
</svg>
