<svg width="120" height="108" viewBox="0 0 120 108" fill="none" xmlns="http://www.w3.org/2000/svg">
<path d="M8.33822 55.2244C8.33822 28.5244 30.4447 -7.4367 61.7646 6.82455C92.097 -5.71737 113.221 33.3372 113.221 55.2244C113.221 81.9244 88.167 110.218 61.7646 103.625C27.0059 111.692 13.742 77.5501 8.33822 55.2244Z" fill="url(#paint0_linear_569_3178)"/>
<path d="M44.5328 19.6405L6.71877 57.1918L16.65 81.3382L33.1168 100.521L56.707 105.624L74.4414 102.202L90.1016 86.5418L89.5831 70.1556L97.2576 62.481L92.7981 58.54H87.7163L85.5384 39.4574L78.4861 35.2053L79.5232 29.5012L85.6421 23.3824L76.4119 21.8267L68.4734 18.1321L63.5413 21.8267L52.766 33.0274L50.6636 23.274L44.5328 19.6405Z" fill="#071737"/>
<path d="M46.9582 36.7611C50.6918 36.7611 53.6994 33.7535 53.6994 30.02C53.6994 27.7383 52.5586 25.6641 50.6918 24.4196C50.6918 24.4196 50.5881 24.4196 50.5881 24.3159C50.5881 24.3159 50.4844 24.3159 50.4844 24.2122L50.3806 24.1085C50.3806 24.1085 50.2769 24.1085 50.2769 24.0048C50.2769 24.0048 50.1732 24.0048 50.1732 23.9011C50.0695 23.9011 50.0695 23.7974 49.9658 23.7974C49.9658 23.7974 49.8621 23.7974 49.8621 23.6937C49.8621 23.6937 49.7584 23.6937 49.7584 23.5899C49.7584 23.5899 49.6547 23.5899 49.6547 23.4862C49.6547 23.4862 49.551 23.4862 49.551 23.3825H49.4473C49.3435 23.3825 49.2398 23.2788 49.1361 23.2788H49.0324C48.9287 23.2788 48.9287 23.2788 48.825 23.1751H48.7213C48.6176 23.1751 48.6176 23.1751 48.5139 23.1751H48.4102C48.3064 23.1751 48.2027 23.1751 48.099 23.1751C47.9953 23.1751 47.8916 23.1751 47.7879 23.1751H47.6842C47.5805 23.1751 47.5805 23.1751 47.4768 23.1751H47.3731C47.2693 23.1751 47.1656 23.1751 47.0619 23.1751C46.9582 23.1751 46.8545 23.1751 46.7508 23.1751H46.6471C46.5434 23.1751 46.5434 23.1751 46.4397 23.1751H46.336C46.2322 23.1751 46.1285 23.1751 46.0248 23.1751C45.9211 23.1751 45.8174 23.1751 45.7137 23.1751H45.61C45.5063 23.1751 45.5063 23.1751 45.4026 23.1751H45.2989C45.1951 23.1751 45.1951 23.1751 45.0914 23.2788H44.9877C44.884 23.2788 44.7803 23.3825 44.6766 23.3825H44.5729C44.5729 23.3825 44.4692 23.3825 44.4692 23.4862C44.4692 23.4862 44.3655 23.4862 44.3655 23.5899C44.3655 23.5899 44.2618 23.5899 44.2618 23.6937C44.2618 23.6937 44.158 23.6937 44.158 23.7974C44.0543 23.7974 44.0543 23.9011 43.9506 23.9011C43.9506 23.9011 43.8469 23.9011 43.8469 24.0048C43.8469 24.0048 43.7432 24.0048 43.7432 24.1085L43.6395 24.2122L43.5358 24.3159C41.669 25.5604 40.4245 27.6346 40.4245 30.02C40.2171 33.7535 43.2247 36.7611 46.9582 36.7611ZM46.9582 22.4491C48.4102 22.4491 49.8621 22.864 51.0029 23.5899C51.0029 23.3825 51.0029 23.1751 51.0029 22.9677C51.0029 20.6861 49.1361 18.923 46.9582 18.923C44.6766 18.923 42.9135 20.7898 42.9135 22.9677C42.9135 23.1751 42.9135 23.3825 42.9135 23.5899C44.158 22.864 45.5063 22.4491 46.9582 22.4491ZM67.3891 27.3235C67.3891 29.5014 68.3225 31.4719 69.8781 32.8201C69.9818 32.9238 70.0855 32.9238 70.0855 33.0276C70.1893 33.1313 70.293 33.1313 70.3967 33.235C70.5004 33.3387 70.6041 33.3387 70.7078 33.4424C70.8115 33.5461 70.9152 33.5461 71.0189 33.6498C71.1227 33.6498 71.2264 33.7535 71.3301 33.7535C71.4338 33.7535 71.5375 33.8572 71.6412 33.8572C71.6412 33.8572 71.6412 33.8572 71.7449 33.8572C71.8486 33.8572 71.9523 33.9609 71.9523 33.9609H72.056C72.1598 33.9609 72.2635 34.0647 72.2635 34.0647H72.3672C72.4709 34.0647 72.5746 34.0647 72.5746 34.1684H72.6783C72.782 34.1684 72.8857 34.1684 72.8857 34.2721H72.9894C73.0931 34.2721 73.0931 34.2721 73.1968 34.2721C73.3006 34.2721 73.3006 34.2721 73.4043 34.2721C73.508 34.2721 73.508 34.2721 73.6117 34.2721C73.7154 34.2721 73.7154 34.2721 73.8191 34.2721C73.9228 34.2721 73.9228 34.2721 74.0265 34.2721C74.1302 34.2721 74.1302 34.2721 74.234 34.2721H74.3377C74.4414 34.2721 74.5451 34.2721 74.7525 34.2721C74.8562 34.2721 74.9599 34.2721 75.0636 34.2721H75.1673C75.2711 34.2721 75.271 34.2721 75.3748 34.2721C75.4785 34.2721 75.4785 34.2721 75.5822 34.2721C75.5822 34.2721 75.6859 34.2721 75.7896 34.2721C75.8933 34.2721 75.8933 34.2721 75.997 34.2721C76.1007 34.2721 76.1007 34.2721 76.1007 34.2721C76.2044 34.2721 76.2044 34.2721 76.3082 34.2721H76.4119C76.5156 34.2721 76.6193 34.2721 76.6193 34.1684H76.723C76.8267 34.1684 76.9304 34.0647 76.9304 34.0647H77.0341C77.1378 34.0647 77.2415 33.9609 77.2415 33.9609C77.2415 33.9609 77.2415 33.9609 77.3453 33.9609C77.449 33.9609 77.5527 33.8572 77.5527 33.8572C77.6564 33.8572 77.7601 33.7535 77.8638 33.7535C77.9675 33.6498 78.0712 33.6498 78.0712 33.6498C78.1749 33.6498 78.2786 33.5461 78.3824 33.4424C78.4861 33.3387 78.5898 33.3387 78.6935 33.235C78.7972 33.1313 78.9009 33.1313 78.9009 33.0276C79.0046 32.9238 79.1083 32.9238 79.1083 32.8201C80.664 31.4719 81.5974 29.5014 81.5974 27.3235C81.5974 25.8716 81.1825 24.627 80.4566 23.4862H85.3309V21.7232H80.3528V18.197H68.4262V21.7232H63.4481V23.4862H68.5299C67.8039 24.627 67.3891 25.8716 67.3891 27.3235ZM92.798 58.5402C91.9684 58.5402 91.1387 58.7476 90.5164 59.2662C90.5164 59.1625 90.5164 58.9551 90.5164 58.8513V43.7097C90.5164 38.1093 86.368 33.4424 80.9751 32.6127C79.4195 34.3758 77.2415 35.5166 74.6488 35.5166C72.1598 35.5166 69.8781 34.3758 68.3225 32.6127C63.137 33.3387 59.196 37.6945 58.7812 42.9837C56.9144 39.0427 54.0105 38.4205 49.4473 38.4205H44.2618C39.18 38.4205 36.1724 39.1464 34.3056 44.6431C32.4388 50.036 30.6757 55.5326 30.2609 57.192C29.9498 58.5402 29.8461 59.7847 30.4683 60.6144C28.2904 60.7181 26.6311 62.4812 26.6311 64.6591H28.083C28.083 63.2072 29.2238 62.0664 30.6757 62.0664C32.1277 62.0664 33.2685 63.2072 33.2685 64.6591V87.2679H34.7204V70.778H40.8393L40.2171 84.0529C40.2171 85.9197 41.2542 87.3716 42.9135 87.3716C44.6766 87.3716 45.9211 85.9197 45.9211 84.0529C45.9211 83.9492 45.9211 83.9492 45.9211 83.8455L45.2989 70.8817H48.4102L47.7879 83.8455C47.7879 83.9492 47.7879 83.9492 47.7879 84.0529C47.7879 85.9197 49.0324 87.3716 50.7955 87.3716C52.5586 87.3716 53.4919 85.9197 53.4919 84.0529L52.9734 70.778H60.4405L53.4919 47.8581H55.0476L58.3663 58.3328C58.5737 58.8513 58.7812 59.2662 58.9886 59.5773C59.4034 60.7181 60.4405 61.6515 61.7887 61.6515C63.4481 61.6515 64.7963 60.3033 64.7963 58.6439C64.7963 58.5402 64.7963 58.5402 64.7963 58.4365V43.1911H66.1446V83.638C66.1446 85.7122 67.8039 87.3716 69.8781 87.3716C71.9523 87.3716 73.6117 85.7122 73.6117 83.638C73.6117 83.5343 73.6117 83.4306 73.6117 83.3269V65.4888H75.7896V83.638C75.7896 85.7122 77.449 87.3716 79.5232 87.3716C81.5974 87.3716 83.2567 85.7122 83.2567 83.638C83.2567 83.5343 83.2567 83.4306 83.2567 83.3269V65.4888V43.1911H84.5012V58.7476C84.5012 60.407 85.8495 61.7552 87.5088 61.7552C87.9237 61.7552 88.3385 61.6515 88.6496 61.5478C88.5459 61.9626 88.4422 62.3775 88.4422 62.896V87.0605H89.9979V62.7923C89.9979 61.2367 91.2424 60.0959 92.6943 60.0959C94.1463 60.0959 95.3908 61.3404 95.3908 62.7923H96.9464C97.0502 60.407 95.1834 58.5402 92.798 58.5402ZM34.7204 66.2148V64.4517C34.7204 63.1035 34.0982 61.9626 33.0611 61.2367C34.2019 61.0293 35.0316 59.9922 35.5501 58.4365L38.8688 47.9618H40.2171L34.7204 66.2148Z" fill="white"/>
<path d="M60.32 107.003C53.7416 107.003 47.1943 107.003 40.6159 107.003C33.3549 107.003 27.9247 103.673 24.3252 97.481C17.933 86.4968 11.665 75.3882 5.27279 64.4039C1.33198 57.6205 1.1458 50.9304 5.14867 44.1158C11.758 32.7582 18.1813 21.2761 24.8837 9.98077C28.297 4.13083 33.6962 1.23697 40.4608 1.20585C53.6795 1.14362 66.9293 1.17474 80.1481 1.20585C86.9747 1.23697 92.4049 4.13083 95.8803 10.0119C102.769 21.6807 109.502 33.4428 116.143 45.2672C119.37 50.9926 119.432 57.0293 116.236 62.7859C111.488 71.343 106.524 79.7756 101.652 88.2394C99.8521 91.3822 98.0524 94.525 96.2216 97.6366C92.5601 103.798 87.1609 106.972 79.993 106.972C73.4456 107.034 66.8673 107.003 60.32 107.003ZM60.32 100.842C66.9293 100.842 73.5387 100.842 80.1791 100.842C84.8647 100.842 88.4641 98.7879 90.8224 94.7739C97.3077 83.6341 103.638 72.4009 110.154 61.2923C113.133 56.2202 112.885 51.5216 109.937 46.5429C103.514 35.6832 97.3077 24.6679 91.0086 13.7459C88.6814 9.70072 85.237 7.39808 80.5515 7.36697C67.0535 7.30473 53.5865 7.30473 40.0884 7.36697C35.558 7.39808 32.1137 9.63849 29.8485 13.5592C23.4253 24.6368 17.1262 35.7766 10.641 46.7919C7.72415 51.7706 7.69312 56.4381 10.6099 61.4167C17.0952 72.4321 23.3943 83.5407 29.7865 94.6183C32.1447 98.7257 35.7132 100.842 40.4608 100.873C47.1012 100.842 53.7106 100.842 60.32 100.842Z" fill="url(#paint1_linear_569_3178)"/>
<defs>
<linearGradient id="paint0_linear_569_3178" x1="113.135" y1="3.59106" x2="-55.8933" y2="13.5976" gradientUnits="userSpaceOnUse">
<stop offset="0.0552457" stop-color="#0F75FC"/>
<stop offset="1" stop-color="#0DF3A8"/>
</linearGradient>
<linearGradient id="paint1_linear_569_3178" x1="7.72903" y1="1.16992" x2="100.07" y2="111.925" gradientUnits="userSpaceOnUse">
<stop stop-color="#ECD821"/>
<stop offset="0.515625" stop-color="#FA9703"/>
<stop offset="1" stop-color="#DA6330"/>
</linearGradient>
</defs>
</svg>
