<svg width="117" height="107" viewBox="0 0 117 107" fill="none" xmlns="http://www.w3.org/2000/svg">
<path d="M6.42907 53.586C6.42907 24.8778 29.9965 -1.86036 61.6348 1.43202C90.343 1.43202 106.074 22.7317 113.469 53.2663C113.469 72.6052 88.8172 110.328 61.6348 105.1C32.0059 111.687 6.42907 82.2941 6.42907 53.586Z" fill="url(#paint0_linear_569_3247)"/>
<path d="M30.121 38.2559L7.85211 60.0217L11.9657 74.2033L25.2816 96.4237L46.2987 106.035L63.4689 104.83L88.083 79.6288L85.2823 75.0537V72.9764L81.7539 68.2116V50.6054L85.2936 46.419V41.3565V37.8061L70.997 35.094L66.7396 32.7039L62.886 25.386L57.2097 25.7794L51.5298 29.5694L49.3399 27.8476L40.1957 35.9456L30.121 38.2559Z" fill="#071737"/>
<path d="M58.3971 106.278C51.8188 106.278 45.2714 106.278 38.6931 106.278C31.4321 106.278 26.0018 102.949 22.4023 96.7567C16.0102 85.7725 9.74211 74.6638 3.34993 63.6796C-0.590872 56.8961 -0.777052 50.206 3.22581 43.3915C9.8352 32.0339 16.2584 20.5518 22.9609 9.25641C26.3742 3.40646 31.7734 0.512604 38.5379 0.481487C51.7567 0.419254 65.0065 0.45037 78.2253 0.481487C85.0519 0.512604 90.4821 3.40646 93.9575 9.28752C100.846 20.9563 107.58 32.7184 114.22 44.5428C117.447 50.2683 117.509 56.3049 114.313 62.0615C109.566 70.6186 104.601 79.0512 99.729 87.515C97.9293 90.6578 96.1295 93.8006 94.2988 96.9123C90.6372 103.073 85.238 106.247 78.0701 106.247C71.5228 106.31 64.9444 106.278 58.3971 106.278ZM58.3971 100.117C65.0065 100.117 71.6159 100.117 78.2563 100.117C82.9418 100.117 86.5413 98.0636 88.8996 94.0495C95.3848 82.9097 101.715 71.6766 108.231 60.5679C111.21 55.4959 110.962 50.7973 108.014 45.8186C101.591 34.9588 95.3848 23.9435 89.0858 13.0215C86.7585 8.97636 83.3142 6.67372 78.6286 6.6426C65.1306 6.58037 51.6636 6.58037 38.1656 6.6426C33.6352 6.67372 30.1909 8.91412 27.9257 12.8348C21.5025 23.9124 15.2034 35.0522 8.71812 46.0675C5.8013 51.0462 5.77027 55.7137 8.68709 60.6924C15.1724 71.7077 21.4714 82.8164 27.8636 93.8939C30.2219 98.0013 33.7903 100.117 38.5379 100.148C45.1783 100.117 51.7877 100.117 58.3971 100.117Z" fill="url(#paint1_linear_569_3247)"/>
<path d="M85.3364 46.462V41.3083H32.6334V46.462H35.4001V67.9447H32.6334V73.0983H85.3635V67.9447H82.5968V46.462H85.3364ZM49.098 67.9447H40.9064V46.462H49.098V67.9447ZM63.3655 67.9447H54.6043V46.462H63.3384V67.9447H63.3655ZM77.0634 67.9447H68.8718V46.462H77.0634V67.9447Z" fill="white"/>
<path d="M85.6077 74.6177H32.3893C31.006 74.6177 29.8668 75.7298 29.8668 77.1403V79.6357H88.1032V77.1403C88.1032 75.7298 86.9911 74.6177 85.6077 74.6177Z" fill="white"/>
<path d="M30.9519 39.9794H87.0455C88.1304 39.9794 88.5373 38.5689 87.6151 37.9993L59.5683 20.3683C59.2157 20.1513 58.7817 20.1513 58.429 20.3683L30.3822 37.9993C29.46 38.5689 29.8669 39.9794 30.9519 39.9794ZM58.9987 26.4985C61.2229 26.4985 63.0402 28.3158 63.0402 30.54C63.0402 32.7642 61.2229 34.5816 58.9987 34.5816C56.7744 34.5816 54.9571 32.7642 54.9571 30.54C54.9571 28.2887 56.7473 26.4985 58.9987 26.4985Z" fill="white"/>
<defs>
<linearGradient id="paint0_linear_569_3247" x1="113.382" y1="1.15649" x2="-59.1413" y2="11.2185" gradientUnits="userSpaceOnUse">
<stop offset="0.0552457" stop-color="#0F75FC"/>
<stop offset="1" stop-color="#0DF3A8"/>
</linearGradient>
<linearGradient id="paint1_linear_569_3247" x1="5.80618" y1="0.445559" x2="98.1468" y2="111.2" gradientUnits="userSpaceOnUse">
<stop stop-color="#ECD821"/>
<stop offset="0.515625" stop-color="#FA9703"/>
<stop offset="1" stop-color="#DA6330"/>
</linearGradient>
</defs>
</svg>
