<svg width="117" height="107" viewBox="0 0 117 107" fill="none" xmlns="http://www.w3.org/2000/svg">
<path d="M5.44637 54.3103C5.44637 25.6021 29.0138 -1.13599 60.6521 2.15639C89.3603 2.15639 105.091 23.4561 112.486 53.9906C112.486 73.3296 87.8345 111.053 60.6521 105.825C31.0232 112.411 5.44637 78.9592 5.44637 54.3103Z" fill="url(#paint0_linear_569_3280)"/>
<path d="M29.689 34.8609L5.95018 58.937L8.81457 73.4167L21.9497 95.3437L44.3968 104.95L62.2729 104.465L87.7588 79.0606L78.2772 74.9021L89.1821 62.4659V54.9332L73.0927 34.8609L69.0951 34.0092V28.4847L57.8798 27.9107L49.6279 28.4847L47.438 26.7628L38.2937 34.8609H29.689Z" fill="#071737"/>
<path d="M58.4292 106.681C51.8508 106.681 45.3035 106.681 38.7251 106.681C31.4641 106.681 26.0339 103.351 22.4344 97.1593C16.0422 86.1751 9.77418 75.0664 3.382 64.0822C-0.558805 57.2987 -0.744985 50.6086 3.25788 43.7941C9.86726 32.4364 16.2905 20.9544 22.9929 9.659C26.4062 3.80905 31.8055 0.915192 38.57 0.884075C51.7888 0.821842 65.0386 0.852958 78.2573 0.884075C85.0839 0.915192 90.5142 3.80905 93.9895 9.69011C100.878 21.3589 107.612 33.121 114.252 44.9454C117.479 50.6709 117.541 56.7075 114.345 62.4641C109.598 71.0212 104.633 79.4538 99.7611 87.9176C97.9614 91.0604 96.1616 94.2032 94.3308 97.3148C90.6693 103.476 85.2701 106.65 78.1022 106.65C71.5549 106.712 64.9765 106.681 58.4292 106.681ZM58.4292 100.52C65.0386 100.52 71.6479 100.52 78.2884 100.52C82.9739 100.52 86.5734 98.4662 88.9316 94.4521C95.4169 83.3123 101.747 72.0792 108.263 60.9705C111.242 55.8985 110.994 51.1998 108.046 46.2212C101.623 35.3614 95.4169 24.3461 89.1178 13.4241C86.7906 9.37894 83.3462 7.07631 78.6607 7.04519C65.1627 6.98296 51.6957 6.98296 38.1976 7.04519C33.6673 7.07631 30.2229 9.31671 27.9577 13.2374C21.5345 24.315 15.2354 35.4548 8.75019 46.4701C5.83337 51.4488 5.80234 56.1163 8.71916 61.095C15.2044 72.1103 21.5035 83.219 27.8957 94.2965C30.254 98.4039 33.8224 100.52 38.57 100.551C45.2104 100.52 51.8198 100.52 58.4292 100.52Z" fill="url(#paint1_linear_569_3280)"/>
<path d="M65.1026 62.7959C65.1026 65.2303 63.1319 67.201 60.6974 67.201H56.3502C53.9158 67.201 51.945 65.2303 51.945 62.7959V61.2888H27.5426V75.2579C27.5426 78.0401 29.8612 80.3586 32.6434 80.3586H84.4043C87.1865 80.3586 89.505 78.0401 89.505 75.2579V61.2888H65.1026V62.7959Z" fill="white"/>
<path d="M84.4043 33.9302H71.7104V30.5683C71.7104 28.0759 69.6817 25.9893 67.1313 25.9893H49.8584C47.366 25.9893 45.2793 28.018 45.2793 30.5683V33.9302H32.6434C29.8612 33.9302 27.5426 36.2487 27.5426 39.0309V57.9268H51.945V56.8255C51.945 54.3911 53.9158 52.4203 56.3502 52.4203H60.6974C63.1319 52.4203 65.1026 54.3911 65.1026 56.8255V57.9268H89.505V39.0309C89.447 36.1907 87.1865 33.9302 84.4043 33.9302ZM67.537 33.9302H49.4526V30.5683C49.4526 30.3365 49.6265 30.1626 49.8584 30.1626H67.1313C67.3632 30.1626 67.537 30.3365 67.537 30.5683V33.9302Z" fill="white"/>
<path d="M55.3069 63.3174V56.3039C55.3069 56.0141 55.5387 55.7822 55.8285 55.7822H61.1611C61.4509 55.7822 61.6828 56.0141 61.6828 56.3039V63.3174C61.6828 63.6072 61.4509 63.8391 61.1611 63.8391H55.8285C55.5387 63.8391 55.3069 63.6072 55.3069 63.3174Z" fill="white"/>
<defs>
<linearGradient id="paint0_linear_569_3280" x1="112.399" y1="1.88086" x2="-60.123" y2="11.9517" gradientUnits="userSpaceOnUse">
<stop offset="0.0552457" stop-color="#0F75FC"/>
<stop offset="1" stop-color="#0DF3A8"/>
</linearGradient>
<linearGradient id="paint1_linear_569_3280" x1="5.83825" y1="0.848147" x2="98.1789" y2="111.603" gradientUnits="userSpaceOnUse">
<stop stop-color="#ECD821"/>
<stop offset="0.515625" stop-color="#FA9703"/>
<stop offset="1" stop-color="#DA6330"/>
</linearGradient>
</defs>
</svg>
