<svg width="117" height="106" viewBox="0 0 117 106" fill="none" xmlns="http://www.w3.org/2000/svg">
<path d="M5.22729 53.5861C5.2273 26.8611 28.7947 -1.86027 60.433 1.43211C90.4394 1.43211 104.872 22.7318 112.267 53.2663C112.267 72.6053 87.6154 110.328 60.433 105.101C33.3975 108.679 5.22729 82.2942 5.22729 53.5861Z" fill="url(#paint0_linear_731_3019)"/>
<path d="M1.62865 52.4258L5.5369 60.9854L12.4048 67.3864L24.0983 88.0656L26.8839 98.0283L36.2842 101.482H59.9002L76.7649 85.2613L74.546 78.8649L80.7492 72.5734L73.2341 69.6743L78.0916 64.7243L84.4532 44.1651L78.746 50.2549L81.0969 45.046L80.4421 40.7243L76.5133 33.1285L71.5327 26.7818L56.1725 30.5497L46.6574 24.6069L37.0063 34.2054L24.0983 30.5497L1.62865 52.4258Z" fill="#071737"/>
<path d="M58.4064 105.919C51.828 105.919 45.2807 105.919 38.7024 105.919C31.4413 105.919 26.0111 102.589 22.4116 96.3971C16.0194 85.4128 9.75139 74.3042 3.35921 63.32C-0.581594 56.5365 -0.767774 49.8464 3.23509 43.0319C9.84448 31.6742 16.2677 20.1922 22.9702 8.89679C26.3835 3.04684 31.7827 0.152985 38.5472 0.121868C51.766 0.0596345 65.0158 0.0907513 78.2345 0.121868C85.0611 0.152985 90.4914 3.04684 93.9667 8.92791C100.855 20.5967 107.589 32.3588 114.229 44.1832C117.456 49.9086 117.518 55.9453 114.322 61.7019C109.575 70.259 104.61 78.6916 99.7383 87.1554C97.9386 90.2982 96.1388 93.441 94.3081 96.5526C90.6465 102.714 85.2473 105.888 78.0794 105.888C71.5321 105.95 64.9537 105.919 58.4064 105.919ZM58.4064 99.7577C65.0158 99.7577 71.6252 99.7577 78.2656 99.7577C82.9511 99.7577 86.5506 97.704 88.9088 93.6899C95.3941 82.5501 101.724 71.317 108.241 60.2083C111.219 55.1363 110.971 50.4376 108.023 45.459C101.6 34.5992 95.3941 23.5839 89.095 12.6619C86.7678 8.61674 83.3234 6.3141 78.6379 6.28298C65.1399 6.22075 51.6729 6.22075 38.1748 6.28298C33.6445 6.3141 30.2001 8.5545 27.9349 12.4752C21.5117 23.5528 15.2127 34.6926 8.7274 45.7079C5.81058 50.6866 5.77955 55.3541 8.69637 60.3328C15.1816 71.3481 21.4807 82.4568 27.8729 93.5343C30.2312 97.6417 33.7996 99.7577 38.5472 99.7888C45.1876 99.7577 51.797 99.7577 58.4064 99.7577Z" fill="url(#paint1_linear_731_3019)"/>
<path d="M52.1452 76.1968C49.0921 76.1968 46.6243 78.676 46.6243 81.7433C46.6243 84.8106 49.0921 87.2898 52.1452 87.2898C55.1983 87.2898 57.6662 84.8106 57.6662 81.7433C57.6662 78.6919 55.1983 76.1968 52.1452 76.1968Z" fill="white"/>
<path d="M72.2514 76.1968C69.1983 76.1968 66.7305 78.676 66.7305 81.7433C66.7305 84.8106 69.1983 87.2898 72.2514 87.2898C75.3045 87.2898 77.7724 84.8106 77.7724 81.7433C77.7724 78.6919 75.3045 76.1968 72.2514 76.1968Z" fill="white"/>
<path d="M47.1001 70.1605L47.19 70.1304H47.1001V70.1605Z" fill="white"/>
<path fill-rule="evenodd" clip-rule="evenodd" d="M62.0617 59.7634C61.8545 59.7634 61.6587 59.7289 61.4745 59.6598C57.0298 58.0247 53.5294 55.883 50.7889 53.1195C47.6454 49.953 45.6073 46.0725 44.548 41.2364C44.4388 40.7407 44.3391 40.237 44.2486 39.7233H40.5811L38.319 31.3638C38.0026 30.299 37.0218 29.568 35.8986 29.5521L25.6161 29.5044C24.2714 29.5044 23.2432 30.2672 23.2432 31.491C23.2432 32.7147 24.2872 33.9702 25.6319 33.9543L34.6964 34.1768L45.058 73.5587H78.2786C79.908 73.5587 81.2368 72.621 81.2368 71.4608C81.2368 70.3007 79.908 69.363 78.2786 69.363H48.4908L47.4151 65.374H76.5226C77.2029 65.3899 77.804 65.1038 78.1837 64.6747C78.2628 64.5952 78.326 64.5158 78.3735 64.4204C78.3814 64.4045 78.3893 64.3926 78.3972 64.3807C78.4051 64.3688 78.413 64.3568 78.4209 64.341C78.4842 64.2297 78.5317 64.1185 78.5633 63.9913L86.3148 43.9508C86.8052 42.7111 86.3781 41.2808 85.2865 40.518C84.5588 40.0094 83.7046 39.7233 82.8187 39.7233H79.9217C79.4316 42.5376 78.6172 45.0719 77.4568 47.3852C75.4417 51.4268 72.3789 54.6394 68.3487 56.9539C67.114 57.661 65.8136 58.2478 64.5436 58.8209L64.4453 58.8653C63.9271 59.0956 63.3974 59.3374 62.8793 59.5792C62.626 59.7059 62.3381 59.7634 62.0617 59.7634ZM46.9776 40.7182C46.9061 40.3909 46.8388 40.0595 46.7758 39.7233H55.1423L59.724 44.3212C59.9536 44.5635 60.2635 44.6905 60.5963 44.6905C60.9177 44.6905 61.2391 44.5635 61.4801 44.3212L66.0534 39.7233H77.3977C76.9439 42.1324 76.2271 44.3016 75.2345 46.2798C73.4382 49.8724 70.7092 52.7395 67.1167 54.8006C65.9537 55.4685 64.7216 56.0212 63.432 56.5969C62.9829 56.7926 62.5108 56.9999 62.0502 57.2187C58.0777 55.7218 54.9802 53.8104 52.5507 51.3693C49.7526 48.5597 47.9333 45.0707 46.9776 40.7182ZM62.5412 39.7233L60.5963 41.6787L58.6515 39.7233H62.5412Z" fill="white"/>
<path fill-rule="evenodd" clip-rule="evenodd" d="M46.1024 24.5285C46.1024 24.9207 46.0915 25.3019 46.0803 25.6934L46.0793 25.7261C46.0563 27.1769 46.0333 28.6853 46.0333 30.1707C46.0218 34.362 46.3211 37.7128 46.9775 40.7181C47.9332 45.0707 49.7525 48.5596 52.5506 51.3692C54.9802 53.8103 58.0776 55.7217 62.0501 57.2186C62.5107 56.9998 62.9828 56.7926 63.4319 56.5968C64.7215 56.0211 65.9536 55.4684 67.1166 54.8005C70.7091 52.7394 73.4381 49.8723 75.2344 46.2797C76.8695 43.021 77.7561 39.2442 77.9519 34.7305C78.0584 32.4076 78.0466 30.0355 78.0352 27.7235L78.0325 27.1654C78.0325 26.7307 78.0296 26.2931 78.0268 25.8527V25.8527C78.0239 25.4065 78.0209 24.9575 78.0209 24.5055C78.0037 24.5055 77.9893 24.5026 77.9749 24.4998C77.9605 24.4969 77.9461 24.494 77.9288 24.494C77.7396 24.473 77.5492 24.4525 77.358 24.432C76.7114 24.3627 76.0558 24.2924 75.4071 24.1946C70.4098 23.5037 65.9191 21.5693 62.0732 18.4258C58.5036 21.3505 54.3929 23.2274 49.8331 24.0219C48.7392 24.2061 47.6338 24.3443 46.5514 24.471C46.4017 24.494 46.2521 24.517 46.1024 24.5285ZM59.724 44.3212C59.9535 44.5635 60.2634 44.6905 60.5962 44.6905C60.9176 44.6905 61.239 44.5635 61.48 44.3212L72.1312 33.6127C72.6133 33.128 72.6133 32.3318 72.1312 31.8471C71.6492 31.3625 70.8572 31.3625 70.3752 31.8471L60.5962 41.6787L55.3166 36.3706C54.8345 35.8859 54.0425 35.8859 53.5605 36.3706C53.0784 36.8552 53.0784 37.6514 53.5605 38.1361L59.724 44.3212Z" fill="white"/>
<defs>
<linearGradient id="paint0_linear_731_3019" x1="112.18" y1="1.17334" x2="-60.3379" y2="11.2793" gradientUnits="userSpaceOnUse">
<stop offset="0.0552457" stop-color="#0F75FC"/>
<stop offset="1" stop-color="#0DF3A8"/>
</linearGradient>
<linearGradient id="paint1_linear_731_3019" x1="5.81546" y1="0.08594" x2="98.1561" y2="110.841" gradientUnits="userSpaceOnUse">
<stop stop-color="#ECD821"/>
<stop offset="0.515625" stop-color="#FA9703"/>
<stop offset="1" stop-color="#DA6330"/>
</linearGradient>
</defs>
</svg>
