<svg width="117" height="107" viewBox="0 0 117 107" fill="none" xmlns="http://www.w3.org/2000/svg">
<path d="M5.95638 53.8479C5.95638 25.1397 29.5238 -1.59839 61.1621 1.69399C89.8703 1.69399 105.601 22.9937 112.996 53.5282C112.996 72.8672 88.3445 110.59 61.1621 105.362C31.5332 111.949 5.95638 82.5561 5.95638 53.8479Z" fill="url(#paint0_linear_569_3361)"/>
<path d="M34.0222 24.6994L4.8013 55.2374L11.8555 70.9911L25.1714 93.2115L35.0156 100.369L46.1886 102.823L67.3211 102.337L85.017 84.2219L81.2868 72.4086L84.1678 64.2855V52.8059L85.017 42.7297L82.2947 36.6753L81.5266 34.4051L81.2793 24.6665L68.982 37.4082L65.6681 24.512L51.4197 39.0188V26.3572L49.8168 24.6994L35.743 38.9703L34.0222 24.6994Z" fill="#071737"/>
<path d="M58.4854 106.344C51.907 106.344 45.3597 106.344 38.7813 106.344C31.5203 106.344 26.0901 103.014 22.4906 96.8221C16.0984 85.8379 9.83037 74.7292 3.43819 63.745C-0.502615 56.9616 -0.688795 50.2715 3.31407 43.4569C9.92346 32.0993 16.3467 20.6172 23.0491 9.32184C26.4624 3.47189 31.8616 0.578034 38.6262 0.546917C51.8449 0.484683 65.0947 0.5158 78.3135 0.546917C85.1401 0.578034 90.5704 3.47189 94.0457 9.35295C100.934 21.0217 107.668 32.7839 114.308 44.6082C117.535 50.3337 117.597 56.3703 114.401 62.1269C109.654 70.6841 104.689 79.1167 99.8173 87.5804C98.0175 90.7232 96.2178 93.866 94.387 96.9777C90.7255 103.139 85.3263 106.313 78.1584 106.313C71.611 106.375 65.0327 106.344 58.4854 106.344ZM58.4854 100.183C65.0947 100.183 71.7041 100.183 78.3445 100.183C83.0301 100.183 86.6295 98.129 88.9878 94.1149C95.4731 82.9752 101.803 71.742 108.319 60.6333C111.298 55.5613 111.05 50.8627 108.102 45.884C101.679 35.0243 95.4731 24.0089 89.174 13.087C86.8468 9.04179 83.4024 6.73915 78.7169 6.70803C65.2189 6.6458 51.7519 6.6458 38.2538 6.70803C33.7234 6.73915 30.2791 8.97955 28.0139 12.9003C21.5907 23.9778 15.2916 35.1176 8.80638 46.1329C5.88956 51.1116 5.85853 55.7791 8.77535 60.7578C15.2606 71.7731 21.5597 82.8818 27.9519 93.9594C30.3101 98.0668 33.8786 100.183 38.6262 100.214C45.2666 100.183 51.876 100.183 58.4854 100.183Z" fill="url(#paint1_linear_569_3361)"/>
<path d="M51.729 51.6763L51.8612 51.5328V51.3376V48.5094C51.8612 45.0891 54.8524 42.2024 58.9352 42.2024H59.3666H59.6542H59.9418C64.0222 42.2024 67.0157 45.1348 67.0157 48.5094V51.3376V51.5366L67.1525 51.6812C67.8327 52.4002 67.8299 53.1794 67.6409 53.8282C67.5449 54.1577 67.4018 54.444 67.2805 54.6497C67.2204 54.7517 67.167 54.8316 67.1297 54.8846C67.1111 54.9111 67.0966 54.9307 67.0874 54.9429L67.0779 54.9553L67.0774 54.956L67.0771 54.9564L67.0769 54.9566L67.0766 54.957L67.0765 54.9572L66.9678 55.093V55.2684C66.9678 56.5403 66.247 57.8808 65.4593 58.9506C65.0728 59.4756 64.6853 59.9153 64.3943 60.2237C64.249 60.3776 64.1285 60.498 64.0451 60.5793C64.0035 60.6199 63.9711 60.6507 63.9496 60.6709L63.9258 60.6931L63.9204 60.6981L63.9195 60.6989L63.9193 60.6991L63.9193 60.6991L63.9193 60.6991L63.7846 60.8218L63.7605 61.0026L63.5687 62.4407L63.5185 62.8171L63.8677 62.9665L72.1587 66.5129C72.159 66.5131 72.1594 66.5132 72.1597 66.5133C73.6241 67.1475 74.4454 68.1721 74.9133 69.4604C75.3909 70.775 75.5005 72.3658 75.5005 74.1073V85.2559H42.9451V74.1073C42.9451 70.6588 43.7952 67.7787 46.7172 66.5134C46.7176 66.5132 46.7179 66.5131 46.7183 66.5129L55.0093 62.9665L55.3584 62.8171L55.3082 62.4407L55.1165 61.0026L55.0921 60.8194L54.9547 60.6964L54.9546 60.6963L54.9544 60.6962L54.9536 60.6954L54.9482 60.6906L54.9245 60.6688C54.9031 60.649 54.8708 60.6187 54.8292 60.5788C54.746 60.4988 54.6257 60.3802 54.4807 60.2283C54.19 59.9239 53.803 59.4891 53.4169 58.9676C52.6309 57.9059 51.9091 56.565 51.9091 55.2684V55.0899L51.7971 54.953L51.797 54.9528L51.7969 54.9528L51.7966 54.9524L51.7964 54.9521L51.7958 54.9513L51.7864 54.9393C51.7774 54.9276 51.7631 54.9086 51.7446 54.8828C51.7076 54.8312 51.6544 54.7532 51.5946 54.6533C51.474 54.452 51.3314 54.1709 51.2358 53.8452C51.0481 53.2062 51.0419 52.4223 51.729 51.6763Z" fill="white" stroke="white"/>
<path d="M37.4867 83.1672C37.4867 84.1442 36.6971 84.9682 35.6857 84.9682H35.6378C34.6608 84.9682 33.8369 84.1786 33.8369 83.1672V26.2668C33.8369 25.2487 34.6676 24.418 35.6857 24.418C36.6627 24.418 37.4867 25.2075 37.4867 26.2189V83.1672Z" fill="white" stroke="white"/>
<path d="M53.2096 26.2189V38.415C51.828 39.0967 50.5803 40.0321 49.5598 41.149V26.2189C49.5598 25.2075 50.3838 24.418 51.3608 24.418H51.4087C52.4201 24.418 53.2096 25.2419 53.2096 26.2189Z" fill="white" stroke="white"/>
<path d="M68.9806 26.2189V40.691C67.949 39.6686 66.7194 38.822 65.3308 38.2081V26.2189C65.3308 25.2075 66.1547 24.418 67.1318 24.418H67.1797C68.1911 24.418 68.9806 25.2419 68.9806 26.2189Z" fill="white" stroke="white"/>
<rect x="80.5276" y="23.8647" width="4.72418" height="61.6035" rx="2.36209" fill="white"/>
<defs>
<linearGradient id="paint0_linear_569_3361" x1="112.909" y1="1.41846" x2="-59.614" y2="11.4805" gradientUnits="userSpaceOnUse">
<stop offset="0.0552457" stop-color="#0F75FC"/>
<stop offset="1" stop-color="#0DF3A8"/>
</linearGradient>
<linearGradient id="paint1_linear_569_3361" x1="5.89444" y1="0.510989" x2="98.2351" y2="111.266" gradientUnits="userSpaceOnUse">
<stop stop-color="#ECD821"/>
<stop offset="0.515625" stop-color="#FA9703"/>
<stop offset="1" stop-color="#DA6330"/>
</linearGradient>
</defs>
</svg>
