<svg width="120" height="108" viewBox="0 0 120 108" fill="none" xmlns="http://www.w3.org/2000/svg">
<path d="M6.47632 55.2289C6.47632 26.5207 30.0438 -0.217414 61.6821 3.07497C90.3903 3.07497 102.333 13.1044 113.516 54.9092C113.516 74.2482 88.8603 110.176 61.6779 104.949C32.049 111.535 7.85513 75.8153 6.47632 55.2289Z" fill="url(#paint0_linear_740_1571)"/>
<path d="M31.7215 30.3869L4.25169 58.867L16.2495 77.132L29.6691 99.4398L53.2593 104.543L69.6356 101.12L92.4573 77.1321L90.9759 69.0669L92.4573 59.8495L86.0381 47.834L78.3965 40.0708V32.8619L63.3168 31.9459V32.8619L62.1271 29.2539L57.4661 30.9248L54.476 26.7915L31.7215 30.3869Z" fill="#071737"/>
<path d="M59.9017 106.957C53.3234 106.957 46.7761 106.957 40.1977 106.957C32.9367 106.957 27.5065 103.627 23.907 97.4348C17.5148 86.4506 11.2467 75.3419 4.85457 64.3577C0.913767 57.5742 0.727587 50.8841 4.73045 44.0696C11.3398 32.712 17.763 21.2299 24.4655 9.93451C27.8788 4.08456 33.278 1.1907 40.0426 1.15959C53.2613 1.09735 66.5111 1.12847 79.7299 1.15959C86.5565 1.1907 91.9867 4.08456 95.4621 9.96562C102.351 21.6344 109.084 33.3965 115.725 45.2209C118.952 50.9464 119.014 56.983 115.818 62.7396C111.07 71.2967 106.105 79.7293 101.234 88.1931C99.4339 91.3359 97.6342 94.4787 95.8034 97.5904C92.1419 103.751 86.7427 106.925 79.5748 106.925C73.0274 106.988 66.4491 106.957 59.9017 106.957ZM59.9017 100.795C66.5111 100.795 73.1205 100.795 79.7609 100.795C84.4464 100.795 88.0459 98.7417 90.4042 94.7276C96.8895 83.5878 103.22 72.3547 109.736 61.246C112.715 56.174 112.467 51.4754 109.519 46.4967C103.095 35.6369 96.8895 24.6216 90.5904 13.6996C88.2631 9.65446 84.8188 7.35182 80.1333 7.3207C66.6352 7.25847 53.1682 7.25847 39.6702 7.3207C35.1398 7.35182 31.6955 9.59222 29.4303 13.5129C23.0071 24.5905 16.708 35.7303 10.2228 46.7456C7.30594 51.7243 7.27491 56.3918 10.1917 61.3705C16.677 72.3858 22.9761 83.4945 29.3683 94.572C31.7265 98.6794 35.295 100.795 40.0426 100.826C46.683 100.795 53.2924 100.795 59.9017 100.795Z" fill="url(#paint1_linear_740_1571)"/>
<path d="M52.7783 48.0378C54.3177 45.6675 56.1748 43.6149 58.3007 41.9044C57.1278 41.9533 55.906 41.9777 54.6598 41.9777C44.1769 41.9777 35.2579 40.4138 32.008 38.2146C31.4704 37.8481 30.7129 38.2391 30.7129 38.8988V44.8367C30.7129 47.6712 39.7296 50.017 51.4343 50.3836C51.4343 50.3591 51.4587 50.3591 51.4587 50.3347C51.8497 49.5528 52.314 48.7953 52.7783 48.0378Z" fill="white"/>
<path d="M48.6977 59.9136C48.8443 58.1542 49.1864 56.4193 49.6996 54.7576C41.4648 54.3422 34.7694 52.9494 32.0571 51.1167C31.4951 50.7502 30.7375 51.1412 30.7375 51.8009V57.7388C30.7375 60.329 38.337 62.5282 48.6244 63.1635C48.6244 62.8703 48.6 62.577 48.6 62.2838C48.5756 61.5019 48.6244 60.6955 48.6977 59.9136Z" fill="white"/>
<path d="M50.3836 71.8628C50.237 71.4718 50.0904 71.0564 49.9437 70.6655C49.8704 70.47 49.7971 70.2501 49.7483 70.0546C49.5528 69.4437 49.3817 68.8084 49.2351 68.173C49.1862 67.9775 49.1618 67.8065 49.1129 67.611C41.1225 67.1712 34.6715 65.8028 32.008 63.9945C31.446 63.628 30.6885 64.019 30.6885 64.6787V70.6166C30.6885 73.5244 40.1695 75.9191 52.2896 76.1879C52.2896 76.0657 52.314 75.9436 52.3384 75.8214C52.1185 75.4548 51.923 75.1127 51.7031 74.7462C51.2388 73.8177 50.7746 72.8402 50.3836 71.8628Z" fill="white"/>
<path d="M54.6842 37.7019C67.9232 37.7019 78.6556 35.1966 78.6556 32.1061C78.6556 29.0157 67.9232 26.5104 54.6842 26.5104C41.4452 26.5104 30.7129 29.0157 30.7129 32.1061C30.7129 35.1966 41.4452 37.7019 54.6842 37.7019Z" fill="white"/>
<path fill-rule="evenodd" clip-rule="evenodd" d="M95.5162 51.9602L95.5161 51.9601L95.516 51.9599C95.4733 51.8744 95.4306 51.789 95.3939 51.7035C95.2229 51.3614 95.0518 51.0437 94.8564 50.7261C94.4898 50.0663 94.0744 49.4554 93.659 48.8445C93.6101 48.7712 93.5552 48.6979 93.5002 48.6246C93.4452 48.5513 93.3902 48.478 93.3413 48.4047C92.7793 47.6716 92.1929 46.9386 91.5331 46.2788L91.5329 46.2786L91.5328 46.2785L91.5328 46.2785L91.5327 46.2784C91.1419 45.8876 90.751 45.4967 90.3358 45.1059L90.3357 45.1058C89.9203 44.7393 89.5049 44.3728 89.0651 44.0307C88.9874 43.9724 88.9097 43.9124 88.8315 43.852C88.6147 43.6847 88.3945 43.5146 88.161 43.371C88.1073 43.3352 88.0536 43.2961 87.9988 43.2562L87.9987 43.2561L87.9986 43.256L87.9985 43.256C87.9036 43.1869 87.8051 43.1152 87.6967 43.0533C87.2324 42.7356 86.7682 42.4424 86.2795 42.1736C86.0434 42.0283 85.7938 41.8965 85.5508 41.7682L85.5505 41.7681C85.4666 41.7238 85.3835 41.6799 85.302 41.636C84.8133 41.3917 84.3002 41.1473 83.7626 40.9274C80.9769 39.7545 77.9225 39.0947 74.7214 39.0947H74.6481C66.511 39.1192 59.3758 43.3221 55.2462 49.6754C54.8308 50.3351 54.4154 51.0193 54.0733 51.7035C52.7538 54.2937 51.8985 57.1527 51.6053 60.1827C51.532 60.8669 51.5076 61.5755 51.5076 62.2841C51.5076 63.4815 51.6053 64.6544 51.7764 65.8273C51.8741 66.4137 51.9718 66.9758 52.094 67.5378C52.2162 68.0998 52.3628 68.6618 52.5339 69.1994C52.5583 69.2849 52.5888 69.3765 52.6194 69.4682L52.6194 69.4682L52.6194 69.4682C52.6499 69.5599 52.6805 69.6515 52.7049 69.737C52.8271 70.1035 52.9493 70.4456 53.0959 70.8122C53.438 71.6918 53.829 72.5471 54.2932 73.3535C54.4643 73.6711 54.6598 74.0132 54.8552 74.3309C54.953 74.5019 55.0507 74.6486 55.1485 74.7952C55.2867 75.0197 55.4371 75.2321 55.591 75.4495L55.5911 75.4495L55.5913 75.4498L55.5922 75.4511L55.5923 75.4513C55.6558 75.5408 55.7198 75.6312 55.7838 75.7237C55.8327 75.797 55.8877 75.8703 55.9426 75.9436L55.9427 75.9437C55.9977 76.017 56.0526 76.0903 56.1015 76.1636C56.6635 76.8966 57.2499 77.6297 57.9097 78.2895C58.6672 79.0958 59.498 79.8533 60.3777 80.5375L60.3778 80.5376C60.8176 80.8797 61.2574 81.2218 61.7217 81.515C62.0393 81.7349 62.3325 81.9304 62.6746 82.1259C62.7952 82.1947 62.9096 82.2636 63.0223 82.3314L63.0226 82.3316L63.0229 82.3318L63.0232 82.3319C63.23 82.4564 63.4308 82.5772 63.6521 82.6879C64.1408 82.9567 64.6539 83.201 65.1671 83.4454C68.0749 84.7649 71.3249 85.498 74.7214 85.498C77.9225 85.498 80.9769 84.8382 83.7626 83.6653C84.0069 83.5676 84.2757 83.4454 84.5201 83.3232C84.9598 83.1278 85.3752 82.9079 85.7905 82.688L85.7905 82.688L85.7906 82.6879L85.7907 82.6879L85.7907 82.6879L85.7908 82.6878C86.0596 82.5412 86.3284 82.3946 86.5727 82.2236C86.9636 82.0037 87.33 81.7594 87.6964 81.5152L87.6965 81.5151L87.6966 81.5151L87.6967 81.515L87.6967 81.515C88.161 81.1973 88.6008 80.8796 89.0407 80.5375C89.4804 80.1955 89.8957 79.8291 90.311 79.4627L90.3111 79.4626L90.3111 79.4625L90.3112 79.4625L90.3113 79.4624C90.7267 79.0958 91.1177 78.7049 91.5087 78.2895C92.144 77.6297 92.7549 76.8966 93.3169 76.1636C93.439 76.017 93.5367 75.8705 93.6344 75.724L93.6344 75.7239L93.6345 75.7239L93.6345 75.7238L93.6346 75.7237C94.0255 75.1617 94.3921 74.5997 94.7342 74.0132C94.8075 73.8911 94.8808 73.7689 94.9297 73.6467L95.3695 72.8403C95.4062 72.7548 95.4489 72.6693 95.4917 72.5837C95.5344 72.4982 95.5772 72.4127 95.6139 72.3272C97.08 69.2727 97.9108 65.8762 97.9108 62.2597C97.9352 58.6677 97.1044 55.2467 95.6383 52.2167C95.6017 52.1312 95.5589 52.0457 95.5162 51.9602ZM65.9526 76.3095C66.2795 76.4964 66.5597 76.5898 66.8867 76.5898C67.4938 76.5898 68.0542 76.3095 68.3812 75.7958L83.98 50.7162C84.4938 49.9222 84.2135 48.8481 83.4196 48.3343C82.6256 47.8206 81.5515 48.1008 81.0377 48.8948L65.3922 73.9277C64.8784 74.7216 65.1586 75.7958 65.9526 76.3095ZM65.9058 63.1635C62.5899 63.1635 59.8811 60.1278 59.8811 56.3449C59.8811 52.5619 62.5899 49.4328 65.9058 49.4328C69.2218 49.4328 71.7905 52.4685 71.7905 56.3449C71.7905 60.1745 69.2218 63.1635 65.9058 63.1635ZM65.9058 52.8888C64.5048 52.8888 63.3372 54.4767 63.3372 56.3449C63.3372 58.213 64.458 59.7075 65.9058 59.7075C67.2602 59.7075 68.3344 58.213 68.3344 56.3449C68.3344 54.4767 67.2135 52.8888 65.9058 52.8888ZM77.4883 68.0669C77.4883 71.8032 80.1971 74.8856 83.513 74.8856C86.8289 74.8856 89.5377 71.8032 89.5377 68.0669C89.5377 64.2839 86.8289 61.1548 83.513 61.1548C80.1971 61.1548 77.4883 64.2372 77.4883 68.0669ZM80.9443 68.0202C80.9443 66.1521 82.1119 64.5642 83.513 64.5642C84.9141 64.5642 86.035 66.1521 86.0817 68.0202C86.0817 69.8883 84.9141 71.3828 83.513 71.3828C82.0652 71.3828 80.9443 69.8883 80.9443 68.0202Z" fill="white"/>
<defs>
<linearGradient id="paint0_linear_740_1571" x1="113.429" y1="2.79944" x2="-59.0719" y2="13.0488" gradientUnits="userSpaceOnUse">
<stop offset="0.0552457" stop-color="#0F75FC"/>
<stop offset="1" stop-color="#0DF3A8"/>
</linearGradient>
<linearGradient id="paint1_linear_740_1571" x1="7.31082" y1="1.12366" x2="99.6515" y2="111.878" gradientUnits="userSpaceOnUse">
<stop stop-color="#ECD821"/>
<stop offset="0.515625" stop-color="#FA9703"/>
<stop offset="1" stop-color="#DA6330"/>
</linearGradient>
</defs>
</svg>
