<svg width="118" height="106" viewBox="0 0 118 106" fill="none" xmlns="http://www.w3.org/2000/svg">
<path d="M5.95639 53.586C5.95644 26.7798 29.5238 -1.86035 61.1621 1.43203C89.8703 1.43203 105.601 22.7317 112.996 53.2663C112.996 72.6053 88.3445 110.328 61.1621 105.1C31.5679 109.93 5.95634 78.5175 5.95639 53.586Z" fill="url(#paint0_linear_569_3188)"/>
<path d="M7.15184 60.4216L2.85776 49.1126L3.84301 58.8823L9.72565 68.6834L21.4192 89.3625L33.6051 102.779H56.8691L92.4368 67.6462L93.6822 61.2852L95.3578 55.4385L93.6822 51.9592L95.3578 46.1169L88.2246 47.7085L93.6822 42.7715L95.3578 36.5498L81.7659 33.3871L66.0547 36.5498L49.7533 45.462L61.9452 37.8192L58.1782 22.751L8.00798 60.4216L7.15184 60.4216Z" fill="#071737"/>
<path d="M58.9109 105.919C52.3325 105.919 45.7852 105.919 39.2069 105.919C31.9459 105.919 26.5156 102.589 22.9161 96.3971C16.524 85.4128 10.2559 74.3042 3.86373 63.32C-0.0770777 56.5365 -0.263258 49.8464 3.73961 43.0319C10.349 31.6742 16.7722 20.1922 23.4747 8.89679C26.888 3.04684 32.2872 0.152985 39.0517 0.121868C52.2705 0.0596345 65.5203 0.0907513 78.7391 0.121868C85.5657 0.152985 90.9959 3.04684 94.4712 8.92791C101.36 20.5967 108.093 32.3588 114.734 44.1832C117.961 49.9086 118.023 55.9453 114.827 61.7019C110.079 70.259 105.115 78.6916 100.243 87.1554C98.4431 90.2982 96.6433 93.441 94.8126 96.5526C91.151 102.714 85.7518 105.888 78.5839 105.888C72.0366 105.95 65.4582 105.919 58.9109 105.919ZM58.9109 99.7577C65.5203 99.7577 72.1297 99.7577 78.7701 99.7577C83.4556 99.7577 87.0551 97.704 89.4134 93.6899C95.8986 82.5501 102.229 71.317 108.745 60.2083C111.724 55.1363 111.476 50.4376 108.528 45.459C102.105 34.5992 95.8986 23.5839 89.5995 12.6619C87.2723 8.61674 83.828 6.3141 79.1424 6.28298C65.6444 6.22075 52.1774 6.22075 38.6794 6.28298C34.149 6.3141 30.7047 8.5545 28.4395 12.4752C22.0163 23.5528 15.7172 34.6926 9.23191 45.7079C6.3151 50.6866 6.28407 55.3541 9.20088 60.3328C15.6861 71.3481 21.9852 82.4568 28.3774 93.5343C30.7357 97.6417 34.3041 99.7577 39.0517 99.7888C45.6921 99.7577 52.3015 99.7577 58.9109 99.7577Z" fill="url(#paint1_linear_569_3188)"/>
<path d="M87.6273 61.8441C87.0031 61.3476 86.2228 61.1064 85.4425 61.1064C84.6339 61.1064 83.8252 61.376 83.201 61.9009C81.6546 63.1635 80.9594 63.6601 79.9947 64.0573C79.2854 64.3552 78.4483 64.6248 77.0438 65.1213C73.7241 66.2988 70.1773 66.9515 66.5596 66.994L59.2533 67.0791C59.0264 67.0791 58.998 66.7812 59.225 66.7386L69.8226 65.1213C70.8157 64.9653 71.6244 64.3552 71.9791 63.504C72.0926 63.2061 72.1493 62.9082 72.1493 62.6244C72.1493 61.2483 70.8867 60.0282 69.2268 60.0991L55.437 60.6241C52.5713 60.7376 49.7197 61.0922 46.939 61.7023C45.1373 62.0995 43.3639 62.5819 41.6331 63.1777C41.6473 63.2912 41.6473 63.4047 41.6473 63.5324V79.9609H55.437C58.8987 79.9609 64.389 78.6557 68.5033 77.5349C74.7739 75.8183 77.6539 74.7827 82.4916 70.7819C82.6477 70.6543 82.7895 70.5408 82.9314 70.4131L87.7124 66.3556C89.1737 65.1071 89.1169 63.0075 87.6273 61.8441Z" fill="white"/>
<path d="M33.8303 65.5614C32.9649 65.5614 32.2697 64.8663 32.2697 64.0008C32.2697 63.1354 32.9649 62.4403 33.8303 62.4403C34.6957 62.4403 35.3909 63.1354 35.3909 64.0008C35.3909 64.8663 34.6815 65.5614 33.8303 65.5614ZM35.1071 78.2304C35.1071 78.9397 34.5254 79.5214 33.8161 79.5214C33.1067 79.5214 32.5251 78.9397 32.5251 78.2304V68.9521C32.5251 68.2428 33.1067 67.6611 33.8161 67.6611C34.5254 67.6611 35.1071 68.2428 35.1071 68.9521V78.2304ZM37.7175 60.4541H30.5957C29.8437 60.4541 29.2337 61.0641 29.2337 61.8161V80.3159C29.2337 81.0678 29.8437 81.6778 30.5957 81.6778H37.7175C38.4694 81.6778 39.0795 81.0678 39.0795 80.3159V79.947V62.4545V61.8161C39.0795 61.0641 38.4694 60.4541 37.7175 60.4541Z" fill="white"/>
<path d="M79.5832 36.5914C80.8174 36.5205 82.0233 36.18 83.1157 35.5841C84.3358 34.9173 85.3714 33.9101 86.095 32.7184C86.8185 31.5408 84.96 30.4626 84.2507 31.6402C83.215 33.3426 81.2714 34.4208 79.342 34.4634C78.1361 34.4917 77.0011 34.0519 75.852 33.6973C74.4758 33.2858 73.0713 33.0872 71.6385 33.2291C70.8156 33.3142 69.9928 33.4703 69.1983 33.6689C70.1914 31.5125 71.5391 28.1076 71.8371 25.0148C71.9648 23.6387 70.9859 22.3761 69.6239 22.2484C68.9855 22.1916 68.3754 22.3902 68.1059 23.1847C67.354 25.3269 67.4817 24.8162 67.4817 24.8162C67.4817 24.8162 67.0277 22.8017 65.2259 22.2342H65.2543C65.1976 22.22 65.1408 22.2058 65.0841 22.1916C64.8145 22.1207 64.5166 22.0781 64.1761 22.0781C63.8498 22.0781 63.5377 22.1065 63.2681 22.1916C63.2114 22.2058 63.1546 22.22 63.0979 22.2342H63.1263C61.3245 22.8017 60.9131 24.8162 60.9131 24.8162C60.9131 24.8162 61.0408 25.3128 60.2889 23.1847C60.0051 22.3902 59.4093 22.1774 58.7709 22.2484C57.3947 22.3761 56.43 23.6387 56.5577 25.0148C56.9266 29.0014 59.083 33.527 59.9484 35.2153C51.8476 38.1236 45.8181 48.7071 45.8181 57.4179C45.8181 58.0705 45.8465 58.6947 45.9175 59.2906C46.0735 59.2622 46.2296 59.2196 46.3856 59.1913C49.3081 58.5529 52.33 58.1698 55.3376 58.0563L69.1274 57.5314C69.1983 57.5314 69.2834 57.5314 69.3543 57.5314C72.3194 57.5314 74.717 59.8155 74.717 62.6387C74.717 62.8231 74.7028 63.0076 74.6887 63.2062C75.1852 63.0501 75.6817 62.8941 76.1783 62.7238C76.6748 62.5394 77.1004 62.3975 77.4693 62.2698C78.1219 62.0429 78.6043 61.8726 78.9873 61.7165C79.5974 61.4612 80.0939 61.1491 81.5693 59.929C81.9098 59.6452 82.2929 59.4041 82.6901 59.2055C82.7469 58.638 82.7752 58.0563 82.7752 57.4321C82.7752 49.7569 78.1077 40.6347 71.4398 36.5772C71.4682 36.5772 71.4824 36.5914 71.5108 36.5914C72.8585 36.8893 74.0077 37.4284 75.1143 38.2513C76.2208 39.0741 77.2565 39.9112 78.5617 40.4077C79.796 40.8617 81.1579 40.961 82.4489 40.7766C83.9102 40.5779 85.2438 39.9537 86.3929 39.0316C86.8469 38.6627 86.776 37.8966 86.3929 37.5136C85.9531 37.0738 85.3289 37.1447 84.8749 37.5136C83.2718 38.8046 80.8742 39.1025 78.9447 38.2797C77.8949 37.8257 76.8734 36.9035 75.8804 36.1942C75.6817 36.0523 75.4689 35.9104 75.2561 35.7827C75.3838 35.8253 75.5115 35.8679 75.6392 35.8962C76.916 36.2793 78.2212 36.6765 79.5832 36.5914Z" fill="white"/>
<defs>
<linearGradient id="paint0_linear_569_3188" x1="112.909" y1="1.17261" x2="-59.6089" y2="11.2781" gradientUnits="userSpaceOnUse">
<stop offset="0.0552457" stop-color="#0F75FC"/>
<stop offset="1" stop-color="#0DF3A8"/>
</linearGradient>
<linearGradient id="paint1_linear_569_3188" x1="6.31997" y1="0.08594" x2="98.6606" y2="110.841" gradientUnits="userSpaceOnUse">
<stop stop-color="#ECD821"/>
<stop offset="0.515625" stop-color="#FA9703"/>
<stop offset="1" stop-color="#DA6330"/>
</linearGradient>
</defs>
</svg>
