<svg width="120" height="108" viewBox="0 0 120 108" fill="none" xmlns="http://www.w3.org/2000/svg">
<path d="M7.10107 54.2289C7.10107 25.5207 30.6685 -1.21741 62.3068 2.07497C91.015 2.07497 102.958 12.1044 114.141 53.9092C114.141 73.2482 89.485 109.176 62.3027 103.949C32.6738 110.535 8.47988 74.8153 7.10107 54.2289Z" fill="url(#paint0_linear_740_1597)"/>
<path d="M38.814 27.5149L8.25513 58.9707L16.8744 76.132L30.294 98.4397L53.8842 103.543L66.5479 100.659L89.7945 76.4385L90.2657 67.8402L81.7814 60.8955V46.4462L80.881 35.925V31.6372L76.5052 26.9009L67.8713 35.7398L62.7519 34.6538V28.2539L56.7822 23.7177L44.8341 35.9677L43.7342 35.8718V31.2037L41.2909 27.8971L38.814 27.5149Z" fill="#071737"/>
<path d="M59.6557 106.581C53.0773 106.581 46.53 106.581 39.9516 106.581C32.6906 106.581 27.2604 103.252 23.6609 97.0593C17.2687 86.0751 11.0007 74.9664 4.60848 63.9822C0.667673 57.1987 0.481493 50.5086 4.48436 43.6941C11.0937 32.3365 17.5169 20.8544 24.2194 9.55902C27.6327 3.70907 33.0319 0.815216 39.7965 0.784099C53.0152 0.721866 66.265 0.752983 79.4838 0.784099C86.3104 0.815216 91.7406 3.70907 95.216 9.59014C102.105 21.2589 108.838 33.021 115.479 44.8454C118.706 50.5709 118.768 56.6075 115.572 62.3641C110.824 70.9212 105.859 79.3539 100.988 87.8176C99.1878 90.9604 97.3881 94.1032 95.5573 97.2149C91.8958 103.376 86.4966 106.55 79.3287 106.55C72.7813 106.612 66.203 106.581 59.6557 106.581ZM59.6557 100.42C66.265 100.42 72.8744 100.42 79.5148 100.42C84.2004 100.42 87.7998 98.3662 90.1581 94.3521C96.6434 83.2123 102.973 71.9792 109.49 60.8705C112.469 55.7985 112.22 51.0999 109.273 46.1212C102.849 35.2614 96.6434 24.2461 90.3443 13.3241C88.017 9.27897 84.5727 6.97633 79.8872 6.94521C66.3892 6.88298 52.9221 6.88298 39.4241 6.94521C34.8937 6.97633 31.4494 9.21673 29.1842 13.1374C22.761 24.215 16.4619 35.3548 9.97666 46.3701C7.05985 51.3488 7.02882 56.0163 9.94563 60.995C16.4309 72.0103 22.73 83.119 29.1222 94.1965C31.4804 98.304 35.0489 100.42 39.7965 100.451C46.4369 100.42 53.0463 100.42 59.6557 100.42Z" fill="url(#paint1_linear_740_1597)"/>
<path d="M56.0614 29.1293C56.1229 29.1293 56.1844 29.1293 56.1844 29.1293C56.3074 31.0353 57.8445 33.3102 59.7504 33.3102C61.6564 33.2487 63.1935 31.0353 63.3165 29.1293C63.3779 29.1293 63.4394 29.1293 63.4394 29.1293C63.6854 29.1293 63.9313 28.9449 63.9313 28.6375V27.5308C63.9313 27.2848 63.7469 27.1004 63.5009 27.1004C63.6854 26.3011 63.9928 24.4566 62.8861 23.5344C62.3327 23.0425 61.8409 23.227 61.8409 23.227C61.8409 23.227 61.226 22.3047 59.7504 22.4277C58.3363 22.5506 55.3851 23.227 56 27.0389C55.754 27.0389 55.5696 27.2848 55.5696 27.4693V28.576C55.5696 28.8834 55.754 29.1293 56.0614 29.1293Z" fill="white"/>
<path d="M53.2948 56.4279H54.217V76.5944C54.217 77.8241 55.2008 78.7464 56.3689 78.7464H63.1321C64.3618 78.7464 65.284 77.7626 65.284 76.5944V56.4279H66.2063C67.4359 56.4279 68.3582 55.4442 68.3582 54.276V36.6918C68.3582 35.4622 67.3744 34.5399 66.2063 34.5399H62.9476L59.7505 41.8564L56.5534 34.5399H53.2948C52.0651 34.5399 51.1429 35.5236 51.1429 36.6918V54.276C51.0814 55.4442 52.0651 56.4279 53.2948 56.4279Z" fill="white"/>
<path d="M38.3543 31.5271C38.4157 31.5271 38.4157 31.5271 38.4772 31.5271C38.6002 33.0027 39.7684 34.7857 41.244 34.7857C42.7196 34.7857 43.8877 33.0027 44.0107 31.5271C44.0722 31.5271 44.0722 31.5271 44.1337 31.5271C44.3181 31.5271 44.5026 31.3426 44.5026 31.1582V30.2974C44.5026 30.113 44.3181 29.9285 44.1337 29.9285C44.2566 29.3137 44.5026 27.8996 43.7033 27.1618C43.2729 26.7929 42.904 26.9158 42.904 26.9158C42.904 26.9158 42.3507 26.301 41.244 26.3625C40.1373 26.424 37.8624 26.9773 38.2928 29.9285C38.1083 29.9285 37.9854 30.113 37.9854 30.2974V31.1582C37.9854 31.4041 38.1698 31.5271 38.3543 31.5271Z" fill="white"/>
<path d="M36.2023 52.7388H36.8786V68.3555C36.8786 69.2778 37.6164 70.0156 38.5386 70.0156H43.7647C44.687 70.0156 45.4248 69.2778 45.4248 68.3555V52.7388H46.1011C47.0233 52.7388 47.7611 52.001 47.7611 51.0787V37.4295C47.7611 36.5072 47.0233 35.7694 46.1011 35.7694H43.5803L41.0595 41.4259L38.5386 35.7694H36.2023C35.28 35.7694 34.5422 36.5072 34.5422 37.4295V51.0172C34.5422 51.9395 35.28 52.7388 36.2023 52.7388Z" fill="white"/>
<path d="M75.3672 31.5272C75.4287 31.5272 75.4287 31.5272 75.4902 31.5272C75.6131 33.0028 76.7813 34.7858 78.2569 34.7858C79.7325 34.7858 80.9007 33.0028 81.0236 31.5272C81.0851 31.5272 81.0851 31.5272 81.1466 31.5272C81.3311 31.5272 81.5155 31.3427 81.5155 31.1583V30.2975C81.5155 30.1131 81.3311 29.9286 81.1466 29.9286C81.2696 29.3138 81.5155 27.8997 80.7162 27.1619C80.2859 26.793 79.9169 26.9159 79.9169 26.9159C79.9169 26.9159 79.4251 26.2396 78.2569 26.3626C77.1502 26.4241 74.8753 26.9774 75.3057 29.9286C75.1213 29.9286 74.9983 30.1131 74.9983 30.2975V31.1583C74.9983 31.4042 75.1827 31.5272 75.3672 31.5272Z" fill="white"/>
<path d="M73.2153 52.7388H73.8917V68.3555C73.8917 69.2778 74.6295 70.0156 75.5517 70.0156H80.7778C81.7 70.0156 82.4378 69.2778 82.4378 68.3555V52.7388H83.1141C84.0364 52.7388 84.7742 52.001 84.7742 51.0787V37.4295C84.7742 36.5072 84.0364 35.7694 83.1141 35.7694H80.5933L78.0725 41.4259L75.5517 35.7694H73.0309C72.1087 35.7694 71.3708 36.5072 71.3708 37.4295V51.0172C71.5553 51.9395 72.2931 52.7388 73.2153 52.7388Z" fill="white"/>
<path d="M59.7502 85.0175C41.7356 85.0175 27.5945 79.1151 27.5945 71.4912C27.5945 69.1548 28.9471 66.8799 31.5909 64.851C32.0828 64.4821 32.7591 64.6051 33.128 65.0354C33.4969 65.5273 33.3739 66.2036 32.9435 66.5725C31.5294 67.6792 29.8079 69.4008 29.8079 71.4912C29.8079 76.9632 41.8586 82.8041 59.7502 82.8041C77.7033 82.8041 89.6925 76.9632 89.6925 71.4912C89.6925 69.0933 87.5406 67.1874 85.7576 66.0192C85.2657 65.7118 85.1428 65.0354 85.4502 64.4821C85.7576 63.9902 86.4339 63.8673 86.9873 64.1747C90.1844 66.3266 91.9059 68.8474 91.9059 71.4912C91.9059 79.1151 77.7648 85.0175 59.7502 85.0175Z" fill="white"/>
<path d="M32.9434 69.3394H32.882C32.2671 69.278 31.8367 68.7861 31.8982 68.1713L32.0827 66.0193L29.3159 66.0808C28.7011 66.0808 28.2092 65.589 28.2092 65.0356C28.2092 64.4208 28.7011 63.9289 29.2544 63.9289L34.419 63.8674L34.1116 68.4172C33.9887 68.9091 33.4968 69.3394 32.9434 69.3394Z" fill="white"/>
<defs>
<linearGradient id="paint0_linear_740_1597" x1="114.054" y1="1.79944" x2="-58.4472" y2="12.0488" gradientUnits="userSpaceOnUse">
<stop offset="0.0552457" stop-color="#0F75FC"/>
<stop offset="1" stop-color="#0DF3A8"/>
</linearGradient>
<linearGradient id="paint1_linear_740_1597" x1="7.06472" y1="0.748171" x2="99.4054" y2="111.503" gradientUnits="userSpaceOnUse">
<stop stop-color="#ECD821"/>
<stop offset="0.515625" stop-color="#FA9703"/>
<stop offset="1" stop-color="#DA6330"/>
</linearGradient>
</defs>
</svg>
