<svg width="118" height="107" viewBox="0 0 118 107" fill="none" xmlns="http://www.w3.org/2000/svg">
<path d="M6.25951 54.3103C6.25951 25.6021 29.827 -1.13599 61.4653 2.15639C90.1734 2.15639 105.904 23.4561 113.299 53.9906C113.299 73.3296 88.6476 111.053 61.4653 105.825C31.8364 112.411 6.25951 83.0185 6.25951 54.3103Z" fill="url(#paint0_linear_731_3202)"/>
<path d="M57.1936 17.7941L9.38012 65.2335L12.9856 79.3382L29.4523 98.5212L53.0425 103.624L69.4188 100.202L82.1808 87.3844L80.2879 68.2108L76.0746 63.6311L76.6927 60.4746L76.4537 59.7813L75.2159 54.4084L72.2844 37.374L68.2939 33.2569L63.0999 31.0273V31.9434L70.5109 24.4525L64.2084 23.2826L62.6334 19.5813L57.1936 17.7941Z" fill="#071737"/>
<path d="M58.7667 106.643C52.1884 106.643 45.6411 106.643 39.0627 106.643C31.8017 106.643 26.3714 103.314 22.772 97.1214C16.3798 86.1372 10.1117 75.0285 3.71956 64.0443C-0.221243 57.2609 -0.407423 50.5708 3.59544 43.7562C10.2048 32.3986 16.628 20.9165 23.3305 9.62115C26.7438 3.77121 32.143 0.87735 38.9076 0.846233C52.1263 0.784 65.3761 0.815117 78.5949 0.846233C85.4215 0.87735 90.8517 3.77121 94.3271 9.65227C101.216 21.321 107.949 33.0832 114.59 44.9075C117.817 50.633 117.879 56.6697 114.683 62.4263C109.935 70.9834 104.97 79.416 100.099 87.8797C98.2989 91.0225 96.4992 94.1653 94.6684 97.277C91.0069 103.438 85.6077 106.612 78.4397 106.612C71.8924 106.674 65.3141 106.643 58.7667 106.643ZM58.7667 100.482C65.3761 100.482 71.9855 100.482 78.6259 100.482C83.3114 100.482 86.9109 98.4283 89.2692 94.4143C95.7545 83.2745 102.085 72.0413 108.601 60.9327C111.58 55.8606 111.332 51.162 108.384 46.1833C101.96 35.3236 95.7545 24.3083 89.4554 13.3863C87.1281 9.3411 83.6838 7.03846 78.9983 7.00735C65.5002 6.94511 52.0332 6.94511 38.5352 7.00735C34.0048 7.03846 30.5605 9.27887 28.2953 13.1996C21.8721 24.2771 15.573 35.4169 9.08775 46.4323C6.17093 51.4109 6.1399 56.0784 9.05672 61.0571C15.542 72.0724 21.8411 83.1811 28.2332 94.2587C30.5915 98.3661 34.16 100.482 38.9076 100.513C45.548 100.482 52.1573 100.482 58.7667 100.482Z" fill="url(#paint1_linear_731_3202)"/>
<path d="M70.5534 24.0505L64.968 23.2558C64.968 23.2558 63.5464 19.0919 62.8413 17.8494C62.2816 16.3943 61.3526 16.3384 60.8041 16.4279L59.2147 17.3122C58.6662 16.4167 57.088 15.8011 56.6402 16.5175C56.3716 16.7861 54.6031 23.7818 54.6031 23.7818C54.6031 23.7818 49.6333 24.4758 49.6333 25.2817C49.6333 26.0652 55.1515 25.8302 55.3978 25.819C56.1477 28.2479 57.7484 30.3075 60.6698 30.2403C63.0651 30.0724 64.218 28.2031 64.7105 25.4832C67.3857 25.2929 69.0982 25.0467 70.2064 24.8452C70.7996 24.6437 70.9227 24.3863 70.5534 24.0505Z" fill="white"/>
<path d="M76.508 59.8911L74.0679 40.2695C72.9822 37.2249 71.8741 34.3259 70.3854 33.4305L63.2105 30.509H60.1996H57.1886L50.0138 33.4305C48.5363 34.3259 47.417 37.2249 46.3312 40.2695L43.8911 59.8911L48.3684 60.115L50.2265 42.9223L50.0026 61.8835L51.7263 62.5439L53.5956 90.068L58.778 89.9336L58.3751 62.2753L60.1884 62.029L62.0017 62.2753L61.5987 89.9336L66.7812 90.068L68.6616 62.5439L70.3854 61.8835L70.1615 42.9223L72.0196 60.115L76.508 59.8911Z" fill="white"/>
<path d="M50.2153 87.0122C50.2153 87.6278 49.7228 88.1203 49.1072 88.1203H38.9214C38.3057 88.1203 37.8132 87.6278 37.8132 87.0122V64.5923C37.8132 63.9766 38.3057 63.4841 38.9214 63.4841H49.1183C49.734 63.4841 50.2265 63.9766 50.2265 64.5923V87.0122H50.2153Z" fill="white"/>
<path d="M82.3061 87.0122C82.3061 87.6278 81.8136 88.1203 81.1979 88.1203H71.0009C70.3853 88.1203 69.8928 87.6278 69.8928 87.0122V64.5923C69.8928 63.9766 70.3853 63.4841 71.0009 63.4841H81.1979C81.8136 63.4841 82.3061 63.9766 82.3061 64.5923V87.0122Z" fill="white"/>
<path d="M43.7344 60.3723C43.7344 60.4171 43.7232 60.4619 43.7232 60.5066C43.6561 61.7827 44.6299 62.8572 45.9059 62.9244C47.1819 62.9915 48.2565 62.0177 48.3236 60.7417C48.3236 60.6969 48.3236 60.6521 48.3236 60.6074L43.7344 60.3723Z" fill="white"/>
<path d="M76.7208 60.3276C76.7208 60.3724 76.732 60.4172 76.732 60.462C76.7991 61.738 75.8253 62.8125 74.5493 62.8797C73.2733 62.9468 72.1988 61.973 72.1316 60.697C72.1316 60.6522 72.1316 60.6075 72.1316 60.5627L76.7208 60.3276Z" fill="white"/>
<defs>
<linearGradient id="paint0_linear_731_3202" x1="113.212" y1="1.88086" x2="-59.3109" y2="11.9429" gradientUnits="userSpaceOnUse">
<stop offset="0.0552457" stop-color="#0F75FC"/>
<stop offset="1" stop-color="#0DF3A8"/>
</linearGradient>
<linearGradient id="paint1_linear_731_3202" x1="6.17581" y1="0.810305" x2="98.5165" y2="111.565" gradientUnits="userSpaceOnUse">
<stop stop-color="#ECD821"/>
<stop offset="0.515625" stop-color="#FA9703"/>
<stop offset="1" stop-color="#DA6330"/>
</linearGradient>
</defs>
</svg>
