<svg width="118" height="107" viewBox="0 0 118 107" fill="none" xmlns="http://www.w3.org/2000/svg">
<path d="M5.44637 53.1094C5.44637 31.6464 29.0138 -2.33688 60.6521 0.955501C89.3603 0.955501 105.091 22.2552 112.486 52.7897C112.486 72.1287 87.8345 109.852 60.6521 104.624C31.0232 111.21 5.44637 75.598 5.44637 53.1094Z" fill="url(#paint0_linear_569_3321)"/>
<path d="M32.1772 45.1007L10.5798 66.8536L12.526 73.8899L25.6612 95.8169L48.1082 105.424L65.4049 105.047L89.9228 80.1184V76.6884V70.5597L79.318 59.5644V54.3308L78.8483 51.9216L85.3843 45.5317L73.1401 34.498L69.5958 31.8171L59.6852 23.2007L53.3393 28.9579L32.1772 45.1007Z" fill="#071737"/>
<path d="M58.8955 106.117C52.3172 106.117 45.7698 106.117 39.1915 106.117C31.9305 106.117 26.5002 102.787 22.9008 96.5948C16.5086 85.6106 10.2405 74.5019 3.84835 63.5177C-0.0924586 56.7343 -0.278639 50.0442 3.72423 43.2296C10.3336 31.872 16.7568 20.3899 23.4593 9.09454C26.8726 3.2446 32.2718 0.350739 39.0363 0.319622C52.2551 0.257388 65.5049 0.288505 78.7237 0.319622C85.5503 0.350739 90.9805 3.2446 94.4559 9.12566C101.345 20.7944 108.078 32.5566 114.718 44.3809C117.946 50.1064 118.008 56.1431 114.812 61.8996C110.064 70.4568 105.099 78.8894 100.227 87.3531C98.4277 90.4959 96.628 93.6387 94.7972 96.7504C91.1357 102.912 85.7364 106.085 78.5685 106.085C72.0212 106.148 65.4428 106.117 58.8955 106.117ZM58.8955 99.9554C65.5049 99.9554 72.1143 99.9554 78.7547 99.9554C83.4402 99.9554 87.0397 97.9017 89.398 93.8877C95.8832 82.7479 102.213 71.5147 108.73 60.406C111.709 55.334 111.46 50.6354 108.512 45.6567C102.089 34.797 95.8832 23.7816 89.5842 12.8597C87.2569 8.81449 83.8126 6.51185 79.1271 6.48074C65.629 6.4185 52.162 6.4185 38.664 6.48074C34.1336 6.51185 30.6893 8.75226 28.4241 12.673C22.0009 23.7505 15.7018 34.8903 9.21653 45.9056C6.29972 50.8843 6.26869 55.5518 9.1855 60.5305C15.6708 71.5458 21.9699 82.6545 28.362 93.7321C30.7203 97.8395 34.2888 99.9554 39.0363 99.9865C45.6767 99.9554 52.2861 99.9554 58.8955 99.9554Z" fill="url(#paint1_linear_569_3321)"/>
<path d="M46.1057 58.8242C47.3704 59.7389 49.2093 59.7389 50.474 58.8242L50.5406 58.7747V43.6692H67.3399V58.7088L67.498 58.8242C68.7627 59.7389 70.6016 59.7389 71.8663 58.8242L76.0433 55.7998C77.0501 55.0663 78.2233 54.6213 79.4214 54.473V43.7434L83.3904 47.666L85.9698 45.1031L58.9361 18.3945L31.9107 45.1031L34.4901 47.666L38.459 43.7434V54.4565C39.6905 54.5966 40.897 55.0416 41.9287 55.7998L46.1057 58.8242Z" fill="white"/>
<path d="M41.9287 67.9221L46.1057 70.9465C47.3704 71.8612 49.2093 71.8612 50.474 70.9465L54.6509 67.9221C57.2054 66.0679 60.7749 66.0679 63.3293 67.9221L67.5063 70.9465C68.771 71.8612 70.6099 71.8612 71.8746 70.9465L76.0516 67.9221C78.606 66.0679 82.1756 66.0679 84.73 67.9221L90.155 71.853V63.9088L90.0136 64.1066L82.5749 58.7171C81.3102 57.8023 79.4714 57.8023 78.2066 58.7171L74.0213 61.7414C71.4669 63.5956 67.8974 63.5956 65.3429 61.7414L61.166 58.7171C59.9013 57.8023 58.0624 57.8023 56.7977 58.7171L52.629 61.7414C50.0746 63.5956 46.5051 63.5956 43.9506 61.7414L39.7737 58.7171C38.5089 57.8023 36.6701 57.8023 35.4053 58.7171L27.975 64.1066L27.8253 63.9088V71.853L33.2503 67.9221C35.8047 66.0679 39.3743 66.0679 41.9287 67.9221Z" fill="white"/>
<path d="M82.5666 70.8394C81.3019 69.9246 79.463 69.9246 78.1983 70.8394L74.0213 73.8638C71.4669 75.7179 67.8974 75.7179 65.3429 73.8638L61.166 70.8394C59.9013 69.9246 58.0624 69.9246 56.7977 70.8394L52.6207 73.8638C50.0663 75.7179 46.4967 75.7179 43.9423 73.8638L39.7653 70.8394C38.5006 69.9246 36.6618 69.9246 35.397 70.8394L27.975 76.2371L27.8253 76.0393V80.201H90.1467V76.3668L89.9969 76.2371L82.5666 70.8394Z" fill="white"/>
<path d="M63.3294 55.7914L63.6871 56.0551V47.2869H54.1933V56.1211L54.6426 55.7914C57.1971 53.9455 60.7666 53.9455 63.3294 55.7914Z" fill="white"/>
<defs>
<linearGradient id="paint0_linear_569_3321" x1="112.399" y1="0.73291" x2="-60.1219" y2="10.8129" gradientUnits="userSpaceOnUse">
<stop offset="0.0552457" stop-color="#0F75FC"/>
<stop offset="1" stop-color="#0DF3A8"/>
</linearGradient>
<linearGradient id="paint1_linear_569_3321" x1="6.30459" y1="0.283694" x2="98.6452" y2="111.038" gradientUnits="userSpaceOnUse">
<stop stop-color="#ECD821"/>
<stop offset="0.515625" stop-color="#FA9703"/>
<stop offset="1" stop-color="#DA6330"/>
</linearGradient>
</defs>
</svg>
