<svg width="120" height="108" viewBox="0 0 120 108" fill="none" xmlns="http://www.w3.org/2000/svg">
<path d="M6.47681 55.2289C6.47681 26.5207 30.0443 -0.217414 61.6826 3.07497C90.3907 3.07497 102.334 13.1044 113.517 54.9092C113.517 74.2482 88.8607 110.176 61.6784 104.949C32.0495 111.535 7.85561 75.8153 6.47681 55.2289Z" fill="url(#paint0_linear_740_1620)"/>
<path d="M36.6378 31.3545L6.6897 61.9658L16.2499 77.132L29.6695 99.4398L53.2598 104.543L60.0968 100.96L83.2393 77.132L87.8566 68.9851L90.552 60.0244L89.8964 47.9312L87.4194 38.6063L81.3728 29.6457L74.5977 25.7117L63.3172 24.9831L55.7294 23.7448L36.6378 31.3545Z" fill="#071737"/>
<path d="M59.6557 106.581C53.0773 106.581 46.53 106.581 39.9516 106.581C32.6906 106.581 27.2604 103.252 23.6609 97.0593C17.2687 86.0751 11.0007 74.9664 4.60848 63.9822C0.667673 57.1987 0.481493 50.5086 4.48436 43.6941C11.0937 32.3365 17.5169 20.8544 24.2194 9.55902C27.6327 3.70907 33.0319 0.815216 39.7965 0.784099C53.0152 0.721866 66.265 0.752983 79.4838 0.784099C86.3104 0.815216 91.7406 3.70907 95.216 9.59014C102.105 21.2589 108.838 33.021 115.479 44.8454C118.706 50.5709 118.768 56.6075 115.572 62.3641C110.824 70.9212 105.859 79.3539 100.988 87.8176C99.1878 90.9604 97.3881 94.1032 95.5573 97.2149C91.8958 103.376 86.4966 106.55 79.3287 106.55C72.7813 106.612 66.203 106.581 59.6557 106.581ZM59.6557 100.42C66.265 100.42 72.8744 100.42 79.5148 100.42C84.2004 100.42 87.7998 98.3662 90.1581 94.3521C96.6434 83.2123 102.973 71.9792 109.49 60.8705C112.469 55.7985 112.22 51.0999 109.273 46.1212C102.849 35.2614 96.6434 24.2461 90.3443 13.3241C88.017 9.27897 84.5727 6.97633 79.8872 6.94521C66.3892 6.88298 52.9221 6.88298 39.4241 6.94521C34.8937 6.97633 31.4494 9.21673 29.1842 13.1374C22.761 24.215 16.4619 35.3548 9.97666 46.3701C7.05985 51.3488 7.02882 56.0163 9.94563 60.995C16.4309 72.0103 22.73 83.119 29.1222 94.1965C31.4804 98.304 35.0489 100.42 39.7965 100.451C46.4369 100.42 53.0463 100.42 59.6557 100.42Z" fill="url(#paint1_linear_740_1620)"/>
<path d="M65.8746 72.2718H61.9632C61.4977 72.2718 61.1156 71.8897 61.1156 71.4242V43.8359C61.1156 43.3705 61.4977 42.9883 61.9632 42.9883H74.6075C75.073 42.9883 75.4482 42.5993 75.4273 42.1269C75.4065 41.6822 75.0244 41.3418 74.5798 41.3418H61.9563C61.4908 41.3418 61.1087 40.9597 61.1087 40.4942C61.1087 40.258 61.199 40.0357 61.3727 39.8759C61.8521 39.4382 62.1508 38.7435 62.1508 37.743C62.1508 36.3605 60.8933 34.7278 60.0944 33.8316C59.7609 33.4495 59.1634 33.4495 58.8299 33.8316C58.0379 34.7278 56.7735 36.3605 56.7735 37.743C56.7735 38.7435 57.0722 39.4313 57.5516 39.8759C57.7253 40.0357 57.8156 40.258 57.8156 40.4942C57.8156 40.9597 57.4335 41.3418 56.968 41.3418H44.3584C43.9138 41.3418 43.5317 41.6822 43.5108 42.1269C43.49 42.5993 43.8652 42.9883 44.3306 42.9883H56.975C57.4404 42.9883 57.8226 43.3705 57.8226 43.8359V71.4242C57.8226 71.8897 57.4404 72.2718 56.975 72.2718H53.0636C52.6328 72.2718 52.2854 72.6191 52.2854 73.0499V75.0577C52.2854 75.4884 52.6328 75.8358 53.0636 75.8358H57.8226H61.1156H65.8746C66.3054 75.8358 66.6527 75.4884 66.6527 75.0577V73.0499C66.6527 72.6261 66.3054 72.2718 65.8746 72.2718Z" fill="white"/>
<path d="M50.4721 57.828H38.2655C37.6611 57.828 37.1956 58.3143 37.2859 58.8632C37.8278 61.9895 40.7944 64.3794 44.3653 64.3794C47.9363 64.3794 50.9029 61.9895 51.4448 58.8632C51.542 58.3213 51.0766 57.828 50.4721 57.828Z" fill="white"/>
<path d="M80.6865 57.849H68.4798C67.8754 57.849 67.4099 58.3353 67.5003 58.8842C68.0422 62.0105 71.0087 64.4004 74.5797 64.4004C78.1507 64.4004 81.1172 62.0105 81.6591 58.8842C81.7564 58.3423 81.2909 57.849 80.6865 57.849Z" fill="white"/>
<path d="M33.5691 84.9508L31.8392 70.0902C31.735 69.1732 32.652 68.4784 33.5066 68.8258L47.3597 74.4741C48.3532 74.877 48.0962 76.3499 47.0263 76.3985L38.9325 76.7598C38.5157 76.7806 38.1544 77.0516 38.0293 77.4476L35.5074 85.1453C35.1809 86.1597 33.6941 86.0138 33.5691 84.9508Z" fill="white"/>
<path d="M81.7496 22.1391L85.272 36.6801C85.4873 37.5763 84.6676 38.3822 83.7713 38.139L69.3346 34.2207C68.2994 33.9428 68.3758 32.4491 69.4318 32.2685L77.4144 30.9207C77.8243 30.8512 78.1509 30.5385 78.2273 30.1286L79.7905 22.1808C80.0058 21.1317 81.4995 21.097 81.7496 22.1391Z" fill="white"/>
<path d="M30.5817 67.7559C31.207 67.0542 32.1101 66.6443 33.048 66.6443C33.312 66.6443 33.5691 66.6791 33.8192 66.7346C32.0962 63.0803 31.1305 58.9952 31.1305 54.6878C31.1305 39.0491 43.8096 26.37 59.4413 26.37C64.1934 26.37 68.6814 27.5442 72.6137 29.6145L76.3305 28.9892L76.7335 26.9328C71.7174 23.8064 65.7913 21.9932 59.4413 21.9932C41.3919 21.9932 26.7537 36.6314 26.7537 54.6878C26.7537 59.7455 27.9 64.5323 29.9495 68.805C30.0954 68.4229 30.3038 68.0616 30.5817 67.7559Z" fill="white"/>
<path d="M87.3283 37.611C87.2311 38.1112 87.0157 38.5906 86.6892 39.0074C86.057 39.8064 85.1121 40.2718 84.0978 40.2718C84.0005 40.2718 83.9033 40.2649 83.8129 40.2579C86.321 44.482 87.766 49.4216 87.766 54.6878C87.766 70.3264 75.087 82.9985 59.4552 82.9985C53.8834 82.9985 48.6798 81.3867 44.3029 78.6078L39.794 78.8092L39.2729 80.4002C44.817 84.7701 51.827 87.3754 59.4413 87.3754C77.4977 87.3754 92.129 72.7372 92.129 54.6878C92.136 48.4281 90.3783 42.5784 87.3283 37.611Z" fill="white"/>
<path d="M76.3514 44.4889C75.9068 44.8224 75.3788 45.0238 74.823 45.0655L78.8872 55.7646H80.6311L76.3514 44.4889Z" fill="white"/>
<path d="M42.5869 44.496L38.3142 55.7439H40.058L44.1153 45.0657C43.5665 45.024 43.0315 44.8225 42.5869 44.496Z" fill="white"/>
<path d="M46.3662 45.0725H44.6155L48.6728 55.7438H50.4166L46.3662 45.0725Z" fill="white"/>
<path d="M72.5929 45.0725L68.5356 55.7646H70.2794L74.3368 45.0725H72.5929Z" fill="white"/>
<defs>
<linearGradient id="paint0_linear_740_1620" x1="113.429" y1="2.79944" x2="-59.0715" y2="13.0488" gradientUnits="userSpaceOnUse">
<stop offset="0.0552457" stop-color="#0F75FC"/>
<stop offset="1" stop-color="#0DF3A8"/>
</linearGradient>
<linearGradient id="paint1_linear_740_1620" x1="7.06472" y1="0.748171" x2="99.4054" y2="111.503" gradientUnits="userSpaceOnUse">
<stop stop-color="#ECD821"/>
<stop offset="0.515625" stop-color="#FA9703"/>
<stop offset="1" stop-color="#DA6330"/>
</linearGradient>
</defs>
</svg>
