<svg width="118" height="107" viewBox="0 0 118 107" fill="none" xmlns="http://www.w3.org/2000/svg">
<path d="M6.44637 53.586C6.44637 24.8778 30.0138 -1.86036 61.6521 1.43202C90.3603 1.43202 106.091 22.7317 113.486 53.2663C113.486 72.6052 88.8345 110.328 61.6521 105.1C32.0232 111.687 6.44637 82.2941 6.44637 53.586Z" fill="url(#paint0_linear_569_3349)"/>
<path d="M36.1154 29.6645L7.52269 58.1955L10.3894 74.4661L23.5246 96.3932L45.9717 106L56.3922 102.742L83.6551 75.0433L79.852 75.9516L90.757 63.5153V55.9827L74.6676 35.9103L70.67 35.0587V29.5341L59.4547 28.9602L51.2028 29.5341L49.0129 27.8123L39.8686 35.9103L36.1154 29.6645Z" fill="#071737"/>
<path d="M58.9391 106.232C52.3608 106.232 45.8134 106.232 39.2351 106.232C31.9741 106.232 26.5438 102.903 22.9444 96.7103C16.5522 85.7261 10.2841 74.6174 3.89196 63.6332C-0.048849 56.8497 -0.235029 50.1596 3.76784 43.3451C10.3772 31.9875 16.8004 20.5054 23.5029 9.21002C26.9162 3.36007 32.3154 0.466217 39.0799 0.4351C52.2987 0.372867 65.5485 0.403984 78.7673 0.4351C85.5939 0.466217 91.0241 3.36007 94.4995 9.24114C101.388 20.9099 108.122 32.672 114.762 44.4964C117.989 50.2219 118.051 56.2585 114.855 62.0151C110.108 70.5722 105.143 79.0049 100.271 87.4686C98.4713 90.6114 96.6716 93.7542 94.8408 96.8659C91.1793 103.027 85.7801 106.201 78.6121 106.201C72.0648 106.263 65.4865 106.232 58.9391 106.232ZM58.9391 100.071C65.5485 100.071 72.1579 100.071 78.7983 100.071C83.4838 100.071 87.0833 98.0172 89.4416 94.0031C95.9269 82.8633 102.257 71.6302 108.773 60.5215C111.752 55.4495 111.504 50.7509 108.556 45.7722C102.133 34.9124 95.9269 23.8971 89.6278 12.9751C87.3005 8.92997 83.8562 6.62733 79.1707 6.59621C65.6726 6.53398 52.2056 6.53398 38.7076 6.59621C34.1772 6.62733 30.7329 8.86774 28.4677 12.7884C22.0445 23.866 15.7454 35.0058 9.26014 46.0211C6.34333 50.9998 6.31229 55.6673 9.22911 60.646C15.7144 71.6613 22.0135 82.77 28.4056 93.8475C30.7639 97.955 34.3324 100.071 39.0799 100.102C45.7204 100.071 52.3297 100.071 58.9391 100.071Z" fill="url(#paint1_linear_569_3349)"/>
<path fill-rule="evenodd" clip-rule="evenodd" d="M92.4163 52.7249C92.4163 70.8827 77.6965 85.6024 59.5387 85.6024C41.381 85.6024 26.6612 70.8827 26.6612 52.7249C26.6612 34.5672 41.381 19.8474 59.5387 19.8474C77.6965 19.8474 92.4163 34.5672 92.4163 52.7249ZM52.8196 32.477C52.8196 31.3725 53.715 30.477 54.8196 30.477H64.258C65.3626 30.477 66.258 31.3725 66.258 32.477V46.0061H79.7868C80.8914 46.0061 81.7868 46.9015 81.7868 48.0061V57.4445C81.7868 58.5491 80.8914 59.4445 79.7868 59.4445H66.258V72.9732C66.258 74.0778 65.3626 74.9732 64.258 74.9732H54.8196C53.715 74.9732 52.8196 74.0778 52.8196 72.9732V59.4445H39.2906C38.1861 59.4445 37.2906 58.5491 37.2906 57.4445L37.2906 48.0061C37.2906 46.9015 38.1861 46.0061 39.2906 46.0061H52.8196V32.477Z" fill="white"/>
<defs>
<linearGradient id="paint0_linear_569_3349" x1="113.399" y1="1.15649" x2="-59.124" y2="11.2185" gradientUnits="userSpaceOnUse">
<stop offset="0.0552457" stop-color="#0F75FC"/>
<stop offset="1" stop-color="#0DF3A8"/>
</linearGradient>
<linearGradient id="paint1_linear_569_3349" x1="6.3482" y1="0.399172" x2="98.6889" y2="111.154" gradientUnits="userSpaceOnUse">
<stop stop-color="#ECD821"/>
<stop offset="0.515625" stop-color="#FA9703"/>
<stop offset="1" stop-color="#DA6330"/>
</linearGradient>
</defs>
</svg>
