<svg width="119" height="109" viewBox="0 0 119 109" fill="none" xmlns="http://www.w3.org/2000/svg">
<path d="M31.6938 4.7956L87.7505 4.7956L115.779 53.3422L87.7505 101.889L31.6938 101.889L3.66541 53.3422L31.6938 4.7956Z" fill="url(#paint0_linear_731_2922)"/>
<path d="M39.1458 22.3513L5.07275 53.3471L10.6259 74.8419L24.4054 95.5111L46.0341 104.768L59.1995 103.88L84.809 80.1504L78.6794 75.8147L79.2682 68.2073L87.7976 50.5693L86.8502 49.632L83.2409 53.011L73.6839 37.2332V36.1442L69.1426 31.3333L56.387 29.7571L51.0746 31.0894L49.923 33.2482L51.6479 30.5364L39.1458 22.3513Z" fill="#071737"/>
<path d="M59.1224 106.849C52.5441 106.849 45.9968 106.849 39.4184 106.849C32.1574 106.849 26.7272 103.52 23.1277 97.3275C16.7355 86.3433 10.4675 75.2346 4.07528 64.2504C0.13447 57.4669 -0.0517099 50.7768 3.95116 43.9623C10.5605 32.6047 16.9837 21.1226 23.6862 9.82721C27.0995 3.97726 32.4987 1.0834 39.2633 1.05229C52.482 0.990054 65.7318 1.02117 78.9506 1.05229C85.7772 1.0834 91.2074 3.97726 94.6828 9.85833C101.571 21.5271 108.305 33.2892 114.945 45.1136C118.172 50.8391 118.235 56.8757 115.038 62.6323C110.291 71.1894 105.326 79.622 100.454 88.0858C98.6546 91.2286 96.8549 94.3714 95.0241 97.4831C91.3626 103.644 85.9634 106.818 78.7955 106.818C72.2481 106.88 65.6698 106.849 59.1224 106.849ZM59.1224 100.688C65.7318 100.688 72.3412 100.688 78.9816 100.688C83.6672 100.688 87.2666 98.6344 89.6249 94.6203C96.1102 83.4805 102.44 72.2474 108.957 61.1387C111.935 56.0667 111.687 51.3681 108.739 46.3894C102.316 35.5296 96.1102 24.5143 89.8111 13.5923C87.4838 9.54716 84.0395 7.24452 79.354 7.2134C65.8559 7.15117 52.3889 7.15117 38.8909 7.2134C34.3605 7.24452 30.9162 9.48492 28.651 13.4056C22.2278 24.4832 15.9287 35.623 9.44346 46.6383C6.52664 51.617 6.49561 56.2845 9.41243 61.2632C15.8977 72.2785 22.1968 83.3872 28.589 94.4647C30.9472 98.5721 34.5157 100.688 39.2633 100.719C45.9037 100.688 52.5131 100.688 59.1224 100.688Z" fill="url(#paint1_linear_731_2922)"/>
<path d="M93.5809 49.0721L91.2841 52.6116C90.9956 53.0666 90.3409 53.0444 90.0413 52.6227L88.2771 50.0374L86.8901 52.3897C86.8679 51.5353 86.7903 50.681 86.6682 49.8488L87.5892 48.2843C87.8666 47.8183 88.5323 47.785 88.843 48.2399L90.6405 50.8585L92.3271 48.251C92.549 47.907 93.015 47.8072 93.359 48.0291C93.7029 48.2621 93.7917 48.7281 93.5809 49.0721Z" fill="white"/>
<path d="M41.453 59.8355C41.8081 59.9909 42.03 60.4014 41.9079 60.7676C41.7637 61.1892 41.2977 61.3889 40.9093 61.2225L34.3184 58.3598C35.2283 61.8882 37.048 65.2059 39.6333 68.0131C39.8441 68.2461 39.8885 68.579 39.7442 68.8675L34.1964 79.4307C34.0188 79.7746 34.1298 80.1963 34.4627 80.4071L37.4363 82.2823C37.7581 82.482 38.1797 82.4154 38.4128 82.1158L45.3809 73.3613C45.6028 73.0839 46.0023 72.9951 46.3129 73.1726C54.4462 77.5444 64.5988 77.5555 72.7431 73.1726C73.0649 72.9951 73.4643 73.0728 73.6862 73.3613L80.6544 82.1158C80.8874 82.4154 81.309 82.482 81.6308 82.2823L84.6045 80.4071C84.9374 80.1963 85.0483 79.7746 84.8708 79.4307L79.3229 68.8675C79.1786 68.5901 79.223 68.2461 79.4339 68.0131C90.7405 55.719 85.2924 37.0892 69.0149 31.2972L63.9996 41.2945L70.1467 50.0047C70.3575 50.3042 70.3242 50.7037 70.069 50.9589L55.3893 65.7496C54.8345 66.3044 53.9025 65.7274 54.1577 64.984L59.1397 50.6149L51.3393 42.2376C51.1285 42.0157 51.0841 41.6939 51.2062 41.4165L56.6209 29.7327C55.3338 29.7992 53.6362 29.9879 52.7929 30.1543C52.6154 30.1876 52.4267 30.1543 52.2714 30.0655L38.9564 22.2097L40.4211 36.9005C40.4433 37.1224 40.3656 37.3444 40.2103 37.4997C38.8011 38.92 37.6028 40.4956 36.6152 42.171C36.1492 42.9588 35.2948 43.4581 34.3739 43.4581H27.4834C27.0729 43.4581 26.74 43.791 26.74 44.2016V52.6565C26.74 52.945 26.9064 53.2002 27.1616 53.3223C35.4502 57.3057 30.8787 55.2308 41.453 59.8355Z" fill="white"/>
<path d="M41.4974 43.591C42.3074 43.1361 42.9398 41.9489 42.8511 41.0279C42.7179 39.7075 41.3975 40.4398 40.7984 41.5827C40.1992 42.7034 40.3323 44.2346 41.4974 43.591Z" fill="white"/>
<defs>
<linearGradient id="paint0_linear_731_2922" x1="80.1611" y1="-23.187" x2="-71.1874" y2="76.1193" gradientUnits="userSpaceOnUse">
<stop offset="0.0552457" stop-color="#0F75FC"/>
<stop offset="1" stop-color="#0DF3A8"/>
</linearGradient>
<linearGradient id="paint1_linear_731_2922" x1="6.53152" y1="1.01636" x2="98.8722" y2="111.771" gradientUnits="userSpaceOnUse">
<stop stop-color="#ECD821"/>
<stop offset="0.515625" stop-color="#FA9703"/>
<stop offset="1" stop-color="#DA6330"/>
</linearGradient>
</defs>
</svg>
