<svg width="118" height="107" viewBox="0 0 118 107" fill="none" xmlns="http://www.w3.org/2000/svg">
<path d="M6.44637 53.586C6.44637 24.8778 30.0138 -1.86036 61.6521 1.43202C90.3603 1.43202 106.091 22.7317 113.486 53.2663C113.486 72.6052 88.8345 110.328 61.6521 105.1C32.0232 111.687 6.44637 82.2941 6.44637 53.586Z" fill="url(#paint0_linear_569_3385)"/>
<path d="M35.802 26.1097L6.44638 57.5571L10.56 71.7387L23.8759 93.9591L33.72 101.116L44.893 103.571L61.2822 103.085L79.9913 83.8858V73.1561L86.9349 65.012L89.6783 53.5533L85.8399 43.4773L78.4389 37.4229L80.2311 35.1527L79.061 32.0704L69.5913 32.6293L65.3338 30.2393L58.376 26.5308L50.1241 27.1048L47.9342 25.3829L38.7899 33.481L35.802 26.1097Z" fill="#071737"/>
<path d="M58.9491 106.402C52.3708 106.402 45.8234 106.402 39.2451 106.402C31.9841 106.402 26.5538 103.073 22.9543 96.8807C16.5622 85.8965 10.2941 74.7878 3.90194 63.8036C-0.0388697 57.0202 -0.22505 50.3301 3.77782 43.5155C10.3872 32.1579 16.8104 20.6758 23.5129 9.38043C26.9262 3.53048 32.3254 0.636627 39.0899 0.605511C52.3087 0.543277 65.5585 0.574394 78.7773 0.605511C85.6039 0.636627 91.0341 3.53048 94.5095 9.41155C101.398 21.0803 108.132 32.8425 114.772 44.6668C117.999 50.3923 118.061 56.4289 114.865 62.1855C110.118 70.7426 105.153 79.1753 100.281 87.639C98.4813 90.7818 96.6815 93.9246 94.8508 97.0363C91.1892 103.197 85.79 106.371 78.6221 106.371C72.0748 106.434 65.4964 106.402 58.9491 106.402ZM58.9491 100.241C65.5585 100.241 72.1679 100.241 78.8083 100.241C83.4938 100.241 87.0933 98.1876 89.4516 94.1735C95.9368 83.0338 102.267 71.8006 108.783 60.6919C111.762 55.6199 111.514 50.9213 108.566 45.9426C102.143 35.0829 95.9368 24.0675 89.6378 13.1456C87.3105 9.10038 83.8662 6.79774 79.1806 6.76662C65.6826 6.70439 52.2156 6.70439 38.7176 6.76662C34.1872 6.79774 30.7429 9.03815 28.4777 12.9589C22.0545 24.0364 15.7554 35.1762 9.27012 46.1915C6.3533 51.1702 6.32227 55.8377 9.23909 60.8164C15.7244 71.8317 22.0234 82.9404 28.4156 94.018C30.7739 98.1254 34.3423 100.241 39.0899 100.272C45.7303 100.241 52.3397 100.241 58.9491 100.241Z" fill="url(#paint1_linear_569_3385)"/>
<path fill-rule="evenodd" clip-rule="evenodd" d="M66.7383 37.8443C67.5591 37.6167 68.3606 37.3448 69.1422 37.0291L66.7383 37.8443ZM61.3642 41.1514C61.3642 41.523 61.3538 41.8843 61.3432 42.2553L61.3424 42.2863C61.3205 43.6613 61.2987 45.0908 61.2987 46.4985C61.2878 50.4707 61.5715 53.6463 62.1935 56.4945C63.0993 60.6194 64.8235 63.926 67.4752 66.5886C69.7778 68.9021 72.7133 70.7136 76.4781 72.1322C76.9146 71.9249 77.3621 71.7285 77.7877 71.543C79.0099 70.9973 80.1775 70.4735 81.2797 69.8406C84.6844 67.8872 87.2707 65.17 88.9731 61.7653C90.5227 58.677 91.3629 55.0977 91.5484 50.8199C91.6494 48.6184 91.6383 46.3702 91.6274 44.179L91.6248 43.6503C91.6248 43.2384 91.6221 42.8237 91.6194 42.4063L91.6194 42.4058C91.6167 41.9831 91.6139 41.5577 91.6139 41.1295C91.5976 41.1295 91.5839 41.1268 91.5703 41.1241C91.5566 41.1213 91.543 41.1186 91.5266 41.1186C91.3475 41.0987 91.1672 41.0794 90.9861 41.06L90.9857 41.0599C90.3729 40.9942 89.7516 40.9275 89.1368 40.8349C84.4007 40.1801 80.1448 38.3468 76.5 35.3677C73.1171 38.1395 69.2213 39.9182 64.8999 40.6712C63.8632 40.8458 62.8156 40.9768 61.7898 41.0968H61.7898H61.7898C61.6479 41.1186 61.506 41.1404 61.3642 41.1514ZM74.2735 59.9093C74.4911 60.1389 74.7848 60.2592 75.1002 60.2592C75.4048 60.2592 75.7094 60.1389 75.9378 59.9093L86.0321 49.7606C86.489 49.3013 86.489 48.5467 86.0321 48.0874C85.5753 47.6281 84.8247 47.6281 84.3678 48.0874L75.1002 57.4049L70.0966 52.3743C69.6397 51.915 68.8892 51.915 68.4323 52.3743C67.9754 52.8337 67.9754 53.5882 68.4323 54.0476L74.2735 59.9093Z" fill="white"/>
<path fill-rule="evenodd" clip-rule="evenodd" d="M35.2827 27.3828C35.2827 26.2782 36.1781 25.3828 37.2827 25.3828H78.2317C79.3363 25.3828 80.2317 26.2782 80.2317 27.3828V35.1621C79.3555 34.6066 78.5112 33.9875 77.7003 33.3052C76.6964 32.4649 75.8343 32.8469 75.2887 33.3052C72.1567 35.946 68.5338 37.6484 64.4961 38.3468C63.572 38.5129 62.648 38.6198 61.6676 38.7332L61.517 38.7506L61.251 38.7813L61.2508 38.7814C60.8635 38.826 60.4646 38.872 60.0656 38.9252C59.4981 38.9907 59.0725 39.4599 59.0398 40.0274C59.0289 40.071 59.0289 40.1146 59.0289 40.1583V40.1583C59.018 40.2674 59.0071 40.3984 59.0071 40.5293C59.0071 41.0968 58.9961 41.6752 58.9852 42.2426C58.9634 43.6285 58.9416 45.0581 58.9416 46.4767C58.9307 50.6235 59.2253 53.9628 59.891 56.9856C60.8949 61.5688 62.8265 65.2464 65.8056 68.2474C68.4028 70.8664 71.7202 72.8961 75.9325 74.4457C76.1071 74.5112 76.2926 74.5439 76.489 74.5439C76.7509 74.5439 77.0238 74.4894 77.2638 74.3693C77.7549 74.1402 78.2569 73.911 78.748 73.6928L78.841 73.6508C79.3021 73.4427 79.7673 73.2328 80.2317 73.0152V82.8129C80.2317 83.9174 79.3363 84.8129 78.2317 84.8129H44.8157C44.8496 84.7032 44.8679 84.5866 44.8679 84.4658V76.6908C44.8679 76.0422 44.342 75.5164 43.6934 75.5164H35.735C35.5747 75.5164 35.4219 75.5485 35.2827 75.6066L35.2827 27.3828ZM76.5 35.3677C77.6812 36.3332 78.9266 37.1783 80.2317 37.902V52.2458L75.1002 57.4049L70.0966 52.3743C69.6397 51.915 68.8892 51.915 68.4323 52.3743C67.9754 52.8337 67.9754 53.5882 68.4323 54.0476L74.2735 59.9093C74.4911 60.1389 74.7848 60.2592 75.1002 60.2592C75.4048 60.2592 75.7094 60.1389 75.9378 59.9093L80.2317 55.5922V70.4039C79.4453 70.8018 78.6294 71.1672 77.7876 71.543C77.3621 71.7285 76.9146 71.9249 76.4781 72.1322C72.7133 70.7136 69.7778 68.9021 67.4752 66.5886C64.8235 63.926 63.0993 60.6194 62.1935 56.4945C61.5715 53.6463 61.2878 50.4707 61.2987 46.4985C61.2987 45.0908 61.3205 43.6613 61.3424 42.2863L61.3432 42.2553C61.3538 41.8843 61.3642 41.523 61.3642 41.1514C61.506 41.1404 61.6479 41.1186 61.7898 41.0968C62.8155 40.9768 63.8632 40.8458 64.8999 40.6712C69.2212 39.9182 73.1171 38.1395 76.5 35.3677ZM42.519 77.8652H36.0691L38.722 80.521L42.4236 84.2264C42.4545 84.2573 42.4863 84.2871 42.519 84.3158L42.519 77.8652ZM54.6745 36.5573H41.1865C40.5317 36.5573 40.0079 36.0335 40.0079 35.3788C40.0079 34.724 40.5317 34.2002 41.1865 34.2002H54.6636C55.3183 34.2002 55.8421 34.724 55.8421 35.3788C55.8421 36.0335 55.3183 36.5573 54.6745 36.5573ZM41.1865 42.6794H51.8808C52.5247 42.6794 53.0485 42.1556 53.0485 41.5008C53.0485 40.8461 52.5247 40.3223 51.8699 40.3223H41.1865C40.5317 40.3223 40.0079 40.8461 40.0079 41.5008C40.0079 42.1556 40.5317 42.6794 41.1865 42.6794ZM51.8808 49.3576H41.1865C40.5317 49.3576 40.0079 48.8338 40.0079 48.179C40.0079 47.5243 40.5317 47.0005 41.1865 47.0005H51.8699C52.5247 47.0005 53.0485 47.5243 53.0485 48.179C53.0485 48.8338 52.5247 49.3576 51.8808 49.3576ZM41.1865 56.2763H51.8808C52.5247 56.2763 53.0485 55.7525 53.0485 55.0977C53.0485 54.443 52.5247 53.9192 51.8699 53.9192H41.1865C40.5317 53.9192 40.0079 54.443 40.0079 55.0977C40.0079 55.7525 40.5317 56.2763 41.1865 56.2763ZM54.6745 62.6166H41.1865C40.5317 62.6166 40.0079 62.0928 40.0079 61.4381C40.0079 60.7833 40.5317 60.2595 41.1865 60.2595H54.6636C55.3183 60.2595 55.8421 60.7833 55.8421 61.4381C55.8421 62.0928 55.3183 62.6166 54.6745 62.6166ZM41.1865 68.9894H57.7627C58.4066 68.9894 58.9413 68.4656 58.9413 67.8109C58.9413 67.1561 58.4175 66.6323 57.7627 66.6323H41.1865C40.5427 66.6323 40.0079 67.1561 40.0079 67.8109C40.0079 68.4656 40.5317 68.9894 41.1865 68.9894Z" fill="white"/>
<defs>
<linearGradient id="paint0_linear_569_3385" x1="113.399" y1="1.15649" x2="-59.124" y2="11.2185" gradientUnits="userSpaceOnUse">
<stop offset="0.0552457" stop-color="#0F75FC"/>
<stop offset="1" stop-color="#0DF3A8"/>
</linearGradient>
<linearGradient id="paint1_linear_569_3385" x1="6.35818" y1="0.569583" x2="98.6988" y2="111.324" gradientUnits="userSpaceOnUse">
<stop stop-color="#ECD821"/>
<stop offset="0.515625" stop-color="#FA9703"/>
<stop offset="1" stop-color="#DA6330"/>
</linearGradient>
</defs>
</svg>
