<svg width="118" height="107" viewBox="0 0 118 107" fill="none" xmlns="http://www.w3.org/2000/svg">
<path d="M6.44637 53.586C6.44637 24.8778 30.0138 -1.86036 61.6521 1.43202C90.3603 1.43202 106.091 22.7317 113.486 53.2663C113.486 72.6052 88.8345 110.328 61.6521 105.1C32.0232 111.687 6.44637 82.2941 6.44637 53.586Z" fill="url(#paint0_linear_569_3333)"/>
<path d="M29.2954 33.7268L5.55661 57.803L9.67019 71.9846L22.9861 94.2049L44.0032 103.816L61.1734 102.611L87.3761 75.9774L77.8836 73.7681L88.7886 61.3318V53.7992L72.6991 33.7268L68.7015 32.8752L64.4441 30.4851L57.4863 26.7767L49.2343 27.3506L47.0444 25.6288L37.9002 33.7268H29.2954Z" fill="#071737"/>
<path d="M58.9391 106.278C52.3608 106.278 45.8134 106.278 39.2351 106.278C31.9741 106.278 26.5438 102.949 22.9444 96.7567C16.5522 85.7725 10.2841 74.6638 3.89196 63.6796C-0.048849 56.8961 -0.235029 50.206 3.76784 43.3915C10.3772 32.0339 16.8004 20.5518 23.5029 9.25641C26.9162 3.40646 32.3154 0.512604 39.0799 0.481487C52.2987 0.419254 65.5485 0.45037 78.7673 0.481487C85.5939 0.512604 91.0241 3.40646 94.4995 9.28752C101.388 20.9563 108.122 32.7184 114.762 44.5428C117.989 50.2683 118.051 56.3049 114.855 62.0615C110.108 70.6186 105.143 79.0512 100.271 87.515C98.4713 90.6578 96.6716 93.8006 94.8408 96.9123C91.1793 103.073 85.7801 106.247 78.6121 106.247C72.0648 106.31 65.4865 106.278 58.9391 106.278ZM58.9391 100.117C65.5485 100.117 72.1579 100.117 78.7983 100.117C83.4838 100.117 87.0833 98.0636 89.4416 94.0495C95.9269 82.9097 102.257 71.6766 108.773 60.5679C111.752 55.4959 111.504 50.7973 108.556 45.8186C102.133 34.9588 95.9269 23.9435 89.6278 13.0215C87.3005 8.97636 83.8562 6.67372 79.1707 6.6426C65.6726 6.58037 52.2056 6.58037 38.7076 6.6426C34.1772 6.67372 30.7329 8.91412 28.4677 12.8348C22.0445 23.9124 15.7454 35.0522 9.26014 46.0675C6.34333 51.0462 6.3123 55.7137 9.22911 60.6924C15.7144 71.7077 22.0135 82.8164 28.4056 93.8939C30.7639 98.0013 34.3324 100.117 39.0799 100.148C45.7204 100.117 52.3297 100.117 58.9391 100.117Z" fill="url(#paint1_linear_569_3333)"/>
<path fill-rule="evenodd" clip-rule="evenodd" d="M67.8082 30.1352L51.2621 24.3441C49.8723 23.8477 48.35 23.8477 46.9602 24.311L33.7564 28.7453C31.076 29.6719 29.2559 32.1869 29.2559 35.0328V74.2469C29.2559 78.9129 33.9219 82.0897 38.2569 80.4021L47.9529 76.6296C48.6809 76.3317 49.5082 76.3317 50.2363 76.5965L66.7823 82.3876C68.1722 82.884 69.6944 82.884 71.0843 82.4207L84.288 77.9863C86.9685 77.0928 88.7886 74.5448 88.7886 71.6988V32.4847C88.7886 27.8187 84.1226 24.6419 79.7875 26.3296L70.0915 30.1021C69.3635 30.3668 68.5693 30.3999 67.8082 30.1352ZM67.9664 75.8149L49.1111 69.1841V30.5657L49.1111 30.5657V31.6257V69.1841L67.9664 75.8149ZM68.9664 76.1665L67.9664 75.8149L68.9664 76.1666L68.9664 76.1665ZM68.6346 77.1099L69.9664 77.5783V76.1666V37.5481V36.8397L69.2981 36.6047L49.4429 29.6223L48.1111 29.154V30.5657V69.1841V69.8925L48.7794 70.1275L68.6346 77.1099Z" fill="white"/>
<path fill-rule="evenodd" clip-rule="evenodd" d="M50.8726 50.1752C50.8726 45.6605 54.524 42.009 59.0387 42.009C63.5534 42.009 67.2049 45.6605 67.2049 50.1752C67.2049 55.0399 62.0485 61.7478 59.937 64.3026C59.4704 64.8626 58.6187 64.8626 58.1521 64.3026C56.0289 61.7478 50.8726 55.0399 50.8726 50.1752ZM56.1222 50.1753C56.1222 51.7852 57.4288 53.0917 59.0387 53.0917C60.6486 53.0917 61.9552 51.7852 61.9552 50.1753C61.9552 48.5654 60.6486 47.2588 59.0387 47.2588C57.4288 47.2588 56.1222 48.5654 56.1222 50.1753Z" fill="white"/>
<defs>
<linearGradient id="paint0_linear_569_3333" x1="113.399" y1="1.15649" x2="-59.124" y2="11.2185" gradientUnits="userSpaceOnUse">
<stop offset="0.0552457" stop-color="#0F75FC"/>
<stop offset="1" stop-color="#0DF3A8"/>
</linearGradient>
<linearGradient id="paint1_linear_569_3333" x1="6.3482" y1="0.445559" x2="98.6889" y2="111.2" gradientUnits="userSpaceOnUse">
<stop stop-color="#ECD821"/>
<stop offset="0.515625" stop-color="#FA9703"/>
<stop offset="1" stop-color="#DA6330"/>
</linearGradient>
</defs>
</svg>
