<svg width="117" height="107" viewBox="0 0 117 107" fill="none" xmlns="http://www.w3.org/2000/svg">
<path d="M5.44637 53.586C5.44637 24.8778 29.0138 -1.86036 60.6521 1.43202C89.3603 1.43202 105.091 22.7317 112.486 53.2663C112.486 72.6052 87.8345 110.328 60.6521 105.1C31.0232 111.687 5.44637 82.2941 5.44637 53.586Z" fill="url(#paint0_linear_569_3238)"/>
<path d="M47.1586 30.7453L10.2006 67.528L10.2006 74.5012L23.3357 96.4283L45.7828 106.035L61.9148 105.658L84.9348 82.509L79.6632 75.9867L82.1891 65.6358L93.5352 54.3719L74.4787 35.9454L80.9188 28.9952L74.4787 30.6173L57.3598 23.812L51.0139 29.5692L49.8188 31.8096L53.2616 28.4421L47.1586 30.7453Z" fill="#071737"/>
<path d="M58.4241 106.362C51.8457 106.362 45.2984 106.362 38.72 106.362C31.459 106.362 26.0288 103.033 22.4293 96.8404C16.0371 85.8562 9.76907 74.7475 3.3769 63.7633C-0.563909 56.9799 -0.750089 50.2898 3.25278 43.4752C9.86216 32.1176 16.2854 20.6355 22.9878 9.34015C26.4011 3.4902 31.8004 0.596344 38.5649 0.565227C51.7837 0.502994 65.0335 0.534111 78.2522 0.565227C85.0788 0.596344 90.5091 3.4902 93.9844 9.37126C100.873 21.04 107.607 32.8022 114.247 44.6265C117.474 50.352 117.536 56.3887 114.34 62.1453C109.592 70.7024 104.628 79.135 99.756 87.5987C97.9563 90.7415 96.1565 93.8843 94.3257 96.996C90.6642 103.157 85.265 106.331 78.0971 106.331C71.5497 106.393 64.9714 106.362 58.4241 106.362ZM58.4241 100.201C65.0335 100.201 71.6428 100.201 78.2832 100.201C82.9688 100.201 86.5683 98.1473 88.9265 94.1333C95.4118 82.9935 101.742 71.7603 108.258 60.6517C111.237 55.5796 110.989 50.881 108.041 45.9023C101.618 35.0426 95.4118 24.0272 89.1127 13.1053C86.7855 9.0601 83.3411 6.75746 78.6556 6.72634C65.1576 6.66411 51.6906 6.66411 38.1925 6.72634C33.6622 6.75746 30.2178 8.99786 27.9526 12.9186C21.5294 23.9961 15.2303 35.1359 8.74508 46.1513C5.82826 51.1299 5.79723 55.7974 8.71405 60.7761C15.1993 71.7914 21.4984 82.9001 27.8906 93.9777C30.2489 98.0851 33.8173 100.201 38.5649 100.232C45.2053 100.201 51.8147 100.201 58.4241 100.201Z" fill="url(#paint1_linear_569_3238)"/>
<path d="M85.0396 53.7095C85.0109 53.4517 84.9059 53.2035 84.7054 53.0125L60.6936 29.0007C60.2353 28.5424 59.5001 28.5424 59.0418 29.0007L34.9345 53.1176C34.82 53.2321 34.734 53.3658 34.6767 53.5186C34.5908 53.6904 34.5431 53.8814 34.5431 54.0819V81.8649C34.5431 82.581 35.1159 83.1539 35.832 83.1539H51.2225V61.8535C51.2225 61.1374 51.7953 60.5646 52.5114 60.5646H67.119C67.835 60.5646 68.4079 61.1374 68.4079 61.8535V83.1539H83.7984C84.5145 83.1539 85.0873 82.581 85.0873 81.8649V54.0819C85.0873 53.9482 85.0682 53.8241 85.0396 53.7095Z" fill="white"/>
<path d="M93.4795 51.4182L84.018 41.9566V32.5142C84.629 32.4092 85.0873 31.8841 85.0873 31.2444V29.0962C85.0873 28.3801 84.5145 27.8073 83.7984 27.8073H69.8591L61.3428 19.2719C61.2855 19.2146 61.2187 19.1573 61.1518 19.1L60.9895 18.9377C60.684 18.6322 60.2639 18.5081 59.8056 18.5367C59.3569 18.5081 58.9273 18.6322 58.6218 18.9377L58.4595 19.1C58.3926 19.1573 58.3353 19.205 58.2685 19.2719L26.1509 51.4182C25.3107 52.2583 25.1675 53.4709 25.8167 54.1296L27.1915 55.5045C27.8503 56.1632 29.0628 56.0105 29.903 55.1703L59.8152 25.2486L89.7274 55.1608C90.5675 56.0009 91.7801 56.1441 92.4388 55.4949L93.8137 54.1201C94.4724 53.4709 94.3197 52.2583 93.4795 51.4182Z" fill="white"/>
<defs>
<linearGradient id="paint0_linear_569_3238" x1="112.399" y1="1.15649" x2="-60.124" y2="11.2185" gradientUnits="userSpaceOnUse">
<stop offset="0.0552457" stop-color="#0F75FC"/>
<stop offset="1" stop-color="#0DF3A8"/>
</linearGradient>
<linearGradient id="paint1_linear_569_3238" x1="5.83314" y1="0.529299" x2="98.1738" y2="111.284" gradientUnits="userSpaceOnUse">
<stop stop-color="#ECD821"/>
<stop offset="0.515625" stop-color="#FA9703"/>
<stop offset="1" stop-color="#DA6330"/>
</linearGradient>
</defs>
</svg>
